<?xml version="1.0" encoding="utf-8"?>
<!-- Generator: Adobe Illustrator 14.0.0, SVG Export Plug-In . SVG Version: 6.00 Build 43363)  -->
<!DOCTYPE svg PUBLIC "-//W3C//DTD SVG 1.1//EN" "http://www.w3.org/Graphics/SVG/1.1/DTD/svg11.dtd">
<svg version="1.1" id="レイヤー_1" xmlns="http://www.w3.org/2000/svg" xmlns:xlink="http://www.w3.org/1999/xlink" x="0px"
	 y="0px" width="283.46px" height="113.39px" viewBox="0 0 283.46 113.39" enable-background="new 0 0 283.46 113.39"
	 xml:space="preserve">
<path fill="none" stroke="#71C7D5" d="M266.493,64.756c-0.223-0.188-0.451-0.368-0.688-0.536v-6.207
	c0-3.244-0.287-8.092-2.779-12.717c-2.084-3.867-7.297-10.354-18.783-10.354c-3.369,0-74.801,0.053-77.422,0.053l-0.063-0.085
	c-1.49-3.646-3.82-7.21-7.131-10.521c-5.686-5.683-13.082-8.813-20.824-8.813c-7.723,0-15.092,3.115-20.745,8.77
	c-1.898,1.896-3.525,4.049-4.84,6.385c-3.758,0.768-7.361,2.195-10.678,4.227l-0.063,0.037c-2.799,0-78.479,0-78.479,0
	c-6.104,0-10.731,4.756-10.731,12.179c0,2.279,0,27.649,0,27.649c0,5.917,4.814,10.731,10.731,10.731l70.052-0.002l0.09,0.155
	c0.793,0.962,1.642,1.896,2.545,2.799c6.565,6.566,15.068,10.184,23.939,10.184h0.002c8.703,0,16.996-3.498,23.346-9.851
	c0.932-0.932,1.867-2.071,2.768-3.287c0,0,41.732-0.012,42.016-0.034c0.314,3.126,1.99,6.086,4.807,7.938
	c4.479,2.923,10.426,4.6,16.316,4.6c9.297,0,17.24-4.326,21.227-11.539c0.416-0.744,0.791-1.523,1.125-2.343
	c2.838,1.396,6.098,2.133,9.59,2.133c3.303,0,6.521-0.63,9.506-1.845c1.838,0.752,3.881,1.144,6.064,1.144
	c1.717,0,3.324-0.206,4.891-0.624c4.709-1.24,7.996-5.508,7.996-10.377v-1.669C270.278,69.778,268.897,66.796,266.493,64.756z"/>
</svg>
