<?xml version="1.0" encoding="utf-8"?>
<!-- Generator: Adobe Illustrator 14.0.0, SVG Export Plug-In . SVG Version: 6.00 Build 43363)  -->
<!DOCTYPE svg PUBLIC "-//W3C//DTD SVG 1.1//EN" "http://www.w3.org/Graphics/SVG/1.1/DTD/svg11.dtd">
<svg version="1.1" id="レイヤー_1" xmlns="http://www.w3.org/2000/svg" xmlns:xlink="http://www.w3.org/1999/xlink" x="0px"
	 y="0px" width="283.46px" height="113.39px" viewBox="0 0 283.46 113.39" enable-background="new 0 0 283.46 113.39"
	 xml:space="preserve">
<path fill="none" stroke="#71C7D5" d="M261.333,73.001c-0.028-3.116-1.406-6.063-3.805-8.104c-0.217-0.184-0.439-0.357-0.669-0.521
	v-6.207c0-3.247-0.288-8.099-2.777-12.711c-2.083-3.87-7.292-10.361-18.783-10.361c-3.376,0-77.51,0.055-77.51,0.055
	c-1.49-3.657-3.807-7.233-7.125-10.553c-5.686-5.683-13.08-8.813-20.824-8.813c-7.724,0-15.091,3.115-20.743,8.768
	c-1.897,1.896-3.525,4.049-4.842,6.386c-3.741,0.765-7.325,2.193-10.631,4.212H32.945c-6.054,0-10.731,6.023-10.731,12.143
	c0,2.076,0,27.683,0,27.683c0,5.917,4.814,10.731,10.731,10.731l14.326,0.002l37.777,0.002c0.836,1.03,1.712,2.041,2.675,3.004
	c6.566,6.565,15.068,10.182,23.939,10.183c0.001,0,0.002,0,0.002,0c8.705,0,16.997-3.499,23.347-9.852
	c1.05-1.051,2.018-2.17,2.919-3.335h41.897c0.323,3.114,1.984,6.063,4.786,7.9c4.48,2.925,10.429,4.602,16.319,4.602
	c9.297,0,17.238-4.327,21.225-11.539c0.42-0.751,0.783-1.55,1.12-2.375c2.843,1.403,6.099,2.165,9.598,2.165
	c3.303,0,6.522-0.63,9.508-1.846c1.838,0.752,3.88,1.144,6.063,1.144c1.708,0,3.312-0.205,4.943-0.637
	c4.678-1.259,7.944-5.521,7.944-10.364V73.001z"/>
</svg>
