<?xml version="1.0" encoding="utf-8"?>
<!-- Generator: Adobe Illustrator 14.0.0, SVG Export Plug-In . SVG Version: 6.00 Build 43363)  -->
<!DOCTYPE svg PUBLIC "-//W3C//DTD SVG 1.1//EN" "http://www.w3.org/Graphics/SVG/1.1/DTD/svg11.dtd">
<svg version="1.1" id="レイヤー_1" xmlns="http://www.w3.org/2000/svg" xmlns:xlink="http://www.w3.org/1999/xlink" x="0px"
	 y="0px" width="283.46px" height="113.39px" viewBox="0 0 283.46 113.39" enable-background="new 0 0 283.46 113.39"
	 xml:space="preserve">
<g>
	<path fill="#FFFFFF" d="M80.576,95.712c0.025,0.025,0.05,0.05,0.075,0.075c8.455,8.454,19.468,13.11,31.011,13.111
		c0,0,0.001,0,0.001,0c11.376,0,22.18-4.539,30.419-12.782c0.134-0.133,0.267-0.268,0.398-0.404h30.49
		c1.562,2.475,3.651,4.618,6.175,6.274c6.063,3.958,14.004,6.228,21.786,6.228c10.978,0,20.68-4.458,26.899-12.127
		c1.644,0.251,3.326,0.378,5.043,0.378c3.313,0,6.559-0.451,9.688-1.344c1.895,0.427,3.862,0.642,5.883,0.642
		c2.582,0,5.035-0.317,7.542-0.98c9.035-2.432,15.346-10.664,15.346-20.023l-0.001-1.849c-0.042-4.637-1.636-9.082-4.473-12.672
		v-2.069c0-2.495,0-10.09-3.972-17.45c-5.344-9.928-15.399-15.622-27.589-15.622c-2.784,0-53.678,0.037-71.453,0.05
		c-1.702-2.704-3.745-5.253-6.112-7.62c-7.574-7.571-17.48-11.74-27.894-11.74c-10.395,0-20.272,4.154-27.811,11.693
		c-1.48,1.479-2.841,3.077-4.07,4.777c-2.387,0.755-4.71,1.722-6.956,2.895H32.945c-11.238,0-20.731,10.14-20.731,22.143v27.683
		c0,11.432,9.3,20.731,20.73,20.731L80.576,95.712z"/>
	<g>
		<path fill="#040000" d="M85.801,45.6c-1.336-0.292-2.281-0.447-3.442-0.447c-2.847,0-5.33,0.83-7.391,2.466
			c-0.091,0.061-0.192,0.141-0.303,0.246c-0.231,0.197-0.452,0.406-0.668,0.622c-1.479,1.313-2.761,1.949-2.761-1.235v-0.668
			c0-0.402-0.327-0.729-0.731-0.729h-2.102c-0.197,0-0.388,0.079-0.524,0.222c-0.14,0.143-0.212,0.334-0.206,0.532
			c0.104,3.332,0.215,6.776,0.215,9.622v18.75c0,0.402,0.328,0.732,0.731,0.732h2.21c0.403,0,0.731-0.33,0.731-0.732v-9.914
			c0-1.372,0.107-3.807,0.309-4.813c1.569-7.799,4.982-11.59,10.436-11.59c0.979,0,1.881,0.164,2.874,0.363
			c0.048,0.01,0.096,0.014,0.144,0.014c0.148,0,0.294-0.043,0.417-0.129c0.163-0.115,0.273-0.289,0.307-0.484l0.322-1.995
			C86.431,46.048,86.182,45.681,85.801,45.6z"/>
		<path fill="#040000" d="M174.848,47.191c-2.512-1.774-5.292-2.04-6.726-2.04c-2.91,0-5.648,0.911-7.822,2.494
			c-0.005,0.003-0.01,0.005-0.015,0.009c-1.004,0.647-2.627,0.908-2.617-0.625v-0.022c0.002-0.105-0.003-0.197-0.014-0.275
			l-0.008-0.182c-0.019-0.392-0.34-0.697-0.73-0.697h-2.103c-0.203,0-0.396,0.083-0.535,0.23c-0.138,0.146-0.209,0.346-0.194,0.549
			c0.151,2.281,0.214,4.17,0.214,6.523v21.821c0,0.401,0.328,0.731,0.73,0.731h2.209c0.404,0,0.732-0.33,0.732-0.731V57.466
			c0-0.813,0.253-1.764,0.49-2.379c0.004-0.008,0.006-0.016,0.01-0.023c1.043-3.044,4.224-6.12,8.417-6.475
			c3.236,0.002,8.327,2.358,9.023,8.225c0.017,0.148,0.03,0.298,0.042,0.443c0.005,0.05,0.009,0.098,0.012,0.147
			c0.005,0.073,0.009,0.142,0.014,0.21c0.009,0.189,0.015,0.385,0.015,0.583c0,0.334,0.007,0.638,0.018,0.91v15.87
			c0,0.402,0.328,0.731,0.732,0.731h2.208c0.404,0,0.732-0.329,0.732-0.731V58.706C179.683,53.333,178.056,49.458,174.848,47.191z"
			/>
		<path fill="#040000" d="M52.764,47.191c-2.512-1.774-5.292-2.04-6.726-2.04c-2.91,0-5.649,0.911-7.821,2.494
			c-0.006,0.003-0.01,0.005-0.017,0.009c-1.003,0.647-2.626,0.908-2.615-0.625l-0.001-0.022c0.001-0.105-0.002-0.197-0.014-0.275
			l-0.008-0.182c-0.018-0.392-0.34-0.697-0.73-0.697H32.73c-0.202,0-0.396,0.083-0.534,0.23c-0.139,0.146-0.209,0.346-0.195,0.549
			c0.151,2.281,0.213,4.17,0.213,6.523v21.821c0,0.401,0.328,0.731,0.731,0.731h2.209c0.404,0,0.732-0.33,0.732-0.731V57.466
			c0-0.813,0.252-1.764,0.489-2.379c0.003-0.008,0.007-0.016,0.01-0.023c1.043-3.044,4.224-6.12,8.417-6.475
			c3.235,0.002,8.326,2.358,9.023,8.225c0.018,0.148,0.031,0.298,0.042,0.443c0.004,0.05,0.01,0.098,0.013,0.147
			c0.005,0.073,0.01,0.142,0.014,0.21c0.009,0.189,0.015,0.385,0.015,0.583c0,0.334,0.007,0.638,0.019,0.91v15.87
			c0,0.402,0.327,0.731,0.731,0.731h2.208c0.405,0,0.732-0.329,0.732-0.731V58.706C57.599,53.333,55.972,49.458,52.764,47.191z"/>
		<path fill="#040000" d="M251.071,72.533c-0.133-0.112-0.301-0.174-0.473-0.174c-0.04,0-0.08,0.004-0.12,0.011
			c-0.587,0.1-0.965,0.1-1.441,0.1c-1.147,0-2.178-0.337-2.178-4.387v-9.914c0-2.345-0.179-5.369-1.583-7.972
			c-1.821-3.384-5.181-5.101-9.978-5.101c-2.476,0-6.217,0.516-9.99,2.975c-0.315,0.204-0.422,0.615-0.25,0.949l0.861,1.671
			c0.098,0.188,0.271,0.324,0.478,0.375c0.059,0.013,0.116,0.021,0.173,0.021c0.151,0,0.3-0.047,0.425-0.133
			c2.313-1.641,5.186-2.508,8.305-2.508c3.995,0,6.004,1.855,7,3.941l0,0c1.004,2.22-0.562,4.404-2.285,4.585
			c-0.085,0.004-0.17,0.007-0.254,0.012c-0.014,0-0.028,0.001-0.042,0c-0.055-0.002-0.102,0.002-0.144,0.009
			c-10.978,0.627-16.537,4.313-16.537,10.979c0,2.028,0.803,4.056,2.201,5.569c1.233,1.332,3.561,2.923,7.636,2.923
			c3.471,0,6.271-1.112,8.324-2.475c0.062-0.03,0.131-0.076,0.212-0.141c0.022-0.018,0.042-0.03,0.063-0.047
			c0.128-0.091,0.256-0.178,0.378-0.271c1.275-0.824,1.969-0.35,2.623,0.505c0.002,0.001,0.006,0.004,0.008,0.009
			c0.84,1.141,2.161,1.717,3.962,1.717c0.847,0,1.592-0.094,2.345-0.293c0.319-0.086,0.543-0.376,0.543-0.708v-1.67
			C251.331,72.878,251.235,72.673,251.071,72.533z M232.819,73.062c-3.042,0-6.11-1.724-6.11-5.573c0-4.862,5.936-6.58,12.167-7.043
			c2.319-0.043,4.097,2.161,4.311,4.575v0.988c-0.062,0.646-0.246,1.289-0.568,1.889c-0.161,0.266-0.355,0.557-0.589,0.864
			c-0.04,0.049-0.074,0.094-0.103,0.135C240.484,70.743,237.703,73.062,232.819,73.062z"/>
		<path fill="#040000" d="M214.939,45.854h-2.047c-0.393,0-0.716,0.31-0.731,0.702c-0.065,1.617-0.892,1.835-2.702,0.766
			c-0.01-0.006-0.019-0.014-0.027-0.02c-0.178-0.12-0.362-0.229-0.546-0.338c-0.011-0.01-0.021-0.015-0.031-0.021
			c-0.087-0.057-0.168-0.102-0.244-0.139c-1.981-1.096-4.307-1.65-6.924-1.65c-3.739,0-7.429,1.547-10.122,4.249
			c-2.082,2.087-4.563,5.826-4.563,11.783c0,3.819,1.346,7.415,3.792,10.124c2.595,2.872,6.233,4.456,10.248,4.456
			c3.11,0,5.514-0.82,7.335-1.896c0.004-0.002,0.007-0.004,0.012-0.005c1.954-0.873,3.603-2.182,3.135,2.234
			c-0.875,5.678-4.519,8.765-10.481,8.765c-4.176,0-7.311-1.406-9.204-2.584c-0.118-0.074-0.251-0.11-0.388-0.11
			c-0.06,0-0.122,0.008-0.182,0.021c-0.193,0.051-0.358,0.176-0.456,0.351l-0.97,1.726c-0.189,0.335-0.085,0.761,0.236,0.972
			c2.854,1.862,6.91,2.976,10.854,2.976c2.688,0,9.293-0.624,12.493-6.413c1.385-2.48,2.031-5.969,2.031-10.969V53.376
			c0-2.475,0.069-4.678,0.214-6.737c0.014-0.202-0.058-0.402-0.195-0.55C215.337,45.937,215.144,45.854,214.939,45.854z
			 M198.048,71.878c-0.605-0.238-7.609-3.215-7.014-11.81c0.552-7.94,5.717-10.457,6.518-10.798c1.278-0.499,2.701-0.77,4.242-0.77
			c1.665,0,3.112,0.328,4.354,0.875c6.845,3.869,7.696,16.453,0.884,21.465c-1.592,1-3.436,1.573-5.345,1.573
			C200.344,72.414,199.134,72.22,198.048,71.878z"/>
		
			<linearGradient id="SVGID_1_" gradientUnits="userSpaceOnUse" x1="397.748" y1="-93.876" x2="397.748" y2="-158.6493" gradientTransform="matrix(1 0 0 -1 -279.2305 -69.2754)">
			<stop  offset="0" style="stop-color:#88BF4D"/>
			<stop  offset="1" style="stop-color:#699A31"/>
		</linearGradient>
		<path fill="url(#SVGID_1_)" d="M116.166,31.628c-2.338,2.336-4.109,5.342-5.032,8.654c-6.076-0.094-12.171,2.273-17.007,7.109
			c-8.143,8.14-10.675,22.912,0.667,34.253c9.542,9.542,23.793,9.688,33.145,0.333c4.421-4.423,7.236-10.505,7.297-16.939
			c3.14-0.836,6.125-2.509,8.669-5.049c6.956-6.96,9.086-18.919-0.311-28.318C135.761,23.841,123.968,23.823,116.166,31.628z
			 M141.786,52.048c-1.335,1.338-3.045,2.324-4.931,2.863c-3.027,0.866-4.657,0.778-5.698,2.516
			c-1.041,1.734-0.926,1.939-0.88,5.193c0.057,3.688-1.333,7.514-4.813,10.995c-5.32,5.318-15.141,6.503-22.366-0.722
			c-5.693-5.694-8.365-15.278-0.778-22.864c2.816-2.813,6.866-4.478,11.124-4.401c2.961,0.051,3.307,0.162,5.212-0.703
			c1.909-0.871,1.082-2.801,2.223-6.205c0.556-1.66,1.545-3.297,3.092-4.846c4.126-4.125,11.721-5.072,17.285,0.49
			C145.788,38.901,147.71,46.124,141.786,52.048z"/>
	</g>
</g>
</svg>
