<?xml version="1.0" encoding="utf-8"?>
<!-- Generator: Adobe Illustrator 14.0.0, SVG Export Plug-In . SVG Version: 6.00 Build 43363)  -->
<!DOCTYPE svg PUBLIC "-//W3C//DTD SVG 1.1//EN" "http://www.w3.org/Graphics/SVG/1.1/DTD/svg11.dtd">
<svg version="1.1" id="レイヤー_1" xmlns="http://www.w3.org/2000/svg" xmlns:xlink="http://www.w3.org/1999/xlink" x="0px"
	 y="0px" width="60px" height="60px" viewBox="0 0 60 60" enable-background="new 0 0 60 60" xml:space="preserve">
<linearGradient id="SVGID_1_" gradientUnits="userSpaceOnUse" x1="29.9995" y1="0" x2="29.9995" y2="60.0005">
	<stop  offset="0" style="stop-color:#3FA9F5"/>
	<stop  offset="1" style="stop-color:#0071BC"/>
</linearGradient>
<polygon fill="url(#SVGID_1_)" points="0,0 0,60 25.861,60 60,60 60,25.861 60,0 "/>
<path fill="#FFFFFF" d="M53.533,36.883c7.502-7.505,9.8-20.401-0.335-30.538C48.975,2.123,43.685,0.008,38.398,0h-0.005
	c-5.286-0.007-10.567,2.092-14.774,6.299c-2.523,2.52-4.434,5.76-5.428,9.33C11.7,15.53,5.189,18.041,0,23.159v36.479
	C0.114,59.76,0.226,59.881,0.344,60h25.518h11.027c4.434-4.717,7.233-11.018,7.295-17.672
	C47.569,41.429,50.791,39.626,53.533,36.883z M39.785,34.123c-1.121,1.873-0.997,2.089-0.949,5.602
	c0.062,3.979-1.437,8.102-5.189,11.854c-5.736,5.737-16.327,7.017-24.12-0.776c-6.139-6.14-9.021-16.475-0.84-24.658
	c3.038-3.034,7.406-4.827,11.998-4.745c3.194,0.055,3.565,0.174,5.622-0.76c2.058-0.938,1.166-3.019,2.396-6.692
	c0.6-1.792,1.666-3.551,3.332-5.224c4.451-4.448,12.643-5.469,18.643,0.531c4.887,4.887,6.96,12.677,0.572,19.065
	c-1.441,1.444-3.284,2.509-5.319,3.087C42.666,32.345,40.908,32.245,39.785,34.123z"/>
</svg>
