<?xml version="1.0" encoding="utf-8"?>
<!-- Generator: Adobe Illustrator 14.0.0, SVG Export Plug-In . SVG Version: 6.00 Build 43363)  -->
<!DOCTYPE svg PUBLIC "-//W3C//DTD SVG 1.1//EN" "http://www.w3.org/Graphics/SVG/1.1/DTD/svg11.dtd">
<svg version="1.1"
	 id="svg5730" sodipodi:docname="譁ｰ隕上ラ繧ｭ繝･繝｡繝ｳ繝53" inkscape:version="0.48.1 r9760" xmlns:sodipodi="http://sodipodi.sourceforge.net/DTD/sodipodi-0.dtd" xmlns:rdf="http://www.w3.org/1999/02/22-rdf-syntax-ns#" xmlns:inkscape="http://www.inkscape.org/namespaces/inkscape" xmlns:cc="http://creativecommons.org/ns#" xmlns:svg="http://www.w3.org/2000/svg" xmlns:dc="http://purl.org/dc/elements/1.1/"
	 xmlns="http://www.w3.org/2000/svg" xmlns:xlink="http://www.w3.org/1999/xlink" x="0px" y="0px" width="60px" height="60px"
	 viewBox="0 0 60 60" enable-background="new 0 0 60 60" xml:space="preserve">
<sodipodi:namedview  id="base" inkscape:pageshadow="2" fit-margin-bottom="0" inkscape:document-units="px" inkscape:current-layer="layer1" inkscape:window-y="52" inkscape:pageopacity="0.0" inkscape:window-width="902" inkscape:window-height="442" inkscape:window-x="1928" fit-margin-right="0" inkscape:window-maximized="0" inkscape:cy="-47.142348" fit-margin-left="0" bordercolor="#666666" inkscape:zoom="0.35" inkscape:cx="153.57178" fit-margin-top="0" pagecolor="#ffffff" borderopacity="1.0" showgrid="false">
	</sodipodi:namedview>
<g id="layer1" transform="translate(-221.42822,-405.21881)" inkscape:groupmode="layer" inkscape:label="繝ｬ繧､繝､繝ｼ 1">
	<linearGradient id="polygon4068_1_" gradientUnits="userSpaceOnUse" x1="221.5972" y1="435.2193" x2="281.4746" y2="435.2193">
		<stop  offset="0.0061" style="stop-color:#AE5881"/>
		<stop  offset="1" style="stop-color:#90196E"/>
	</linearGradient>
	<polygon id="polygon4068" fill="url(#polygon4068_1_)" points="221.428,405.22 221.428,465.219 247.29,465.219 281.428,465.219 
		281.428,431.081 281.428,405.22 	"/>
	<path id="path4111" inkscape:connector-curvature="0" fill="#FFFFFF" d="M274.962,442.102c7.502-7.505,9.8-20.401-0.335-30.538
		c-4.225-4.222-9.514-6.337-14.801-6.345h-0.004c-5.287-0.007-10.567,2.093-14.774,6.299c-2.522,2.52-4.434,5.76-5.428,9.33
		c-6.49-0.099-13.001,2.411-18.191,7.53v36.479c0.114,0.121,0.227,0.241,0.344,0.36h25.518h11.028
		c4.434-4.717,7.232-11.018,7.295-17.672C268.999,446.648,272.219,444.846,274.962,442.102L274.962,442.102z M261.214,439.342
		c-1.121,1.873-0.997,2.09-0.949,5.603c0.062,3.979-1.437,8.103-5.188,11.854c-5.736,5.736-16.327,7.017-24.12-0.776
		c-6.139-6.14-9.021-16.476-0.84-24.658c3.038-3.034,7.406-4.827,11.998-4.745c3.193,0.055,3.564,0.174,5.621-0.76
		c2.058-0.938,1.166-3.019,2.396-6.692c0.6-1.792,1.666-3.551,3.332-5.224c4.45-4.448,12.644-5.469,18.644,0.531
		c4.887,4.887,6.959,12.677,0.571,19.065c-1.44,1.444-3.284,2.51-5.319,3.088C264.094,437.564,262.337,437.465,261.214,439.342z"/>
</g>
<sodipodi:namedview  id="base" inkscape:pageshadow="2" fit-margin-bottom="0" inkscape:document-units="px" inkscape:current-layer="layer1" inkscape:window-y="361" inkscape:pageopacity="0.0" inkscape:window-width="902" inkscape:window-height="442" inkscape:window-x="2484" fit-margin-right="0" inkscape:window-maximized="0" inkscape:cy="2.7065346" fit-margin-left="0" bordercolor="#666666" inkscape:zoom="1.4" inkscape:cx="100.06073" fit-margin-top="0" pagecolor="#ffffff" borderopacity="1.0" showgrid="false">
	</sodipodi:namedview>
</svg>
