<?xml version="1.0" encoding="utf-8"?>
<!-- Generator: Adobe Illustrator 14.0.0, SVG Export Plug-In . SVG Version: 6.00 Build 43363)  -->
<!DOCTYPE svg PUBLIC "-//W3C//DTD SVG 1.1//EN" "http://www.w3.org/Graphics/SVG/1.1/DTD/svg11.dtd">
<svg version="1.1"
	 id="svg4522" sodipodi:docname="譁ｰ隕上ラ繧ｭ繝･繝｡繝ｳ繝10" inkscape:version="0.48.1 r9760" xmlns:sodipodi="http://sodipodi.sourceforge.net/DTD/sodipodi-0.dtd" xmlns:rdf="http://www.w3.org/1999/02/22-rdf-syntax-ns#" xmlns:inkscape="http://www.inkscape.org/namespaces/inkscape" xmlns:cc="http://creativecommons.org/ns#" xmlns:svg="http://www.w3.org/2000/svg" xmlns:dc="http://purl.org/dc/elements/1.1/"
	 xmlns="http://www.w3.org/2000/svg" xmlns:xlink="http://www.w3.org/1999/xlink" x="0px" y="0px" width="229.335px"
	 height="73.012px" viewBox="0 0 229.335 73.012" enable-background="new 0 0 229.335 73.012" xml:space="preserve">
<sodipodi:namedview  id="base" inkscape:pageshadow="2" fit-margin-bottom="4.9" inkscape:document-units="px" inkscape:current-layer="layer1" inkscape:window-y="260" inkscape:pageopacity="0.0" inkscape:window-width="902" inkscape:window-height="442" inkscape:window-x="1920" fit-margin-right="5" inkscape:window-maximized="0" inkscape:cy="55.868778" fit-margin-left="5" bordercolor="#666666" inkscape:zoom="1.979899" inkscape:cx="101.4407" fit-margin-top="5" pagecolor="#ffffff" borderopacity="1.0" showgrid="false">
	</sodipodi:namedview>
<g id="droonga">
	<linearGradient id="SVGID_1_" gradientUnits="userSpaceOnUse" x1="62.063" y1="36.468" x2="122.8701" y2="36.468">
		<stop  offset="0.0061" style="stop-color:#AE5881"/>
		<stop  offset="1" style="stop-color:#90196E"/>
	</linearGradient>
	<path fill="url(#SVGID_1_)" d="M90.186,11.555c-2.265,2.265-3.981,5.176-4.874,8.385c-5.887-0.09-11.792,2.202-16.477,6.888
		c-7.889,7.888-10.341,22.198,0.646,33.186c9.245,9.245,23.051,9.384,32.111,0.323c4.283-4.285,7.012-10.179,7.07-16.412
		c3.041-0.809,5.934-2.429,8.399-4.891c6.739-6.743,8.801-18.329-0.301-27.436C109.171,4.012,97.747,3.994,90.186,11.555z
		 M115.009,31.341c-1.294,1.294-2.951,2.251-4.779,2.773c-2.932,0.84-4.511,0.754-5.519,2.436c-1.009,1.683-0.897,1.881-0.853,5.031
		c0.054,3.575-1.292,7.281-4.663,10.653c-5.154,5.153-14.667,6.302-21.667-0.698c-5.516-5.518-8.103-14.802-0.753-22.151
		c2.729-2.726,6.651-4.338,10.777-4.265c2.868,0.051,3.203,0.154,5.049-0.682c1.85-0.844,1.048-2.713,2.152-6.012
		c0.539-1.608,1.497-3.192,2.997-4.693c3.997-3.996,11.355-4.912,16.746,0.476C118.886,18.603,120.747,25.602,115.009,31.341z"/>
	<path fill="#040000" d="M58.593,25.397c-1.351-0.293-2.305-0.453-3.479-0.453c-2.877,0-5.387,0.841-7.471,2.493
		c-0.093,0.063-0.194,0.142-0.307,0.251c-0.233,0.197-0.457,0.407-0.675,0.627c-1.494,1.327-2.79,1.971-2.79-1.249v-0.674
		c0-0.408-0.331-0.739-0.74-0.739h-2.124c-0.201,0-0.393,0.08-0.532,0.225c-0.14,0.145-0.214,0.338-0.208,0.538
		c0.107,3.369,0.217,6.85,0.217,9.726v18.952c0,0.408,0.331,0.74,0.74,0.74h2.232c0.408,0,0.739-0.332,0.739-0.74V45.073
		c0-1.386,0.109-3.846,0.313-4.865c1.585-7.882,5.035-11.714,10.547-11.714c0.99,0,1.901,0.165,2.905,0.368
		c0.048,0.009,0.097,0.015,0.145,0.015c0.15,0,0.297-0.047,0.421-0.133c0.165-0.115,0.276-0.292,0.309-0.49l0.327-2.015
		C59.229,25.85,58.978,25.481,58.593,25.397z"/>
	<path fill="#040000" d="M150.359,27.006c-2.538-1.794-5.35-2.063-6.799-2.063c-2.941,0-5.71,0.923-7.905,2.521
		c-0.006,0.005-0.01,0.006-0.016,0.009c-1.016,0.655-2.655,0.92-2.646-0.631v-0.021c0.002-0.108-0.003-0.201-0.013-0.28
		l-0.008-0.184c-0.019-0.396-0.345-0.705-0.739-0.705h-2.125c-0.205,0-0.4,0.084-0.539,0.234c-0.141,0.149-0.213,0.349-0.199,0.554
		c0.154,2.307,0.217,4.217,0.217,6.596v22.057c0,0.408,0.33,0.74,0.739,0.74h2.233c0.408,0,0.74-0.332,0.74-0.74v-17.7
		c0-0.82,0.255-1.78,0.495-2.403c0.003-0.008,0.007-0.018,0.009-0.025c1.055-3.076,4.27-6.187,8.509-6.545
		c3.271,0.003,8.416,2.386,9.121,8.314c0.017,0.153,0.031,0.303,0.043,0.449c0.004,0.05,0.009,0.1,0.013,0.15
		c0.004,0.07,0.01,0.142,0.014,0.21c0.009,0.193,0.014,0.39,0.014,0.59c0,0.338,0.006,0.644,0.018,0.92v16.04
		c0,0.408,0.332,0.74,0.74,0.74h2.232c0.408,0,0.74-0.332,0.74-0.74V38.645C155.247,33.213,153.603,29.298,150.359,27.006z"/>
	<path fill="#040000" d="M224.425,52.623c-0.135-0.115-0.305-0.177-0.479-0.177c-0.04,0-0.081,0.003-0.121,0.011
		c-0.594,0.098-0.976,0.098-1.457,0.098c-1.161,0-2.202-0.338-2.202-4.432V38.101c0-2.369-0.182-5.426-1.601-8.058
		c-1.842-3.42-5.235-5.153-10.087-5.153c-2.501,0-6.284,0.521-10.098,3.006c-0.318,0.206-0.427,0.621-0.254,0.959l0.872,1.688
		c0.098,0.191,0.274,0.329,0.482,0.381c0.058,0.013,0.117,0.02,0.175,0.02c0.151,0,0.302-0.046,0.428-0.135
		c2.339-1.657,5.243-2.533,8.395-2.533c4.04,0,6.069,1.874,7.075,3.982c0.002,0,0.002,0,0.002,0.001
		c1.014,2.243-0.568,4.451-2.311,4.635c-0.085,0.003-0.172,0.007-0.256,0.012c-0.015,0-0.029,0.001-0.043,0
		c-0.057-0.001-0.103,0.003-0.146,0.009c-11.096,0.634-16.715,4.357-16.715,11.1c0,2.049,0.811,4.1,2.227,5.628
		c1.246,1.348,3.598,2.954,7.717,2.954c3.509,0,6.338-1.125,8.415-2.5c0.062-0.031,0.132-0.077,0.214-0.142
		c0.021-0.019,0.043-0.032,0.064-0.049c0.129-0.091,0.259-0.18,0.381-0.271c1.291-0.833,1.991-0.354,2.651,0.509
		c0.003,0.005,0.006,0.005,0.009,0.008c0.849,1.153,2.186,1.737,4.005,1.737c0.854,0,1.608-0.094,2.37-0.298
		c0.322-0.087,0.549-0.38,0.549-0.715v-1.688C224.687,52.97,224.591,52.764,224.425,52.623z M205.974,53.155
		c-3.074,0-6.176-1.741-6.176-5.631c0-4.916,6-6.651,12.298-7.121c2.346-0.044,4.141,2.186,4.358,4.626v0.999
		c-0.063,0.653-0.25,1.304-0.575,1.907c-0.162,0.268-0.358,0.563-0.595,0.876c-0.04,0.047-0.076,0.093-0.104,0.134
		C213.723,50.813,210.911,53.155,205.974,53.155z"/>
	<path fill="#040000" d="M189.635,25.653h-2.07c-0.396,0-0.724,0.313-0.739,0.709c-0.066,1.636-0.9,1.856-2.731,0.774
		c-0.01-0.006-0.019-0.014-0.028-0.02c-0.18-0.12-0.365-0.233-0.552-0.342c-0.011-0.009-0.021-0.015-0.03-0.022
		c-0.09-0.057-0.171-0.103-0.248-0.139c-2.005-1.108-4.353-1.67-6.998-1.67c-3.781,0-7.509,1.564-10.232,4.296
		c-2.105,2.11-4.613,5.89-4.613,11.911c0,3.86,1.361,7.493,3.832,10.231c2.623,2.905,6.303,4.506,10.36,4.506
		c3.144,0,5.573-0.829,7.413-1.918c0.004-0.001,0.008-0.003,0.014-0.004c1.973-0.884,3.641-2.205,3.167,2.258
		c-0.884,5.737-4.566,8.858-10.594,8.858c-4.22,0-7.39-1.42-9.304-2.612c-0.119-0.073-0.254-0.11-0.391-0.11
		c-0.062,0-0.123,0.007-0.184,0.022c-0.197,0.05-0.363,0.178-0.461,0.354l-0.981,1.742c-0.19,0.339-0.086,0.77,0.241,0.983
		c2.883,1.882,6.984,3.006,10.969,3.006c2.721,0,9.396-0.632,12.63-6.481c1.399-2.509,2.054-6.033,2.054-11.088V33.254
		c0-2.501,0.069-4.729,0.215-6.811c0.015-0.205-0.057-0.405-0.196-0.557C190.036,25.737,189.84,25.653,189.635,25.653z
		 M172.56,51.96c-0.613-0.242-7.692-3.251-7.089-11.938c0.556-8.026,5.778-10.568,6.587-10.915c1.293-0.504,2.729-0.777,4.289-0.777
		c5.396,0,8.549,3.399,9.702,6.583c0.28,0.845,0.396,1.675,0.396,2.861v5.229c0,0.893-0.205,1.953-0.55,2.836
		c-1.603,3.981-5.485,6.663-9.657,6.663C174.88,52.502,173.657,52.307,172.56,51.96z"/>
	<path fill="#040000" d="M33.397,48.249v-36.74c0-0.415-0.336-0.752-0.752-0.752h-2.269c-0.415,0-0.751,0.337-0.751,0.752v11.436
		c0,0.978-0.897,4.216-3.652,2.909c-0.04-0.019-0.075-0.033-0.113-0.05c-1.74-0.839-3.866-1.381-6.383-1.381
		c-4.175,0-8.011,1.655-10.801,4.661c-2.832,3.051-4.392,7.322-4.392,12.027c0,8.787,6.199,15.414,14.418,15.414
		c3.305,0,5.961-0.874,8.003-2.17c0.057-0.031,0.118-0.067,0.184-0.112c0.01-0.008,0.019-0.013,0.028-0.019
		c0.003-0.003,0.006-0.004,0.01-0.006c1.602-1.088,3.111-1.667,3.111,0.024c0,0.056,0.002,0.108,0.006,0.156l0.024,0.682
		c0.014,0.405,0.347,0.725,0.751,0.725h2.047c0.21,0,0.408-0.087,0.551-0.239c0.142-0.152,0.214-0.356,0.2-0.564
		C33.469,52.886,33.397,50.676,33.397,48.249z M8.055,40.834c0-7.792,4.524-13.024,11.256-13.024c5.774,0,8.93,3.582,9.959,6.938
		c0.005,0.015,0.01,0.027,0.015,0.043c0.155,0.414,0.34,1.212,0.34,2.669v5.587c0,0.919-0.049,1.621-0.288,2.293
		c-0.007,0.019-0.013,0.038-0.018,0.056c-1.244,4.561-5.405,7.745-10.119,7.745C11.501,53.14,8.055,46.96,8.055,40.834z"/>
</g>
</svg>
