<?xml version="1.0" encoding="utf-8"?>
<!-- Generator: Adobe Illustrator 14.0.0, SVG Export Plug-In . SVG Version: 6.00 Build 43363)  -->
<!DOCTYPE svg PUBLIC "-//W3C//DTD SVG 1.1//EN" "http://www.w3.org/Graphics/SVG/1.1/DTD/svg11.dtd">
<svg version="1.1"
	 id="svg5211" sodipodi:docname="譁ｰ隕上ラ繧ｭ繝･繝｡繝ｳ繝35" inkscape:version="0.48.1 r9760" xmlns:sodipodi="http://sodipodi.sourceforge.net/DTD/sodipodi-0.dtd" xmlns:rdf="http://www.w3.org/1999/02/22-rdf-syntax-ns#" xmlns:inkscape="http://www.inkscape.org/namespaces/inkscape" xmlns:cc="http://creativecommons.org/ns#" xmlns:svg="http://www.w3.org/2000/svg" xmlns:dc="http://purl.org/dc/elements/1.1/"
	 xmlns="http://www.w3.org/2000/svg" xmlns:xlink="http://www.w3.org/1999/xlink" x="0px" y="0px" width="60px" height="60px"
	 viewBox="0 0 60 60" enable-background="new 0 0 60 60" xml:space="preserve">
<sodipodi:namedview  id="base" inkscape:pageshadow="2" fit-margin-bottom="0" inkscape:document-units="px" inkscape:current-layer="layer1" inkscape:window-y="361" inkscape:pageopacity="0.0" inkscape:window-width="902" inkscape:window-height="442" inkscape:window-x="2484" fit-margin-right="0" inkscape:window-maximized="0" inkscape:cy="2.7065346" fit-margin-left="0" bordercolor="#666666" inkscape:zoom="1.4" inkscape:cx="100.06073" fit-margin-top="0" pagecolor="#ffffff" borderopacity="1.0" showgrid="false">
	</sodipodi:namedview>
<linearGradient id="SVGID_1_" gradientUnits="userSpaceOnUse" x1="0" y1="30" x2="59.9995" y2="30">
	<stop  offset="0.0061" style="stop-color:#AE5881"/>
	<stop  offset="1" style="stop-color:#90196E"/>
</linearGradient>
<path fill="url(#SVGID_1_)" d="M23.622,6.298c-2.52,2.521-4.43,5.761-5.424,9.333C11.704,15.532,5.192,18.041,0,23.162v36.465
	c0.118,0.125,0.234,0.25,0.355,0.373h36.527c4.438-4.714,7.241-11.019,7.305-17.674c3.385-0.9,6.604-2.702,9.349-5.444
	c7.501-7.504,9.795-20.399-0.336-30.535C44.752-2.097,32.038-2.117,23.622,6.298z M51.25,28.321c-1.44,1.44-3.283,2.505-5.319,3.086
	c-3.263,0.936-5.02,0.839-6.142,2.71c-1.124,1.874-0.999,2.096-0.95,5.602c0.061,3.98-1.438,8.103-5.19,11.857
	c-5.736,5.734-16.323,7.014-24.116-0.778c-6.139-6.14-9.019-16.474-0.837-24.654c3.036-3.034,7.403-4.828,11.994-4.747
	c3.192,0.057,3.564,0.171,5.62-0.759c2.059-0.939,1.167-3.02,2.396-6.691c0.601-1.79,1.666-3.553,3.334-5.224
	c4.45-4.448,12.64-5.467,18.639,0.529C55.566,14.143,57.636,21.933,51.25,28.321z"/>
</svg>
