<?xml version="1.0" encoding="utf-8"?>
<!-- Generator: Adobe Illustrator 14.0.0, SVG Export Plug-In . SVG Version: 6.00 Build 43363)  -->
<!DOCTYPE svg PUBLIC "-//W3C//DTD SVG 1.1//EN" "http://www.w3.org/Graphics/SVG/1.1/DTD/svg11.dtd">
<svg version="1.1"
	 id="svg4522" sodipodi:docname="nroonga-icon-full-size.svg" inkscape:version="0.48.3.1 r9886" inkscape:export-filename="nroonga-icon-full-size.png" xmlns:sodipodi="http://sodipodi.sourceforge.net/DTD/sodipodi-0.dtd" xmlns:rdf="http://www.w3.org/1999/02/22-rdf-syntax-ns#" xmlns:inkscape="http://www.inkscape.org/namespaces/inkscape" xmlns:cc="http://creativecommons.org/ns#" xmlns:svg="http://www.w3.org/2000/svg" xmlns:dc="http://purl.org/dc/elements/1.1/" inkscape:export-ydpi="90" inkscape:export-xdpi="90"
	 xmlns="http://www.w3.org/2000/svg" xmlns:xlink="http://www.w3.org/1999/xlink" x="0px" y="0px" width="199.804px"
	 height="200.857px" viewBox="0 0 199.804 200.857" enable-background="new 0 0 199.804 200.857" xml:space="preserve">
<sodipodi:namedview  id="base" inkscape:pageshadow="2" fit-margin-bottom="5" inkscape:document-units="px" inkscape:current-layer="layer1" inkscape:window-y="217" inkscape:pageopacity="0.0" inkscape:window-width="902" inkscape:window-height="442" inkscape:window-x="2200" fit-margin-right="5" inkscape:window-maximized="0" inkscape:cy="78.573219" fit-margin-left="5" bordercolor="#666666" inkscape:zoom="0.9899495" inkscape:cx="143.90298" fit-margin-top="5" pagecolor="#ffffff" borderopacity="1.0" showgrid="false">
	</sodipodi:namedview>
<linearGradient id="SVGID_1_" gradientUnits="userSpaceOnUse" x1="4.9995" y1="100.429" x2="194.8052" y2="100.429">
	<stop  offset="0.0061" style="stop-color:#AE5881"/>
	<stop  offset="1" style="stop-color:#90196E"/>
</linearGradient>
<path fill="url(#SVGID_1_)" d="M92.782,22.662c-7.069,7.07-12.426,16.156-15.214,26.174c-18.375-0.281-36.81,6.873-51.433,21.499
	C1.512,94.956-6.143,139.626,28.154,173.923c28.857,28.857,71.954,29.291,100.233,1.009c13.37-13.376,21.887-31.772,22.069-51.229
	c9.492-2.524,18.521-7.582,26.219-15.267c21.036-21.048,27.471-57.212-0.939-85.638C152.044-0.883,116.386-0.937,92.782,22.662z
	 M170.268,84.424c-4.039,4.039-9.209,7.027-14.919,8.658c-9.15,2.621-14.077,2.353-17.226,7.602
	c-3.149,5.252-2.802,5.871-2.661,15.705c0.167,11.16-4.036,22.729-14.559,33.254c-16.086,16.086-45.78,19.671-67.633-2.18
	C36.054,130.24,27.977,101.26,50.92,78.319c8.517-8.508,20.762-13.541,33.64-13.312c8.953,0.158,9.997,0.481,15.762-2.128
	c5.774-2.634,3.271-8.469,6.718-18.766c1.683-5.02,4.673-9.965,9.353-14.65c12.477-12.473,35.445-15.332,52.272,1.485
	C182.37,44.662,188.179,66.51,170.268,84.424z"/>
</svg>
