<?xml version="1.0" encoding="utf-8"?>
<!-- Generator: Adobe Illustrator 14.0.0, SVG Export Plug-In . SVG Version: 6.00 Build 43363)  -->
<!DOCTYPE svg PUBLIC "-//W3C//DTD SVG 1.1//EN" "http://www.w3.org/Graphics/SVG/1.1/DTD/svg11.dtd">
<svg version="1.1" id="レイヤー_1" xmlns="http://www.w3.org/2000/svg" xmlns:xlink="http://www.w3.org/1999/xlink" x="0px"
	 y="0px" width="283.46px" height="113.39px" viewBox="0 0 283.46 113.39" enable-background="new 0 0 283.46 113.39"
	 xml:space="preserve">
<path fill="none" stroke="#71C7D5" d="M262.863,72.531c-0.029-3.123-1.411-6.072-3.788-8.088c-0.222-0.188-0.45-0.367-0.686-0.535
	V57.7c0-3.246-0.288-8.096-2.778-12.714c-2.083-3.868-7.293-10.356-18.782-10.356c-3.372,0-77.503,0.054-77.503,0.054
	c-1.49-3.658-3.813-7.234-7.132-10.554c-5.685-5.683-13.08-8.812-20.824-8.812c-7.724,0-15.091,3.115-20.743,8.767
	c-1.897,1.896-3.525,4.048-4.842,6.386c-3.743,0.766-7.329,2.195-10.636,4.213c0,0-49.239,0-49.78,0
	c-6.379,0-12.65,2.622-17.2,7.187c-4.828,4.837-7.487,11.531-7.487,18.849c0,5.835,1.942,11.393,5.495,15.798
	c-0.142,0.214-0.276,0.435-0.402,0.659l-0.964,1.717c-2.762,4.904-1.236,11.162,3.481,14.25c4.479,2.926,10.428,4.604,16.322,4.604
	c9.294,0,17.236-4.326,21.228-11.541c0.173-0.312,0.327-0.641,0.486-0.963h20.219c0.84,1.033,1.738,2.038,2.704,3.004
	c6.566,6.566,15.068,10.184,23.939,10.184c0,0,0.001,0,0.001,0c8.706,0,16.998-3.498,23.349-9.853
	c1.05-1.052,2.019-2.171,2.921-3.335h41.018c0.29,0,0.576-0.012,0.86-0.033c0.315,3.129,1.991,6.09,4.801,7.935
	c4.479,2.925,10.428,4.603,16.321,4.603c9.296,0,17.237-4.326,21.226-11.539c0.416-0.746,0.791-1.526,1.127-2.346
	c2.837,1.396,6.098,2.133,9.59,2.133c3.302,0,6.521-0.629,9.507-1.844c1.838,0.752,3.881,1.145,6.063,1.145
	c1.713,0,3.321-0.207,4.916-0.631c4.693-1.248,7.972-5.514,7.972-10.371V72.531z"/>
</svg>
