<?xml version="1.0" encoding="utf-8"?>
<!-- Generator: Adobe Illustrator 14.0.0, SVG Export Plug-In . SVG Version: 6.00 Build 43363)  -->
<!DOCTYPE svg PUBLIC "-//W3C//DTD SVG 1.1//EN" "http://www.w3.org/Graphics/SVG/1.1/DTD/svg11.dtd">
<svg version="1.1"
	 id="svg5211" inkscape:version="0.48.1 r9760" sodipodi:docname="譁ｰ隕上ラ繧ｭ繝･繝｡繝ｳ繝35" xmlns:cc="http://creativecommons.org/ns#" xmlns:dc="http://purl.org/dc/elements/1.1/" xmlns:inkscape="http://www.inkscape.org/namespaces/inkscape" xmlns:sodipodi="http://sodipodi.sourceforge.net/DTD/sodipodi-0.dtd" xmlns:svg="http://www.w3.org/2000/svg" xmlns:rdf="http://www.w3.org/1999/02/22-rdf-syntax-ns#"
	 xmlns="http://www.w3.org/2000/svg" xmlns:xlink="http://www.w3.org/1999/xlink" x="0px" y="0px" width="60px" height="60px"
	 viewBox="0 0 60 60" enable-background="new 0 0 60 60" xml:space="preserve">
<sodipodi:namedview  id="base" fit-margin-right="0" inkscape:window-x="2484" inkscape:window-height="442" inkscape:window-width="902" inkscape:pageopacity="0.0" inkscape:window-y="361" inkscape:current-layer="layer1" inkscape:document-units="px" fit-margin-bottom="0" inkscape:pageshadow="2" inkscape:window-maximized="0" bordercolor="#666666" showgrid="false" fit-margin-top="0" inkscape:cx="100.06073" borderopacity="1.0" pagecolor="#ffffff" fit-margin-left="0" inkscape:zoom="1.4" inkscape:cy="2.7065346">
	</sodipodi:namedview>
<g>
	<defs>
		<rect id="SVGID_1_" width="60" height="60"/>
	</defs>
	<clipPath id="SVGID_2_">
		<use xlink:href="#SVGID_1_" overflow="visible"/>
	</clipPath>
	<linearGradient id="SVGID_3_" gradientUnits="userSpaceOnUse" x1="30.0762" y1="-1.8843" x2="30.0762" y2="62.2778">
		<stop  offset="0" style="stop-color:#5795C6"/>
		<stop  offset="1" style="stop-color:#0B3F63"/>
	</linearGradient>
	<rect x="-3.102" y="-3.102" display="none" clip-path="url(#SVGID_2_)" fill="url(#SVGID_3_)" width="66.357" height="66.357"/>
	<path id="pgroonga_1_" display="none" clip-path="url(#SVGID_2_)" fill="#FFFFFF" d="M23.623,6.3
		c-2.521,2.519-4.431,5.76-5.426,9.331c-6.552-0.1-13.124,2.451-18.338,7.667c-8.78,8.778-11.51,24.707,0.719,36.935
		c10.289,10.29,25.656,10.446,35.739,0.358c4.768-4.771,7.803-11.328,7.868-18.266c3.387-0.9,6.604-2.703,9.349-5.444
		c7.5-7.504,9.798-20.4-0.335-30.535C44.752-2.096,32.037-2.115,23.623,6.3z M51.249,28.321c-1.438,1.442-3.283,2.506-5.317,3.088
		c-3.264,0.936-5.021,0.838-6.144,2.712c-1.122,1.871-0.998,2.092-0.948,5.602c0.061,3.978-1.438,8.101-5.189,11.855
		C27.913,57.312,17.324,58.59,9.533,50.8C3.394,44.66,0.512,34.326,8.693,26.145c3.037-3.033,7.404-4.828,11.995-4.747
		c3.193,0.058,3.566,0.174,5.62-0.759c2.059-0.938,1.167-3.019,2.396-6.691c0.6-1.79,1.666-3.552,3.334-5.223
		c4.449-4.449,12.639-5.47,18.638,0.529C55.564,14.144,57.636,21.934,51.249,28.321z"/>
	
		<linearGradient id="pgroonga_2_" gradientUnits="userSpaceOnUse" x1="305.3901" y1="-122.8804" x2="305.3901" y2="-188.6822" gradientTransform="matrix(1 0 0 -1 -279.23 -124.2764)">
		<stop  offset="0" style="stop-color:#5795C6"/>
		<stop  offset="1" style="stop-color:#0B3F63"/>
	</linearGradient>
	<path id="pgroonga" clip-path="url(#SVGID_2_)" fill="url(#pgroonga_2_)" d="M23.623,6.3c-2.521,2.519-4.431,5.76-5.426,9.331
		c-6.552-0.1-13.124,2.451-18.338,7.667c-8.78,8.778-11.51,24.707,0.719,36.935c10.289,10.29,25.656,10.446,35.739,0.358
		c4.768-4.771,7.803-11.328,7.868-18.266c3.387-0.9,6.604-2.703,9.349-5.444c7.5-7.504,9.798-20.4-0.335-30.535
		C44.752-2.096,32.037-2.115,23.623,6.3z M51.249,28.321c-1.438,1.442-3.283,2.506-5.317,3.088
		c-3.264,0.936-5.021,0.838-6.144,2.712c-1.122,1.871-0.998,2.092-0.948,5.602c0.061,3.978-1.438,8.101-5.189,11.855
		C27.913,57.312,17.324,58.59,9.533,50.8C3.394,44.66,0.512,34.326,8.693,26.145c3.037-3.033,7.404-4.828,11.995-4.747
		c3.193,0.058,3.566,0.174,5.62-0.759c2.059-0.938,1.167-3.019,2.396-6.691c0.6-1.79,1.666-3.552,3.334-5.223
		c4.449-4.449,12.639-5.47,18.638,0.529C55.564,14.144,57.636,21.934,51.249,28.321z"/>
	<g clip-path="url(#SVGID_2_)">
		<path fill="#1E3D57" stroke="#FFFFFF" d="M-4.624,42.228c-0.316-1.184,1.488-1.409,1.488-1.409
			c20.743,2.702,25.997-7.813,25.997-7.813s1.727,19.2-22.964,20.912c-0.881,0.062-2.446,1.017-2.745,0.115
			C-4.045,50.422-3.758,45.467-4.624,42.228z"/>
		<g>
			<path fill="#1E3D57" stroke="#FFFFFF" d="M6.871,34.907c0.862,11.06,4.402,18.868,17.545,16.152
				c11.094-2.292,7.774-14.854,7.016-18.594c-0.889-4.38,10.539-7.93,12.404-2.204c6.024,18.494-6.531,38.014-24.158,37.777
				C7.566,67.876,1.011,62.992-2.896,56.451c-12.352-20.683,2.652-33.657,2.652-33.657S5.646,19.208,6.871,34.907z"/>
			<path fill="#1E3D57" stroke="#FFFFFF" stroke-linecap="round" stroke-linejoin="round" d="M6.905,51.999
				c2.987-1.869,4.234-3.738,4.234-3.738"/>
			<path fill="#1E3D57" stroke="#FFFFFF" stroke-linecap="round" stroke-linejoin="round" d="M13.047,55.297
				c0.917-2.038,1.833-4.875,1.833-4.875"/>
			<path fill="#1E3D57" stroke="#FFFFFF" stroke-linecap="round" stroke-linejoin="round" d="M21.023,56.285
				c0-2.298,0-4.286,0-4.286"/>
			<path fill="#1E3D57" stroke="#FFFFFF" stroke-linecap="round" stroke-linejoin="round" d="M29,54.417
				c-1.672-1.488-2.447-3.995-2.447-3.995"/>
			<path fill="#1E3D57" stroke="#FFFFFF" stroke-linecap="round" stroke-linejoin="round" d="M34.434,50.129
				c-2.04-1.166-3.692-2.331-3.692-2.331"/>
			<path fill="#1E3D57" stroke="#FFFFFF" stroke-linecap="round" stroke-linejoin="round" d="M37.31,43.687
				C35.134,43.808,32.269,43,32.269,43"/>
			<path fill="#1E3D57" stroke="#FFFFFF" stroke-linecap="round" stroke-linejoin="round" d="M3.879,45.946
				c2.617,0,5.143-1.014,5.143-1.014"/>
		</g>
	</g>
</g>
</svg>
