<?xml version="1.0" encoding="utf-8"?>
<!-- Generator: Adobe Illustrator 14.0.0, SVG Export Plug-In . SVG Version: 6.00 Build 43363)  -->
<!DOCTYPE svg PUBLIC "-//W3C//DTD SVG 1.1//EN" "http://www.w3.org/Graphics/SVG/1.1/DTD/svg11.dtd">
<svg version="1.1" id="レイヤー_1" xmlns="http://www.w3.org/2000/svg" xmlns:xlink="http://www.w3.org/1999/xlink" x="0px"
	 y="0px" width="283.46px" height="113.39px" viewBox="0 0 283.46 113.39" enable-background="new 0 0 283.46 113.39"
	 xml:space="preserve">
<path fill="none" stroke="#71C7D5" d="M256.521,72.299v1.672c0,4.854-3.277,9.117-7.969,10.368c-1.58,0.425-3.195,0.634-4.918,0.634
	c-2.186,0-4.229-0.392-6.066-1.145c-2.986,1.214-6.205,1.844-9.504,1.844c-3.492,0-6.754-0.737-9.59-2.133
	c-0.336,0.817-0.709,1.596-1.125,2.341c-3.986,7.214-11.93,11.541-21.227,11.541c-5.893,0-11.842-1.679-16.322-4.604
	c-2.818-1.829-4.502-4.76-4.811-7.9c-7.84,0.001-41.986,0.003-41.986,0.003c-0.912,1.235-1.859,2.393-2.803,3.337
	c-6.352,6.353-14.643,9.851-23.347,9.851c0,0-0.002,0-0.003,0c-8.873-0.001-17.375-3.618-23.941-10.186
	c-0.965-0.965-1.861-1.969-2.701-3.002H37.758c-5.918,0-10.732-4.814-10.732-10.731c0,0,0-24.774,0-28.018
	c0-7.347,4.818-11.811,10.516-11.811c0,0,15.176,0,26.874,0h13.134h11.26c3.307-2.019,6.893-3.446,10.635-4.212
	c1.316-2.335,2.942-4.486,4.838-6.383c5.656-5.656,13.023-8.771,20.746-8.771c7.744,0,15.141,3.13,20.826,8.813
	c3.297,3.297,5.621,6.845,7.113,10.476l0.027,0.077c2.619,0,74.121-0.053,77.492-0.053c11.486,0,16.697,6.486,18.783,10.354
	c2.49,4.628,2.779,9.474,2.779,12.717v6.207c0.205,0.147,0.406,0.303,0.604,0.466c0.039,0.032,0.078,0.065,0.117,0.099
	C255.154,66.192,256.521,69.163,256.521,72.299z"/>
</svg>
