<?xml version="1.0" encoding="utf-8"?>
<!-- Generator: Adobe Illustrator 14.0.0, SVG Export Plug-In . SVG Version: 6.00 Build 43363)  -->
<!DOCTYPE svg PUBLIC "-//W3C//DTD SVG 1.1//EN" "http://www.w3.org/Graphics/SVG/1.1/DTD/svg11.dtd">
<svg version="1.1" id="レイヤー_1" xmlns="http://www.w3.org/2000/svg" xmlns:xlink="http://www.w3.org/1999/xlink" x="0px"
	 y="0px" width="283.46px" height="113.39px" viewBox="0 0 283.46 113.39" enable-background="new 0 0 283.46 113.39"
	 xml:space="preserve">
<g>
	<path fill="#040000" d="M262.346,57.377c0-2.491,0-10.071-3.978-17.464c-5.351-9.918-15.404-15.606-27.585-15.606
		c-1.792,0-64.905,0.045-71.438,0.049c-1.703-2.698-3.75-5.247-6.125-7.622c-7.574-7.57-17.481-11.739-27.896-11.739
		c-10.394,0-20.272,4.155-27.819,11.701c-1.477,1.478-2.834,3.073-4.061,4.77c-2.389,0.755-4.714,1.722-6.96,2.895H37.838
		c-11.696,0-20.516,9.377-20.516,21.811v28.018c0,11.432,9.301,20.731,20.732,20.731h38.009c0.023,0.024,0.048,0.049,0.072,0.072
		c8.454,8.456,19.468,13.114,31.013,13.115h0.003c11.375,0,22.178-4.539,30.421-12.783c0.133-0.132,0.265-0.267,0.396-0.404
		l30.452-0.003c1.568,2.481,3.671,4.626,6.209,6.273c6.064,3.96,14.007,6.231,21.79,6.231c10.975,0,20.676-4.456,26.895-12.121
		c1.642,0.248,3.325,0.372,5.047,0.372c3.309,0,6.551-0.45,9.68-1.342c1.896,0.427,3.866,0.643,5.891,0.643
		c2.612,0,5.069-0.319,7.494-0.972c9.063-2.416,15.393-10.653,15.393-20.03v-1.672c0-4.704-1.592-9.216-4.473-12.856V57.377z"/>
	<g>
		<path fill="#FFFFFF" d="M81.296,44.81c-1.338-0.292-2.281-0.45-3.441-0.45c-2.848,0-5.33,0.832-7.393,2.467
			c-0.092,0.063-0.191,0.143-0.303,0.247c-0.23,0.197-0.453,0.405-0.67,0.621c-1.477,1.313-2.758,1.95-2.758-1.234v-0.666
			c0-0.404-0.328-0.733-0.732-0.733h-2.1c-0.201,0-0.389,0.081-0.527,0.223c-0.139,0.144-0.213,0.336-0.205,0.533
			c0.105,3.333,0.215,6.778,0.215,9.622v18.749c0,0.403,0.328,0.731,0.73,0.731h2.209c0.404,0,0.732-0.328,0.732-0.731v-9.913
			c0-1.371,0.107-3.805,0.311-4.813c1.568-7.798,4.982-11.59,10.436-11.59c0.979,0,1.879,0.164,2.873,0.363
			c0.047,0.011,0.096,0.014,0.143,0.014c0.148,0,0.295-0.043,0.418-0.129c0.162-0.113,0.273-0.288,0.307-0.485l0.322-1.993
			C81.925,45.256,81.675,44.89,81.296,44.81z"/>
		<path fill="#FFFFFF" d="M55.243,44.81c-1.338-0.292-2.281-0.45-3.441-0.45c-2.848,0-5.332,0.832-7.391,2.467
			c-0.092,0.063-0.193,0.143-0.305,0.247c-0.23,0.197-0.453,0.405-0.67,0.621c-1.477,1.313-2.758,1.95-2.758-1.234v-0.666
			c0-0.404-0.328-0.733-0.732-0.733h-2.102c-0.197,0-0.387,0.081-0.525,0.223c-0.137,0.144-0.211,0.336-0.205,0.533
			c0.105,3.333,0.215,6.778,0.215,9.622v18.749c0,0.403,0.328,0.731,0.732,0.731h2.211c0.402,0,0.729-0.328,0.729-0.731v-9.913
			c0-1.371,0.107-3.805,0.311-4.813c1.568-7.798,4.982-11.59,10.436-11.59c0.979,0,1.879,0.164,2.873,0.363
			c0.047,0.011,0.096,0.014,0.145,0.014c0.146,0,0.293-0.043,0.416-0.129c0.164-0.113,0.273-0.288,0.307-0.485l0.322-1.993
			C55.87,45.256,55.622,44.89,55.243,44.81z"/>
		<path fill="#FFFFFF" d="M170.343,46.4c-2.514-1.774-5.295-2.041-6.729-2.041c-2.91,0-5.646,0.913-7.82,2.496
			c-0.006,0.003-0.012,0.003-0.016,0.007c-1.006,0.649-2.627,0.911-2.617-0.624v-0.021c0-0.107-0.004-0.198-0.014-0.278
			l-0.008-0.181c-0.02-0.392-0.342-0.699-0.732-0.699h-2.102c-0.201,0-0.396,0.086-0.533,0.232
			c-0.139,0.147-0.211,0.348-0.195,0.549c0.152,2.282,0.211,4.17,0.211,6.525v21.819c0,0.403,0.33,0.731,0.734,0.731h2.209
			c0.404,0,0.73-0.328,0.73-0.731v-17.51c0-0.815,0.254-1.763,0.49-2.378c0.004-0.01,0.006-0.017,0.01-0.026
			c1.045-3.042,4.223-6.118,8.418-6.474c3.234,0,8.324,2.357,9.023,8.226c0.016,0.15,0.029,0.299,0.041,0.443
			c0.004,0.05,0.008,0.099,0.012,0.147c0.006,0.07,0.01,0.141,0.016,0.209c0.008,0.19,0.014,0.387,0.014,0.584
			c0,0.332,0.006,0.637,0.02,0.909v15.868c0,0.403,0.324,0.731,0.729,0.731h2.211c0.402,0,0.732-0.328,0.732-0.731V57.914
			C175.177,52.542,173.55,48.668,170.343,46.4z"/>
		<path fill="#FFFFFF" d="M246.565,71.741c-0.133-0.11-0.301-0.173-0.473-0.173c-0.039,0-0.08,0.005-0.119,0.011
			c-0.588,0.097-0.963,0.097-1.443,0.097c-1.146,0-2.178-0.334-2.178-4.386v-9.913c0-2.345-0.18-5.367-1.582-7.972
			c-1.824-3.384-5.182-5.099-9.98-5.099c-2.475,0-6.217,0.516-9.988,2.974c-0.314,0.205-0.424,0.614-0.252,0.949l0.861,1.67
			c0.098,0.188,0.271,0.325,0.479,0.377c0.059,0.014,0.117,0.02,0.174,0.02c0.15,0,0.297-0.046,0.422-0.133
			c2.314-1.641,5.189-2.507,8.307-2.507c3.994,0,6.004,1.854,7,3.939c0,0,0,0,0,0.002c1.002,2.219-0.563,4.402-2.285,4.584
			c-0.084,0.005-0.17,0.006-0.254,0.012c-0.016,0-0.027,0-0.043,0c-0.055-0.002-0.102,0.002-0.143,0.01
			c-10.979,0.628-16.537,4.312-16.537,10.979c0,2.028,0.801,4.057,2.201,5.569c1.234,1.332,3.559,2.92,7.637,2.92
			c3.471,0,6.27-1.111,8.324-2.472c0.061-0.032,0.131-0.076,0.211-0.142c0.021-0.017,0.043-0.029,0.064-0.047
			c0.127-0.09,0.256-0.18,0.377-0.269c1.275-0.825,1.969-0.352,2.623,0.502c0.002,0.005,0.006,0.006,0.008,0.008
			c0.838,1.143,2.162,1.72,3.963,1.72c0.846,0,1.59-0.094,2.342-0.296c0.322-0.086,0.545-0.374,0.545-0.706v-1.672
			C246.825,72.084,246.729,71.882,246.565,71.741z M228.313,72.271c-3.041,0-6.111-1.725-6.111-5.573
			c0-4.861,5.938-6.58,12.166-7.043c2.32-0.043,4.1,2.161,4.314,4.575v0.988c-0.064,0.646-0.246,1.289-0.57,1.889
			c-0.16,0.264-0.354,0.557-0.588,0.864c-0.039,0.048-0.076,0.092-0.104,0.134C235.979,69.953,233.198,72.271,228.313,72.271z"/>
		<path fill="#FFFFFF" d="M210.433,45.06h-2.047c-0.393,0-0.715,0.31-0.73,0.704c-0.064,1.617-0.893,1.835-2.701,0.766
			c-0.012-0.008-0.02-0.013-0.027-0.021c-0.18-0.118-0.363-0.229-0.547-0.339c-0.012-0.005-0.021-0.012-0.031-0.02
			c-0.088-0.059-0.168-0.102-0.244-0.139c-1.982-1.097-4.307-1.652-6.924-1.652c-3.74,0-7.428,1.549-10.121,4.249
			c-2.082,2.089-4.564,5.828-4.564,11.785c0,3.816,1.348,7.414,3.791,10.122c2.598,2.873,6.232,4.458,10.248,4.458
			c3.111,0,5.516-0.822,7.336-1.898c0.004,0,0.008-0.003,0.012-0.004c1.953-0.874,3.602-2.182,3.135,2.233
			c-0.875,5.677-4.52,8.764-10.48,8.764c-4.176,0-7.311-1.405-9.203-2.583c-0.117-0.072-0.252-0.11-0.389-0.11
			c-0.061,0-0.123,0.008-0.182,0.021c-0.193,0.051-0.357,0.177-0.457,0.352l-0.967,1.725c-0.191,0.335-0.086,0.763,0.236,0.972
			c2.854,1.864,6.908,2.977,10.852,2.977c2.689,0,9.295-0.624,12.494-6.413c1.385-2.482,2.029-5.968,2.029-10.968V52.584
			c0-2.477,0.07-4.68,0.217-6.738c0.014-0.203-0.059-0.401-0.195-0.55C210.833,45.146,210.638,45.06,210.433,45.06z M193.54,71.088
			c-0.604-0.24-7.605-3.216-7.01-11.813c0.549-7.938,5.715-10.454,6.518-10.796c1.275-0.501,2.697-0.77,4.24-0.77
			c1.662,0,3.111,0.327,4.354,0.871c6.846,3.873,7.697,16.453,0.883,21.469c-1.592,1-3.436,1.573-5.346,1.573
			C195.839,71.623,194.628,71.43,193.54,71.088z"/>
		
			<linearGradient id="SVGID_1_" gradientUnits="userSpaceOnUse" x1="393.2422" y1="-93.832" x2="393.2422" y2="-158.2135" gradientTransform="matrix(1 0 0 -1 -279.2305 -69.2754)">
			<stop  offset="0" style="stop-color:#A31F24"/>
			<stop  offset="1" style="stop-color:#6F1418"/>
		</linearGradient>
		<path fill="url(#SVGID_1_)" d="M111.659,30.834c-2.338,2.339-4.109,5.342-5.031,8.656c-6.076-0.094-12.172,2.271-17.008,7.109
			c-8.143,8.141-10.674,22.911,0.668,34.251c9.541,9.545,23.793,9.688,33.145,0.336c4.422-4.424,7.236-10.507,7.297-16.939
			c3.141-0.837,6.125-2.509,8.67-5.05c6.957-6.959,9.086-18.919-0.311-28.317C131.255,23.05,119.462,23.031,111.659,30.834z
			 M137.28,51.257c-1.334,1.339-3.045,2.324-4.934,2.864c-3.025,0.867-4.654,0.775-5.695,2.515
			c-1.043,1.736-0.926,1.941-0.881,5.193c0.055,3.688-1.332,7.515-4.814,10.995c-5.318,5.317-15.139,6.505-22.365-0.722
			c-5.691-5.692-8.363-15.278-0.775-22.864c2.816-2.813,6.867-4.479,11.123-4.402c2.961,0.053,3.305,0.161,5.213-0.703
			c1.906-0.868,1.082-2.799,2.221-6.205c0.559-1.66,1.545-3.294,3.094-4.844c4.125-4.125,11.721-5.071,17.283,0.49
			C141.282,38.109,143.206,45.335,137.28,51.257z"/>
	</g>
</g>
</svg>
