<?xml version="1.0" encoding="utf-8"?>
<!-- Generator: Adobe Illustrator 14.0.0, SVG Export Plug-In . SVG Version: 6.00 Build 43363)  -->
<!DOCTYPE svg PUBLIC "-//W3C//DTD SVG 1.1//EN" "http://www.w3.org/Graphics/SVG/1.1/DTD/svg11.dtd">
<svg version="1.1" id="レイヤー_1" xmlns="http://www.w3.org/2000/svg" xmlns:xlink="http://www.w3.org/1999/xlink" x="0px"
	 y="0px" width="283.46px" height="127.559px" viewBox="0 0 283.46 127.559" enable-background="new 0 0 283.46 127.559"
	 xml:space="preserve">
<g>
	<defs>
		<rect id="SVGID_1_" width="283.46" height="127.559"/>
	</defs>
	<clipPath id="SVGID_2_">
		<use xlink:href="#SVGID_1_"  overflow="visible"/>
	</clipPath>
	<path clip-path="url(#SVGID_2_)" fill="#040000" d="M203.06,125.102c-9.716,0-19.69-2.873-27.367-7.884
		c-2.096-1.372-3.986-2.961-5.66-4.751h-24.466c-9.227,7.253-20.5,11.207-32.157,11.207c-11.656,0-22.996-3.954-32.337-11.207
		h-16.55c-0.263,0-0.526-0.005-0.786-0.016l-5.377-0.012h-3.908c-2.69,0.478-5.432,0.72-8.164,0.72
		c-24.909,0-44.419-19.948-44.419-45.414c0-12.3,4.405-23.82,12.405-32.437c4.58-4.936,10.15-8.735,16.314-11.161
		C35.786,14.063,46.369,7.391,57.961,7.391h2.269c10.403,0,19.972,5.3,25.594,13.717h5.553c0.752-0.337,1.511-0.656,2.275-0.957
		c0.924-1.104,1.894-2.165,2.906-3.177c9.316-9.314,21.555-14.443,34.46-14.443c12.927,0,25.191,5.143,34.535,14.484
		c1.439,1.439,2.787,2.945,4.037,4.509h66.473c16.035,0,29.338,7.628,36.5,20.929c4.728,8.769,5.146,17.46,5.185,21.302
		c2.936,4.802,4.523,10.385,4.523,16.066v1.688c0,13.877-9.358,26.084-22.761,29.687c-3.339,0.894-6.658,1.326-10.158,1.326
		c-1.898,0-3.779-0.142-5.621-0.422c-3.135,0.713-6.352,1.091-9.6,1.127C226.065,120.829,215.013,125.102,203.06,125.102"/>
</g>
<g>
	<defs>
		<path id="SVGID_3_" d="M120.187,51.073c1.849-0.844,1.047-2.713,2.152-6.012c0.539-1.609,1.496-3.193,2.996-4.693
			c3.996-3.996,11.355-4.912,16.746,0.475c4.389,4.394,6.252,11.393,0.514,17.132c-1.295,1.294-2.951,2.251-4.78,2.773
			c-2.931,0.84-4.511,0.755-5.519,2.436c-1.009,1.683-0.897,1.881-0.853,5.032c0.054,3.574-1.291,7.281-4.663,10.652
			c-5.154,5.152-14.666,6.302-21.668-0.697c-5.515-5.519-8.102-14.803-0.752-22.152c2.729-2.725,6.65-4.338,10.777-4.264
			c0.818,0.014,1.429,0.033,1.929,0.033C118.319,51.788,118.866,51.67,120.187,51.073 M117.77,38.189
			c-2.263,2.264-3.98,5.176-4.872,8.384c-5.887-0.09-11.794,2.203-16.478,6.888c-7.889,7.888-10.341,22.199,0.647,33.186
			c9.245,9.245,23.051,9.384,32.11,0.323c4.283-4.285,7.012-10.178,7.07-16.412c3.041-0.809,5.934-2.429,8.4-4.89
			c6.737-6.744,8.801-18.331-0.302-27.437c-3.802-3.8-8.568-5.701-13.327-5.702C126.278,32.53,121.544,34.416,117.77,38.189"/>
	</defs>
	<clipPath id="SVGID_4_">
		<use xlink:href="#SVGID_3_"  overflow="visible"/>
	</clipPath>
	
		<linearGradient id="SVGID_5_" gradientUnits="userSpaceOnUse" x1="0" y1="127.5396" x2="1" y2="127.5396" gradientTransform="matrix(60.8066 0 0 -60.8066 89.6274 7819.5405)">
		<stop  offset="0" style="stop-color:#AF5982"/>
		<stop  offset="0.0061" style="stop-color:#AF5982"/>
		<stop  offset="1" style="stop-color:#911A6E"/>
	</linearGradient>
	<rect x="86.079" y="32.53" clip-path="url(#SVGID_4_)" fill="url(#SVGID_5_)" width="67.369" height="63.5"/>
</g>
<g>
	<defs>
		<rect id="SVGID_6_" width="283.46" height="127.559"/>
	</defs>
	<clipPath id="SVGID_7_">
		<use xlink:href="#SVGID_6_"  overflow="visible"/>
	</clipPath>
	<path clip-path="url(#SVGID_7_)" fill="#FFFFFF" d="M86.179,52.031c-1.352-0.293-2.306-0.453-3.479-0.453
		c-2.878,0-5.388,0.841-7.471,2.493c-0.093,0.063-0.195,0.142-0.307,0.251c-0.233,0.197-0.456,0.407-0.675,0.627
		c-1.494,1.327-2.789,1.971-2.789-1.249v-0.674c0-0.408-0.332-0.739-0.74-0.739h-2.123c-0.201,0-0.393,0.08-0.532,0.224
		c-0.14,0.145-0.214,0.338-0.208,0.539c0.107,3.369,0.217,6.849,0.217,9.725v18.952c0,0.408,0.331,0.741,0.74,0.741h2.232
		c0.408,0,0.74-0.333,0.74-0.741V71.707c0-1.386,0.109-3.846,0.313-4.865c1.586-7.881,5.035-11.713,10.548-11.713
		c0.989,0,1.901,0.165,2.905,0.368c0.047,0.009,0.096,0.014,0.145,0.014c0.15,0,0.296-0.046,0.421-0.132
		c0.165-0.116,0.276-0.292,0.309-0.491l0.326-2.014C86.816,52.484,86.563,52.115,86.179,52.031"/>
	<path clip-path="url(#SVGID_7_)" fill="#FFFFFF" d="M177.944,53.64c-2.538-1.794-5.35-2.063-6.799-2.063
		c-2.941,0-5.709,0.923-7.905,2.522c-0.005,0.005-0.01,0.006-0.015,0.009c-1.016,0.655-2.656,0.92-2.646-0.631v-0.022
		c0.002-0.108-0.004-0.201-0.014-0.28l-0.008-0.183c-0.018-0.396-0.344-0.706-0.739-0.706h-2.124c-0.205,0-0.4,0.084-0.54,0.235
		c-0.14,0.149-0.212,0.348-0.198,0.554c0.153,2.306,0.216,4.216,0.216,6.595v22.057c0,0.408,0.331,0.74,0.739,0.74h2.234
		c0.408,0,0.74-0.332,0.74-0.74v-17.7c0-0.821,0.254-1.781,0.494-2.404c0.004-0.007,0.007-0.017,0.01-0.025
		c1.055-3.076,4.27-6.187,8.508-6.545c3.271,0.003,8.416,2.386,9.121,8.315c0.018,0.153,0.03,0.302,0.043,0.449
		c0.004,0.05,0.01,0.099,0.014,0.15c0.004,0.07,0.009,0.142,0.013,0.21c0.009,0.193,0.015,0.39,0.015,0.59
		c0,0.338,0.006,0.645,0.018,0.92v16.04c0,0.408,0.332,0.74,0.74,0.74h2.232c0.408,0,0.74-0.332,0.74-0.74V65.279
		C182.833,59.847,181.188,55.932,177.944,53.64"/>
	<path clip-path="url(#SVGID_7_)" fill="#FFFFFF" d="M252.011,79.257c-0.135-0.114-0.305-0.177-0.479-0.177
		c-0.04,0-0.081,0.003-0.12,0.011c-0.594,0.098-0.977,0.098-1.458,0.098c-1.161,0-2.202-0.339-2.202-4.432V64.735
		c0-2.369-0.182-5.425-1.6-8.057c-1.842-3.42-5.236-5.154-10.088-5.154c-2.5,0-6.283,0.522-10.098,3.006
		c-0.318,0.206-0.427,0.621-0.254,0.959l0.873,1.689c0.098,0.191,0.273,0.329,0.482,0.381c0.057,0.012,0.116,0.019,0.174,0.019
		c0.152,0,0.303-0.046,0.428-0.135c2.34-1.657,5.244-2.533,8.395-2.533c4.04,0,6.07,1.874,7.076,3.983c0.001,0,0.001,0,0.001,0
		c1.014,2.244-0.568,4.452-2.31,4.635c-0.086,0.003-0.172,0.007-0.257,0.012c-0.015,0-0.028,0.001-0.043,0
		c-0.056-0.001-0.103,0.003-0.146,0.009c-11.096,0.634-16.716,4.357-16.716,11.1c0,2.049,0.812,4.1,2.227,5.628
		c1.247,1.348,3.599,2.954,7.718,2.954c3.509,0,6.338-1.125,8.414-2.5c0.063-0.031,0.133-0.077,0.214-0.142
		c0.022-0.019,0.044-0.032,0.065-0.049c0.129-0.091,0.258-0.18,0.381-0.271c1.291-0.833,1.99-0.354,2.65,0.509
		c0.004,0.005,0.006,0.005,0.01,0.008c0.848,1.153,2.185,1.737,4.004,1.737c0.855,0,1.608-0.094,2.37-0.298
		c0.323-0.087,0.549-0.38,0.549-0.715v-1.688C252.271,79.604,252.176,79.398,252.011,79.257 M233.56,79.789
		c-3.074,0-6.176-1.741-6.176-5.631c0-4.916,5.999-6.651,12.297-7.121c2.346-0.044,4.141,2.186,4.358,4.626v0.999
		c-0.062,0.653-0.249,1.304-0.575,1.907c-0.162,0.268-0.358,0.563-0.594,0.876c-0.041,0.047-0.076,0.093-0.104,0.134
		C241.308,77.447,238.498,79.789,233.56,79.789"/>
	<path clip-path="url(#SVGID_7_)" fill="#FFFFFF" d="M217.22,52.286h-2.07c-0.396,0-0.723,0.313-0.738,0.709
		c-0.066,1.636-0.9,1.857-2.732,0.775c-0.01-0.006-0.018-0.014-0.027-0.02c-0.18-0.12-0.365-0.233-0.553-0.342
		c-0.011-0.008-0.02-0.014-0.03-0.022c-0.089-0.057-0.171-0.103-0.248-0.139c-2.005-1.108-4.353-1.67-6.998-1.67
		c-3.781,0-7.509,1.565-10.231,4.296c-2.105,2.111-4.613,5.89-4.613,11.912c0,3.86,1.361,7.493,3.832,10.231
		c2.623,2.905,6.302,4.506,10.359,4.506c3.145,0,5.573-0.829,7.414-1.918c0.004-0.001,0.008-0.003,0.013-0.004
		c1.974-0.884,3.641-2.205,3.167,2.258c-0.883,5.737-4.566,8.858-10.594,8.858c-4.22,0-7.389-1.42-9.303-2.612
		c-0.119-0.072-0.255-0.11-0.392-0.11c-0.062,0-0.123,0.007-0.184,0.022c-0.196,0.05-0.362,0.178-0.461,0.354l-0.981,1.743
		c-0.19,0.338-0.086,0.769,0.241,0.982c2.883,1.882,6.984,3.006,10.97,3.006c2.72,0,9.395-0.632,12.629-6.481
		c1.4-2.509,2.055-6.033,2.055-11.088V59.888c0-2.501,0.068-4.729,0.215-6.811c0.014-0.205-0.058-0.405-0.197-0.556
		C217.621,52.37,217.425,52.286,217.22,52.286 M200.146,78.594c-0.613-0.242-7.693-3.251-7.09-11.938
		c0.557-8.027,5.777-10.569,6.588-10.917c1.293-0.503,2.729-0.777,4.288-0.777c5.396,0,8.55,3.4,9.702,6.583
		c0.281,0.845,0.396,1.675,0.396,2.861v5.229c0,0.894-0.205,1.953-0.55,2.836c-1.603,3.981-5.485,6.663-9.657,6.663
		C202.466,79.136,201.243,78.941,200.146,78.594"/>
	<path clip-path="url(#SVGID_7_)" fill="#FFFFFF" d="M60.982,74.883v-36.74c0-0.415-0.337-0.752-0.752-0.752h-2.269
		c-0.415,0-0.752,0.337-0.752,0.752v11.435c0,0.978-0.896,4.216-3.652,2.91c-0.039-0.019-0.074-0.034-0.113-0.05
		c-1.741-0.839-3.866-1.381-6.383-1.381c-4.176,0-8.011,1.655-10.801,4.661c-2.832,3.051-4.392,7.322-4.392,12.027
		c0,8.787,6.199,15.414,14.418,15.414c3.306,0,5.961-0.874,8.003-2.17c0.057-0.031,0.119-0.067,0.184-0.112
		c0.01-0.008,0.02-0.013,0.027-0.019c0.004-0.003,0.006-0.004,0.01-0.006c1.602-1.088,3.111-1.667,3.111,0.024
		c0,0.056,0.003,0.108,0.007,0.156l0.025,0.682c0.013,0.405,0.347,0.725,0.751,0.725h2.047c0.209,0,0.408-0.087,0.55-0.239
		s0.214-0.356,0.201-0.564C61.054,79.52,60.982,77.31,60.982,74.883 M35.64,67.468c0-7.792,4.525-13.024,11.257-13.024
		c5.774,0,8.931,3.582,9.96,6.937c0.004,0.015,0.01,0.027,0.013,0.043c0.157,0.414,0.34,1.212,0.34,2.669v5.587
		c0,0.919-0.049,1.621-0.287,2.293c-0.007,0.019-0.013,0.038-0.017,0.056c-1.245,4.561-5.407,7.745-10.12,7.745
		C39.086,79.774,35.64,73.594,35.64,67.468"/>
	<path clip-path="url(#SVGID_7_)" fill="none" stroke="#FFFFFF" stroke-width="1.5" d="M258.509,71.657
		c-0.244-0.209-0.497-0.406-0.758-0.591v-6.331c0-3.267-0.289-8.15-2.796-12.8c-2.095-3.888-7.333-10.411-18.892-10.411h-77.66
		c-1.458-3.592-3.729-7.104-6.988-10.364c-5.566-5.565-12.81-8.629-20.396-8.629c-7.565,0-14.781,3.05-20.319,8.587
		c-1.824,1.823-3.392,3.889-4.669,6.129c-3.455,0.722-6.764,2.038-9.839,3.861H70.983v-2.965c0-5.928-4.824-10.752-10.752-10.752
		h-2.269c-5.928,0-10.752,4.824-10.752,10.752v2.914h-0.148c-6.988,0-13.426,2.79-18.131,7.859
		c-4.555,4.906-7.063,11.594-7.063,18.83c0,14.251,10.727,25.414,24.419,25.414c2.118,0,4.179-0.25,6.152-0.72h5.966l6.118,0.014
		v0.015h24.283c0.387,0.422,0.779,0.841,1.189,1.251c6.42,6.419,14.735,9.955,23.412,9.955h0.002c8.516,0,16.627-3.421,22.841-9.635
		c0.508-0.508,0.991-1.036,1.464-1.571h20.197h11.982h9.967h1.96c0.3,3.155,1.972,6.148,4.804,8.002
		c4.51,2.943,10.5,4.632,16.436,4.632c9.357,0,17.35-4.353,21.361-11.608c0.325-0.581,0.617-1.19,0.893-1.815
		c2.523,1.015,5.327,1.552,8.301,1.552c3.336,0,6.592-0.64,9.609-1.874c1.855,0.767,3.921,1.166,6.129,1.166
		c1.732,0,3.354-0.209,4.967-0.641c4.682-1.259,7.952-5.524,7.952-10.371v-1.689C262.271,76.665,260.892,73.681,258.509,71.657z"/>
</g>
</svg>
