<?xml version="1.0" encoding="utf-8"?>
<!-- Generator: Adobe Illustrator 14.0.0, SVG Export Plug-In . SVG Version: 6.00 Build 43363)  -->
<!DOCTYPE svg PUBLIC "-//W3C//DTD SVG 1.1//EN" "http://www.w3.org/Graphics/SVG/1.1/DTD/svg11.dtd">
<svg version="1.1" id="レイヤー_1" xmlns="http://www.w3.org/2000/svg" xmlns:xlink="http://www.w3.org/1999/xlink" x="0px"
	 y="0px" width="283.46px" height="127.559px" viewBox="0 0 283.46 127.559" enable-background="new 0 0 283.46 127.559"
	 xml:space="preserve">
<g>
	<defs>
		<rect id="SVGID_1_" width="283.46" height="127.559"/>
	</defs>
	<clipPath id="SVGID_2_">
		<use xlink:href="#SVGID_1_"  overflow="visible"/>
	</clipPath>
	<path clip-path="url(#SVGID_2_)" fill="none" stroke="#71C7D5" d="M203.06,115.102c-7.826,0-15.809-2.281-21.901-6.258
		c-2.564-1.679-4.679-3.857-6.249-6.377h-33.004c-7.904,7.241-17.949,11.207-28.495,11.207c-10.561,0-20.669-3.963-28.717-11.207
		h-20.17c-0.185,0-0.368-0.005-0.551-0.015l-5.59-0.013h-4.865c-2.373,0.478-4.799,0.72-7.229,0.72
		c-19.3,0-34.419-15.556-34.419-35.414c0-9.769,3.457-18.873,9.733-25.632c4.533-4.884,10.202-8.264,16.475-9.909
		c2.56-8.558,10.506-14.813,19.885-14.813h2.269c8.975,0,16.637,5.726,19.524,13.717h13.882c1.984-1.006,4.025-1.849,6.107-2.523
		c1.177-1.612,2.477-3.13,3.886-4.54c7.427-7.424,17.155-11.514,27.389-11.514c10.256,0,20.011,4.104,27.466,11.556
		c2.312,2.312,4.308,4.799,5.975,7.437h71.604c12.238,0,22.333,5.711,27.695,15.67c3.992,7.405,3.992,15.034,3.992,17.541v2.147
		c2.901,3.628,4.521,8.179,4.521,12.938v1.688c0,9.363-6.314,17.599-15.356,20.03c-2.475,0.661-4.945,0.982-7.563,0.982
		c-2.047,0-4.039-0.22-5.956-0.656c-3.16,0.906-6.437,1.364-9.782,1.364c-1.225,0-2.434-0.064-3.625-0.19
		C223.739,110.668,214.032,115.102,203.06,115.102z"/>
</g>
</svg>
