<?xml version="1.0" encoding="utf-8"?>
<!-- Generator: Adobe Illustrator 14.0.0, SVG Export Plug-In . SVG Version: 6.00 Build 43363)  -->
<!DOCTYPE svg PUBLIC "-//W3C//DTD SVG 1.1//EN" "http://www.w3.org/Graphics/SVG/1.1/DTD/svg11.dtd">
<svg version="1.1" id="レイヤー_1" xmlns="http://www.w3.org/2000/svg" xmlns:xlink="http://www.w3.org/1999/xlink" x="0px"
	 y="0px" width="283.46px" height="127.559px" viewBox="0 0 283.46 127.559" enable-background="new 0 0 283.46 127.559"
	 xml:space="preserve">
<g>
	<g>
		<path fill="#040000" d="M113.49,123.698c-12.667,0-24.773-4.658-34.454-13.188h-3.094c-7.839,7.994-18.917,12.504-31.03,12.504
			c-9.395,0-19.032-2.775-26.441-7.615C8.128,108.63,3.278,96.356,5.919,84.577c-2.26-5.378-3.442-11.221-3.442-17.094
			c0-12.255,4.579-23.592,12.894-31.921c7.991-8.017,19.035-12.618,30.296-12.618h45.171c1.233-0.58,2.489-1.111,3.761-1.59
			c1.024-1.257,2.111-2.46,3.248-3.595c9.143-9.144,21.155-14.181,33.822-14.181c12.684,0,24.724,5.053,33.904,14.229
			c1.63,1.63,3.141,3.346,4.52,5.13c20.57-0.015,64.457-0.046,67.034-0.046c15.418,0,28.202,7.322,35.075,20.09
			c4.687,8.688,4.971,17.34,4.988,20.866c2.852,4.557,4.424,9.877,4.474,15.281l0.001,1.92c0,13.24-8.931,24.86-21.718,28.264
			c-3.172,0.843-6.335,1.252-9.674,1.252c-1.894,0-3.771-0.146-5.604-0.438c-3.248,0.757-6.591,1.139-9.966,1.139
			c-0.548,0-1.095-0.011-1.64-0.03c-7.792,7.537-18.588,11.781-30.303,11.781c-9.395,0-19.031-2.775-26.439-7.613
			c-2.136-1.402-4.046-3.037-5.718-4.89l-22.886-0.001C138.167,119.044,126.132,123.698,113.49,123.698L113.49,123.698z"/>
		<g>
			<path fill="#FFFFFF" d="M87.551,51.896c-1.338-0.29-2.281-0.448-3.441-0.448c-2.848,0-5.33,0.831-7.393,2.468
				c-0.092,0.06-0.191,0.14-0.303,0.245c-0.23,0.197-0.453,0.406-0.67,0.621c-1.477,1.314-2.758,1.952-2.758-1.235v-0.666
				c0-0.404-0.328-0.732-0.732-0.732h-2.1c-0.201,0-0.389,0.081-0.527,0.223c-0.139,0.143-0.213,0.335-0.205,0.532
				c0.105,3.333,0.215,6.778,0.215,9.621v18.75c0,0.403,0.328,0.73,0.73,0.73h2.209c0.404,0,0.732-0.328,0.732-0.73v-9.914
				c0-1.371,0.107-3.806,0.311-4.813c1.568-7.797,4.982-11.588,10.436-11.588c0.979,0,1.879,0.165,2.873,0.363
				c0.047,0.011,0.096,0.015,0.143,0.015c0.148,0,0.295-0.045,0.418-0.131c0.162-0.113,0.273-0.288,0.307-0.484l0.322-1.994
				C88.18,52.346,87.93,51.978,87.551,51.896z"/>
			<path fill="#FFFFFF" d="M176.598,53.489c-2.514-1.774-5.295-2.04-6.729-2.04c-2.91,0-5.646,0.912-7.82,2.495
				c-0.006,0.004-0.012,0.005-0.016,0.009c-1.006,0.648-2.627,0.909-2.617-0.625v-0.021c0-0.107-0.004-0.199-0.014-0.277
				l-0.008-0.182c-0.02-0.391-0.342-0.698-0.732-0.698h-2.102c-0.201,0-0.396,0.084-0.533,0.232
				c-0.139,0.148-0.211,0.347-0.195,0.549c0.152,2.28,0.211,4.171,0.211,6.524v21.822c0,0.403,0.33,0.73,0.734,0.73h2.209
				c0.404,0,0.73-0.328,0.73-0.73V63.765c0-0.813,0.254-1.761,0.49-2.377c0.004-0.008,0.006-0.018,0.01-0.026
				c1.045-3.042,4.223-6.12,8.418-6.475c3.234,0.002,8.324,2.358,9.023,8.226c0.016,0.15,0.029,0.299,0.041,0.444
				c0.004,0.049,0.008,0.099,0.012,0.149c0.006,0.07,0.01,0.139,0.016,0.209c0.008,0.19,0.014,0.384,0.014,0.582
				c0,0.335,0.006,0.638,0.02,0.911v15.869c0,0.404,0.324,0.731,0.729,0.731h2.211c0.402,0,0.732-0.328,0.732-0.731V65.005
				C181.432,59.63,179.805,55.757,176.598,53.489z"/>
			<path fill="#FFFFFF" d="M252.82,78.831c-0.133-0.113-0.301-0.174-0.473-0.174c-0.039,0-0.08,0.002-0.119,0.01
				c-0.588,0.098-0.963,0.098-1.443,0.098c-1.146,0-2.178-0.335-2.178-4.387v-9.913c0-2.343-0.18-5.368-1.582-7.972
				c-1.824-3.382-5.182-5.098-9.98-5.098c-2.475,0-6.217,0.516-9.988,2.974c-0.314,0.205-0.424,0.615-0.252,0.949l0.861,1.67
				c0.098,0.189,0.271,0.326,0.479,0.375c0.059,0.014,0.117,0.021,0.174,0.021c0.15,0,0.297-0.047,0.422-0.135
				c2.314-1.639,5.189-2.504,8.307-2.504c3.994,0,6.004,1.854,7,3.939l0,0c1.002,2.221-0.563,4.404-2.285,4.584
				c-0.084,0.005-0.17,0.008-0.254,0.013c-0.016,0-0.027,0.001-0.043,0c-0.055-0.001-0.102,0.003-0.143,0.009
				c-10.979,0.626-16.537,4.313-16.537,10.98c0,2.027,0.801,4.058,2.201,5.569c1.234,1.333,3.559,2.921,7.637,2.921
				c3.471,0,6.27-1.112,8.324-2.472c0.061-0.031,0.131-0.076,0.211-0.142c0.021-0.017,0.043-0.03,0.064-0.048
				c0.127-0.088,0.256-0.177,0.377-0.268c1.275-0.825,1.969-0.352,2.623,0.504c0.002,0.002,0.006,0.005,0.008,0.007
				c0.838,1.14,2.162,1.718,3.963,1.718c0.846,0,1.59-0.094,2.342-0.294c0.322-0.085,0.545-0.375,0.545-0.707v-1.67
				C253.08,79.175,252.984,78.97,252.82,78.831z M234.568,79.358c-3.041,0-6.111-1.724-6.111-5.572c0-4.863,5.938-6.58,12.166-7.043
				c2.32-0.043,4.1,2.162,4.314,4.574v0.989c-0.064,0.647-0.246,1.289-0.57,1.888c-0.16,0.264-0.354,0.557-0.588,0.864
				c-0.039,0.047-0.076,0.093-0.104,0.134C242.234,77.04,239.453,79.358,234.568,79.358z"/>
			<path fill="#FFFFFF" d="M58.842,52.148h-2.049c-0.393,0-0.717,0.311-0.73,0.703c-0.066,1.618-0.893,1.836-2.703,0.766
				c-0.01-0.006-0.018-0.014-0.027-0.019c-0.178-0.119-0.361-0.231-0.545-0.339c-0.012-0.007-0.021-0.012-0.033-0.02
				c-0.086-0.059-0.17-0.104-0.244-0.14c-1.98-1.096-4.305-1.65-6.922-1.65c-3.738,0-7.43,1.548-10.123,4.25
				c-2.082,2.087-4.564,5.826-4.564,11.784c0,3.818,1.348,7.413,3.793,10.122c2.594,2.875,6.234,4.458,10.248,4.458
				c3.111,0,5.514-0.818,7.336-1.896c0.002-0.002,0.008-0.004,0.01-0.006c1.953-0.873,3.604-2.182,3.137,2.232
				c-0.875,5.678-4.518,8.766-10.482,8.766c-4.176,0-7.309-1.404-9.201-2.584c-0.119-0.071-0.254-0.109-0.389-0.109
				c-0.061,0-0.121,0.008-0.184,0.023c-0.191,0.049-0.355,0.176-0.455,0.35l-0.971,1.725c-0.188,0.336-0.084,0.762,0.238,0.973
				c2.852,1.863,6.908,2.975,10.854,2.975c2.689,0,9.293-0.625,12.494-6.412c1.385-2.48,2.029-5.968,2.029-10.968V59.674
				c0-2.474,0.07-4.679,0.215-6.738c0.014-0.202-0.055-0.402-0.195-0.549C59.236,52.234,59.043,52.148,58.842,52.148z
				 M41.949,78.177c-0.605-0.24-7.607-3.216-7.016-11.811c0.555-7.946,5.725-10.459,6.52-10.798c1.279-0.5,2.701-0.769,4.24-0.769
				c1.666,0,3.113,0.327,4.354,0.873c6.85,3.871,7.697,16.452,0.887,21.467c-1.592,0.999-3.438,1.573-5.346,1.573
				C44.244,78.712,43.035,78.518,41.949,78.177z"/>
			<path fill="#FFFFFF" d="M216.688,52.148h-2.047c-0.393,0-0.715,0.311-0.73,0.703c-0.064,1.618-0.893,1.836-2.701,0.766
				c-0.012-0.005-0.02-0.014-0.027-0.019c-0.18-0.119-0.363-0.231-0.547-0.339c-0.012-0.008-0.021-0.014-0.031-0.02
				c-0.088-0.059-0.168-0.104-0.244-0.139c-1.982-1.097-4.307-1.651-6.924-1.651c-3.74,0-7.428,1.548-10.121,4.25
				c-2.082,2.087-4.564,5.826-4.564,11.784c0,3.818,1.348,7.413,3.791,10.122c2.598,2.875,6.232,4.458,10.248,4.458
				c3.111,0,5.516-0.818,7.336-1.896c0.004-0.002,0.008-0.004,0.012-0.006c1.953-0.873,3.602-2.183,3.135,2.233
				c-0.875,5.679-4.52,8.765-10.48,8.765c-4.176,0-7.311-1.404-9.203-2.584c-0.117-0.071-0.252-0.109-0.389-0.109
				c-0.061,0-0.123,0.008-0.182,0.023c-0.193,0.049-0.357,0.176-0.457,0.35l-0.967,1.725c-0.191,0.336-0.086,0.762,0.236,0.973
				c2.854,1.863,6.908,2.975,10.852,2.975c2.689,0,9.295-0.625,12.494-6.412c1.385-2.48,2.029-5.968,2.029-10.968V59.674
				c0-2.474,0.07-4.679,0.217-6.738c0.014-0.202-0.059-0.402-0.195-0.549C217.086,52.234,216.893,52.148,216.688,52.148z
				 M199.795,78.177c-0.604-0.24-7.605-3.216-7.01-11.811c0.549-7.94,5.715-10.456,6.518-10.798c1.275-0.5,2.697-0.769,4.24-0.769
				c1.662,0,3.111,0.327,4.354,0.873c6.846,3.871,7.697,16.452,0.883,21.467c-1.592,1-3.436,1.573-5.346,1.573
				C202.094,78.712,200.883,78.518,199.795,78.177z"/>
			
				<linearGradient id="SVGID_1_" gradientUnits="userSpaceOnUse" x1="399.498" y1="-87.5356" x2="399.498" y2="-152.5439" gradientTransform="matrix(1 0 0 -1 -279.2305 -55.1055)">
				<stop  offset="0" style="stop-color:#4A9ED8"/>
				<stop  offset="1" style="stop-color:#0C6BB0"/>
			</linearGradient>
			<path fill="url(#SVGID_1_)" d="M117.914,37.924c-2.338,2.336-4.109,5.342-5.031,8.654c-6.076-0.093-12.172,2.273-17.008,7.11
				c-8.143,8.141-10.674,22.913,0.668,34.253c9.541,9.543,23.793,9.688,33.145,0.333c4.422-4.424,7.236-10.506,7.297-16.94
				c3.141-0.834,6.125-2.506,8.67-5.049c6.957-6.958,9.086-18.918-0.311-28.317C137.51,30.137,125.717,30.12,117.914,37.924z
				 M143.535,58.346c-1.334,1.338-3.045,2.324-4.934,2.864c-3.025,0.867-4.654,0.777-5.695,2.515
				c-1.043,1.735-0.926,1.94-0.881,5.194c0.055,3.689-1.332,7.513-4.814,10.994c-5.318,5.318-15.139,6.504-22.365-0.721
				c-5.691-5.693-8.363-15.278-0.775-22.865c2.816-2.813,6.867-4.477,11.123-4.402c2.961,0.053,3.305,0.161,5.213-0.704
				c1.906-0.869,1.082-2.799,2.221-6.205c0.559-1.66,1.545-3.294,3.094-4.844c4.125-4.126,11.721-5.072,17.283,0.491
				C147.537,45.199,149.461,52.423,143.535,58.346z"/>
		</g>
	</g>
	<path fill="none" stroke="#FFFFFF" stroke-width="1.5" d="M263.159,79.297c-0.028-3.123-1.41-6.073-3.787-8.088
		c-0.222-0.188-0.451-0.367-0.686-0.536v-6.208c0-3.246-0.288-8.096-2.779-12.714c-2.082-3.868-7.293-10.356-18.781-10.356
		c-3.372,0-77.503,0.054-77.503,0.054c-1.491-3.658-3.813-7.234-7.132-10.554c-5.686-5.683-13.08-8.812-20.823-8.812
		c-7.725,0-15.092,3.115-20.744,8.767c-1.896,1.896-3.523,4.048-4.842,6.386c-3.742,0.766-7.328,2.195-10.635,4.213
		c0,0-49.24,0-49.781,0c-6.379,0-12.648,2.622-17.199,7.187c-4.828,4.837-7.486,11.531-7.486,18.848
		c0,5.836,1.941,11.393,5.494,15.799c-0.141,0.214-0.275,0.434-0.402,0.659l-0.963,1.716c-2.762,4.905-1.236,11.162,3.48,14.25
		c4.479,2.926,10.428,4.604,16.322,4.604c9.295,0,17.236-4.326,21.229-11.541c0.174-0.311,0.326-0.64,0.486-0.963h20.219
		c0.84,1.033,1.738,2.039,2.703,3.004c6.566,6.566,15.068,10.184,23.939,10.184h0.002c8.705,0,16.996-3.498,23.348-9.852
		c1.051-1.052,2.02-2.172,2.922-3.336l41.018,0.001c0.29,0,0.576-0.012,0.86-0.034c0.314,3.129,1.99,6.09,4.801,7.936
		c4.479,2.924,10.428,4.602,16.321,4.602c9.296,0,17.237-4.326,21.226-11.538c0.416-0.746,0.791-1.526,1.127-2.346
		c2.836,1.396,6.098,2.133,9.59,2.133c3.301,0,6.52-0.63,9.506-1.845c1.839,0.752,3.882,1.145,6.064,1.145
		c1.713,0,3.32-0.206,4.916-0.63c4.693-1.249,7.972-5.514,7.972-10.371L263.159,79.297z"/>
</g>
</svg>
