<?xml version="1.0" encoding="utf-8"?>
<!-- Generator: Adobe Illustrator 14.0.0, SVG Export Plug-In . SVG Version: 6.00 Build 43363)  -->
<!DOCTYPE svg PUBLIC "-//W3C//DTD SVG 1.1//EN" "http://www.w3.org/Graphics/SVG/1.1/DTD/svg11.dtd">
<svg version="1.1" id="レイヤー_1" xmlns="http://www.w3.org/2000/svg" xmlns:xlink="http://www.w3.org/1999/xlink" x="0px"
	 y="0px" width="283.46px" height="127.559px" viewBox="0 0 283.46 127.559" enable-background="new 0 0 283.46 127.559"
	 xml:space="preserve">
<path fill="none" stroke="#71C7D5" d="M113.49,113.698c-11.145,0-21.782-4.502-29.955-12.674c-0.169-0.17-0.337-0.341-0.504-0.514
	H71.373c-5.897,7.889-15.514,12.504-26.461,12.504c-7.503,0-15.147-2.182-20.973-5.987c-7.739-5.066-10.688-14.897-7.331-23.269
	c-2.688-4.926-4.132-10.539-4.132-16.275c0-9.586,3.541-18.414,9.972-24.856c6.133-6.152,14.597-9.683,23.218-9.683h47.53
	c2.417-1.288,4.93-2.329,7.515-3.112c1.257-1.786,2.662-3.458,4.2-4.997c7.259-7.259,16.762-11.257,26.757-11.257
	c10.014,0,19.543,4.014,26.835,11.301c2.494,2.496,4.613,5.192,6.339,8.061c16.945-0.012,69.458-0.05,72.284-0.05
	c16.505,0,23.869,10.371,26.27,14.83c3.401,6.305,3.795,12.576,3.795,16.745v2.591c2.83,3.384,4.432,7.674,4.473,12.164l0.001,1.834
	c0,8.711-5.876,16.355-14.289,18.594c-2.321,0.617-4.644,0.916-7.103,0.916c-2.043,0-4.026-0.232-5.929-0.693
	c-3.109,0.926-6.34,1.394-9.642,1.394c-1.946,0-3.841-0.167-5.677-0.497c-5.913,7.734-15.438,12.248-26.266,12.248
	c-7.503,0-15.146-2.182-20.971-5.986c-2.579-1.691-4.668-3.928-6.154-6.517l-31.964-0.001c-0.271,0.288-0.544,0.568-0.818,0.844
	C134.895,109.315,124.467,113.698,113.49,113.698L113.49,113.698z"/>
</svg>
