<?xml version="1.0" encoding="utf-8"?>
<!-- Generator: Adobe Illustrator 14.0.0, SVG Export Plug-In . SVG Version: 6.00 Build 43363)  -->
<!DOCTYPE svg PUBLIC "-//W3C//DTD SVG 1.1//EN" "http://www.w3.org/Graphics/SVG/1.1/DTD/svg11.dtd">
<svg version="1.1" id="レイヤー_1" xmlns="http://www.w3.org/2000/svg" xmlns:xlink="http://www.w3.org/1999/xlink" x="0px"
	 y="0px" width="306.142px" height="127.559px" viewBox="0 0 306.142 127.559" enable-background="new 0 0 306.142 127.559"
	 xml:space="preserve">
<g>
	<defs>
		<rect id="SVGID_1_" y="0" width="306.142" height="127.559"/>
	</defs>
	<clipPath id="SVGID_2_">
		<use xlink:href="#SVGID_1_"  overflow="visible"/>
	</clipPath>
	<path clip-path="url(#SVGID_2_)" fill="#040000" d="M132.265,124.279c-12.642,0-24.725-4.64-34.396-13.138l-62.231,0.002
		c-16.121,0-29.236-13.115-29.236-29.235v-27.65c0-17.205,12.842-30.682,29.236-30.682h73.842c1.276-0.603,2.578-1.153,3.898-1.65
		c1.023-1.252,2.108-2.452,3.242-3.586c9.141-9.144,21.154-14.182,33.821-14.182c12.683,0,24.724,5.053,33.905,14.229
		c1.648,1.649,3.175,3.382,4.565,5.183c0,0,65.674-0.047,66.97-0.047c15.412,0,28.196,7.319,35.072,20.08
		c4.69,8.702,4.976,17.348,4.994,20.874c2.9,4.632,4.473,10.045,4.473,15.543v1.669c0,13.267-8.959,24.892-21.787,28.271
		c-3.102,0.828-6.252,1.234-9.603,1.234c-1.894,0-3.77-0.146-5.604-0.438c-3.247,0.756-6.591,1.139-9.968,1.139
		c-0.547,0-1.092-0.01-1.636-0.031c-7.79,7.537-18.587,11.78-30.305,11.78c-9.389,0-19.021-2.772-26.431-7.607
		c-2.145-1.411-4.061-3.052-5.734-4.909c-5.068,0.004-12.367,0.008-22.913,0.012C156.91,119.638,144.892,124.279,132.265,124.279"/>
	<path clip-path="url(#SVGID_2_)" fill="#FFFFFF" d="M106.308,52.477c-1.338-0.291-2.281-0.448-3.441-0.448
		c-2.848,0-5.33,0.831-7.393,2.466c-0.092,0.062-0.191,0.14-0.303,0.247c-0.23,0.196-0.453,0.406-0.67,0.621
		c-1.476,1.313-2.757,1.951-2.757-1.236V53.46c0-0.405-0.329-0.732-0.733-0.732h-2.099c-0.202,0-0.389,0.08-0.528,0.223
		c-0.139,0.142-0.213,0.334-0.205,0.532c0.106,3.332,0.215,6.777,0.215,9.621v18.749c0,0.405,0.328,0.731,0.73,0.731h2.209
		c0.405,0,0.733-0.326,0.733-0.731V71.94c0-1.37,0.107-3.805,0.31-4.813c1.569-7.797,4.983-11.588,10.436-11.588
		c0.978,0,1.879,0.164,2.873,0.362c0.047,0.01,0.096,0.015,0.143,0.015c0.148,0,0.294-0.045,0.417-0.131
		c0.163-0.112,0.274-0.288,0.307-0.484l0.322-1.994C106.937,52.925,106.687,52.559,106.308,52.477"/>
	<path clip-path="url(#SVGID_2_)" fill="#FFFFFF" d="M195.353,54.068c-2.514-1.776-5.295-2.04-6.729-2.04
		c-2.91,0-5.646,0.912-7.82,2.495c-0.006,0.003-0.012,0.004-0.015,0.008c-1.006,0.649-2.627,0.91-2.618-0.625v-0.022
		c0-0.105-0.004-0.197-0.013-0.276l-0.008-0.182c-0.021-0.391-0.343-0.698-0.733-0.698h-2.101c-0.201,0-0.397,0.083-0.533,0.231
		c-0.14,0.148-0.211,0.347-0.196,0.55c0.153,2.28,0.211,4.171,0.211,6.524v21.82c0,0.405,0.33,0.731,0.735,0.731h2.209
		c0.404,0,0.729-0.326,0.729-0.731v-17.51c0-0.813,0.254-1.762,0.49-2.378c0.004-0.009,0.006-0.016,0.01-0.024
		c1.045-3.043,4.224-6.121,8.418-6.475c3.234,0.002,8.324,2.358,9.024,8.226c0.015,0.15,0.029,0.299,0.041,0.443
		c0.003,0.049,0.007,0.099,0.011,0.149c0.006,0.07,0.01,0.141,0.017,0.208c0.008,0.192,0.014,0.386,0.014,0.583
		c0,0.335,0.005,0.637,0.019,0.91v15.868c0,0.405,0.324,0.731,0.729,0.731h2.211c0.402,0,0.732-0.326,0.732-0.731V65.583
		C200.188,60.21,198.56,56.336,195.353,54.068"/>
	<path clip-path="url(#SVGID_2_)" fill="#FFFFFF" d="M271.577,79.41c-0.134-0.112-0.302-0.173-0.474-0.173
		c-0.039,0-0.08,0.003-0.119,0.01c-0.588,0.098-0.963,0.098-1.442,0.098c-1.147,0-2.179-0.336-2.179-4.387v-9.912
		c0-2.343-0.18-5.368-1.582-7.971c-1.823-3.384-5.182-5.1-9.979-5.1c-2.475,0-6.217,0.516-9.989,2.975
		c-0.313,0.205-0.424,0.615-0.252,0.949l0.862,1.669c0.097,0.189,0.271,0.326,0.478,0.376c0.06,0.015,0.117,0.021,0.174,0.021
		c0.15,0,0.298-0.046,0.423-0.135c2.313-1.639,5.188-2.506,8.307-2.506c3.994,0,6.003,1.854,7,3.94
		c1.001,2.22-0.563,4.403-2.286,4.584c-0.084,0.004-0.17,0.008-0.254,0.013c-0.015-0.001-0.027,0.001-0.043,0
		c-0.054-0.001-0.101,0.001-0.142,0.009c-10.979,0.625-16.537,4.313-16.537,10.98c0,2.028,0.801,4.057,2.201,5.566
		c1.233,1.335,3.559,2.923,7.637,2.923c3.47,0,6.269-1.11,8.324-2.472c0.06-0.032,0.131-0.077,0.211-0.141
		c0.021-0.018,0.043-0.031,0.063-0.048c0.127-0.09,0.256-0.178,0.377-0.269c1.276-0.823,1.969-0.351,2.623,0.503
		c0.002,0.003,0.006,0.006,0.008,0.008c0.838,1.142,2.162,1.717,3.963,1.717c0.847,0,1.591-0.092,2.343-0.293
		c0.321-0.084,0.545-0.375,0.545-0.707v-1.67C271.836,79.755,271.74,79.55,271.577,79.41 M253.324,79.938
		c-3.04,0-6.11-1.722-6.11-5.572c0-4.862,5.937-6.58,12.166-7.043c2.319-0.043,4.099,2.161,4.313,4.575v0.988
		c-0.063,0.647-0.246,1.289-0.569,1.889c-0.16,0.266-0.354,0.557-0.588,0.865c-0.039,0.048-0.076,0.093-0.104,0.133
		C260.99,77.619,258.209,79.938,253.324,79.938"/>
	<path clip-path="url(#SVGID_2_)" fill="#FFFFFF" d="M235.444,52.73h-2.047c-0.394,0-0.715,0.31-0.731,0.702
		c-0.063,1.619-0.892,1.837-2.701,0.765c-0.012-0.004-0.019-0.012-0.026-0.02c-0.181-0.117-0.364-0.23-0.547-0.337
		c-0.013-0.007-0.022-0.014-0.031-0.021c-0.088-0.057-0.168-0.103-0.245-0.139c-1.982-1.095-4.306-1.65-6.923-1.65
		c-3.741,0-7.428,1.548-10.121,4.249c-2.083,2.087-4.565,5.828-4.565,11.785c0,3.818,1.349,7.413,3.791,10.121
		c2.599,2.875,6.233,4.458,10.248,4.458c3.111,0,5.517-0.819,7.336-1.896c0.005-0.002,0.009-0.003,0.013-0.005
		c1.953-0.875,3.601-2.184,3.135,2.232c-0.875,5.678-4.521,8.765-10.481,8.765c-4.176,0-7.31-1.405-9.202-2.585
		c-0.117-0.072-0.253-0.107-0.39-0.107c-0.06,0-0.123,0.006-0.181,0.022c-0.194,0.049-0.358,0.176-0.457,0.351l-0.967,1.724
		c-0.192,0.336-0.086,0.76,0.235,0.972c2.854,1.862,6.908,2.975,10.853,2.975c2.688,0,9.295-0.625,12.494-6.412
		c1.385-2.482,2.028-5.969,2.028-10.969V60.252c0-2.474,0.07-4.679,0.218-6.739c0.014-0.202-0.06-0.401-0.195-0.549
		C235.844,52.815,235.649,52.73,235.444,52.73 M218.551,78.757c-0.604-0.24-7.605-3.217-7.011-11.813
		c0.549-7.938,5.715-10.454,6.519-10.796c1.274-0.5,2.696-0.768,4.239-0.768c1.662,0,3.111,0.327,4.354,0.873
		c6.845,3.871,7.697,16.451,0.882,21.466c-1.591,1-3.435,1.572-5.345,1.572C220.85,79.29,219.639,79.099,218.551,78.757"/>
</g>
<g>
	<defs>
		<path id="SVGID_3_" d="M139.179,51.75c1.906-0.87,1.081-2.801,2.223-6.205c0.556-1.66,1.542-3.295,3.091-4.844
			c4.125-4.127,11.72-5.072,17.285,0.49c4.53,4.534,6.454,11.76,0.531,17.684c-1.336,1.336-3.048,2.323-4.937,2.862
			c-3.025,0.868-4.655,0.777-5.694,2.515c-1.043,1.735-0.926,1.94-0.881,5.194c0.057,3.688-1.331,7.515-4.812,10.996
			c-5.32,5.317-15.139,6.504-22.366-0.722c-5.692-5.695-8.364-15.278-0.776-22.865c2.816-2.813,6.867-4.478,11.123-4.402
			c0.847,0.015,1.48,0.034,1.997,0.034C137.253,52.487,137.818,52.366,139.179,51.75 M136.687,38.452
			c-2.339,2.337-4.11,5.343-5.031,8.655c-6.077-0.094-12.173,2.272-17.009,7.11c-8.142,8.141-10.674,22.911,0.668,34.253
			c9.544,9.543,23.793,9.687,33.145,0.334c4.421-4.423,7.235-10.507,7.296-16.942c3.141-0.836,6.125-2.506,8.669-5.048
			c6.957-6.959,9.087-18.919-0.311-28.318c-3.924-3.923-8.842-5.885-13.754-5.885C145.468,32.61,140.58,34.557,136.687,38.452"/>
	</defs>
	<clipPath id="SVGID_4_">
		<use xlink:href="#SVGID_3_"  overflow="visible"/>
	</clipPath>
	
		<linearGradient id="SVGID_5_" gradientUnits="userSpaceOnUse" x1="0" y1="127.5625" x2="1" y2="127.5625" gradientTransform="matrix(0 69.0081 -69.0081 0 8941.6025 30.5611)">
		<stop  offset="0" style="stop-color:#EFB65F"/>
		<stop  offset="1" style="stop-color:#F18F2A"/>
	</linearGradient>
	<rect x="103.973" y="32.611" clip-path="url(#SVGID_4_)" fill="url(#SVGID_5_)" width="69.539" height="65.545"/>
</g>
<g>
	<defs>
		<rect id="SVGID_6_" y="0" width="306.142" height="127.559"/>
	</defs>
	<clipPath id="SVGID_7_">
		<use xlink:href="#SVGID_6_"  overflow="visible"/>
	</clipPath>
	<path clip-path="url(#SVGID_7_)" fill="#FFFFFF" d="M67.454,52.028c-3.604,0-5.781,1.055-7.803,2.675
		c-0.002,0.001-0.002,0.001-0.002,0.002c-2.14,1.482-3.267,1.373-5.031,0.007c-0.01-0.007-0.018-0.009-0.025-0.015
		c-1.785-1.704-4.11-2.669-6.696-2.669c-2.797,0-5.131,0.737-7.113,2.275c-0.041,0.029-0.086,0.062-0.129,0.102
		c-0.877,0.785-2.285,1.01-2.443-0.238l-0.018-0.316c0.002-0.087-0.002-0.167-0.01-0.234l-0.009-0.19
		c-0.018-0.391-0.34-0.697-0.731-0.697h-2.101c-0.205,0-0.397,0.083-0.535,0.232c-0.139,0.149-0.209,0.347-0.196,0.55
		c0.149,2.118,0.215,4.13,0.215,6.523v21.82c0,0.405,0.328,0.731,0.731,0.731h2.21c0.403,0,0.731-0.326,0.731-0.731V64.398
		c0-1.086,0.266-1.975,0.486-2.529c1.184-3.106,4.305-6.436,8.373-6.436c4.43,0,7.295,3.476,7.295,8.857v17.564
		c0,0.403,0.328,0.732,0.731,0.732h2.211c0.402,0,0.73-0.329,0.73-0.732V63.537c0-1.093,0.289-1.956,0.541-2.585
		c1.117-2.651,4.063-5.519,7.887-5.519c4.982,0,7.726,3.681,7.726,10.366v16.056c0,0.403,0.327,0.732,0.733,0.732h2.209
		c0.404,0,0.732-0.329,0.732-0.732V65.854C78.153,53.025,69.964,52.028,67.454,52.028"/>
	<path clip-path="url(#SVGID_7_)" fill="none" stroke="#FFFFFF" stroke-width="1.5" d="M278.131,71.841
		c-0.224-0.188-0.451-0.368-0.688-0.536v-6.207c0-3.244-0.287-8.092-2.779-12.717c-2.084-3.867-7.297-10.353-18.782-10.353
		c-3.369,0-74.803,0.052-77.424,0.052l-0.062-0.085c-1.491-3.646-3.821-7.21-7.131-10.52c-5.687-5.683-13.082-8.813-20.824-8.813
		c-7.723,0-15.092,3.116-20.745,8.77c-1.898,1.896-3.525,4.049-4.839,6.385c-3.758,0.767-7.362,2.195-10.678,4.226l-0.063,0.037
		H35.638c-6.106,0-10.733,4.756-10.733,12.179v27.649c0,5.917,4.815,10.731,10.733,10.731l70.051-0.002l0.089,0.155
		c0.793,0.962,1.643,1.896,2.545,2.799c6.567,6.566,15.069,10.184,23.94,10.184h0.002c8.703,0,16.996-3.498,23.345-9.851
		c0.932-0.932,1.868-2.071,2.768-3.287c0,0,41.733-0.012,42.018-0.034c0.313,3.126,1.99,6.086,4.806,7.938
		c4.479,2.923,10.426,4.6,16.317,4.6c9.297,0,17.24-4.326,21.226-11.539c0.416-0.744,0.791-1.523,1.125-2.343
		c2.838,1.395,6.099,2.133,9.59,2.133c3.304,0,6.522-0.63,9.507-1.845c1.838,0.752,3.881,1.144,6.063,1.144
		c1.717,0,3.325-0.206,4.891-0.624c4.709-1.24,7.996-5.508,7.996-10.377v-1.669C281.916,76.863,280.535,73.881,278.131,71.841z"/>
</g>
</svg>
