<?xml version="1.0" encoding="utf-8"?>
<!-- Generator: Adobe Illustrator 14.0.0, SVG Export Plug-In . SVG Version: 6.00 Build 43363)  -->
<!DOCTYPE svg PUBLIC "-//W3C//DTD SVG 1.1//EN" "http://www.w3.org/Graphics/SVG/1.1/DTD/svg11.dtd">
<svg version="1.1" id="レイヤー_1" xmlns="http://www.w3.org/2000/svg" xmlns:xlink="http://www.w3.org/1999/xlink" x="0px"
	 y="0px" width="306.142px" height="127.559px" viewBox="0 0 306.142 127.559" enable-background="new 0 0 306.142 127.559"
	 xml:space="preserve">
<g>
	<defs>
		<rect id="SVGID_1_" y="0" width="306.142" height="127.559"/>
	</defs>
	<clipPath id="SVGID_2_">
		<use xlink:href="#SVGID_1_"  overflow="visible"/>
	</clipPath>
	<path clip-path="url(#SVGID_2_)" fill="none" stroke="#71C7D5" d="M132.265,114.279c-11.144,0-21.781-4.501-29.955-12.675
		c-0.153-0.152-0.306-0.307-0.457-0.463l-66.215,0.002c-10.607,0-19.236-8.629-19.236-19.235v-27.65
		c0-11.791,8.269-20.682,19.236-20.682h76.214c2.438-1.309,4.993-2.369,7.634-3.166c1.255-1.784,2.66-3.456,4.201-4.995
		c7.255-7.258,16.758-11.257,26.754-11.257c10.013,0,19.544,4.014,26.836,11.302c2.515,2.515,4.648,5.23,6.38,8.113
		c6.4-0.004,70.434-0.05,72.224-0.05c16.5,0,23.867,10.366,26.271,14.823c3.402,6.316,3.797,12.585,3.797,16.751v2.59
		c2.873,3.435,4.472,7.782,4.472,12.333v1.669c0,8.729-5.894,16.378-14.334,18.601c-2.271,0.605-4.589,0.904-7.056,0.904
		c-2.043,0-4.026-0.232-5.927-0.691c-3.109,0.925-6.342,1.393-9.645,1.393c-1.945,0-3.839-0.166-5.674-0.496
		c-5.908,7.729-15.434,12.245-26.267,12.245c-7.498,0-15.14-2.181-20.965-5.981c-2.588-1.701-4.683-3.947-6.17-6.541
		c-5.23,0.008-14.705,0.014-31.993,0.019c-0.257,0.276-0.513,0.542-0.768,0.798C153.668,109.896,143.243,114.279,132.265,114.279z"
		/>
</g>
</svg>
