<?xml version="1.0" encoding="utf-8"?>
<!-- Generator: Adobe Illustrator 14.0.0, SVG Export Plug-In . SVG Version: 6.00 Build 43363)  -->
<!DOCTYPE svg PUBLIC "-//W3C//DTD SVG 1.1//EN" "http://www.w3.org/Graphics/SVG/1.1/DTD/svg11.dtd">
<svg version="1.1" id="レイヤー_1" xmlns="http://www.w3.org/2000/svg" xmlns:xlink="http://www.w3.org/1999/xlink" x="0px"
	 y="0px" width="283.46px" height="127.559px" viewBox="0 0 283.46 127.559" enable-background="new 0 0 283.46 127.559"
	 xml:space="preserve">
<g>
	<g>
		<path fill="#040000" d="M111.96,123.829c-12.667-0.001-24.773-4.658-34.453-13.187l-44.268-0.004
			c-16.119,0-29.233-13.115-29.233-29.235V53.721c0-16.612,13.389-30.646,29.236-30.646h56.068c1.232-0.579,2.487-1.11,3.757-1.589
			c1.025-1.258,2.112-2.461,3.25-3.597c9.14-9.142,21.152-14.18,33.819-14.18c12.684,0,24.725,5.053,33.905,14.229
			c1.628,1.629,3.139,3.344,4.517,5.129c0,0,64.745-0.047,67.037-0.047c15.418,0,28.203,7.324,35.077,20.096
			c4.689,8.693,4.97,17.355,4.986,20.874c2.854,4.563,4.426,9.882,4.474,15.275l0.001,1.913c0,13.202-8.898,24.814-21.64,28.243
			c-3.249,0.859-6.427,1.272-9.752,1.272c-1.893,0-3.768-0.146-5.6-0.438c-3.25,0.757-6.595,1.14-9.971,1.14
			c-0.548,0-1.096-0.011-1.641-0.031c-7.792,7.536-18.587,11.78-30.302,11.78c-9.391,0-19.025-2.774-26.434-7.61
			c-2.136-1.4-4.047-3.036-5.719-4.892h-22.889C136.656,119.168,124.614,123.829,111.96,123.829
			C111.961,123.829,111.961,123.829,111.96,123.829z"/>
		<g>
			<path fill="#FFFFFF" d="M86.021,52.026c-1.338-0.292-2.281-0.447-3.441-0.447c-2.848,0-5.33,0.83-7.393,2.466
				c-0.092,0.061-0.191,0.141-0.303,0.246c-0.23,0.197-0.453,0.406-0.67,0.622c-1.477,1.313-2.758,1.949-2.758-1.235V53.01
				c0-0.402-0.328-0.729-0.732-0.729h-2.1c-0.201,0-0.389,0.079-0.527,0.222s-0.213,0.334-0.205,0.532
				c0.105,3.332,0.215,6.776,0.215,9.622v18.75c0,0.402,0.328,0.732,0.73,0.732h2.209c0.404,0,0.732-0.33,0.732-0.732v-9.914
				c0-1.372,0.107-3.807,0.311-4.813c1.568-7.799,4.982-11.59,10.436-11.59c0.979,0,1.879,0.164,2.873,0.363
				c0.047,0.01,0.096,0.014,0.143,0.014c0.148,0,0.295-0.043,0.418-0.129c0.162-0.115,0.273-0.289,0.307-0.484l0.322-1.995
				C86.65,52.475,86.4,52.107,86.021,52.026z"/>
			<path fill="#FFFFFF" d="M175.067,53.618c-2.514-1.774-5.295-2.04-6.729-2.04c-2.91,0-5.646,0.911-7.82,2.494
				c-0.006,0.003-0.012,0.005-0.016,0.009c-1.006,0.647-2.627,0.908-2.617-0.625v-0.022c0-0.105-0.004-0.197-0.014-0.275
				l-0.008-0.182c-0.02-0.392-0.342-0.697-0.732-0.697h-2.102c-0.201,0-0.396,0.083-0.533,0.23
				c-0.139,0.146-0.211,0.346-0.195,0.549c0.152,2.281,0.211,4.17,0.211,6.523v21.821c0,0.401,0.33,0.731,0.734,0.731h2.209
				c0.404,0,0.73-0.33,0.73-0.731V63.893c0-0.813,0.254-1.764,0.49-2.379c0.004-0.008,0.006-0.016,0.01-0.023
				c1.045-3.044,4.223-6.12,8.418-6.475c3.234,0.002,8.324,2.358,9.023,8.225c0.016,0.148,0.029,0.298,0.041,0.443
				c0.004,0.05,0.008,0.098,0.012,0.147c0.006,0.073,0.01,0.142,0.016,0.21c0.008,0.189,0.014,0.385,0.014,0.583
				c0,0.334,0.006,0.638,0.02,0.91v15.87c0,0.402,0.324,0.731,0.729,0.731h2.211c0.402,0,0.732-0.329,0.732-0.731V65.133
				C179.901,59.76,178.274,55.885,175.067,53.618z"/>
			<path fill="#FFFFFF" d="M52.982,53.618c-2.512-1.774-5.293-2.04-6.727-2.04c-2.91,0-5.648,0.911-7.822,2.494
				c-0.006,0.003-0.008,0.005-0.014,0.009c-1.006,0.647-2.627,0.908-2.617-0.625l-0.002-0.022c0.002-0.105-0.002-0.197-0.012-0.275
				l-0.008-0.182c-0.021-0.392-0.342-0.697-0.732-0.697h-2.1c-0.205,0-0.398,0.083-0.535,0.23c-0.139,0.146-0.211,0.346-0.195,0.549
				c0.15,2.281,0.215,4.17,0.215,6.523v21.821c0,0.401,0.326,0.731,0.729,0.731h2.211c0.402,0,0.73-0.33,0.73-0.731V63.893
				c0-0.813,0.254-1.764,0.49-2.379c0.004-0.008,0.006-0.016,0.008-0.023c1.045-3.044,4.225-6.12,8.418-6.475
				c3.236,0.002,8.326,2.358,9.023,8.225c0.018,0.148,0.031,0.298,0.043,0.443c0.004,0.05,0.008,0.098,0.012,0.147
				c0.006,0.073,0.012,0.142,0.016,0.21c0.008,0.189,0.014,0.385,0.014,0.583c0,0.334,0.006,0.638,0.02,0.91v15.87
				c0,0.402,0.326,0.731,0.729,0.731h2.209c0.404,0,0.734-0.329,0.734-0.731V65.133C57.818,59.76,56.191,55.885,52.982,53.618z"/>
			<path fill="#FFFFFF" d="M251.29,78.96c-0.133-0.112-0.301-0.174-0.473-0.174c-0.039,0-0.08,0.004-0.119,0.011
				c-0.588,0.1-0.963,0.1-1.443,0.1c-1.146,0-2.178-0.337-2.178-4.387v-9.914c0-2.345-0.18-5.369-1.582-7.972
				c-1.824-3.384-5.182-5.101-9.98-5.101c-2.475,0-6.217,0.516-9.988,2.975c-0.314,0.204-0.424,0.615-0.252,0.949l0.861,1.671
				c0.098,0.188,0.271,0.324,0.479,0.375c0.059,0.013,0.117,0.021,0.174,0.021c0.15,0,0.297-0.047,0.422-0.133
				c2.314-1.641,5.189-2.508,8.307-2.508c3.994,0,6.004,1.855,7,3.941l0,0c1.002,2.22-0.563,4.404-2.285,4.585
				c-0.084,0.004-0.17,0.007-0.254,0.012c-0.016,0-0.027,0.001-0.043,0c-0.055-0.002-0.102,0.002-0.143,0.009
				c-10.979,0.627-16.537,4.313-16.537,10.979c0,2.028,0.801,4.056,2.201,5.569c1.234,1.332,3.559,2.923,7.637,2.923
				c3.471,0,6.27-1.112,8.324-2.475c0.061-0.03,0.131-0.076,0.211-0.141c0.021-0.018,0.043-0.03,0.064-0.047
				c0.127-0.091,0.256-0.178,0.377-0.271c1.275-0.824,1.969-0.35,2.623,0.505c0.002,0.001,0.006,0.004,0.008,0.009
				c0.838,1.141,2.162,1.717,3.963,1.717c0.846,0,1.59-0.094,2.342-0.293c0.322-0.086,0.545-0.376,0.545-0.708v-1.67
				C251.55,79.305,251.454,79.1,251.29,78.96z M233.038,79.488c-3.041,0-6.111-1.724-6.111-5.573c0-4.862,5.938-6.58,12.166-7.043
				c2.32-0.043,4.1,2.161,4.314,4.575v0.988c-0.064,0.646-0.246,1.289-0.57,1.889c-0.16,0.266-0.354,0.557-0.588,0.864
				c-0.039,0.049-0.076,0.094-0.104,0.135C240.704,77.17,237.923,79.488,233.038,79.488z"/>
			<path fill="#FFFFFF" d="M215.157,52.28h-2.047c-0.393,0-0.715,0.31-0.73,0.702c-0.064,1.617-0.893,1.835-2.701,0.766
				c-0.012-0.006-0.02-0.014-0.027-0.02c-0.18-0.12-0.363-0.229-0.547-0.338c-0.012-0.01-0.021-0.015-0.031-0.021
				c-0.088-0.057-0.168-0.102-0.244-0.139c-1.982-1.096-4.307-1.65-6.924-1.65c-3.74,0-7.428,1.547-10.121,4.249
				c-2.082,2.087-4.564,5.826-4.564,11.783c0,3.819,1.348,7.415,3.791,10.124c2.598,2.872,6.232,4.456,10.248,4.456
				c3.111,0,5.516-0.82,7.336-1.896c0.004-0.002,0.008-0.004,0.012-0.005c1.953-0.873,3.602-2.182,3.135,2.234
				c-0.875,5.678-4.52,8.765-10.48,8.765c-4.176,0-7.311-1.406-9.203-2.584c-0.117-0.074-0.252-0.11-0.389-0.11
				c-0.061,0-0.123,0.008-0.182,0.021c-0.193,0.051-0.357,0.176-0.457,0.351l-0.967,1.726c-0.191,0.335-0.086,0.761,0.236,0.972
				c2.854,1.862,6.908,2.976,10.852,2.976c2.689,0,9.295-0.624,12.494-6.413c1.385-2.48,2.029-5.969,2.029-10.969V59.803
				c0-2.475,0.07-4.678,0.217-6.737c0.014-0.202-0.059-0.402-0.195-0.55C215.558,52.367,215.362,52.28,215.157,52.28z
				 M198.265,78.305c-0.604-0.238-7.605-3.215-7.01-11.81c0.549-7.94,5.715-10.457,6.518-10.798c1.275-0.499,2.697-0.77,4.24-0.77
				c1.662,0,3.111,0.328,4.354,0.875c6.846,3.869,7.697,16.453,0.883,21.465c-1.592,1-3.436,1.573-5.346,1.573
				C200.563,78.841,199.353,78.646,198.265,78.305z"/>
			
				<linearGradient id="SVGID_1_" gradientUnits="userSpaceOnUse" x1="397.9678" y1="-84.8887" x2="397.9678" y2="-150.9193" gradientTransform="matrix(1 0 0 -1 -279.2305 -55.1055)">
				<stop  offset="0" style="stop-color:#88BF4D"/>
				<stop  offset="1" style="stop-color:#699A31"/>
			</linearGradient>
			<path fill="url(#SVGID_1_)" d="M116.385,38.055c-2.338,2.336-4.109,5.342-5.031,8.654c-6.076-0.094-12.172,2.273-17.008,7.109
				c-8.143,8.14-10.674,22.912,0.668,34.253c9.541,9.542,23.793,9.688,33.145,0.333c4.422-4.423,7.236-10.505,7.297-16.939
				c3.14-0.836,6.124-2.509,8.669-5.049c6.957-6.96,9.086-18.919-0.311-28.318C135.98,30.268,124.188,30.25,116.385,38.055z
				 M142.005,58.475c-1.334,1.338-3.045,2.324-4.933,2.863c-3.025,0.866-4.654,0.778-5.695,2.516
				c-1.043,1.734-0.926,1.939-0.881,5.193c0.055,3.688-1.332,7.514-4.814,10.995c-5.318,5.318-15.139,6.503-22.365-0.722
				c-5.691-5.694-8.363-15.278-0.775-22.864c2.816-2.813,6.867-4.478,11.123-4.401c2.961,0.051,3.305,0.162,5.213-0.703
				c1.906-0.871,1.082-2.801,2.221-6.205c0.559-1.66,1.545-3.297,3.094-4.846c4.125-4.125,11.721-5.072,17.282,0.49
				C146.007,45.328,147.931,52.551,142.005,58.475z"/>
		</g>
	</g>
	<path fill="none" stroke="#FFFFFF" stroke-width="1.5" d="M261.629,79.428c-0.027-3.116-1.405-6.063-3.805-8.104
		c-0.216-0.184-0.439-0.357-0.668-0.521v-6.207c0-3.247-0.289-8.099-2.777-12.711c-2.083-3.87-7.293-10.361-18.783-10.361
		c-3.377,0-77.51,0.055-77.51,0.055c-1.49-3.657-3.807-7.233-7.125-10.553c-5.686-5.683-13.08-8.813-20.824-8.813
		c-7.725,0-15.092,3.115-20.742,8.768c-1.898,1.896-3.525,4.049-4.842,6.386c-3.742,0.765-7.326,2.193-10.633,4.212H33.242
		c-6.055,0-10.732,6.023-10.732,12.143c0,2.076,0,27.683,0,27.683c0,5.917,4.814,10.731,10.732,10.731l14.324,0.002l37.777,0.002
		c0.836,1.03,1.713,2.041,2.676,3.004c6.564,6.565,15.066,10.182,23.939,10.183h0.002c8.703,0,16.996-3.499,23.346-9.852
		c1.051-1.051,2.02-2.17,2.92-3.335h41.896c0.324,3.114,1.984,6.063,4.787,7.9c4.48,2.925,10.428,4.602,16.319,4.602
		c9.296,0,17.238-4.327,21.225-11.539c0.419-0.751,0.783-1.55,1.12-2.375c2.842,1.403,6.098,2.165,9.598,2.165
		c3.303,0,6.521-0.63,9.508-1.846c1.838,0.752,3.88,1.144,6.063,1.144c1.708,0,3.312-0.205,4.943-0.637
		c4.678-1.259,7.944-5.521,7.944-10.364L261.629,79.428z"/>
</g>
</svg>
