<?xml version="1.0" encoding="utf-8"?>
<!-- Generator: Adobe Illustrator 14.0.0, SVG Export Plug-In . SVG Version: 6.00 Build 43363)  -->
<!DOCTYPE svg PUBLIC "-//W3C//DTD SVG 1.1//EN" "http://www.w3.org/Graphics/SVG/1.1/DTD/svg11.dtd">
<svg version="1.1" id="レイヤー_1" xmlns="http://www.w3.org/2000/svg" xmlns:xlink="http://www.w3.org/1999/xlink" x="0px"
	 y="0px" width="283.46px" height="127.559px" viewBox="0 0 283.46 127.559" enable-background="new 0 0 283.46 127.559"
	 xml:space="preserve">
<path fill="none" stroke="#71C7D5" d="M111.96,113.829c-11.146-0.001-21.783-4.502-29.954-12.674
	c-0.169-0.169-0.336-0.339-0.504-0.513l-48.261-0.004c-10.606,0-19.235-8.629-19.235-19.235V53.721
	c0-11.191,8.81-20.646,19.236-20.646h58.427c2.417-1.288,4.928-2.328,7.512-3.111c1.258-1.788,2.664-3.462,4.205-5
	c7.253-7.256,16.755-11.254,26.751-11.254c10.014,0,19.544,4.014,26.836,11.302c2.491,2.492,4.609,5.188,6.334,8.06
	c16.95-0.013,69.459-0.051,72.289-0.051c16.505,0,23.871,10.374,26.271,14.835c3.793,7.03,3.793,14.34,3.793,16.741v2.599
	c2.833,3.396,4.433,7.682,4.473,12.159l0.001,1.83c0,8.687-5.855,16.325-14.238,18.581c-2.374,0.628-4.703,0.929-7.153,0.929
	c-2.042,0-4.024-0.232-5.925-0.692c-3.11,0.927-6.342,1.395-9.646,1.395c-1.939,0-3.833-0.169-5.672-0.505
	c-5.911,7.737-15.438,12.254-26.271,12.254c-7.499,0-15.142-2.182-20.968-5.984c-2.574-1.688-4.663-3.926-6.147-6.518H142.14
	c-0.271,0.288-0.545,0.569-0.819,0.844C133.365,109.445,122.938,113.829,111.96,113.829L111.96,113.829z"/>
</svg>
