<?xml version="1.0" encoding="utf-8"?>
<!-- Generator: Adobe Illustrator 14.0.0, SVG Export Plug-In . SVG Version: 6.00 Build 43363)  -->
<!DOCTYPE svg PUBLIC "-//W3C//DTD SVG 1.1//EN" "http://www.w3.org/Graphics/SVG/1.1/DTD/svg11.dtd">
<svg version="1.1" id="レイヤー_1" xmlns="http://www.w3.org/2000/svg" xmlns:xlink="http://www.w3.org/1999/xlink" x="0px"
	 y="0px" width="325.984px" height="127.559px" viewBox="-22.262 0 325.984 127.559"
	 enable-background="new -22.262 0 325.984 127.559" xml:space="preserve">
<g id="pgroonga_2_">
	<path d="M131.888,125.274c-12.848,0-25.133-4.654-35.015-13.188h-1.909c-8.094,8.002-19.363,12.504-31.652,12.504
		c-9.679,0-19.615-2.864-27.263-7.859c-0.177-0.115-0.351-0.232-0.523-0.351c-5.457,4.68-12.5,7.405-19.919,7.405h-2.209
		c-16.862,0-30.58-13.718-30.58-30.58V62.067c0-2.922-0.055-5.295-0.171-7.47c-0.485-8.276,2.549-16.554,8.327-22.659
		c6.229-6.535,14.628-10.422,22.49-10.422h95.439c1.048-0.485,2.111-0.936,3.185-1.351c0.979-1.181,2.014-2.315,3.092-3.394
		C124.609,7.343,137,2.15,150.066,2.15c13.086,0,25.505,5.209,34.968,14.668c1.497,1.498,2.896,3.065,4.188,4.69
		c20.86-0.017,63.757-0.047,66.303-0.047c15.985,0,29.252,7.609,36.396,20.877c4.683,8.683,5.124,17.287,5.166,21.151
		c2.855,4.707,4.426,10.16,4.477,15.695l0.001,1.938c0,13.921-9.39,26.137-22.834,29.713c-3.3,0.877-6.59,1.303-10.06,1.303
		c-1.872,0-3.73-0.138-5.55-0.412c-3.269,0.738-6.629,1.111-10.021,1.111c-0.353,0-0.705-0.004-1.058-0.012
		c-8.032,7.532-19.006,11.764-30.885,11.764c-9.676,0-19.611-2.863-27.259-7.856c-2.055-1.35-3.91-2.902-5.557-4.647h-21.656
		C156.948,120.616,144.724,125.274,131.888,125.274L131.888,125.274z"/>
	<g>
		<path fill="#FFFFFF" d="M106.027,51.969c-1.336-0.289-2.281-0.447-3.441-0.447c-2.848,0-5.33,0.831-7.391,2.468
			c-0.092,0.06-0.193,0.14-0.303,0.245c-0.232,0.197-0.453,0.406-0.668,0.621c-1.479,1.314-2.762,1.952-2.762-1.234v-0.666
			c0-0.404-0.326-0.732-0.73-0.732H88.63c-0.197,0-0.389,0.08-0.525,0.223c-0.139,0.143-0.211,0.335-0.205,0.532
			c0.104,3.333,0.215,6.778,0.215,9.621v18.75c0,0.403,0.328,0.731,0.73,0.731h2.211c0.402,0,0.73-0.328,0.73-0.731v-9.914
			c0-1.37,0.107-3.806,0.309-4.813c1.57-7.797,4.982-11.588,10.436-11.588c0.979,0,1.881,0.165,2.875,0.363
			c0.047,0.011,0.096,0.016,0.143,0.016c0.148,0,0.295-0.045,0.418-0.132c0.162-0.112,0.273-0.288,0.307-0.483l0.322-1.994
			C106.658,52.418,106.408,52.051,106.027,51.969z"/>
		<path fill="#FFFFFF" d="M195.074,53.562c-2.512-1.774-5.292-2.04-6.726-2.04c-2.91,0-5.648,0.912-7.822,2.495
			c-0.005,0.004-0.01,0.005-0.015,0.009c-1.004,0.648-2.627,0.909-2.617-0.625v-0.021c0.002-0.106-0.003-0.198-0.014-0.276
			l-0.008-0.183c-0.019-0.391-0.34-0.697-0.73-0.697h-2.103c-0.203,0-0.396,0.084-0.535,0.232c-0.138,0.147-0.209,0.346-0.194,0.549
			c0.151,2.279,0.214,4.17,0.214,6.523v21.821c0,0.403,0.328,0.731,0.73,0.731h2.209c0.404,0,0.732-0.328,0.732-0.731V63.838
			c0-0.813,0.253-1.762,0.49-2.377c0.004-0.008,0.006-0.019,0.01-0.026c1.043-3.042,4.224-6.12,8.417-6.476
			c3.236,0.002,8.327,2.358,9.023,8.227c0.017,0.15,0.03,0.299,0.042,0.443c0.005,0.049,0.009,0.1,0.012,0.149
			c0.005,0.07,0.009,0.14,0.014,0.209c0.009,0.19,0.015,0.384,0.015,0.582c0,0.335,0.007,0.638,0.018,0.911V81.35
			c0,0.404,0.328,0.73,0.732,0.73h2.208c0.404,0,0.732-0.328,0.732-0.73V65.078C199.909,59.703,198.282,55.83,195.074,53.562z"/>
		<path fill="#FFFFFF" d="M271.297,78.904c-0.133-0.112-0.301-0.174-0.473-0.174c-0.04,0-0.08,0.003-0.12,0.01
			c-0.587,0.099-0.965,0.099-1.441,0.099c-1.147,0-2.178-0.336-2.178-4.387v-9.914c0-2.343-0.179-5.367-1.583-7.972
			c-1.821-3.382-5.181-5.099-9.978-5.099c-2.476,0-6.217,0.517-9.99,2.975c-0.315,0.205-0.422,0.615-0.25,0.949l0.861,1.67
			c0.098,0.189,0.271,0.326,0.478,0.375c0.059,0.014,0.116,0.021,0.173,0.021c0.151,0,0.3-0.047,0.425-0.136
			c2.313-1.639,5.186-2.504,8.305-2.504c3.995,0,6.004,1.854,7,3.938l0,0c1.004,2.222-0.562,4.404-2.285,4.584
			c-0.085,0.006-0.17,0.009-0.254,0.014c-0.014,0-0.028,0.001-0.042,0c-0.055-0.001-0.102,0.003-0.144,0.009
			c-10.978,0.626-16.537,4.313-16.537,10.979c0,2.027,0.803,4.058,2.201,5.57c1.233,1.332,3.561,2.92,7.636,2.92
			c3.471,0,6.271-1.111,8.324-2.472c0.062-0.03,0.131-0.075,0.212-0.142c0.022-0.016,0.042-0.03,0.063-0.047
			c0.128-0.088,0.256-0.178,0.378-0.269c1.275-0.825,1.969-0.351,2.623,0.504c0.002,0.003,0.006,0.005,0.008,0.007
			c0.84,1.141,2.161,1.719,3.962,1.719c0.847,0,1.592-0.094,2.345-0.295c0.319-0.084,0.543-0.375,0.543-0.707v-1.67
			C271.557,79.248,271.461,79.043,271.297,78.904z M253.045,79.431c-3.042,0-6.11-1.724-6.11-5.572c0-4.862,5.936-6.58,12.167-7.043
			c2.319-0.043,4.097,2.162,4.311,4.575v0.988c-0.062,0.647-0.246,1.289-0.568,1.889c-0.161,0.263-0.355,0.556-0.589,0.863
			c-0.04,0.047-0.074,0.094-0.103,0.135C260.71,77.114,257.929,79.431,253.045,79.431z"/>
		<path fill="#FFFFFF" d="M77.318,52.221h-2.047c-0.393,0-0.715,0.312-0.73,0.703c-0.064,1.619-0.893,1.836-2.705,0.767
			c-0.01-0.006-0.018-0.015-0.025-0.019c-0.178-0.119-0.361-0.231-0.545-0.34c-0.012-0.006-0.021-0.012-0.031-0.02
			c-0.088-0.059-0.17-0.104-0.246-0.141c-1.982-1.096-4.305-1.649-6.922-1.649c-3.74,0-7.43,1.548-10.123,4.25
			c-2.082,2.087-4.564,5.826-4.564,11.784c0,3.818,1.348,7.412,3.793,10.121c2.594,2.875,6.234,4.459,10.248,4.459
			c3.111,0,5.516-0.819,7.334-1.897c0.004-0.002,0.008-0.003,0.014-0.005c1.951-0.873,3.6-2.182,3.135,2.232
			c-0.875,5.678-4.52,8.765-10.482,8.765c-4.176,0-7.311-1.403-9.205-2.583c-0.115-0.072-0.25-0.109-0.387-0.109
			c-0.061,0-0.121,0.008-0.182,0.022c-0.193,0.049-0.357,0.176-0.455,0.351l-0.969,1.725c-0.189,0.336-0.086,0.761,0.236,0.972
			c2.852,1.863,6.908,2.976,10.854,2.976c2.689,0,9.293-0.625,12.494-6.412c1.383-2.481,2.029-5.969,2.029-10.969V59.746
			c0-2.474,0.07-4.679,0.213-6.738c0.016-0.201-0.057-0.401-0.193-0.549C77.714,52.307,77.521,52.221,77.318,52.221z M60.425,78.25
			c-0.604-0.24-7.607-3.217-7.012-11.812c0.551-7.946,5.723-10.459,6.518-10.798c1.277-0.5,2.699-0.77,4.24-0.77
			c1.664,0,3.113,0.327,4.355,0.873c6.846,3.871,7.695,16.453,0.885,21.467c-1.592,1-3.438,1.574-5.346,1.574
			C62.724,78.785,61.513,78.59,60.425,78.25z"/>
		<path fill="#FFFFFF" d="M235.166,52.221h-2.047c-0.393,0-0.716,0.312-0.731,0.703c-0.065,1.619-0.892,1.836-2.702,0.767
			c-0.01-0.005-0.019-0.015-0.027-0.019c-0.178-0.119-0.362-0.231-0.546-0.34c-0.011-0.008-0.021-0.014-0.031-0.02
			c-0.087-0.059-0.168-0.104-0.244-0.139c-1.981-1.098-4.307-1.651-6.924-1.651c-3.739,0-7.429,1.548-10.122,4.25
			c-2.082,2.087-4.563,5.826-4.563,11.784c0,3.818,1.346,7.412,3.792,10.121c2.595,2.875,6.233,4.459,10.248,4.459
			c3.11,0,5.514-0.819,7.335-1.897c0.004-0.002,0.007-0.003,0.012-0.005c1.954-0.874,3.603-2.184,3.135,2.232
			c-0.875,5.679-4.519,8.765-10.481,8.765c-4.176,0-7.311-1.403-9.204-2.583c-0.118-0.072-0.251-0.109-0.388-0.109
			c-0.06,0-0.122,0.008-0.182,0.022c-0.193,0.049-0.358,0.176-0.456,0.351l-0.97,1.725c-0.189,0.336-0.085,0.761,0.236,0.972
			c2.854,1.863,6.91,2.976,10.854,2.976c2.688,0,9.293-0.625,12.493-6.412c1.385-2.481,2.031-5.969,2.031-10.969V59.746
			c0-2.474,0.069-4.679,0.214-6.738c0.014-0.201-0.058-0.401-0.195-0.549C235.563,52.307,235.37,52.221,235.166,52.221z
			 M218.274,78.25c-0.605-0.24-7.609-3.217-7.014-11.812c0.552-7.94,5.717-10.455,6.518-10.798c1.278-0.5,2.701-0.77,4.242-0.77
			c1.665,0,3.112,0.327,4.354,0.873c6.845,3.871,7.696,16.453,0.884,21.467c-1.592,1-3.436,1.574-5.345,1.574
			C220.57,78.785,219.36,78.59,218.274,78.25z"/>
		
			<linearGradient id="SVGID_1_" gradientUnits="userSpaceOnUse" x1="417.9741" y1="-87.5754" x2="417.9741" y2="-148.5998" gradientTransform="matrix(1 0 0 -1 -279.2305 -56.7163)">
			<stop  offset="0" style="stop-color:#5795C6"/>
			<stop  offset="1" style="stop-color:#0B3F63"/>
		</linearGradient>
		<path fill="url(#SVGID_1_)" d="M136.392,37.996c-2.338,2.336-4.109,5.342-5.033,8.654c-6.076-0.093-12.17,2.273-17.006,7.109
			c-8.143,8.142-10.676,22.914,0.666,34.254c9.543,9.543,23.793,9.688,33.145,0.332c4.422-4.424,7.236-10.506,7.297-16.939
			c3.141-0.835,6.125-2.507,8.67-5.049c6.956-6.959,9.086-18.919-0.311-28.318C155.988,30.209,144.195,30.193,136.392,37.996z
			 M162.012,58.418c-1.335,1.338-3.045,2.324-4.932,2.864c-3.026,0.867-4.657,0.777-5.698,2.515
			c-1.041,1.735-0.926,1.94-0.879,5.195c0.057,3.688-1.334,7.512-4.813,10.994c-5.32,5.318-15.141,6.504-22.367-0.721
			c-5.693-5.694-8.365-15.278-0.777-22.865c2.816-2.813,6.865-4.477,11.123-4.402c2.961,0.053,3.307,0.162,5.213-0.703
			c1.908-0.869,1.082-2.799,2.223-6.205c0.555-1.66,1.545-3.295,3.092-4.844c4.125-4.127,11.721-5.072,17.284,0.49
			C166.014,45.272,167.936,52.496,162.012,58.418z"/>
		<path fill="#FFFFFF" d="M27.46,51.529c-2.914,0-5.5,0.671-7.686,1.991c-0.525,0.318-1.027,0.676-1.5,1.068
			c-1.113,1.113-2.127,2.432-2.127,0.062c0-0.817-0.078-1.722-0.078-1.722c-0.018-0.39-0.34-0.697-0.73-0.697h-2.156
			c-0.201,0-0.393,0.081-0.531,0.227C12.513,52.604,12.441,52.8,12.453,53c0.146,2.73,0.215,5.611,0.215,9.066v31.139
			c0,0.404,0.326,0.731,0.73,0.731h2.209c0.404,0,0.732-0.327,0.732-0.731c0,0,0-9.742,0-11.516s0.604-2.513,2.086-1.485
			c2.326,1.61,5.17,2.581,8.389,2.581c4.086,0,7.805-1.507,10.469-4.242c2.863-2.938,4.377-7.089,4.377-12.007
			c0-4.005-1.338-7.725-3.766-10.471C35.269,53.099,31.662,51.529,27.46,51.529z M26.814,79.49c-4.727,0-9.069-3.237-10.172-7.206
			c-1.104-3.969-0.402-7.971,0.203-9.89c1.453-4.598,5.514-7.569,10.346-7.569c7.088,0,10.797,5.946,10.797,11.821
			C37.988,74.569,33.707,79.49,26.814,79.49z"/>
	</g>
	<path id="pgroonga_3_" fill="none" stroke="#FFFFFF" stroke-width="1.5" d="M277.852,71.281c-0.222-0.188-0.45-0.367-0.686-0.535
		v-6.209c0-3.246-0.288-8.096-2.778-12.713c-2.083-3.868-7.293-10.357-18.782-10.357c-3.372,0-77.503,0.055-77.503,0.055
		c-1.49-3.658-3.813-7.234-7.132-10.555c-5.685-5.682-13.08-8.812-20.824-8.812c-7.724,0-15.091,3.114-20.743,8.767
		c-1.896,1.896-3.524,4.049-4.842,6.387c-3.742,0.766-7.329,2.194-10.636,4.213L13.264,41.517c-2.925,0-5.759,1.921-7.797,4.062
		c-2.029,2.143-3.095,5.062-2.925,7.958c0.136,2.537,0.199,5.247,0.199,8.53v31.139c0,5.921,4.816,10.737,10.737,10.737h2.209
		c5.922,0,10.739-4.816,10.739-10.737v-0.418c0.155,0.003,0.312,0.004,0.468,0.004c5.75,0,11.107-1.845,15.383-5.237
		c-0.007,0.144,0,0-0.007,0.144c-0.056,1.16-0.047,2.83-0.044,3.321c0,0.167-0.003,0.335,0.005,0.502
		c0.007,0.128,0.023,0.256,0.034,0.384c0.017,0.194,0.032,0.388,0.06,0.58c0.017,0.114,0.039,0.227,0.06,0.341
		c0.035,0.205,0.073,0.41,0.12,0.613c0.024,0.102,0.053,0.202,0.079,0.304c0.057,0.213,0.117,0.426,0.187,0.636
		c0.03,0.089,0.063,0.178,0.095,0.267c0.079,0.22,0.164,0.437,0.257,0.65c0.034,0.077,0.068,0.153,0.104,0.229
		c0.104,0.225,0.216,0.445,0.336,0.663c0.034,0.063,0.068,0.125,0.104,0.188c0.132,0.229,0.274,0.454,0.424,0.675
		c0.031,0.046,0.062,0.093,0.094,0.139c0.167,0.237,0.345,0.469,0.532,0.693c0.021,0.025,0.042,0.052,0.063,0.077
		c0.648,0.765,1.409,1.453,2.287,2.027c4.479,2.926,10.43,4.604,16.325,4.604v-0.006c9.295,0,17.236-4.326,21.228-11.541
		c0.174-0.312,0.327-0.641,0.486-0.963h20.219c0.841,1.033,1.738,2.038,2.704,3.004c6.565,6.566,15.067,10.184,23.939,10.184h0.001
		c8.705,0,16.997-3.498,23.349-9.853c1.051-1.052,2.02-2.171,2.922-3.335h41.018c0.29,0,0.576-0.012,0.86-0.033
		c0.315,3.129,1.991,6.09,4.801,7.935c4.479,2.925,10.428,4.603,16.321,4.603c9.296,0,17.237-4.326,21.226-11.539
		c0.416-0.746,0.791-1.526,1.127-2.346c2.837,1.396,6.098,2.133,9.59,2.133c3.302,0,6.521-0.629,9.507-1.844
		c1.838,0.752,3.881,1.145,6.063,1.145c1.713,0,3.321-0.207,4.916-0.631c4.693-1.248,7.972-5.514,7.972-10.371v-1.762
		C281.611,76.246,280.229,73.297,277.852,71.281z"/>
</g>
</svg>
