<?xml version="1.0" encoding="utf-8"?>
<!-- Generator: Adobe Illustrator 14.0.0, SVG Export Plug-In . SVG Version: 6.00 Build 43363)  -->
<!DOCTYPE svg PUBLIC "-//W3C//DTD SVG 1.1//EN" "http://www.w3.org/Graphics/SVG/1.1/DTD/svg11.dtd">
<svg version="1.1" id="レイヤー_1" xmlns="http://www.w3.org/2000/svg" xmlns:xlink="http://www.w3.org/1999/xlink" x="0px"
	 y="0px" width="325.984px" height="127.559px" viewBox="-22.262 0 325.984 127.559"
	 enable-background="new -22.262 0 325.984 127.559" xml:space="preserve">
<path fill="none" stroke="#71C6D4" d="M131.969,115.274c-11.545,0-22.561-4.657-31.017-13.114c-0.024-0.024-0.048-0.049-0.072-0.073
	H90.594c-6.137,7.808-15.816,12.394-26.805,12.502c-0.132,0.006-0.265,0.008-0.397,0.008c-7.788,0-15.733-2.271-21.797-6.231
	c-1.658-1.085-3.152-2.407-4.447-3.934c-0.047-0.056-0.125-0.149-0.171-0.206c-0.362-0.44-0.68-0.856-0.977-1.277l-0.199-0.292
	c-0.184-0.271-0.363-0.549-0.535-0.83c-0.263,0.063-0.528,0.123-0.793,0.18c-3.317,7.051-10.49,11.943-18.785,11.943h-2.209
	c-11.438,0-20.743-9.305-20.743-20.743V62.067c0-3.097-0.059-5.638-0.186-7.996c-0.329-5.61,1.73-11.232,5.652-15.373
	c4.419-4.642,9.762-7.187,15.062-7.187l98.04,0.004c2.245-1.172,4.57-2.139,6.957-2.894c1.229-1.698,2.588-3.296,4.067-4.774
	c7.543-7.544,17.423-11.697,27.818-11.697c10.415,0,20.323,4.169,27.897,11.74c2.371,2.371,4.415,4.919,6.117,7.621
	c17.774-0.013,68.664-0.05,71.444-0.05c12.19,0,22.247,5.692,27.593,15.619c3.974,7.369,3.974,14.962,3.974,17.457v2.061
	c2.836,3.583,4.43,8.03,4.474,12.678v1.855c0,9.388-6.335,17.629-15.406,20.041c-2.448,0.651-4.897,0.967-7.487,0.967
	c-2.021,0-3.99-0.215-5.886-0.643c-3.129,0.892-6.372,1.342-9.685,1.342c-1.721,0-3.404-0.124-5.044-0.371
	c-6.225,7.668-15.926,12.123-26.898,12.123c-7.786,0-15.729-2.271-21.793-6.23c-2.526-1.659-4.617-3.802-6.18-6.273h-30.476
	c-0.131,0.136-0.263,0.27-0.395,0.401C154.155,110.734,143.349,115.274,131.969,115.274L131.969,115.274z"/>
</svg>
