<?xml version="1.0" encoding="utf-8"?>
<!-- Generator: Adobe Illustrator 14.0.0, SVG Export Plug-In . SVG Version: 6.00 Build 43363)  -->
<!DOCTYPE svg PUBLIC "-//W3C//DTD SVG 1.1//EN" "http://www.w3.org/Graphics/SVG/1.1/DTD/svg11.dtd">
<svg version="1.1" id="レイヤー_1" xmlns="http://www.w3.org/2000/svg" xmlns:xlink="http://www.w3.org/1999/xlink" x="0px"
	 y="0px" width="283.46px" height="127.559px" viewBox="0 0 283.46 127.559" enable-background="new 0 0 283.46 127.559"
	 xml:space="preserve">
<g>
	<g>
		<path fill="#040000" d="M107.148,124.323c-12.666-0.001-24.771-4.659-34.45-13.188H38.055c-16.121,0-29.236-13.115-29.236-29.235
			V53.883c0-16.999,12.747-30.314,29.02-30.314h46.658c1.233-0.58,2.489-1.11,3.76-1.59c1.02-1.25,2.102-2.448,3.233-3.582
			c9.155-9.153,21.171-14.193,33.835-14.193c12.686,0,24.728,5.053,33.907,14.229c1.631,1.631,3.144,3.347,4.523,5.13
			c0,0,65.994-0.046,67.028-0.046c15.405,0,28.188,7.316,35.069,20.072c4.696,8.729,4.979,17.374,4.996,20.891
			c2.901,4.634,4.474,10.044,4.474,15.533v1.672c0,13.225-8.926,24.841-21.706,28.247c-3.142,0.846-6.315,1.259-9.685,1.259
			c-1.895,0-3.772-0.147-5.608-0.438c-3.247,0.756-6.589,1.138-9.962,1.138c-0.548,0-1.095-0.011-1.64-0.031
			c-7.79,7.537-18.586,11.78-30.302,11.78c-9.392,0-19.028-2.775-26.439-7.615c-2.139-1.388-4.061-3.024-5.745-4.89l-22.854,0.003
			c-9.521,8.521-21.571,13.188-34.23,13.188H107.148z"/>
		<g>
			<path fill="#FFFFFF" d="M81.296,52.522c-1.338-0.292-2.281-0.45-3.441-0.45c-2.848,0-5.33,0.832-7.393,2.467
				c-0.092,0.063-0.191,0.143-0.303,0.247c-0.23,0.197-0.453,0.405-0.67,0.621c-1.477,1.313-2.758,1.95-2.758-1.234v-0.666
				c0-0.404-0.328-0.733-0.732-0.733h-2.1c-0.201,0-0.389,0.081-0.527,0.223c-0.139,0.144-0.213,0.336-0.205,0.533
				c0.105,3.333,0.215,6.778,0.215,9.622V81.9c0,0.403,0.328,0.731,0.73,0.731h2.209c0.404,0,0.732-0.328,0.732-0.731v-9.913
				c0-1.371,0.107-3.805,0.311-4.813c1.568-7.798,4.982-11.59,10.436-11.59c0.979,0,1.879,0.164,2.873,0.363
				c0.047,0.011,0.096,0.014,0.143,0.014c0.148,0,0.295-0.043,0.418-0.129c0.162-0.113,0.273-0.288,0.307-0.485l0.322-1.993
				C81.925,52.969,81.675,52.603,81.296,52.522z"/>
			<path fill="#FFFFFF" d="M55.243,52.522c-1.338-0.292-2.281-0.45-3.441-0.45c-2.848,0-5.332,0.832-7.391,2.467
				c-0.092,0.063-0.193,0.143-0.305,0.247c-0.23,0.197-0.453,0.405-0.67,0.621c-1.477,1.313-2.758,1.95-2.758-1.234v-0.666
				c0-0.404-0.328-0.733-0.732-0.733h-2.102c-0.197,0-0.387,0.081-0.525,0.223c-0.137,0.144-0.211,0.336-0.205,0.533
				c0.105,3.333,0.215,6.778,0.215,9.622V81.9c0,0.403,0.328,0.731,0.732,0.731h2.211c0.402,0,0.729-0.328,0.729-0.731v-9.913
				c0-1.371,0.107-3.805,0.311-4.813c1.568-7.798,4.982-11.59,10.436-11.59c0.979,0,1.879,0.164,2.873,0.363
				c0.047,0.011,0.096,0.014,0.145,0.014c0.146,0,0.293-0.043,0.416-0.129c0.164-0.113,0.273-0.288,0.307-0.485l0.322-1.993
				C55.87,52.969,55.622,52.603,55.243,52.522z"/>
			<path fill="#FFFFFF" d="M170.343,54.113c-2.514-1.774-5.295-2.041-6.729-2.041c-2.91,0-5.646,0.913-7.82,2.496
				c-0.006,0.003-0.012,0.003-0.016,0.007c-1.006,0.649-2.627,0.911-2.617-0.624v-0.021c0-0.107-0.004-0.198-0.014-0.278
				l-0.008-0.181c-0.02-0.392-0.342-0.699-0.732-0.699h-2.102c-0.201,0-0.396,0.086-0.533,0.232
				c-0.139,0.147-0.211,0.348-0.195,0.549c0.152,2.282,0.211,4.17,0.211,6.525v21.819c0,0.403,0.33,0.731,0.734,0.731h2.209
				c0.404,0,0.73-0.328,0.73-0.731v-17.51c0-0.815,0.254-1.763,0.49-2.378c0.004-0.01,0.006-0.017,0.01-0.026
				c1.045-3.042,4.223-6.118,8.418-6.474c3.234,0,8.324,2.357,9.023,8.226c0.016,0.15,0.029,0.299,0.041,0.443
				c0.004,0.05,0.008,0.099,0.012,0.147c0.006,0.07,0.01,0.141,0.016,0.209c0.008,0.19,0.014,0.387,0.014,0.584
				c0,0.332,0.006,0.637,0.02,0.909v15.868c0,0.403,0.324,0.731,0.729,0.731h2.211c0.402,0,0.732-0.328,0.732-0.731V65.627
				C175.177,60.255,173.55,56.381,170.343,54.113z"/>
			<path fill="#FFFFFF" d="M246.565,79.454c-0.133-0.11-0.301-0.173-0.473-0.173c-0.039,0-0.08,0.005-0.119,0.011
				c-0.588,0.097-0.963,0.097-1.443,0.097c-1.146,0-2.178-0.334-2.178-4.386V65.09c0-2.345-0.18-5.367-1.582-7.972
				c-1.824-3.384-5.182-5.099-9.98-5.099c-2.475,0-6.217,0.516-9.988,2.974c-0.314,0.205-0.424,0.614-0.252,0.949l0.861,1.67
				c0.098,0.188,0.271,0.325,0.479,0.377c0.059,0.014,0.117,0.02,0.174,0.02c0.15,0,0.297-0.046,0.422-0.133
				c2.314-1.641,5.189-2.507,8.307-2.507c3.994,0,6.004,1.854,7,3.939c0,0,0,0,0,0.002c1.002,2.219-0.563,4.402-2.285,4.584
				c-0.084,0.005-0.17,0.006-0.254,0.012c-0.016,0-0.027,0-0.043,0c-0.055-0.002-0.102,0.002-0.143,0.01
				c-10.979,0.628-16.537,4.312-16.537,10.979c0,2.028,0.801,4.057,2.201,5.569c1.234,1.332,3.559,2.92,7.637,2.92
				c3.471,0,6.27-1.111,8.324-2.472c0.061-0.032,0.131-0.076,0.211-0.142c0.021-0.017,0.043-0.029,0.064-0.047
				c0.127-0.09,0.256-0.18,0.377-0.269c1.275-0.825,1.969-0.352,2.623,0.502c0.002,0.005,0.006,0.006,0.008,0.008
				c0.838,1.143,2.162,1.72,3.963,1.72c0.846,0,1.59-0.094,2.342-0.296c0.322-0.086,0.545-0.374,0.545-0.706v-1.672
				C246.825,79.797,246.729,79.595,246.565,79.454z M228.313,79.983c-3.041,0-6.111-1.725-6.111-5.573
				c0-4.861,5.938-6.58,12.166-7.043c2.32-0.043,4.1,2.161,4.314,4.575v0.988c-0.064,0.646-0.246,1.289-0.57,1.889
				c-0.16,0.264-0.354,0.557-0.588,0.864c-0.039,0.048-0.076,0.092-0.104,0.134C235.979,77.666,233.198,79.983,228.313,79.983z"/>
			<path fill="#FFFFFF" d="M210.433,52.772h-2.047c-0.393,0-0.715,0.31-0.73,0.704c-0.064,1.617-0.893,1.835-2.701,0.766
				c-0.012-0.008-0.02-0.013-0.027-0.021c-0.18-0.118-0.363-0.229-0.547-0.339c-0.012-0.005-0.021-0.012-0.031-0.02
				c-0.088-0.059-0.168-0.102-0.244-0.139c-1.982-1.097-4.307-1.652-6.924-1.652c-3.74,0-7.428,1.549-10.121,4.249
				c-2.082,2.089-4.564,5.828-4.564,11.785c0,3.816,1.348,7.414,3.791,10.122c2.598,2.873,6.232,4.458,10.248,4.458
				c3.111,0,5.516-0.822,7.336-1.898c0.004,0,0.008-0.003,0.012-0.004c1.953-0.874,3.602-2.182,3.135,2.233
				c-0.875,5.677-4.52,8.764-10.48,8.764c-4.176,0-7.311-1.405-9.203-2.583c-0.117-0.072-0.252-0.11-0.389-0.11
				c-0.061,0-0.123,0.008-0.182,0.021c-0.193,0.051-0.357,0.177-0.457,0.352l-0.967,1.725c-0.191,0.335-0.086,0.763,0.236,0.972
				c2.854,1.864,6.908,2.977,10.852,2.977c2.689,0,9.295-0.624,12.494-6.413c1.385-2.482,2.029-5.968,2.029-10.968V60.297
				c0-2.477,0.07-4.68,0.217-6.738c0.014-0.203-0.059-0.401-0.195-0.55C210.833,52.859,210.638,52.772,210.433,52.772z
				 M193.54,78.801c-0.604-0.24-7.605-3.216-7.01-11.813c0.549-7.938,5.715-10.454,6.518-10.796c1.275-0.501,2.697-0.77,4.24-0.77
				c1.662,0,3.111,0.327,4.354,0.871c6.846,3.873,7.697,16.453,0.883,21.469c-1.592,1-3.436,1.573-5.346,1.573
				C195.839,79.336,194.628,79.143,193.54,78.801z"/>
			
				<linearGradient id="SVGID_1_" gradientUnits="userSpaceOnUse" x1="393.2422" y1="-87.375" x2="393.2422" y2="-151.7566" gradientTransform="matrix(1 0 0 -1 -279.2305 -55.1055)">
				<stop  offset="0" style="stop-color:#A31F24"/>
				<stop  offset="1" style="stop-color:#6F1418"/>
			</linearGradient>
			<path fill="url(#SVGID_1_)" d="M111.659,38.547c-2.338,2.339-4.109,5.342-5.031,8.656c-6.076-0.094-12.172,2.271-17.008,7.109
				c-8.143,8.141-10.674,22.911,0.668,34.251c9.541,9.545,23.793,9.688,33.145,0.336c4.422-4.424,7.236-10.507,7.297-16.939
				c3.141-0.837,6.125-2.509,8.67-5.05c6.957-6.959,9.086-18.919-0.311-28.317C131.255,30.763,119.462,30.744,111.659,38.547z
				 M137.28,58.97c-1.334,1.339-3.045,2.324-4.934,2.864c-3.025,0.867-4.654,0.775-5.695,2.515
				c-1.043,1.736-0.926,1.941-0.881,5.193c0.055,3.688-1.332,7.515-4.814,10.995c-5.318,5.317-15.139,6.505-22.365-0.722
				c-5.691-5.692-8.363-15.278-0.775-22.864c2.816-2.813,6.867-4.479,11.123-4.402c2.961,0.053,3.305,0.161,5.213-0.703
				c1.906-0.868,1.082-2.799,2.221-6.205c0.559-1.66,1.545-3.294,3.094-4.844c4.125-4.125,11.721-5.071,17.283,0.49
				C141.282,45.822,143.206,53.048,137.28,58.97z"/>
		</g>
	</g>
	<path fill="none" stroke="#FFFFFF" stroke-width="1.5" d="M256.818,80.012v1.672c0,4.854-3.277,9.117-7.969,10.368
		c-1.58,0.425-3.195,0.634-4.918,0.634c-2.186,0-4.229-0.392-6.066-1.145c-2.986,1.214-6.205,1.844-9.504,1.844
		c-3.492,0-6.754-0.737-9.59-2.133c-0.336,0.817-0.709,1.596-1.125,2.341c-3.986,7.214-11.93,11.541-21.227,11.541
		c-5.893,0-11.842-1.679-16.322-4.604c-2.818-1.829-4.502-4.76-4.811-7.9c-7.84,0.001-41.986,0.003-41.986,0.003
		c-0.912,1.235-1.859,2.393-2.803,3.337c-6.352,6.353-14.643,9.851-23.347,9.851c0,0-0.002,0-0.003,0
		c-8.873-0.001-17.375-3.618-23.941-10.186c-0.965-0.965-1.861-1.969-2.701-3.002H38.055c-5.918,0-10.732-4.814-10.732-10.731
		c0,0,0-24.774,0-28.018c0-7.347,4.818-11.811,10.516-11.811c0,0,15.176,0,26.874,0h13.134h11.26
		c3.307-2.019,6.893-3.446,10.635-4.212c1.316-2.335,2.942-4.486,4.838-6.383c5.656-5.656,13.023-8.771,20.746-8.771
		c7.744,0,15.141,3.13,20.826,8.813c3.297,3.297,5.621,6.845,7.113,10.476l0.027,0.077c2.619,0,74.121-0.053,77.492-0.053
		c11.486,0,16.697,6.486,18.783,10.354c2.49,4.628,2.779,9.474,2.779,12.717v6.207c0.205,0.147,0.406,0.303,0.604,0.466
		c0.039,0.032,0.078,0.065,0.117,0.099C255.451,73.905,256.818,76.876,256.818,80.012z"/>
</g>
</svg>
