<?xml version="1.0" encoding="utf-8"?>
<!-- Generator: Adobe Illustrator 14.0.0, SVG Export Plug-In . SVG Version: 6.00 Build 43363)  -->
<!DOCTYPE svg PUBLIC "-//W3C//DTD SVG 1.1//EN" "http://www.w3.org/Graphics/SVG/1.1/DTD/svg11.dtd">
<svg version="1.1" id="レイヤー_1" xmlns="http://www.w3.org/2000/svg" xmlns:xlink="http://www.w3.org/1999/xlink" x="0px"
	 y="0px" width="283.46px" height="127.559px" viewBox="0 0 283.46 127.559" enable-background="new 0 0 283.46 127.559"
	 xml:space="preserve">
<path fill="none" stroke="#71C7D5" d="M107.148,114.323c-11.145-0.001-21.783-4.503-29.955-12.677
	c-0.168-0.168-0.336-0.338-0.503-0.511H38.055c-10.607,0-19.236-8.629-19.236-19.235V53.883c0-11.581,8.177-20.314,19.02-20.314
	h49.018c2.416-1.287,4.928-2.327,7.514-3.111c1.254-1.783,2.657-3.453,4.194-4.991c7.264-7.264,16.767-11.263,26.761-11.263
	c10.015,0,19.546,4.014,26.838,11.302c2.5,2.5,4.623,5.197,6.349,8.061c6.406-0.005,70.48-0.05,72.272-0.05
	c11.613,0,21.188,5.401,26.268,14.82c3.405,6.328,3.799,12.592,3.799,16.754v2.596c2.876,3.443,4.473,7.788,4.473,12.326v1.672
	c0,8.7-5.873,16.343-14.281,18.585c-2.3,0.618-4.631,0.921-7.109,0.921c-2.045,0-4.029-0.232-5.932-0.693
	c-3.109,0.925-6.339,1.393-9.639,1.393c-1.946,0-3.841-0.166-5.676-0.497c-5.909,7.731-15.436,12.246-26.266,12.246
	c-7.5,0-15.145-2.183-20.972-5.988c-2.59-1.681-4.69-3.919-6.181-6.517l-31.945,0.003c-0.271,0.293-0.539,0.574-0.808,0.843
	c-7.961,7.962-18.388,12.345-29.363,12.345H107.148z"/>
</svg>
