<?xml version="1.0" encoding="UTF-8"?>
<svg width="260px" height="61px" viewBox="0 0 260 61" version="1.1" xmlns="http://www.w3.org/2000/svg" xmlns:xlink="http://www.w3.org/1999/xlink">
    <title>Page 1</title>
    <defs>
        <linearGradient x1="49.999076%" y1="875.606602%" x2="49.999076%" y2="1710.53232%" id="linearGradient-1">
            <stop stop-color="#458CFF" offset="0%"></stop>
            <stop stop-color="#FFFFFF" offset="100%"></stop>
        </linearGradient>
        <linearGradient x1="49.9996806%" y1="565.970947%" x2="49.9996806%" y2="1106.91382%" id="linearGradient-2">
            <stop stop-color="#458CFF" offset="0%"></stop>
            <stop stop-color="#FFFFFF" offset="100%"></stop>
        </linearGradient>
        <linearGradient x1="49.9997316%" y1="109.468831%" x2="49.9994633%" y2="175.041715%" id="linearGradient-3">
            <stop stop-color="#458CFF" offset="0%"></stop>
            <stop stop-color="#FFFFFF" offset="100%"></stop>
        </linearGradient>
        <linearGradient x1="50.00024%" y1="384.852362%" x2="50.00024%" y2="777.041416%" id="linearGradient-4">
            <stop stop-color="#458CFF" offset="0%"></stop>
            <stop stop-color="#FFFFFF" offset="100%"></stop>
        </linearGradient>
        <linearGradient x1="50.0003213%" y1="108.277463%" x2="50%" y2="176.567154%" id="linearGradient-5">
            <stop stop-color="#458CFF" offset="0%"></stop>
            <stop stop-color="#FFFFFF" offset="100%"></stop>
        </linearGradient>
        <linearGradient x1="50.0008294%" y1="616.212868%" x2="50.0008294%" y2="1312.3833%" id="linearGradient-6">
            <stop stop-color="#458CFF" offset="0%"></stop>
            <stop stop-color="#FFFFFF" offset="100%"></stop>
        </linearGradient>
        <linearGradient x1="50.0009442%" y1="621.073627%" x2="50.0009442%" y2="1368.42034%" id="linearGradient-7">
            <stop stop-color="#458CFF" offset="0%"></stop>
            <stop stop-color="#FFFFFF" offset="100%"></stop>
        </linearGradient>
        <linearGradient x1="50.0005154%" y1="604.084887%" x2="50.0005154%" y2="1384.78457%" id="linearGradient-8">
            <stop stop-color="#458CFF" offset="0%"></stop>
            <stop stop-color="#FFFFFF" offset="100%"></stop>
        </linearGradient>
        <linearGradient x1="50.0010985%" y1="572.043834%" x2="50.0010985%" y2="1373.45656%" id="linearGradient-9">
            <stop stop-color="#458CFF" offset="0%"></stop>
            <stop stop-color="#FFFFFF" offset="100%"></stop>
        </linearGradient>
        <linearGradient x1="49.9971241%" y1="529.241065%" x2="49.9971241%" y2="1341.70526%" id="linearGradient-10">
            <stop stop-color="#458CFF" offset="0%"></stop>
            <stop stop-color="#FFFFFF" offset="100%"></stop>
        </linearGradient>
        <linearGradient x1="50.0023757%" y1="478.254331%" x2="50.0023757%" y2="1293.33289%" id="linearGradient-11">
            <stop stop-color="#458CFF" offset="0%"></stop>
            <stop stop-color="#FFFFFF" offset="100%"></stop>
        </linearGradient>
        <linearGradient x1="50.0006057%" y1="421.436582%" x2="50.0006057%" y2="1231.83712%" id="linearGradient-12">
            <stop stop-color="#458CFF" offset="0%"></stop>
            <stop stop-color="#FFFFFF" offset="100%"></stop>
        </linearGradient>
        <linearGradient x1="49.999389%" y1="360.518626%" x2="49.999389%" y2="1159.50507%" id="linearGradient-13">
            <stop stop-color="#458CFF" offset="0%"></stop>
            <stop stop-color="#FFFFFF" offset="100%"></stop>
        </linearGradient>
        <linearGradient x1="50.0030484%" y1="296.830868%" x2="50.0030484%" y2="1077.53183%" id="linearGradient-14">
            <stop stop-color="#458CFF" offset="0%"></stop>
            <stop stop-color="#FFFFFF" offset="100%"></stop>
        </linearGradient>
        <linearGradient x1="50.001189%" y1="231.753295%" x2="50.001189%" y2="986.533201%" id="linearGradient-15">
            <stop stop-color="#458CFF" offset="0%"></stop>
            <stop stop-color="#FFFFFF" offset="100%"></stop>
        </linearGradient>
        <linearGradient x1="50.0006862%" y1="166.725181%" x2="50.0006862%" y2="886.676551%" id="linearGradient-16">
            <stop stop-color="#458CFF" offset="0%"></stop>
            <stop stop-color="#FFFFFF" offset="100%"></stop>
        </linearGradient>
        <linearGradient x1="49.9984575%" y1="103.492839%" x2="49.9984575%" y2="777.40091%" id="linearGradient-17">
            <stop stop-color="#458CFF" offset="0%"></stop>
            <stop stop-color="#FFFFFF" offset="100%"></stop>
        </linearGradient>
        <linearGradient x1="50.0009035%" y1="44.4560733%" x2="50.0009035%" y2="655.296367%" id="linearGradient-18">
            <stop stop-color="#458CFF" offset="0%"></stop>
            <stop stop-color="#FFFFFF" offset="100%"></stop>
        </linearGradient>
        <linearGradient x1="50.0003584%" y1="-5.72553619%" x2="50.0003584%" y2="502.813338%" id="linearGradient-19">
            <stop stop-color="#458CFF" offset="0%"></stop>
            <stop stop-color="#FFFFFF" offset="100%"></stop>
        </linearGradient>
        <linearGradient x1="50.0002568%" y1="-38.9051001%" x2="50.0002568%" y2="352.955455%" id="linearGradient-20">
            <stop stop-color="#458CFF" offset="0%"></stop>
            <stop stop-color="#FFFFFF" offset="100%"></stop>
        </linearGradient>
        <linearGradient x1="49.9982553%" y1="-84.1316849%" x2="49.9982553%" y2="352.172225%" id="linearGradient-21">
            <stop stop-color="#458CFF" offset="0%"></stop>
            <stop stop-color="#FFFFFF" offset="100%"></stop>
        </linearGradient>
        <linearGradient x1="50.000352%" y1="-150.932275%" x2="50.000352%" y2="361.646681%" id="linearGradient-22">
            <stop stop-color="#458CFF" offset="0%"></stop>
            <stop stop-color="#FFFFFF" offset="100%"></stop>
        </linearGradient>
        <linearGradient x1="49.9994845%" y1="-287.969252%" x2="49.9994845%" y2="408.441946%" id="linearGradient-23">
            <stop stop-color="#458CFF" offset="0%"></stop>
            <stop stop-color="#FFFFFF" offset="100%"></stop>
        </linearGradient>
        <linearGradient x1="50.0004692%" y1="72.8503712%" x2="50.0004692%" y2="134.610758%" id="linearGradient-24">
            <stop stop-color="#458CFF" offset="0%"></stop>
            <stop stop-color="#FFFFFF" offset="100%"></stop>
        </linearGradient>
        <linearGradient x1="50.0046775%" y1="53.120594%" x2="50.0046775%" y2="187.25774%" id="linearGradient-25">
            <stop stop-color="#458CFF" offset="0%"></stop>
            <stop stop-color="#FFFFFF" offset="100%"></stop>
        </linearGradient>
        <linearGradient x1="49.9997565%" y1="51.8278851%" x2="49.9997565%" y2="182.714982%" id="linearGradient-26">
            <stop stop-color="#458CFF" offset="0%"></stop>
            <stop stop-color="#FFFFFF" offset="100%"></stop>
        </linearGradient>
        <linearGradient x1="49.9999291%" y1="64.6587234%" x2="49.9999291%" y2="158.588627%" id="linearGradient-27">
            <stop stop-color="#458CFF" offset="0%"></stop>
            <stop stop-color="#FFFFFF" offset="100%"></stop>
        </linearGradient>
        <linearGradient x1="50%" y1="65.3691429%" x2="50%" y2="164.469061%" id="linearGradient-28">
            <stop stop-color="#458CFF" offset="0%"></stop>
            <stop stop-color="#FFFFFF" offset="100%"></stop>
        </linearGradient>
        <linearGradient x1="49.9999663%" y1="51.8290027%" x2="49.9999663%" y2="182.718922%" id="linearGradient-29">
            <stop stop-color="#458CFF" offset="0%"></stop>
            <stop stop-color="#FFFFFF" offset="100%"></stop>
        </linearGradient>
        <linearGradient x1="49.9991846%" y1="51.8300414%" x2="49.9991846%" y2="182.717138%" id="linearGradient-30">
            <stop stop-color="#458CFF" offset="0%"></stop>
            <stop stop-color="#FFFFFF" offset="100%"></stop>
        </linearGradient>
        <linearGradient x1="50.00266%" y1="64.1869339%" x2="50.00266%" y2="161.496914%" id="linearGradient-31">
            <stop stop-color="#458CFF" offset="0%"></stop>
            <stop stop-color="#FFFFFF" offset="100%"></stop>
        </linearGradient>
        <linearGradient x1="50.0032673%" y1="51.8290027%" x2="50.0032673%" y2="182.718922%" id="linearGradient-32">
            <stop stop-color="#458CFF" offset="0%"></stop>
            <stop stop-color="#FFFFFF" offset="100%"></stop>
        </linearGradient>
        <linearGradient x1="50.0002903%" y1="944.229115%" x2="50.0002903%" y2="2318.44691%" id="linearGradient-33">
            <stop stop-color="#458CFF" offset="0%"></stop>
            <stop stop-color="#FFFFFF" offset="100%"></stop>
        </linearGradient>
        <linearGradient x1="50%" y1="546.16639%" x2="50%" y2="1462.65288%" id="linearGradient-34">
            <stop stop-color="#458CFF" offset="0%"></stop>
            <stop stop-color="#FFFFFF" offset="100%"></stop>
        </linearGradient>
        <linearGradient x1="50.0020765%" y1="429.31602%" x2="50.0020765%" y2="1345.80251%" id="linearGradient-35">
            <stop stop-color="#458CFF" offset="0%"></stop>
            <stop stop-color="#FFFFFF" offset="100%"></stop>
        </linearGradient>
        <linearGradient x1="49.992557%" y1="429.300921%" x2="49.992557%" y2="1345.78741%" id="linearGradient-36">
            <stop stop-color="#458CFF" offset="0%"></stop>
            <stop stop-color="#FFFFFF" offset="100%"></stop>
        </linearGradient>
        <linearGradient x1="49.9965326%" y1="312.46565%" x2="49.9965326%" y2="1228.95214%" id="linearGradient-37">
            <stop stop-color="#458CFF" offset="0%"></stop>
            <stop stop-color="#FFFFFF" offset="100%"></stop>
        </linearGradient>
        <linearGradient x1="50.0050865%" y1="195.600181%" x2="50.0050865%" y2="1112.08667%" id="linearGradient-38">
            <stop stop-color="#458CFF" offset="0%"></stop>
            <stop stop-color="#FFFFFF" offset="100%"></stop>
        </linearGradient>
        <linearGradient x1="49.9986021%" y1="78.7196135%" x2="49.9986021%" y2="995.2061%" id="linearGradient-39">
            <stop stop-color="#458CFF" offset="0%"></stop>
            <stop stop-color="#FFFFFF" offset="100%"></stop>
        </linearGradient>
        <linearGradient x1="50.0031798%" y1="-38.1400966%" x2="50.0031798%" y2="878.208031%" id="linearGradient-40">
            <stop stop-color="#458CFF" offset="0%"></stop>
            <stop stop-color="#FFFFFF" offset="100%"></stop>
        </linearGradient>
        <linearGradient x1="50.0017066%" y1="-38.1400966%" x2="50.0017066%" y2="878.208031%" id="linearGradient-41">
            <stop stop-color="#458CFF" offset="0%"></stop>
            <stop stop-color="#FFFFFF" offset="100%"></stop>
        </linearGradient>
        <linearGradient x1="50.000819%" y1="-155.026423%" x2="50.000819%" y2="761.460063%" id="linearGradient-42">
            <stop stop-color="#458CFF" offset="0%"></stop>
            <stop stop-color="#FFFFFF" offset="100%"></stop>
        </linearGradient>
        <linearGradient x1="49.9988351%" y1="-386.424893%" x2="49.9988351%" y2="916.130901%" id="linearGradient-43">
            <stop stop-color="#458CFF" offset="0%"></stop>
            <stop stop-color="#FFFFFF" offset="100%"></stop>
        </linearGradient>
    </defs>
    <g id="Page-1" stroke="none" stroke-width="1" fill="none" fill-rule="evenodd">
        <path d="M9.17425651,50.7314358 L24.4193278,56.312988 L24.8604206,55.1202614 L7.84400197,48.8924601 C8.26255725,49.5234034 8.70579656,50.1367732 9.17425651,50.7314358 Z" id="path4237" fill="#FFFFFF" fill-rule="nonzero"></path>
        <path d="M6.82551744,47.2337539 L25.2795125,53.9876247 L25.7206054,52.7960319 L5.94225848,45.5563404 C6.21861229,46.1254932 6.51374742,46.6844421 6.82551744,47.2337539 Z" id="path4239" fill="#FFFFFF" fill-rule="nonzero"></path>
        <path d="M6.776686,18.1842863 L15.5287843,21.3877549 C15.7885032,21.0243814 16.0573445,20.6700781 16.339601,20.3310808 L7.43886192,17.0731913 C7.21026634,17.4365647 6.99025651,17.8078745 6.776686,18.1842863 Z" id="path4241" fill="#FFFFFF" fill-rule="nonzero"></path>
        <path d="M3.09822899,30.0333217 L11.9506732,33.2742047 C11.9367214,32.8257985 11.9410143,32.3751247 11.9581857,31.9233172 L3.2425769,28.732887 C3.1846231,29.1665542 3.13632826,29.6002214 3.09822899,30.0333217 Z" id="path4243" fill="#FFFFFF" fill-rule="nonzero"></path>
        <path d="M5.24198329,44.0149795 L26.1396973,51.6639621 L26.2470192,51.3737168 L23.2108835,50.1191998 C21.7298418,49.5080975 20.3732934,48.705388 19.1503607,47.751887 L4.64527371,42.4424398 C4.83094054,42.9730444 5.02733956,43.4979801 5.24198329,44.0149795 Z" id="path4245" fill="#FFFFFF" fill-rule="nonzero"></path>
        <path d="M4.17842359,40.9861116 L16.8719174,45.6328699 C16.3283322,45.0308378 15.8260658,44.3942257 15.3661916,43.7275686 L3.7824059,39.487267 C3.90206978,39.9906611 4.03353907,40.4906539 4.17842359,40.9861116 Z" id="path4247" fill="#FFFFFF" fill-rule="nonzero"></path>
        <path d="M13.6442123,10.1413185 L25.5107912,14.4847932 C26.3264373,14.2750457 27.1576452,14.1276555 27.9990486,14.0426227 L14.8649985,9.23430208 C14.4507361,9.52511421 14.0434496,9.82556339 13.6442123,10.1413185 Z" id="path4249" fill="#FFFFFF" fill-rule="nonzero"></path>
        <path d="M3.10252187,35.3138578 L12.9691577,38.9249168 C12.8017356,38.4266247 12.6530948,37.9215299 12.5253818,37.4090657 L3.00915184,33.9261227 C3.029543,34.389268 3.06066634,34.8529801 3.10252187,35.3138578 Z" id="path4251" fill="#FFFFFF" fill-rule="nonzero"></path>
        <path d="M3.48727076,38.0944299 L14.342341,42.0677286 C14.0493523,41.532589 13.7805111,40.9821434 13.5390369,40.4203601 L3.25438231,36.6551083 C3.31984865,37.1375277 3.397657,37.6165457 3.48727076,38.0944299 Z" id="path4253" fill="#FFFFFF" fill-rule="nonzero"></path>
        <path d="M2.98232138,32.6302231 L12.2302467,36.0156617 C12.1492187,35.5457139 12.086972,35.0700972 12.0397504,34.5922129 L3.01344472,31.2878388 C2.99305356,31.7368119 2.98232138,32.1840844 2.98232138,32.6302231 Z" id="path4255" fill="#FFFFFF" fill-rule="nonzero"></path>
        <path d="M4.80786634,22.4109827 C4.7713769,22.508487 4.74186339,22.6076919 4.70698378,22.7051962 L13.1778988,25.8066254 C13.3276128,25.4052706 13.4923518,25.0152536 13.6656767,24.6314722 L5.16310172,21.5192722 C5.04236462,21.8146195 4.92001769,22.1076991 4.80786634,22.4109827 Z" id="path4257" fill="#FFFFFF" fill-rule="nonzero"></path>
        <path d="M8.12035577,16.036925 L17.2094447,19.3634077 C17.537313,19.0221427 17.8726939,18.6916486 18.2225631,18.3809955 L8.8979027,14.9677795 C8.63067125,15.3169808 8.37202555,15.6729847 8.12035577,16.036925 Z" id="path4259" fill="#FFFFFF" fill-rule="nonzero"></path>
        <path d="M5.64283047,20.408744 L14.1974565,23.5390844 C14.3997582,23.1564368 14.6106457,22.7822926 14.835485,22.4189191 L6.19875774,19.2574001 C6.0066516,19.6360795 5.82152138,20.0192939 5.64283047,20.408744 Z" id="path4261" fill="#FFFFFF" fill-rule="nonzero"></path>
        <path d="M3.96485307,25.072509 L12.4625985,28.1830083 C12.5591882,27.7703158 12.6681199,27.3598909 12.7926133,26.9500329 L4.31901523,23.8486037 C4.19130221,24.2550604 4.07378477,24.6632178 3.96485307,25.072509 Z" id="path4263" fill="#FFFFFF" fill-rule="nonzero"></path>
        <path d="M9.69315774,13.9734627 L19.3091971,17.4932532 C19.7239961,17.1786319 20.1506005,16.8832847 20.5884737,16.6072116 L10.5978811,12.9513686 C10.2893307,13.2829965 9.98721966,13.6236945 9.69315774,13.9734627 Z" id="path4265" fill="#FFFFFF" fill-rule="nonzero"></path>
        <path d="M3.43039017,27.5157844 L12.0445799,30.6688001 C12.0885818,30.2385342 12.1449258,29.8088352 12.2179047,29.3791362 L3.68045012,26.2544647 C3.5870801,26.6739598 3.50444226,27.0951555 3.43039017,27.5157844 Z" id="path4267" fill="#FFFFFF" fill-rule="nonzero"></path>
        <path d="M11.5219224,12.0029696 L21.9638034,15.8249099 C22.5079253,15.5477031 23.0654624,15.301108 23.6337317,15.083424 L12.5715302,11.0335958 C12.2152216,11.3482172 11.8642791,11.6696411 11.5219224,12.0029696 Z" id="path4269" fill="#FFFFFF" fill-rule="nonzero"></path>
        <path d="M19.9472256,58.9393673 L22.9833612,60.1938844 L23.1400511,59.7687204 L17.1482713,57.5765752 C18.0465553,58.0788355 18.9775725,58.5385795 19.9472256,58.9393673 Z" id="path4271" fill="#FFFFFF" fill-rule="nonzero"></path>
        <path d="M13.1499951,54.8271817 L23.5586064,58.6372175 L23.9996993,57.4444909 L10.798573,52.612928 C11.5369474,53.3940958 12.3198604,54.1350149 13.1499951,54.8271817 Z" id="path4273" fill="#FFFFFF" fill-rule="nonzero"></path>
        <path d="M27.3395558,4.59718077 L41.6246329,9.82613027 L42.0657258,8.6339706 L30.8076619,4.51271486 C29.6442929,4.46169519 28.4862899,4.48947257 27.3395558,4.59718077 Z" id="path4275" fill="#FFFFFF" fill-rule="nonzero"></path>
        <path d="M19.0285504,6.83354306 L39.9037268,14.4745893 L40.3448197,13.2829965 L20.7677012,6.11643322 C20.1806506,6.3363847 19.5995027,6.57107519 19.0285504,6.83354306 Z" id="path4277" fill="#FFFFFF" fill-rule="nonzero"></path>
        <path d="M22.5953926,5.50022896 L40.7639115,12.1503598 L41.2050044,10.9582001 L24.8239312,4.96168798 C24.0732147,5.10964503 23.3289376,5.28537945 22.5953926,5.50022896 Z" id="path4279" fill="#FFFFFF" fill-rule="nonzero"></path>
        <path d="M16.1174447,8.4072165 L31.5653543,14.0618968 C33.0930811,14.2353637 34.6234909,14.6185781 36.1211676,15.2376168 L39.1573032,16.4921339 L39.4846349,15.607226 L17.5458988,7.5772965 C17.0618771,7.83749683 16.5864413,8.11583749 16.1174447,8.4072165 Z" id="path4281" fill="#FFFFFF" fill-rule="nonzero"></path>
        <path d="M39.3744718,6.36296319 C36.5460069,5.20667491 33.642145,4.59813177 30.764672,4.47146922 L42.0634522,8.56407671 L42.421588,7.60819672 L39.3744718,6.36296319 Z" id="path4292" fill="url(#linearGradient-1)" fill-rule="nonzero"></path>
        <path d="M24.7598389,4.91732137 L41.2001565,10.8721497 L41.6207641,9.74738633 L27.2845616,4.55534797 C26.4358067,4.63416022 25.5935144,4.75519332 24.7598389,4.91732137 Z" id="path4299" fill="url(#linearGradient-2)" fill-rule="nonzero"></path>
        <path d="M20.688939,6.06403959 L40.3368608,13.1807856 L40.7574684,12.0560223 L22.5232405,5.45211878 C21.9033694,5.63113517 21.2937307,5.83998763 20.688939,6.06403959 Z" id="path4306" fill="url(#linearGradient-3)" fill-rule="nonzero"></path>
        <path d="M17.4554845,7.51474791 L39.473565,15.4888586 L39.8941726,14.3640953 L18.9434983,6.77616455 C18.4404925,7.00528302 17.9450265,7.2535416 17.4554845,7.51474791 Z" id="path4313" fill="url(#linearGradient-4)" fill-rule="nonzero"></path>
        <path d="M14.7648884,9.15967213 L27.9464396,13.9345685 C29.1258642,13.8146613 30.3252152,13.8186019 31.5256433,13.9531457 L16.0218642,8.33889886 C15.5953326,8.60066811 15.1768792,8.8742592 14.7648884,9.15967213 Z" id="path4320" fill="url(#linearGradient-5)" fill-rule="nonzero"></path>
        <path d="M12.4631254,10.9475843 L23.5653349,14.9692607 C24.1819747,14.7350758 24.8110012,14.5357934 25.449183,14.3742283 L13.539687,10.0609465 C13.1745501,10.3474853 12.8147986,10.6413424 12.4631254,10.9475843 Z" id="path4327" fill="url(#linearGradient-6)" fill-rule="nonzero"></path>
        <path d="M10.4823383,12.851463 L20.5090633,16.481893 C20.958214,16.2021095 21.4186743,15.942592 21.8893671,15.7050294 L11.4097215,11.9096567 C11.0941312,12.2153356 10.7850035,12.5294587 10.4823383,12.851463 Z" id="path4334" fill="url(#linearGradient-7)" fill-rule="nonzero"></path>
        <path d="M8.77567319,14.8538571 L18.1340575,18.2433467 C18.4862693,17.9326013 18.8524833,17.6415589 19.22516,17.3617754 L9.57434292,13.8664522 C9.30129804,14.1878936 9.03579287,14.5183421 8.77567319,14.8538571 Z" id="path4341" fill="url(#linearGradient-8)" fill-rule="nonzero"></path>
        <path d="M7.31189413,16.9446335 L16.2442854,20.1798763 C16.5243314,19.8466131 16.8167641,19.5291123 17.117275,19.2194927 L7.99531415,15.9161336 C7.76050633,16.2510857 7.5332382,16.5956078 7.31189413,16.9446335 Z" id="path4348" fill="url(#linearGradient-9)" fill-rule="nonzero"></path>
        <path d="M6.0678435,19.1142221 L14.7358067,22.2537643 C14.9560736,21.901361 15.1898044,21.5619054 15.4310748,21.2292051 L6.64732336,18.0480049 C6.44698274,18.3975936 6.25472037,18.7533746 6.0678435,19.1142221 Z" id="path4355" fill="url(#linearGradient-10)" fill-rule="nonzero"></path>
        <path d="M5.02736479,21.3586823 L13.5606904,24.4492484 C13.7287181,24.0799567 13.9064396,23.7179833 14.0949321,23.36558 L5.50936709,20.2569997 C5.34241657,20.619536 5.1813901,20.98545 5.02736479,21.3586823 Z" id="path4362" fill="url(#linearGradient-11)" fill-rule="nonzero"></path>
        <path d="M4.1807641,23.6729477 L12.6850081,26.7533808 C12.7970265,26.3914074 12.916046,26.0299969 13.050145,25.6702753 C13.0571461,25.6516981 13.0646858,25.6348098 13.071687,25.6167955 L4.57013579,22.5369255 C4.43334407,22.9152242 4.30086076,23.2929601 4.1807641,23.6729477 Z" id="path4369" fill="url(#linearGradient-12)" fill-rule="nonzero"></path>
        <path d="M3.53988953,26.0620848 L12.1082209,29.1650356 C12.1760783,28.7681596 12.2595535,28.3729725 12.3537998,27.9777853 L3.82532106,24.8883452 C3.72084235,25.2784658 3.62767319,25.6702753 3.53988953,26.0620848 Z" id="path4376" fill="url(#linearGradient-13)" fill-rule="nonzero"></path>
        <path d="M3.10043268,28.5232787 L11.8470242,31.6915311 C11.8626421,31.2772038 11.8906467,30.8617507 11.9337307,30.4457346 L3.2889252,27.3146366 C3.21675949,27.717142 3.15482624,28.1202103 3.10043268,28.5232787 Z" id="path4383" fill="url(#linearGradient-14)" fill-rule="nonzero"></path>
        <path d="M2.87047181,31.0604702 L11.9294223,34.3418744 C11.8857998,33.9078441 11.8540253,33.471562 11.8394845,33.0330281 L2.95556272,29.8146737 C2.91786421,30.2306898 2.88985961,30.64558 2.87047181,31.0604702 Z" id="path4390" fill="url(#linearGradient-15)" fill-rule="nonzero"></path>
        <path d="M2.86616341,33.6804145 L12.4162716,37.1397092 C12.302099,36.6825982 12.2019287,36.2215466 12.1206076,35.7554284 L2.83921217,32.393523 C2.83869735,32.8236127 2.84731415,33.2520136 2.86616341,33.6804145 Z" id="path4397" fill="url(#linearGradient-16)" fill-rule="nonzero"></path>
        <path d="M3.11228078,36.3904299 L13.4341312,40.1295082 C13.2230196,39.643687 13.0329114,39.1477328 12.862191,38.6450232 L2.95987112,35.0590659 C3.00026237,35.5037921 3.05142463,35.9479555 3.11228078,36.3904299 Z" id="path4404" fill="url(#linearGradient-17)" fill-rule="nonzero"></path>
        <path d="M3.64221404,39.2029013 L15.2678941,43.4137272 C14.8973717,42.8828704 14.5537768,42.3323105 14.2398021,41.7648624 L3.34601151,37.8197464 C3.43379517,38.2841757 3.53234983,38.7446644 3.64221404,39.2029013 Z" id="path4411" fill="url(#linearGradient-18)" fill-rule="nonzero"></path>
        <path d="M4.50820253,42.1375317 L19.0662877,47.4106341 C18.2401519,46.7739437 17.4770265,46.0680111 16.7796041,45.306347 L4.03966398,40.6913269 C4.1839954,41.1777111 4.33909781,41.6607176 4.50820253,42.1375317 Z" id="path4418" fill="url(#linearGradient-19)" fill-rule="nonzero"></path>
        <path d="M5.80987802,45.2297866 L25.6602946,52.4191525 L26.0809022,51.2943891 L5.1070702,43.6991401 C5.32518297,44.2176121 5.56268354,44.7259511 5.80987802,45.2297866 Z" id="path4425" fill="url(#linearGradient-20)" fill-rule="nonzero"></path>
        <path d="M7.71849942,48.5427157 L24.7964603,54.7272255 L25.2176064,53.6024621 L6.69686997,46.8955397 C7.0189229,47.4551067 7.35874799,48.0051036 7.71849942,48.5427157 Z" id="path4432" fill="url(#linearGradient-21)" fill-rule="nonzero"></path>
        <path d="M10.6842946,52.2367584 L23.9331646,57.0347355 L24.3537722,55.9110981 L9.05356502,50.3683452 C9.56734177,51.0168574 10.1123544,51.6389112 10.6842946,52.2367584 Z" id="path4439" fill="url(#linearGradient-22)" fill-rule="nonzero"></path>
        <path d="M17.0564189,57.1659016 L23.0698688,59.3428085 L23.4904764,58.219171 L13.0436824,54.4361831 C14.2834246,55.4573647 15.6244143,56.3721497 17.0564189,57.1659016 Z" id="path4446" fill="url(#linearGradient-23)" fill-rule="nonzero"></path>
        <path d="M1.84022555,17.8053758 L1.84022555,17.8053758 C-3.53881243,32.1852335 3.2770771,48.458274 17.0343383,54.080965 L20.080916,55.3256356 L23.356916,46.5667801 L20.3097998,45.3221095 C11.1738366,41.5875348 6.64678481,30.7801237 10.2189873,21.230331 C13.7911899,11.6805382 24.1302739,6.94842561 33.2662371,10.6830003 L36.3133533,11.9276709 L39.5898918,3.16881534 L36.5427756,1.92358181 C22.7860529,-3.69854624 7.21872497,3.42551809 1.84022555,17.8053758 Z" id="path4453" fill="url(#linearGradient-24)" fill-rule="nonzero"></path>
        <path d="M142.184635,37.8298407 C142.094159,35.9946213 142.541155,34.1874598 143.526702,32.4077837 C144.511171,30.6286802 146.575972,29.6747097 149.718951,29.5470174 L149.718951,26.5408077 C147.486661,26.5734466 145.793459,27.0521497 144.640423,27.976917 C143.486311,28.9016844 142.600934,30.1373797 141.98214,31.6834304 L141.98214,27.1855681 L139.356709,27.1855681 L139.356709,52.4520444 L142.184097,52.4520444 L142.184097,37.8298407 L142.184635,37.8298407 Z" id="path4462" fill="url(#linearGradient-25)" fill-rule="nonzero"></path>
        <path d="M129.99994,35.8125309 C129.962242,36.1973257 129.869611,36.4927932 129.719894,36.7006511 C129.100562,37.1816446 127.941063,37.4971535 126.241399,37.6488955 C124.541735,37.8006375 122.706895,38.0491509 120.735802,38.3938629 C118.764709,38.7385749 117.068815,39.4583474 115.649197,40.5543256 C114.22904,41.6514489 113.488534,43.3927601 113.428755,45.7776864 C113.443296,47.8734439 114.121869,49.601585 115.463936,50.961537 C116.806002,52.321489 118.736166,53.0315271 121.254426,53.0968048 C123.618122,53.0006061 125.518665,52.4881189 126.956594,51.5610611 C128.393445,50.6340033 129.481316,49.722406 130.219669,48.8268419 C130.129192,50.0837238 130.373155,51.033686 130.952635,51.6778738 C131.532115,52.3220616 132.416953,52.6518857 133.60661,52.6679189 C134.162932,52.63528 134.599696,52.5871807 134.916364,52.524766 C135.231954,52.4612062 135.443604,52.4297125 135.548621,52.4297125 L135.548621,50.305897 C135.427448,50.305897 135.284732,50.3179218 135.119397,50.3419715 C134.952985,50.3665938 134.80273,50.378046 134.668092,50.378046 C133.953975,50.3625855 133.474127,50.2371836 133.229086,50.002413 C132.982969,49.7676423 132.868258,49.4967972 132.883876,49.1881596 L132.883876,33.4361937 C132.898417,31.5855138 132.199917,29.9890734 130.788377,28.6485902 C129.376838,27.3086796 127.139701,26.6066581 124.076428,26.5413804 C120.794504,26.6375791 118.398495,27.5108114 116.885708,29.1639404 C115.372921,30.8170694 114.625413,32.6723302 114.639954,34.7325859 L117.332704,34.7325859 C117.376865,33.2426511 117.911107,31.9468316 118.933814,30.8439821 C119.95652,29.7411326 121.715963,29.1662308 124.212143,29.1181315 C127.223715,29.2767448 128.988543,30.0383179 129.50609,31.4005604 C130.023636,32.763948 130.206743,33.7379599 130.055949,34.3237413 C130.057026,34.9324272 130.038177,35.4288813 129.99994,35.8125309 Z M130.057026,43.6155059 C129.96655,45.7496284 129.091406,47.4296701 127.431595,48.6550585 C125.771784,49.8821646 123.833003,50.5040205 121.615793,50.519481 C119.806803,50.4713817 118.460428,49.9938238 117.578822,49.0868074 C116.697215,48.1809362 116.256681,47.1015638 116.256681,45.8492628 C116.286301,44.2654198 116.787692,43.09672 117.760852,42.343736 C118.734012,41.5907521 119.955982,41.0668127 121.426762,40.7702 C122.897003,40.4747326 124.408713,40.2388167 125.96243,40.0624524 C127.51507,39.8866607 128.880295,39.6152429 130.057565,39.2459086 L130.057565,43.6155059 L130.057026,43.6155059 Z" id="path4469" fill="url(#linearGradient-26)" fill-rule="nonzero"></path>
        <path d="M62.5110012,53.3825378 C66.8511761,53.2056009 70.093786,51.8628273 72.2415236,49.3507813 C74.3892612,46.8387352 75.46313,44.0627154 75.46313,41.0232943 L72.5011047,41.0232943 C72.4704074,43.6996797 71.5817998,45.9557685 69.8336663,47.7909879 C68.0855328,49.6262073 65.6895236,50.5836135 62.6451001,50.6632065 C58.2149873,50.4553486 55.128557,48.7420954 53.3890403,45.5217291 C51.6484465,42.3013628 50.8163867,38.7855291 50.8917837,34.9730826 C50.9214039,30.0732472 51.927954,26.238469 53.9098182,23.4681752 C55.8916824,20.6978814 58.7201473,19.2886849 62.3968285,19.2405855 C65.8101588,19.3860288 68.2955673,20.3680573 69.8525155,22.1883888 C71.4094638,24.0087203 72.1790518,25.8187448 72.1645109,27.6150267 L75.193855,27.6150267 C75.2083959,25.0325494 74.1948446,22.5542875 72.1532014,20.1802408 C70.110481,17.8061941 66.9120322,16.5390051 62.5562394,16.3775287 C57.9527135,16.4256281 54.3530449,18.0718857 51.7572336,21.3151565 C49.1614223,24.5584272 47.8414361,29.0631608 47.7961979,34.8287846 C47.7498826,39.8379887 48.8856847,44.1348644 51.2030656,47.7182663 C53.5188308,51.3022408 57.2886812,53.1901404 62.5110012,53.3825378 Z" id="path4476" fill="url(#linearGradient-27)" fill-rule="nonzero"></path>
        <rect id="rect4483" fill="url(#linearGradient-28)" fill-rule="nonzero" x="80.9988861" y="17.3795986" width="2.69275029" height="35.0724458"></rect>
        <path d="M99.4743843,53.0962322 C102.746614,52.9353284 105.208865,51.9521547 106.860598,50.1449932 C108.512331,48.3378318 109.337929,46.536969 109.337929,44.7452681 L106.57786,44.7452681 C106.562242,46.1458755 105.945602,47.462309 104.727402,48.6945686 C103.509201,49.9268283 101.833772,50.5836135 99.7005754,50.6632065 C96.9502002,50.5670078 94.9365616,49.5168385 93.6596594,47.5115536 C92.3827572,45.5062686 91.7526536,43.1207697 91.7671945,40.3556294 L109.673984,40.3556294 C109.673984,37.5595681 109.430021,35.3195125 108.942094,33.633172 C108.454168,31.9479768 107.714739,30.6092115 106.723807,29.6180212 C106.151328,28.9503564 105.28157,28.2826915 104.11507,27.6150267 C102.947494,26.9473618 101.430937,26.5894797 99.5648608,26.5413804 C96.340023,26.5568409 93.7851415,27.7077897 91.9012934,29.9936542 C90.0163682,32.2795188 89.0518251,35.5955112 89.007664,39.9427766 C88.9769666,43.4322702 89.7799448,46.4608117 91.4155213,49.0289737 C93.0494822,51.596563 95.7357699,52.9519341 99.4743843,53.0962322 Z M93.9531692,31.8145584 C95.2898504,30.0967243 97.1149965,29.1988697 99.4291461,29.1181315 C101.826232,29.1662308 103.64707,30.0217122 104.890582,31.6834304 C106.134094,33.3451485 106.764198,35.4723997 106.779816,38.065184 L91.9023705,38.065184 C91.9314522,35.6155526 92.6148723,33.5323924 93.9531692,31.8145584 Z" id="path4490" fill="url(#linearGradient-29)" fill-rule="nonzero"></path>
        <path d="M259.114085,33.6325994 C258.626159,31.9474042 257.88673,30.6086388 256.895797,29.6174486 C256.323319,28.9497837 255.45356,28.2821189 254.287061,27.614454 C253.119484,26.9467892 251.602928,26.5889071 249.736852,26.5408077 C246.512014,26.5562683 243.957132,27.7072171 242.073284,29.9930816 C240.188359,32.2789462 239.223816,35.5949386 239.179655,39.942204 C239.148957,43.4316976 239.951936,46.4602391 241.587512,49.0284011 C243.222012,51.5959904 245.908299,52.9519341 249.646914,53.0962322 C252.919144,52.9353284 255.381395,51.9521547 257.033128,50.1449932 C258.684861,48.3378318 259.510458,46.536969 259.510458,44.7452681 L256.750389,44.7452681 C256.734771,46.1458755 256.118131,47.462309 254.899931,48.6945686 C253.681731,49.9268283 252.006301,50.5836135 249.873105,50.6632065 C247.12273,50.5670078 245.109091,49.5168385 243.832189,47.5115536 C242.555287,45.5062686 241.925183,43.1207697 241.939724,40.3556294 L259.846513,40.3556294 C259.846513,37.5595681 259.60255,35.3195125 259.114085,33.6325994 Z M242.074361,38.065184 C242.103982,35.6161252 242.787402,33.5323924 244.125699,31.8145584 C245.46238,30.0967243 247.287526,29.1988697 249.601675,29.1181315 C251.998762,29.1662308 253.8196,30.0217122 255.063112,31.6834304 C256.306624,33.3451485 256.936727,35.4723997 256.952345,38.065184 L242.074361,38.065184 Z" id="path4497" fill="url(#linearGradient-30)" fill-rule="nonzero"></path>
        <path d="M231.301206,31.5872317 C230.760502,30.3589803 229.825579,29.2275002 228.495899,28.1916463 C227.166219,27.1557923 225.450937,26.6055128 223.348976,26.5408077 C219.634058,26.621546 216.884221,27.9041954 215.102159,30.3893287 C213.320097,32.874462 212.436875,36.0272601 212.451239,39.8465779 C212.481036,43.9275791 213.406265,47.1399288 215.226025,49.4841997 C217.045786,51.8284706 219.572124,53.0315271 222.805579,53.0968048 C225.087954,53.0320997 226.909869,52.5161769 228.269169,51.5501815 C229.627931,50.5830409 230.638789,49.4509882 231.300667,48.1545961 L231.300667,52.452617 L233.993418,52.452617 L233.993418,17.3801712 L231.300667,17.3801712 L231.300667,31.5872317 L231.301206,31.5872317 Z M229.26818,48.0011363 C227.80817,49.7435926 225.834923,50.6070906 223.349514,50.5910575 C220.372948,50.4633651 218.272064,49.308408 217.04794,47.1250409 C215.823816,44.942819 215.233565,42.5326978 215.27988,39.8946773 C215.249183,36.8369326 215.876055,34.296256 217.160497,32.2726475 C218.444939,30.2490389 220.575982,29.1982971 223.552548,29.1175589 C226.112815,29.1501977 228.073675,30.1064587 229.436746,31.9851966 C230.799816,33.8650796 231.48916,36.5179881 231.503701,39.942204 C231.472465,43.5731326 230.72765,46.2586799 229.26818,48.0011363 Z" id="path4504" fill="url(#linearGradient-31)" fill-rule="nonzero"></path>
        <path d="M197.616516,26.5413804 C193.591931,26.6690727 190.746771,28.0353234 189.081574,30.6412777 C187.416377,33.247232 186.606398,36.2992505 186.651636,39.7984786 C186.591857,43.2879722 187.389988,46.3399907 189.047646,48.956252 C190.705303,51.5730859 193.561234,52.9525067 197.615977,53.0962322 C201.818283,52.9192952 204.718375,51.4889121 206.314638,48.8005017 C207.9109,46.1120914 208.671871,43.1110353 208.597013,39.7984786 C208.641174,36.1549525 207.813422,33.0622785 206.111604,30.5216019 C204.409786,27.9809253 201.57809,26.6530396 197.616516,26.5413804 Z M203.861542,47.4852134 C202.573869,49.4916436 200.492373,50.5274976 197.616516,50.5910575 C194.768124,50.5274976 192.696861,49.488208 191.401109,47.4731886 C190.105358,45.4587418 189.464483,42.8842812 189.479563,39.7503792 C189.465022,36.677174 190.127438,34.1519579 191.468428,32.1764487 C192.809418,30.2009396 194.903839,29.1816913 197.75223,29.1175589 C200.642628,29.2137576 202.709583,30.2851134 203.952018,32.3316264 C205.194453,34.3781394 205.800322,36.8833141 205.770702,39.8460053 C205.785243,42.9329531 205.148677,45.4787832 203.861542,47.4852134 Z" id="path4511" fill="url(#linearGradient-32)" fill-rule="nonzero"></path>
        <path d="M168.469648,16.4239103 C164.593165,16.4994949 161.453956,17.3446693 159.046099,18.9531346 L177.596456,18.9531346 C175.326467,17.3544037 172.293353,16.502358 168.469648,16.4239103 Z" id="path4520" fill="url(#linearGradient-33)" fill-rule="nonzero"></path>
        <path d="M168.469648,22.7942116 C169.730932,22.8285683 170.83496,23.0284097 171.790886,23.3851465 L181.329146,23.3851465 C180.756667,22.199841 179.991388,21.1067259 179.007995,20.1178261 C178.822734,19.9317274 178.617547,19.7650975 178.418283,19.5927415 L158.176341,19.5927415 C157.390058,20.2289127 156.692635,20.9584196 156.089998,21.7864156 C155.719475,22.2954671 155.385574,22.8325766 155.070522,23.3851465 L164.973381,23.3851465 C165.987471,23.0278371 167.152354,22.8302861 168.469648,22.7942116 Z" id="path4527" fill="url(#linearGradient-34)" fill-rule="nonzero"></path>
        <path d="M161.190605,26.4692313 C161.790012,25.4299417 162.610762,24.6231323 163.626467,24.0241808 L154.731236,24.0241808 C154.123751,25.1991793 153.6229,26.4572065 153.252377,27.8165859 L160.528727,27.8165859 C160.729068,27.3504802 160.943949,26.896972 161.190605,26.4692313 Z" id="path4534" fill="url(#linearGradient-35)" fill-rule="nonzero"></path>
        <path d="M173.976322,24.7044431 C174.967793,25.6315009 175.580663,26.6696453 175.821395,27.8171585 L182.491337,27.8171585 C182.391167,26.4635052 182.105735,25.1980341 181.625887,24.0247534 L173.085022,24.0247534 C173.403305,24.2274579 173.704893,24.4502037 173.976322,24.7044431 Z" id="path4541" fill="url(#linearGradient-36)" fill-rule="nonzero"></path>
        <path d="M160.26753,28.4556201 L153.103199,28.4556201 C152.815075,29.6512327 152.614734,30.9161311 152.501639,32.2480252 L159.393464,32.2480252 C159.552875,30.8760484 159.840999,29.6088594 160.26753,28.4556201 Z" id="path4548" fill="url(#linearGradient-37)" fill-rule="nonzero"></path>
        <path d="M159.244824,35.2828654 C159.230822,34.4514337 159.258826,33.6549313 159.323452,32.8876321 L152.446168,32.8876321 C152.399314,33.6354625 152.37131,34.3976082 152.377772,35.1866667 C152.374541,35.6962908 152.394467,36.1893092 152.415471,36.6800371 L159.285754,36.6800371 C159.258826,36.2265289 159.24267,35.7621411 159.244824,35.2828654 Z" id="path4555" fill="url(#linearGradient-38)" fill-rule="nonzero"></path>
        <path d="M159.339609,37.3202166 L152.447245,37.3202166 C152.535567,38.6532558 152.721367,39.9147187 152.994951,41.1126216 L160.152281,41.1126216 C159.737059,39.9708346 159.468322,38.7047909 159.339609,37.3202166 Z" id="path4562" fill="url(#linearGradient-39)" fill-rule="nonzero"></path>
        <path d="M161.4378,43.6527256 C161.037119,43.0675168 160.696216,42.430773 160.405399,41.7522285 L153.152746,41.7522285 C153.505496,43.1041639 153.974035,44.3713529 154.572364,45.5452062 L163.314647,45.5452062 C162.589758,45.043026 161.960732,44.4171618 161.4378,43.6527256 Z" id="path4569" fill="url(#linearGradient-40)" fill-rule="nonzero"></path>
        <path d="M173.912773,44.8552095 C173.644575,45.1100215 173.353758,45.3356304 173.05217,45.5452062 L181.545643,45.5452062 C182.05188,44.3856682 182.376087,43.1213423 182.519342,41.7522285 L175.889791,41.7522285 C175.593588,42.8453436 174.937634,43.8806249 173.912773,44.8552095 Z" id="path4576" fill="url(#linearGradient-41)" fill-rule="nonzero"></path>
        <path d="M178.494757,49.6806054 C179.657487,48.6607846 180.55902,47.4897943 181.228976,46.184813 L171.931986,46.184813 C170.876967,46.6692423 169.665229,46.94066 168.288157,46.986469 C166.825455,46.9561205 165.550168,46.6835575 164.448833,46.184813 L154.926191,46.184813 C155.294021,46.8358722 155.687162,47.4674625 156.134697,48.0601153 C156.673247,48.773589 157.284502,49.408615 157.960382,49.9772181 L178.122619,49.9772181 C178.245947,49.8764385 178.375738,49.7859659 178.494757,49.6806054 Z" id="path4583" fill="url(#linearGradient-42)" fill-rule="nonzero"></path>
        <path d="M177.286789,50.616825 L158.793519,50.616825 C161.209455,52.3043106 164.372359,53.1958665 168.288695,53.2851939 C171.839356,53.2170532 174.83531,52.3232068 177.286789,50.616825 Z" id="path4590" fill="url(#linearGradient-43)" fill-rule="nonzero"></path>
    </g>
</svg>