<svg version="1.1" xmlns="http://www.w3.org/2000/svg" viewBox="0 0 1757 1448" width="1757" height="1448">
  <!-- svg-source:excalidraw -->
  
  <defs>
    <style>
      @font-face {
        font-family: "Virgil";
        src: url("https://excalidraw.com/Virgil.woff2");
      }
      @font-face {
        font-family: "Cascadia";
        src: url("https://excalidraw.com/Cascadia.woff2");
      }
    </style>
  </defs>
  <rect x="0" y="0" width="1757" height="1448" fill="#ffffff"></rect><g stroke-linecap="round" transform="translate(222 89) rotate(0 48 24)"><path d="M0 0 C36.7 0, 73.39 0, 96 0 M0 0 C19.58 0, 39.16 0, 96 0 M96 0 C96 12.65, 96 25.3, 96 48 M96 0 C96 16.03, 96 32.06, 96 48 M96 48 C75.99 48, 55.99 48, 0 48 M96 48 C76.62 48, 57.25 48, 0 48 M0 48 C0 34.55, 0 21.11, 0 0 M0 48 C0 33.61, 0 19.22, 0 0" stroke="#000000" stroke-width="1" fill="none"></path></g><g transform="translate(240 47.5) rotate(0 28.5 13)"><text x="0" y="18" font-family="Virgil, Segoe UI Emoji" font-size="20px" fill="#000000" text-anchor="start" style="white-space: pre;" direction="ltr">Table</text></g><g transform="translate(227 101) rotate(0 43 12)"><text x="43" y="17" font-family="Virgil, Segoe UI Emoji" font-size="20px" fill="#000000" text-anchor="middle" style="white-space: pre;" direction="ltr">id</text></g><g stroke-linecap="round" transform="translate(222 138) rotate(0 48 29)"><path d="M0 0 C19.54 0, 39.09 0, 96 0 M0 0 C37.17 0, 74.34 0, 96 0 M96 0 C96 18.1, 96 36.19, 96 58 M96 0 C96 12.13, 96 24.27, 96 58 M96 58 C76.03 58, 56.06 58, 0 58 M96 58 C71.82 58, 47.64 58, 0 58 M0 58 C0 34.94, 0 11.88, 0 0 M0 58 C0 44.49, 0 30.98, 0 0" stroke="#000000" stroke-width="1" fill="none"></path></g><g transform="translate(227 155) rotate(0 43 12)"><text x="43" y="17" font-family="Virgil, Segoe UI Emoji" font-size="20px" fill="#000000" text-anchor="middle" style="white-space: pre;" direction="ltr">1</text></g><g stroke-linecap="round" transform="translate(222 197) rotate(0 48 29)"><path d="M0 0 C33.4 0, 66.81 0, 96 0 M0 0 C38.21 0, 76.42 0, 96 0 M96 0 C96 16.02, 96 32.05, 96 58 M96 0 C96 22.13, 96 44.27, 96 58 M96 58 C59.41 58, 22.82 58, 0 58 M96 58 C59.9 58, 23.79 58, 0 58 M0 58 C0 39.51, 0 21.02, 0 0 M0 58 C0 42.71, 0 27.43, 0 0" stroke="#000000" stroke-width="1" fill="none"></path></g><g transform="translate(227 214) rotate(0 43 12)"><text x="43" y="17" font-family="Virgil, Segoe UI Emoji" font-size="20px" fill="#000000" text-anchor="middle" style="white-space: pre;" direction="ltr">2</text></g><g stroke-linecap="round" transform="translate(222 256) rotate(0 48 29)"><path d="M0 0 C31.59 0, 63.19 0, 96 0 M0 0 C32.99 0, 65.97 0, 96 0 M96 0 C96 20.9, 96 41.79, 96 58 M96 0 C96 21.22, 96 42.43, 96 58 M96 58 C60.15 58, 24.3 58, 0 58 M96 58 C65.84 58, 35.68 58, 0 58 M0 58 C0 37.26, 0 16.52, 0 0 M0 58 C0 37.6, 0 17.2, 0 0" stroke="#000000" stroke-width="1" fill="none"></path></g><g transform="translate(227 273) rotate(0 43 12)"><text x="43" y="17" font-family="Virgil, Segoe UI Emoji" font-size="20px" fill="#000000" text-anchor="middle" style="white-space: pre;" direction="ltr">3</text></g><g stroke-linecap="round" transform="translate(367 628.25) rotate(0 48 24)"><path d="M0 0 C27.23 0, 54.46 0, 96 0 M0 0 C37.34 0, 74.69 0, 96 0 M96 0 C96 17.28, 96 34.56, 96 48 M96 0 C96 11.62, 96 23.24, 96 48 M96 48 C61.26 48, 26.52 48, 0 48 M96 48 C58.44 48, 20.88 48, 0 48 M0 48 C0 34.29, 0 20.57, 0 0 M0 48 C0 35.79, 0 23.59, 0 0" stroke="#000000" stroke-width="1" fill="none"></path></g><g transform="translate(334 549.75) rotate(0 113 16)"><text x="0" y="24" font-family="Virgil, Segoe UI Emoji" font-size="20px" fill="#000000" text-anchor="start" style="white-space: pre;" direction="ltr">Table = lexicon(語彙表)</text></g><g transform="translate(372 640.25) rotate(0 43 12)"><text x="43" y="17" font-family="Virgil, Segoe UI Emoji" font-size="20px" fill="#000000" text-anchor="middle" style="white-space: pre;" direction="ltr">id</text></g><g stroke-linecap="round" transform="translate(367 677.25) rotate(0 48 29)"><path d="M0 0 C37.26 0, 74.52 0, 96 0 M0 0 C30.6 0, 61.2 0, 96 0 M96 0 C96 20.17, 96 40.35, 96 58 M96 0 C96 13.06, 96 26.13, 96 58 M96 58 C68.11 58, 40.23 58, 0 58 M96 58 C65.43 58, 34.86 58, 0 58 M0 58 C0 36.84, 0 15.68, 0 0 M0 58 C0 45.75, 0 33.49, 0 0" stroke="#000000" stroke-width="1" fill="none"></path></g><g transform="translate(372 694.25) rotate(0 43 12)"><text x="43" y="17" font-family="Virgil, Segoe UI Emoji" font-size="20px" fill="#000000" text-anchor="middle" style="white-space: pre;" direction="ltr">1</text></g><g stroke-linecap="round" transform="translate(367 736.25) rotate(0 48 29)"><path d="M0 0 C19.59 0, 39.17 0, 96 0 M0 0 C30.24 0, 60.48 0, 96 0 M96 0 C96 13.72, 96 27.44, 96 58 M96 0 C96 22.69, 96 45.38, 96 58 M96 58 C68.68 58, 41.36 58, 0 58 M96 58 C62.39 58, 28.79 58, 0 58 M0 58 C0 42.41, 0 26.82, 0 0 M0 58 C0 36.99, 0 15.99, 0 0" stroke="#000000" stroke-width="1" fill="none"></path></g><g transform="translate(372 753.25) rotate(0 43 12)"><text x="43" y="17" font-family="Virgil, Segoe UI Emoji" font-size="20px" fill="#000000" text-anchor="middle" style="white-space: pre;" direction="ltr">2</text></g><g stroke-linecap="round" transform="translate(367 795.25) rotate(0 48 29)"><path d="M0 0 C29.04 0, 58.08 0, 96 0 M0 0 C36.63 0, 73.26 0, 96 0 M96 0 C96 12.44, 96 24.87, 96 58 M96 0 C96 19.58, 96 39.15, 96 58 M96 58 C64.53 58, 33.07 58, 0 58 M96 58 C66.45 58, 36.9 58, 0 58 M0 58 C0 44.54, 0 31.08, 0 0 M0 58 C0 36.32, 0 14.64, 0 0" stroke="#000000" stroke-width="1" fill="none"></path></g><g transform="translate(372 812.25) rotate(0 43 12)"><text x="43" y="17" font-family="Virgil, Segoe UI Emoji" font-size="20px" fill="#000000" text-anchor="middle" style="white-space: pre;" direction="ltr">3</text></g><g transform="translate(238.5 10) rotate(0 21 13)"><text x="0" y="18" font-family="Virgil, Segoe UI Emoji" font-size="20px" fill="#000000" text-anchor="start" style="white-space: pre;" direction="ltr">Blog</text></g><g stroke-linecap="round" transform="translate(430 90) rotate(0 48 24)"><path d="M0 0 C36.86 0, 73.71 0, 96 0 M0 0 C27.01 0, 54.03 0, 96 0 M96 0 C96 13.11, 96 26.22, 96 48 M96 0 C96 10.14, 96 20.28, 96 48 M96 48 C71.94 48, 47.88 48, 0 48 M96 48 C57.94 48, 19.88 48, 0 48 M0 48 C0 36.57, 0 25.14, 0 0 M0 48 C0 32.26, 0 16.52, 0 0" stroke="#000000" stroke-width="1" fill="none"></path></g><g transform="translate(448 48.5) rotate(0 66 13)"><text x="0" y="18" font-family="Virgil, Segoe UI Emoji" font-size="20px" fill="#000000" text-anchor="start" style="white-space: pre;" direction="ltr">scalar column</text></g><g transform="translate(435 102) rotate(0 43 12)"><text x="43" y="17" font-family="Virgil, Segoe UI Emoji" font-size="20px" fill="#000000" text-anchor="middle" style="white-space: pre;" direction="ltr">id</text></g><g stroke-linecap="round" transform="translate(430 139) rotate(0 48 29)"><path d="M0 0 C32.96 0, 65.93 0, 96 0 M0 0 C27.86 0, 55.72 0, 96 0 M96 0 C96 21.74, 96 43.49, 96 58 M96 0 C96 12.91, 96 25.83, 96 58 M96 58 C58.35 58, 20.71 58, 0 58 M96 58 C60.69 58, 25.38 58, 0 58 M0 58 C0 37.45, 0 16.9, 0 0 M0 58 C0 43.22, 0 28.45, 0 0" stroke="#000000" stroke-width="1" fill="none"></path></g><g transform="translate(435 156) rotate(0 43 12)"><text x="43" y="17" font-family="Virgil, Segoe UI Emoji" font-size="20px" fill="#000000" text-anchor="middle" style="white-space: pre;" direction="ltr">1</text></g><g stroke-linecap="round" transform="translate(430 198) rotate(0 48 29)"><path d="M0 0 C24.44 0, 48.89 0, 96 0 M0 0 C38.32 0, 76.64 0, 96 0 M96 0 C96 16.88, 96 33.76, 96 58 M96 0 C96 17.36, 96 34.72, 96 58 M96 58 C58.6 58, 21.21 58, 0 58 M96 58 C72.58 58, 49.16 58, 0 58 M0 58 C0 37.88, 0 17.76, 0 0 M0 58 C0 46.15, 0 34.31, 0 0" stroke="#000000" stroke-width="1" fill="none"></path></g><g transform="translate(435 215) rotate(0 43 12)"><text x="43" y="17" font-family="Virgil, Segoe UI Emoji" font-size="20px" fill="#000000" text-anchor="middle" style="white-space: pre;" direction="ltr">2</text></g><g stroke-linecap="round" transform="translate(430 257) rotate(0 48 29)"><path d="M0 0 C35.14 0, 70.28 0, 96 0 M0 0 C36.68 0, 73.37 0, 96 0 M96 0 C96 22.21, 96 44.42, 96 58 M96 0 C96 19.15, 96 38.29, 96 58 M96 58 C68.31 58, 40.61 58, 0 58 M96 58 C72.65 58, 49.31 58, 0 58 M0 58 C0 39.79, 0 21.57, 0 0 M0 58 C0 35.52, 0 13.03, 0 0" stroke="#000000" stroke-width="1" fill="none"></path></g><g transform="translate(435 274) rotate(0 43 12)"><text x="43" y="17" font-family="Virgil, Segoe UI Emoji" font-size="20px" fill="#000000" text-anchor="middle" style="white-space: pre;" direction="ltr">3</text></g><g transform="translate(446.5 11) rotate(0 24.5 13)"><text x="0" y="18" font-family="Virgil, Segoe UI Emoji" font-size="20px" fill="#000000" text-anchor="start" style="white-space: pre;" direction="ltr">Title</text></g><g stroke-linecap="round" transform="translate(527 89.5) rotate(0 72 24.5)"><path d="M0 0 C49.59 0, 99.19 0, 144 0 M0 0 C50.73 0, 101.47 0, 144 0 M144 0 C144 13.08, 144 26.17, 144 49 M144 0 C144 15.36, 144 30.72, 144 49 M144 49 C101.9 49, 59.79 49, 0 49 M144 49 C104.28 49, 64.57 49, 0 49 M0 49 C0 37.67, 0 26.34, 0 0 M0 49 C0 29.8, 0 10.61, 0 0" stroke="#000000" stroke-width="1" fill="none"></path></g><g transform="translate(532 102) rotate(0 67 12)"><text x="67" y="17" font-family="Virgil, Segoe UI Emoji" font-size="20px" fill="#000000" text-anchor="middle" style="white-space: pre;" direction="ltr">title</text></g><g stroke-linecap="round" transform="translate(526 138.5) rotate(0 72 29)"><path d="M0 0 C38.22 0, 76.44 0, 144 0 M0 0 C30.82 0, 61.64 0, 144 0 M144 0 C144 16.69, 144 33.38, 144 58 M144 0 C144 15.33, 144 30.67, 144 58 M144 58 C108.87 58, 73.74 58, 0 58 M144 58 C112.6 58, 81.2 58, 0 58 M0 58 C0 38.73, 0 19.46, 0 0 M0 58 C0 39.47, 0 20.93, 0 0" stroke="#000000" stroke-width="1" fill="none"></path></g><g transform="translate(531 143.5) rotate(0 67 24)"><text x="67" y="17" font-family="Virgil, Segoe UI Emoji" font-size="20px" fill="#000000" text-anchor="middle" style="white-space: pre;" direction="ltr">"Hello </text><text x="67" y="41" font-family="Virgil, Segoe UI Emoji" font-size="20px" fill="#000000" text-anchor="middle" style="white-space: pre;" direction="ltr">Groonga"</text></g><g stroke-linecap="round" transform="translate(526 196.5) rotate(0 72.5 29.5)"><path d="M0 0 C43.86 0, 87.71 0, 145 0 M0 0 C55.55 0, 111.1 0, 145 0 M145 0 C145 15.59, 145 31.18, 145 59 M145 0 C145 12.61, 145 25.23, 145 59 M145 59 C88.29 59, 31.58 59, 0 59 M145 59 C103.14 59, 61.29 59, 0 59 M0 59 C0 43.31, 0 27.62, 0 0 M0 59 C0 35.55, 0 12.1, 0 0" stroke="#000000" stroke-width="1" fill="none"></path></g><g transform="translate(531 201.5) rotate(0 67.5 24)"><text x="67.5" y="17" font-family="Virgil, Segoe UI Emoji" font-size="20px" fill="#000000" text-anchor="middle" style="white-space: pre;" direction="ltr">"Hello </text><text x="67.5" y="41" font-family="Virgil, Segoe UI Emoji" font-size="20px" fill="#000000" text-anchor="middle" style="white-space: pre;" direction="ltr">Mroonga"</text></g><g stroke-linecap="round" transform="translate(527 256.5) rotate(0 71.5 29.5)"><path d="M0 0 C37.72 0, 75.45 0, 143 0 M0 0 C33.91 0, 67.83 0, 143 0 M143 0 C143 18.76, 143 37.52, 143 59 M143 0 C143 20.24, 143 40.48, 143 59 M143 59 C91.6 59, 40.19 59, 0 59 M143 59 C109.8 59, 76.6 59, 0 59 M0 59 C0 44.1, 0 29.2, 0 0 M0 59 C0 35.84, 0 12.68, 0 0" stroke="#000000" stroke-width="1" fill="none"></path></g><g transform="translate(532 261.5) rotate(0 66.5 24)"><text x="66.5" y="17" font-family="Virgil, Segoe UI Emoji" font-size="20px" fill="#000000" text-anchor="middle" style="white-space: pre;" direction="ltr">"Hello </text><text x="66.5" y="41" font-family="Virgil, Segoe UI Emoji" font-size="20px" fill="#000000" text-anchor="middle" style="white-space: pre;" direction="ltr">PGroonga"</text></g><g stroke-linecap="round" transform="translate(799.5 633.75) rotate(0 48 24)"><path d="M0 0 C24.42 0, 48.85 0, 96 0 M0 0 C23.74 0, 47.48 0, 96 0 M96 0 C96 9.8, 96 19.6, 96 48 M96 0 C96 10.01, 96 20.02, 96 48 M96 48 C69.68 48, 43.36 48, 0 48 M96 48 C69.99 48, 43.99 48, 0 48 M0 48 C0 35.43, 0 22.86, 0 0 M0 48 C0 34.22, 0 20.45, 0 0" stroke="#000000" stroke-width="1" fill="none"></path></g><g transform="translate(816.5 592.25) rotate(0 59 13)"><text x="0" y="18" font-family="Virgil, Segoe UI Emoji" font-size="20px" fill="#000000" text-anchor="start" style="white-space: pre;" direction="ltr">index column</text></g><g transform="translate(804.5 645.75) rotate(0 43 12)"><text x="43" y="17" font-family="Virgil, Segoe UI Emoji" font-size="20px" fill="#000000" text-anchor="middle" style="white-space: pre;" direction="ltr">id</text></g><g stroke-linecap="round" transform="translate(799.5 682.75) rotate(0 48 29)"><path d="M0 0 C31.53 0, 63.07 0, 96 0 M0 0 C27.65 0, 55.3 0, 96 0 M96 0 C96 22.29, 96 44.58, 96 58 M96 0 C96 17.57, 96 35.13, 96 58 M96 58 C69.03 58, 42.06 58, 0 58 M96 58 C69.23 58, 42.46 58, 0 58 M0 58 C0 44.12, 0 30.23, 0 0 M0 58 C0 43.75, 0 29.5, 0 0" stroke="#000000" stroke-width="1" fill="none"></path></g><g transform="translate(804.5 699.75) rotate(0 43 12)"><text x="43" y="17" font-family="Virgil, Segoe UI Emoji" font-size="20px" fill="#000000" text-anchor="middle" style="white-space: pre;" direction="ltr">1</text></g><g stroke-linecap="round" transform="translate(799.5 741.75) rotate(0 48 29)"><path d="M0 0 C24.2 0, 48.4 0, 96 0 M0 0 C36.3 0, 72.6 0, 96 0 M96 0 C96 14.87, 96 29.74, 96 58 M96 0 C96 21.9, 96 43.81, 96 58 M96 58 C70.75 58, 45.5 58, 0 58 M96 58 C60.25 58, 24.5 58, 0 58 M0 58 C0 37.38, 0 16.76, 0 0 M0 58 C0 45.86, 0 33.72, 0 0" stroke="#000000" stroke-width="1" fill="none"></path></g><g transform="translate(804.5 758.75) rotate(0 43 12)"><text x="43" y="17" font-family="Virgil, Segoe UI Emoji" font-size="20px" fill="#000000" text-anchor="middle" style="white-space: pre;" direction="ltr">2</text></g><g stroke-linecap="round" transform="translate(799.5 800.75) rotate(0 48 29)"><path d="M0 0 C32.73 0, 65.47 0, 96 0 M0 0 C29.64 0, 59.29 0, 96 0 M96 0 C96 13.04, 96 26.07, 96 58 M96 0 C96 16.25, 96 32.5, 96 58 M96 58 C67.42 58, 38.84 58, 0 58 M96 58 C67.71 58, 39.42 58, 0 58 M0 58 C0 40.44, 0 22.88, 0 0 M0 58 C0 42.37, 0 26.74, 0 0" stroke="#000000" stroke-width="1" fill="none"></path></g><g transform="translate(804.5 817.75) rotate(0 43 12)"><text x="43" y="17" font-family="Virgil, Segoe UI Emoji" font-size="20px" fill="#000000" text-anchor="middle" style="white-space: pre;" direction="ltr">3</text></g><g transform="translate(816 554.75) rotate(0 48.5 13)"><text x="0" y="18" font-family="Virgil, Segoe UI Emoji" font-size="20px" fill="#000000" text-anchor="start" style="white-space: pre;" direction="ltr">blog_title</text></g><g stroke-linecap="round" transform="translate(896.5 633.25) rotate(0 72 24)"><path d="M0 0 C43.84 0, 87.68 0, 144 0 M0 0 C32.27 0, 64.53 0, 144 0 M144 0 C144 18.57, 144 37.14, 144 48 M144 0 C144 10.23, 144 20.46, 144 48 M144 48 C105.69 48, 67.38 48, 0 48 M144 48 C112.37 48, 80.73 48, 0 48 M0 48 C0 33.75, 0 19.51, 0 0 M0 48 C0 32.85, 0 17.71, 0 0" stroke="#000000" stroke-width="1" fill="none"></path></g><g transform="translate(901.5 645.25) rotate(0 67 12)"><text x="67" y="17" font-family="Virgil, Segoe UI Emoji" font-size="20px" fill="#000000" text-anchor="middle" style="white-space: pre;" direction="ltr">value</text></g><g stroke-linecap="round" transform="translate(896.5 682.25) rotate(0 72 29)"><path d="M0 0 C55.75 0, 111.5 0, 144 0 M0 0 C57.09 0, 114.17 0, 144 0 M144 0 C144 14.72, 144 29.45, 144 58 M144 0 C144 19.27, 144 38.55, 144 58 M144 58 C114.92 58, 85.84 58, 0 58 M144 58 C95.42 58, 46.83 58, 0 58 M0 58 C0 34.96, 0 11.93, 0 0 M0 58 C0 39.56, 0 21.12, 0 0" stroke="#000000" stroke-width="1" fill="none"></path></g><g transform="translate(901.5 698.25) rotate(0 67 12)"><text x="67" y="17" font-family="Virgil, Segoe UI Emoji" font-size="20px" fill="#000000" text-anchor="middle" style="white-space: pre;" direction="ltr">1:1,2:1,3:1</text></g><g stroke-linecap="round" transform="translate(895.5 740.25) rotate(0 72.5 29.5)"><path d="M0 0 C41.76 0, 83.52 0, 145 0 M0 0 C55.72 0, 111.44 0, 145 0 M145 0 C145 17.87, 145 35.74, 145 59 M145 0 C145 16.58, 145 33.15, 145 59 M145 59 C104.57 59, 64.13 59, 0 59 M145 59 C110.29 59, 75.58 59, 0 59 M0 59 C0 44.5, 0 30.01, 0 0 M0 59 C0 41.47, 0 23.94, 0 0" stroke="#000000" stroke-width="1" fill="none"></path></g><g transform="translate(900.5 756.75) rotate(0 67.5 12)"><text x="67.5" y="17" font-family="Virgil, Segoe UI Emoji" font-size="20px" fill="#000000" text-anchor="middle" style="white-space: pre;" direction="ltr">1:2</text></g><g stroke-linecap="round" transform="translate(896.5 800.25) rotate(0 71.5 29.5)"><path d="M0 0 C54.07 0, 108.14 0, 143 0 M0 0 C36.66 0, 73.32 0, 143 0 M143 0 C143 22.28, 143 44.56, 143 59 M143 0 C143 15.52, 143 31.04, 143 59 M143 59 C89.74 59, 36.49 59, 0 59 M143 59 C92.16 59, 41.31 59, 0 59 M0 59 C0 46.65, 0 34.3, 0 0 M0 59 C0 41.32, 0 23.63, 0 0" stroke="#000000" stroke-width="1" fill="none"></path></g><g transform="translate(901.5 816.75) rotate(0 66.5 12)"><text x="66.5" y="17" font-family="Virgil, Segoe UI Emoji" font-size="20px" fill="#000000" text-anchor="middle" style="white-space: pre;" direction="ltr">2:2</text></g><g transform="translate(10 442) rotate(0 599 12)"><text x="0" y="17" font-family="Helvetica, Segoe UI Emoji" font-size="20px" fill="#000000" text-anchor="start" style="white-space: pre;" direction="ltr">table_create --name Terms --flags TABLE_PAT_KEY --key_type ShortText --default_tokenizer TokenBigram --normalizer NormalizerAuto</text></g><g transform="translate(388.5 591) rotate(0 24.5 13)"><text x="0" y="18" font-family="Virgil, Segoe UI Emoji" font-size="20px" fill="#000000" text-anchor="start" style="white-space: pre;" direction="ltr">Term</text></g><g stroke-linecap="round"><g transform="translate(368.63950654097516 477) rotate(0 18.18024672951242 38)"><path d="M0 0 C6.06 12.67, 30.3 63.33, 36.36 76 M0 0 C6.06 12.67, 30.3 63.33, 36.36 76" stroke="#000000" stroke-width="1" fill="none"></path></g><g transform="translate(368.63950654097516 477) rotate(0 18.18024672951242 38)"><path d="M14.94 55 C22.46 62.37, 29.98 69.75, 36.36 76 M14.94 55 C21.96 61.88, 28.98 68.77, 36.36 76" stroke="#000000" stroke-width="1" fill="none"></path></g><g transform="translate(368.63950654097516 477) rotate(0 18.18024672951242 38)"><path d="M33.45 46.14 C34.47 56.63, 35.49 67.11, 36.36 76 M33.45 46.14 C34.4 55.93, 35.36 65.72, 36.36 76" stroke="#000000" stroke-width="1" fill="none"></path></g></g><g transform="translate(736 478) rotate(0 505.5 12)"><text x="0" y="17" font-family="Helvetica, Segoe UI Emoji" font-size="20px" fill="#000000" text-anchor="start" style="white-space: pre;" direction="ltr">column_create --table Terms --name blog_title --flags COLUMN_INDEX|WITH_POSITION --type Blog --source title</text></g><g stroke-linecap="round"><g transform="translate(1077.0659197593463 515) rotate(0 -80.89380665684325 30.28309372088188)"><path d="M0 0 C-26.96 10.09, -134.82 50.47, -161.79 60.57 M0 0 C-26.96 10.09, -134.82 50.47, -161.79 60.57" stroke="#000000" stroke-width="1" fill="none"></path></g><g transform="translate(1077.0659197593463 515) rotate(0 -80.89380665684325 30.28309372088188)"><path d="M-138.98 41.07 C-145.97 47.05, -152.96 53.02, -161.79 60.57 M-138.98 41.07 C-144.69 45.95, -150.4 50.84, -161.79 60.57" stroke="#000000" stroke-width="1" fill="none"></path></g><g transform="translate(1077.0659197593463 515) rotate(0 -80.89380665684325 30.28309372088188)"><path d="M-131.79 60.29 C-140.98 60.38, -150.17 60.46, -161.79 60.57 M-131.79 60.29 C-139.3 60.36, -146.81 60.43, -161.79 60.57" stroke="#000000" stroke-width="1" fill="none"></path></g></g><g stroke-linecap="round" transform="translate(464 626.5) rotate(0 72 25.5)"><path d="M0 0 C51.46 0, 102.91 0, 144 0 M0 0 C37.55 0, 75.1 0, 144 0 M144 0 C144 13.34, 144 26.67, 144 51 M144 0 C144 16.7, 144 33.4, 144 51 M144 51 C89.5 51, 34.99 51, 0 51 M144 51 C109.66 51, 75.32 51, 0 51 M0 51 C0 34.71, 0 18.42, 0 0 M0 51 C0 33.14, 0 15.28, 0 0" stroke="#000000" stroke-width="1" fill="none"></path></g><g transform="translate(469 640) rotate(0 67 12)"><text x="67" y="17" font-family="Virgil, Segoe UI Emoji" font-size="20px" fill="#000000" text-anchor="middle" style="white-space: pre;" direction="ltr">key</text></g><g stroke-linecap="round" transform="translate(463 678.5) rotate(0 72 29)"><path d="M0 0 C55.07 0, 110.13 0, 144 0 M0 0 C37.15 0, 74.3 0, 144 0 M144 0 C144 16.28, 144 32.55, 144 58 M144 0 C144 18.63, 144 37.27, 144 58 M144 58 C111.41 58, 78.82 58, 0 58 M144 58 C113.59 58, 83.18 58, 0 58 M0 58 C0 38.11, 0 18.22, 0 0 M0 58 C0 41.06, 0 24.13, 0 0" stroke="#000000" stroke-width="1" fill="none"></path></g><g transform="translate(468 683.5) rotate(0 67 12)"><text x="67" y="17" font-family="Virgil, Segoe UI Emoji" font-size="20px" fill="#000000" text-anchor="middle" style="white-space: pre;" direction="ltr">"Hello"</text></g><g stroke-linecap="round" transform="translate(463 737) rotate(0 72 29)"><path d="M0 0 C49.84 0, 99.68 0, 144 0 M0 0 C31.42 0, 62.84 0, 144 0 M144 0 C144 20.48, 144 40.97, 144 58 M144 0 C144 20.67, 144 41.34, 144 58 M144 58 C91.29 58, 38.59 58, 0 58 M144 58 C90.91 58, 37.82 58, 0 58 M0 58 C0 44.2, 0 30.41, 0 0 M0 58 C0 35.13, 0 12.27, 0 0" stroke="#000000" stroke-width="1" fill="none"></path></g><g transform="translate(468 742) rotate(0 67 12)"><text x="67" y="17" font-family="Virgil, Segoe UI Emoji" font-size="20px" fill="#000000" text-anchor="middle" style="white-space: pre;" direction="ltr">"Groonga"</text></g><g stroke-linecap="round" transform="translate(462 793) rotate(0 72 29)"><path d="M0 0 C48.95 0, 97.89 0, 144 0 M0 0 C55.7 0, 111.4 0, 144 0 M144 0 C144 15.57, 144 31.15, 144 58 M144 0 C144 13.5, 144 27, 144 58 M144 58 C89.23 58, 34.46 58, 0 58 M144 58 C98.4 58, 52.81 58, 0 58 M0 58 C0 37.33, 0 16.66, 0 0 M0 58 C0 38.49, 0 18.98, 0 0" stroke="#000000" stroke-width="1" fill="none"></path></g><g transform="translate(467 798) rotate(0 67 12)"><text x="67" y="17" font-family="Virgil, Segoe UI Emoji" font-size="20px" fill="#000000" text-anchor="middle" style="white-space: pre;" direction="ltr">"Mroonga"</text></g><g stroke-linecap="round" transform="translate(461 853) rotate(0 72 29)"><path d="M0 0 C55.01 0, 110.03 0, 144 0 M0 0 C47.63 0, 95.26 0, 144 0 M144 0 C144 14.25, 144 28.51, 144 58 M144 0 C144 18.59, 144 37.18, 144 58 M144 58 C106.96 58, 69.91 58, 0 58 M144 58 C106.8 58, 69.6 58, 0 58 M0 58 C0 37.85, 0 17.7, 0 0 M0 58 C0 44.27, 0 30.53, 0 0" stroke="#000000" stroke-width="1" fill="none"></path></g><g transform="translate(466 869.5) rotate(0 67 12)"><text x="67" y="17" font-family="Virgil, Segoe UI Emoji" font-size="20px" fill="#000000" text-anchor="middle" style="white-space: pre;" direction="ltr">"PGroonga"</text></g><g stroke-linecap="round" transform="translate(367 854) rotate(0 48 29)"><path d="M0 0 C28.81 0, 57.62 0, 96 0 M0 0 C23.9 0, 47.8 0, 96 0 M96 0 C96 12.11, 96 24.22, 96 58 M96 0 C96 16.58, 96 33.17, 96 58 M96 58 C75.76 58, 55.52 58, 0 58 M96 58 C71.17 58, 46.35 58, 0 58 M0 58 C0 37.91, 0 17.81, 0 0 M0 58 C0 37.38, 0 16.76, 0 0" stroke="#000000" stroke-width="1" fill="none"></path></g><g transform="translate(372 871) rotate(0 43 12)"><text x="43" y="17" font-family="Virgil, Segoe UI Emoji" font-size="20px" fill="#000000" text-anchor="middle" style="white-space: pre;" direction="ltr">4</text></g><g stroke-linecap="round" transform="translate(800 860) rotate(0 48 29)"><path d="M0 0 C37.13 0, 74.26 0, 96 0 M0 0 C33.93 0, 67.86 0, 96 0 M96 0 C96 16.69, 96 33.39, 96 58 M96 0 C96 15.99, 96 31.98, 96 58 M96 58 C59.9 58, 23.8 58, 0 58 M96 58 C71.47 58, 46.94 58, 0 58 M0 58 C0 45.95, 0 33.89, 0 0 M0 58 C0 44.19, 0 30.38, 0 0" stroke="#000000" stroke-width="1" fill="none"></path></g><g transform="translate(805 877) rotate(0 43 12)"><text x="43" y="17" font-family="Virgil, Segoe UI Emoji" font-size="20px" fill="#000000" text-anchor="middle" style="white-space: pre;" direction="ltr">4</text></g><g stroke-linecap="round" transform="translate(898 859.5) rotate(0 71.5 29.5)"><path d="M0 0 C31.17 0, 62.34 0, 143 0 M0 0 C48.04 0, 96.07 0, 143 0 M143 0 C143 12.89, 143 25.77, 143 59 M143 0 C143 16.6, 143 33.19, 143 59 M143 59 C100.75 59, 58.51 59, 0 59 M143 59 C92.07 59, 41.14 59, 0 59 M0 59 C0 37.39, 0 15.77, 0 0 M0 59 C0 35.98, 0 12.96, 0 0" stroke="#000000" stroke-width="1" fill="none"></path></g><g transform="translate(903 876) rotate(0 66.5 12)"><text x="66.5" y="17" font-family="Virgil, Segoe UI Emoji" font-size="20px" fill="#000000" text-anchor="middle" style="white-space: pre;" direction="ltr">3:3</text></g><g stroke-linecap="round" transform="translate(886 615) rotate(0 85 164)"><path d="M0 0 C54.37 0, 108.75 0, 170 0 M0 0 C49.8 0, 99.6 0, 170 0 M170 0 C170 67.94, 170 135.87, 170 328 M170 0 C170 84.04, 170 168.08, 170 328 M170 328 C103.75 328, 37.51 328, 0 328 M170 328 C113.54 328, 57.09 328, 0 328 M0 328 C0 243.39, 0 158.78, 0 0 M0 328 C0 223.61, 0 119.22, 0 0" stroke="#c92a2a" stroke-width="4" fill="none"></path></g><g transform="translate(1147 622.5) rotate(0 89 16)"><text x="0" y="24" font-family="Helvetica, Segoe UI Emoji" font-size="20px" fill="#c92a2a" text-anchor="start" style="white-space: pre;" direction="ltr">ポスティングリスト</text></g><g stroke-linecap="round"><g transform="translate(1144 637) rotate(0 -41.5 17)"><path d="M0 0 C-13.83 5.67, -69.17 28.33, -83 34 M0 0 C-13.83 5.67, -69.17 28.33, -83 34" stroke="#c92a2a" stroke-width="4" fill="none"></path></g><g transform="translate(1144 637) rotate(0 -41.5 17)"><path d="M-60.8 13.82 C-66.58 19.07, -72.36 24.33, -83 34 M-60.8 13.82 C-69.49 21.72, -78.18 29.62, -83 34" stroke="#c92a2a" stroke-width="4" fill="none"></path></g><g transform="translate(1144 637) rotate(0 -41.5 17)"><path d="M-53.02 32.81 C-60.83 33.12, -68.64 33.43, -83 34 M-53.02 32.81 C-64.76 33.28, -76.5 33.74, -83 34" stroke="#c92a2a" stroke-width="4" fill="none"></path></g></g><g stroke-linecap="round"><g transform="translate(318 162) rotate(0 57 -0.5)"><path d="M0 0 C19 -0.17, 95 -0.83, 114 -1 M0 0 C19 -0.17, 95 -0.83, 114 -1" stroke="#000000" stroke-width="4" fill="none"></path></g><g transform="translate(318 162) rotate(0 57 -0.5)"><path d="M85.9 9.51 C94.76 6.19, 103.63 2.88, 114 -1 M85.9 9.51 C96.6 5.51, 107.3 1.51, 114 -1" stroke="#000000" stroke-width="4" fill="none"></path></g><g transform="translate(318 162) rotate(0 57 -0.5)"><path d="M85.72 -11.01 C94.64 -7.85, 103.56 -4.7, 114 -1 M85.72 -11.01 C96.49 -7.2, 107.25 -3.39, 114 -1" stroke="#000000" stroke-width="4" fill="none"></path></g></g><g stroke-linecap="round"><g transform="translate(320 224.5) rotate(0 57 -0.5)"><path d="M0 0 C19 -0.17, 95 -0.83, 114 -1 M0 0 C19 -0.17, 95 -0.83, 114 -1" stroke="#000000" stroke-width="4" fill="none"></path></g><g transform="translate(320 224.5) rotate(0 57 -0.5)"><path d="M85.9 9.51 C95.41 5.95, 104.92 2.39, 114 -1 M85.9 9.51 C95.5 5.92, 105.09 2.33, 114 -1" stroke="#000000" stroke-width="4" fill="none"></path></g><g transform="translate(320 224.5) rotate(0 57 -0.5)"><path d="M85.72 -11.01 C95.29 -7.62, 104.87 -4.23, 114 -1 M85.72 -11.01 C95.38 -7.59, 105.04 -4.17, 114 -1" stroke="#000000" stroke-width="4" fill="none"></path></g></g><g stroke-linecap="round"><g transform="translate(319 285.5) rotate(0 57 -0.5)"><path d="M0 0 C19 -0.17, 95 -0.83, 114 -1 M0 0 C19 -0.17, 95 -0.83, 114 -1" stroke="#000000" stroke-width="4" fill="none"></path></g><g transform="translate(319 285.5) rotate(0 57 -0.5)"><path d="M85.9 9.51 C93.71 6.59, 101.52 3.67, 114 -1 M85.9 9.51 C95.14 6.05, 104.37 2.6, 114 -1" stroke="#000000" stroke-width="4" fill="none"></path></g><g transform="translate(319 285.5) rotate(0 57 -0.5)"><path d="M85.72 -11.01 C93.58 -8.23, 101.44 -5.45, 114 -1 M85.72 -11.01 C95.02 -7.72, 104.31 -4.43, 114 -1" stroke="#000000" stroke-width="4" fill="none"></path></g></g><g stroke-linecap="round"><g transform="translate(606 710.5) rotate(0 96 0)"><path d="M0 0 C32 0, 160 0, 192 0 M0 0 C32 0, 160 0, 192 0" stroke="#000000" stroke-width="4" fill="none"></path></g><g transform="translate(606 710.5) rotate(0 96 0)"><path d="M163.81 10.26 C171.87 7.33, 179.92 4.4, 192 0 M163.81 10.26 C173.57 6.71, 183.33 3.16, 192 0" stroke="#000000" stroke-width="4" fill="none"></path></g><g transform="translate(606 710.5) rotate(0 96 0)"><path d="M163.81 -10.26 C171.87 -7.33, 179.92 -4.4, 192 0 M163.81 -10.26 C173.57 -6.71, 183.33 -3.16, 192 0" stroke="#000000" stroke-width="4" fill="none"></path></g></g><g stroke-linecap="round"><g transform="translate(609 769) rotate(0 96 0)"><path d="M0 0 C32 0, 160 0, 192 0 M0 0 C32 0, 160 0, 192 0" stroke="#000000" stroke-width="4" fill="none"></path></g><g transform="translate(609 769) rotate(0 96 0)"><path d="M163.81 10.26 C170.89 7.68, 177.98 5.1, 192 0 M163.81 10.26 C170.18 7.94, 176.55 5.62, 192 0" stroke="#000000" stroke-width="4" fill="none"></path></g><g transform="translate(609 769) rotate(0 96 0)"><path d="M163.81 -10.26 C170.89 -7.68, 177.98 -5.1, 192 0 M163.81 -10.26 C170.18 -7.94, 176.55 -5.62, 192 0" stroke="#000000" stroke-width="4" fill="none"></path></g></g><g stroke-linecap="round"><g transform="translate(607 824.2877322473912) rotate(0 96.5 0.35613387630439775)"><path d="M0 0 C32.17 0.12, 160.83 0.59, 193 0.71 M0 0 C32.17 0.12, 160.83 0.59, 193 0.71" stroke="#000000" stroke-width="4" fill="none"></path></g><g transform="translate(607 824.2877322473912) rotate(0 96.5 0.35613387630439775)"><path d="M164.77 10.87 C170.94 8.65, 177.12 6.43, 193 0.71 M164.77 10.87 C173.41 7.76, 182.04 4.66, 193 0.71" stroke="#000000" stroke-width="4" fill="none"></path></g><g transform="translate(607 824.2877322473912) rotate(0 96.5 0.35613387630439775)"><path d="M164.85 -9.65 C171 -7.39, 177.16 -5.12, 193 0.71 M164.85 -9.65 C173.46 -6.48, 182.07 -3.31, 193 0.71" stroke="#000000" stroke-width="4" fill="none"></path></g></g><g stroke-linecap="round"><g transform="translate(608 884) rotate(0 96.5 0)"><path d="M0 0 C32.17 0, 160.83 0, 193 0 M0 0 C32.17 0, 160.83 0, 193 0" stroke="#000000" stroke-width="4" fill="none"></path></g><g transform="translate(608 884) rotate(0 96.5 0)"><path d="M164.81 10.26 C173.07 7.25, 181.34 4.24, 193 0 M164.81 10.26 C173.81 6.98, 182.81 3.71, 193 0" stroke="#000000" stroke-width="4" fill="none"></path></g><g transform="translate(608 884) rotate(0 96.5 0)"><path d="M164.81 -10.26 C173.07 -7.25, 181.34 -4.24, 193 0 M164.81 -10.26 C173.81 -6.98, 182.81 -3.71, 193 0" stroke="#000000" stroke-width="4" fill="none"></path></g></g><g stroke-linecap="round" transform="translate(883 1162) rotate(0 75 38)"><path d="M0 0 C41.81 0, 83.62 0, 150 0 M0 0 C32.5 0, 65 0, 150 0 M150 0 C150 30.28, 150 60.56, 150 76 M150 0 C150 15.69, 150 31.39, 150 76 M150 76 C110.68 76, 71.36 76, 0 76 M150 76 C110.22 76, 70.45 76, 0 76 M0 76 C0 52.3, 0 28.6, 0 0 M0 76 C0 56.34, 0 36.69, 0 0" stroke="#000000" stroke-width="4" fill="none"></path></g><g transform="translate(888 1188) rotate(0 70 12)"><text x="70" y="17" font-family="Helvetica, Segoe UI Emoji" font-size="20px" fill="#000000" text-anchor="middle" style="white-space: pre;" direction="ltr">Buffer</text></g><g stroke-linecap="round" transform="translate(1188 1143) rotate(0 75 38)"><path d="M0 0 C59.9 0, 119.8 0, 150 0 M0 0 C31.46 0, 62.91 0, 150 0 M150 0 C150 24.6, 150 49.2, 150 76 M150 0 C150 19.24, 150 38.47, 150 76 M150 76 C100.28 76, 50.56 76, 0 76 M150 76 C98.41 76, 46.82 76, 0 76 M0 76 C0 53.68, 0 31.35, 0 0 M0 76 C0 59.2, 0 42.4, 0 0" stroke="#000000" stroke-width="4" fill="none"></path></g><g transform="translate(1193 1169) rotate(0 70 12)"><text x="70" y="17" font-family="Helvetica, Segoe UI Emoji" font-size="20px" fill="#000000" text-anchor="middle" style="white-space: pre;" direction="ltr">Chunk</text></g><g stroke-linecap="round" transform="translate(764 1103) rotate(0 321.5 167.5)"><path d="M0 0 C187.09 0, 374.17 0, 643 0 M0 0 C144.36 0, 288.72 0, 643 0 M643 0 C643 103.62, 643 207.24, 643 335 M643 0 C643 81.32, 643 162.63, 643 335 M643 335 C505.04 335, 367.07 335, 0 335 M643 335 C417.19 335, 191.38 335, 0 335 M0 335 C0 202.05, 0 69.11, 0 0 M0 335 C0 231.55, 0 128.1, 0 0" stroke="#c92a2a" stroke-width="4" fill="none"></path></g><g transform="translate(776 1110.5) rotate(0 89 16)"><text x="0" y="24" font-family="Helvetica, Segoe UI Emoji" font-size="20px" fill="#c92a2a" text-anchor="start" style="white-space: pre;" direction="ltr">ポスティングリスト</text></g><g stroke-linecap="round"><g transform="translate(999 943) rotate(0 1.5 79)"><path d="M0 0 C0.5 26.33, 2.5 131.67, 3 158 M0 0 C0.5 26.33, 2.5 131.67, 3 158" stroke="#c92a2a" stroke-width="4" fill="none"></path></g><g transform="translate(999 943) rotate(0 1.5 79)"><path d="M-7.79 130.01 C-5.25 136.6, -2.71 143.19, 3 158 M-7.79 130.01 C-4.57 138.38, -1.34 146.74, 3 158" stroke="#c92a2a" stroke-width="4" fill="none"></path></g><g transform="translate(999 943) rotate(0 1.5 79)"><path d="M12.72 129.62 C10.43 136.3, 8.15 142.98, 3 158 M12.72 129.62 C9.82 138.1, 6.91 146.59, 3 158" stroke="#c92a2a" stroke-width="4" fill="none"></path></g></g><g stroke-linecap="round" transform="translate(1230 1251) rotate(0 75 38)"><path d="M0 0 C34.6 0, 69.21 0, 150 0 M0 0 C40.43 0, 80.85 0, 150 0 M150 0 C150 26.33, 150 52.65, 150 76 M150 0 C150 29.29, 150 58.58, 150 76 M150 76 C106.51 76, 63.02 76, 0 76 M150 76 C112.56 76, 75.12 76, 0 76 M0 76 C0 56.5, 0 37.01, 0 0 M0 76 C0 48.66, 0 21.32, 0 0" stroke="#000000" stroke-width="4" fill="none"></path></g><g transform="translate(1235 1277) rotate(0 70 12)"><text x="70" y="17" font-family="Helvetica, Segoe UI Emoji" font-size="20px" fill="#000000" text-anchor="middle" style="white-space: pre;" direction="ltr">Chunk</text></g><g stroke-linecap="round" transform="translate(943 1264) rotate(0 75 38)"><path d="M0 0 C39.58 0, 79.15 0, 150 0 M0 0 C50.32 0, 100.65 0, 150 0 M150 0 C150 25.95, 150 51.9, 150 76 M150 0 C150 27.44, 150 54.87, 150 76 M150 76 C108.58 76, 67.15 76, 0 76 M150 76 C91.59 76, 33.18 76, 0 76 M0 76 C0 52.65, 0 29.3, 0 0 M0 76 C0 59.79, 0 43.57, 0 0" stroke="#000000" stroke-width="4" fill="none"></path></g><g transform="translate(948 1290) rotate(0 70 12)"><text x="70" y="17" font-family="Helvetica, Segoe UI Emoji" font-size="20px" fill="#000000" text-anchor="middle" style="white-space: pre;" direction="ltr">Buffer</text></g></svg>