<svg version="1.1" xmlns="http://www.w3.org/2000/svg" viewBox="0 0 1162.5490237285007 665.2202797202797" width="1162.5490237285007" height="665.2202797202797">
  <!-- svg-source:excalidraw -->
  
  <defs>
    <style>
      @font-face {
        font-family: "Virgil";
        src: url("https://excalidraw.com/Virgil.woff2");
      }
      @font-face {
        font-family: "Cascadia";
        src: url("https://excalidraw.com/Cascadia.woff2");
      }
    </style>
  </defs>
  <rect x="0" y="0" width="1162.5490237285007" height="665.2202797202797" fill="#ffffff"></rect><g transform="translate(840.356716036193 387.8741258741258) rotate(0 70.5 13)"><text x="0" y="18" font-family="Virgil, Segoe UI Emoji" font-size="20px" fill="#000000" text-anchor="start" style="white-space: pre;" direction="ltr">トークナイザー</text></g><g transform="translate(842.0490237285006 421.9125874125874) rotate(0 70.5 13)"><text x="0" y="18" font-family="Virgil, Segoe UI Emoji" font-size="20px" fill="#000000" text-anchor="start" style="white-space: pre;" direction="ltr">ノーマライザー</text></g><g transform="translate(385.6644083438855 629.2202797202797) rotate(0 13 13)"><text x="0" y="18" font-family="Virgil, Segoe UI Emoji" font-size="20px" fill="#000000" text-anchor="start" style="white-space: pre;" direction="ltr">IO</text></g><g transform="translate(352.6644083438855 315.52797202797206) rotate(0 112.5 13)"><text x="0" y="18" font-family="Virgil, Segoe UI Emoji" font-size="20px" fill="#000000" text-anchor="start" style="white-space: pre;" direction="ltr">クエリー処理: "select..."</text></g><g stroke-linecap="round"><g transform="translate(11.274511864250485 615.6587039930002) rotate(0 391.15600899513305 -3.7401702578251843)"><path d="M0.12 0.02 C130.29 -1.18, 650.79 -6.36, 781.28 -7.5 M-1.27 -1.02 C129.25 -2.08, 652.9 -5.74, 783.59 -6.51" stroke="#000000" stroke-width="1" fill="none"></path></g></g><g transform="translate(241.0105621900393 475.8741258741258) rotate(0 40.5 13)"><text x="0" y="18" font-family="Virgil, Segoe UI Emoji" font-size="20px" fill="#000000" text-anchor="start" style="white-space: pre;" direction="ltr">テーブル</text></g><g transform="translate(602.5490237285009 479.7202797202796) rotate(0 30.5 13)"><text x="0" y="18" font-family="Virgil, Segoe UI Emoji" font-size="20px" fill="#000000" text-anchor="start" style="white-space: pre;" direction="ltr">カラム</text></g><g stroke-linecap="round"><g transform="translate(138.70286988234704 461.7972027972027) rotate(0 270.0839413251918 -2.2592611967789935)"><path d="M0.54 -0.21 C90.69 -0.48, 450.97 -2.13, 540.81 -2.76 M-0.64 -1.36 C89.37 -1.85, 449.46 -4.09, 539.88 -4.31" stroke="#000000" stroke-width="1" fill="none"></path></g></g><g transform="translate(164.08748526696252 542.027972027972) rotate(0 114.5 13)"><text x="0" y="18" font-family="Virgil, Segoe UI Emoji" font-size="20px" fill="#000000" text-anchor="start" style="white-space: pre;" direction="ltr">ARRAY/HASH/PAT/DAT</text></g><g stroke-linecap="round"><g transform="translate(150.2413314208087 522.5664335664335) rotate(0 125.7873122458177 -0.6609568091539302)"><path d="M-0.16 1 C42.01 0.43, 210.89 -1.79, 253.28 -2.32 M-1.7 0.48 C40.23 0.63, 209.49 -0.58, 252.03 -0.8" stroke="#000000" stroke-width="1" fill="none"></path></g></g><g transform="translate(462.54902372850086 568.951048951049) rotate(0 17.5 13)"><text x="0" y="18" font-family="Virgil, Segoe UI Emoji" font-size="20px" fill="#000000" text-anchor="start" style="white-space: pre;" direction="ltr">FIX</text></g><g stroke-linecap="round"><g transform="translate(477.9336391131162 517.1818181818181) rotate(0 111.47108246821614 -1.7474075033114786)"><path d="M-0.8 0.82 C36.41 0.23, 186.11 -3.65, 223.75 -4.32 M0.97 0.21 C37.98 -0.15, 185.43 -2.13, 222.75 -3.03" stroke="#000000" stroke-width="1" fill="none"></path></g></g><g stroke-linecap="round"><g transform="translate(547.9336391131161 568.7202797202799) rotate(0 77.60431010775409 -1.4489577006797276)"><path d="M0.28 0.48 C26.09 0.09, 128.29 -3, 154.09 -3.38 M-1.02 -0.31 C25.2 -0.46, 130.34 -1.57, 156.23 -2.11" stroke="#000000" stroke-width="1" fill="none"></path></g></g><g transform="translate(719.4721006515775 552.7972027972028) rotate(0 33 13)"><text x="0" y="18" font-family="Virgil, Segoe UI Emoji" font-size="20px" fill="#000000" text-anchor="start" style="white-space: pre;" direction="ltr">INDEX</text></g><g transform="translate(613.3182544977315 577.4125874125873) rotate(0 18.999999999999943 13)"><text x="0" y="18" font-family="Virgil, Segoe UI Emoji" font-size="20px" fill="#000000" text-anchor="start" style="white-space: pre;" direction="ltr">VAR</text></g><g transform="translate(551.0105621900394 536.6433566433566) rotate(0 25.5 13)"><text x="0" y="18" font-family="Virgil, Segoe UI Emoji" font-size="20px" fill="#000000" text-anchor="start" style="white-space: pre;" direction="ltr">Text</text></g><g transform="translate(625.6259468054237 536.6433566433566) rotate(0 40.5 13.000000000000028)"><text x="0" y="18" font-family="Virgil, Segoe UI Emoji" font-size="20px" fill="#000000" text-anchor="start" style="white-space: pre;" direction="ltr">ベクター</text></g><g transform="translate(443.3182544977317 536.6433566433566) rotate(0 40.5 13)"><text x="0" y="18" font-family="Virgil, Segoe UI Emoji" font-size="20px" fill="#000000" text-anchor="start" style="white-space: pre;" direction="ltr">スカラー</text></g><g stroke-linecap="round"><g transform="translate(810.2413314208085 388.72027972027973) rotate(0 0.999316136577022 108.80343680656873)"><path d="M0.33 -0.94 C0.53 35.49, 0.48 182.15, 0.69 218.55 M-0.96 1.18 C-0.34 37.28, 2.65 180.63, 2.96 216.88" stroke="#000000" stroke-width="1" fill="none"></path></g></g><g transform="translate(670.2413314208085 220.48951048951045) rotate(0 15.5 13)"><text x="0" y="18" font-family="Virgil, Segoe UI Emoji" font-size="20px" fill="#000000" text-anchor="start" style="white-space: pre;" direction="ltr">DB</text></g><g transform="translate(692.5490237285006 256.6433566433566) rotate(0 230 13)"><text x="0" y="18" font-family="Virgil, Segoe UI Emoji" font-size="20px" fill="#000000" text-anchor="start" style="white-space: pre;" direction="ltr">オブジェクトのIDと名前のマッピング: PAT/DAT</text></g><g transform="translate(695.6259468054237 285.87412587412587) rotate(0 180 12.999999999999986)"><text x="0" y="18" font-family="Virgil, Segoe UI Emoji" font-size="20px" fill="#000000" text-anchor="start" style="white-space: pre;" direction="ltr">config：config_get/config_set：HASH</text></g><g transform="translate(354.0874852669624 234.33566433566438) rotate(0 118.5 13)"><text x="0" y="18" font-family="Virgil, Segoe UI Emoji" font-size="20px" fill="#000000" text-anchor="start" style="white-space: pre;" direction="ltr">HTTP/GQTP/標準入出力</text></g><g stroke-linecap="round"><g transform="translate(344.0874852669624 290.2587412587412) rotate(0 125.77924232488994 -2.2249405785897096)"><path d="M0.6 -0.2 C42.39 -0.8, 208.23 -1.84, 249.86 -2.45 M-0.54 -1.36 C41.69 -1.79, 210.44 -3.97, 252.1 -4.25" stroke="#000000" stroke-width="1" fill="none"></path></g></g><g stroke-linecap="round"><g transform="translate(344.85671603619323 354.8741258741258) rotate(0 125.8612015219835 0.5648639510152975)"><path d="M-0.25 -0.59 C41.7 -0.23, 209.78 1.63, 251.97 1.66 M1.83 1.72 C43.56 1.8, 209.07 0.24, 250.84 0" stroke="#000000" stroke-width="1" fill="none"></path></g></g><g transform="translate(194.08748526696252 375.1048951048951) rotate(0 82.5 13)"><text x="0" y="18" font-family="Virgil, Segoe UI Emoji" font-size="20px" fill="#000000" text-anchor="start" style="white-space: pre;" direction="ltr">select:モジュール</text></g><g transform="translate(407.93363911311644 375.104895104895) rotate(0 73 13)"><text x="0" y="18" font-family="Virgil, Segoe UI Emoji" font-size="20px" fill="#000000" text-anchor="start" style="white-space: pre;" direction="ltr">dumpモジュール</text></g><g transform="translate(623.3182544977316 376.6433566433566) rotate(0 73.5 13)"><text x="0" y="18" font-family="Virgil, Segoe UI Emoji" font-size="20px" fill="#000000" text-anchor="start" style="white-space: pre;" direction="ltr">load:モジュール</text></g><g transform="translate(608.702869882347 418.18181818181813) rotate(0 97 13)"><text x="0" y="18" font-family="Virgil, Segoe UI Emoji" font-size="20px" fill="#000000" text-anchor="start" style="white-space: pre;" direction="ltr">JSON/Apache Arrow</text></g><g stroke-linecap="round"><g transform="translate(597.1644083438855 406.41258741258736) rotate(0 99.86722481159057 1.2311278660978928)"><path d="M-0.8 -0.62 C32.81 -0.42, 167.12 1.42, 200.53 1.81 M0.98 1.67 C34.5 1.97, 165.96 2.9, 199.46 3.08" stroke="#000000" stroke-width="1" fill="none"></path></g></g><g transform="translate(85.62594680542418 376.64335664335664) rotate(0 50.5 13)"><text x="0" y="18" font-family="Virgil, Segoe UI Emoji" font-size="20px" fill="#000000" text-anchor="start" style="white-space: pre;" direction="ltr">コマンド：</text></g><g transform="translate(175.62594680542418 409.7202797202797) rotate(0 20.5 13)"><text x="0" y="18" font-family="Virgil, Segoe UI Emoji" font-size="20px" fill="#000000" text-anchor="start" style="white-space: pre;" direction="ltr">関数</text></g><g stroke-linecap="round"><g transform="translate(86.3951775746549 402.56643356643355) rotate(0 259.03688741031925 2.5975681367212076)"><path d="M0.94 0.44 C87.14 1.42, 432.11 4.9, 518.1 5.57 M-0.03 -0.38 C85.98 0.3, 430.81 2.93, 517.37 3.95" stroke="#000000" stroke-width="1" fill="none"></path></g></g><g transform="translate(841.0105621900394 462.02797202797194) rotate(0 90.5 13)"><text x="0" y="18" font-family="Virgil, Segoe UI Emoji" font-size="20px" fill="#000000" text-anchor="start" style="white-space: pre;" direction="ltr">トークンフィルター</text></g><g transform="translate(937.9336391131166 505.8741258741259) rotate(0 90.5 65)"><text x="0" y="18" font-family="Virgil, Segoe UI Emoji" font-size="20px" fill="#000000" text-anchor="start" style="white-space: pre;" direction="ltr">コマンド</text><text x="0" y="44" font-family="Virgil, Segoe UI Emoji" font-size="20px" fill="#000000" text-anchor="start" style="white-space: pre;" direction="ltr">関数</text><text x="0" y="70" font-family="Virgil, Segoe UI Emoji" font-size="20px" fill="#000000" text-anchor="start" style="white-space: pre;" direction="ltr">トークナイザー</text><text x="0" y="96" font-family="Virgil, Segoe UI Emoji" font-size="20px" fill="#000000" text-anchor="start" style="white-space: pre;" direction="ltr">ノーマライザー</text><text x="0" y="122" font-family="Virgil, Segoe UI Emoji" font-size="20px" fill="#000000" text-anchor="start" style="white-space: pre;" direction="ltr">トークンフィルター</text></g><g transform="translate(843.318254497732 502.0279720279721) rotate(0 45 13)"><text x="0" y="18" font-family="Virgil, Segoe UI Emoji" font-size="20px" fill="#000000" text-anchor="start" style="white-space: pre;" direction="ltr">grn_proc:</text></g><g transform="translate(24.856716036193575 628.9510489510487) rotate(0 23 13)"><text x="0" y="18" font-family="Virgil, Segoe UI Emoji" font-size="20px" fill="#000000" text-anchor="start" style="white-space: pre;" direction="ltr">alloc</text></g><g transform="translate(210.6609118403893 183.54545454545453) rotate(0 -1.8181818181818699 78.18181818181817)" stroke="none"><path fill="#000000" d="M 1.55,0.15 Q 1.55,0.15 0.99,5.37 0.44,10.60 -0.32,26.37 -1.09,42.14 -1.16,50.40 -1.23,58.66 -1.27,67.41 -1.30,76.16 -1.32,80.66 -1.34,85.16 -1.36,97.53 -1.37,109.89 -1.37,117.24 -1.38,124.59 -1.65,129.58 -1.91,134.56 -2.03,136.93 -2.14,139.29 -2.19,142.62 -2.24,145.96 -2.26,148.69 -2.28,151.42 -2.19,153.45 -2.09,155.47 -2.14,155.72 -2.18,155.96 -2.30,156.18 -2.41,156.40 -2.59,156.57 -2.77,156.74 -3.00,156.84 -3.23,156.94 -3.47,156.97 -3.72,156.99 -3.96,156.94 -4.20,156.88 -4.41,156.75 -4.62,156.63 -4.78,156.44 -4.94,156.25 -5.03,156.02 -5.12,155.78 -5.14,155.54 -5.15,155.29 -5.08,155.05 -5.01,154.81 -4.87,154.61 -4.73,154.40 -4.53,154.26 -4.33,154.11 -4.10,154.03 -3.86,153.95 -3.62,153.95 -3.37,153.95 -3.13,154.04 -2.90,154.12 -2.70,154.27 -2.51,154.42 -2.37,154.62 -2.23,154.83 -2.17,155.07 -2.10,155.31 -2.12,155.56 -2.13,155.80 -2.23,156.03 -2.32,156.26 -2.48,156.45 -2.64,156.64 -2.86,156.76 -3.07,156.89 -3.31,156.94 -3.55,156.99 -3.80,156.97 -4.04,156.94 -4.27,156.83 -4.49,156.73 -4.67,156.55 -4.85,156.38 -4.97,156.16 -5.08,155.94 -5.12,155.70 -5.16,155.45 -5.16,155.46 -5.16,155.46 -5.04,153.43 -4.92,151.40 -4.90,148.66 -4.88,145.92 -4.84,142.54 -4.79,139.16 -4.68,136.79 -4.57,134.42 -4.32,129.50 -4.06,124.59 -4.06,117.24 -4.07,109.89 -4.07,97.52 -4.07,85.15 -4.07,80.65 -4.07,76.15 -4.06,67.39 -4.05,58.64 -4.01,50.32 -3.97,42.01 -3.25,26.15 -2.53,10.30 -2.04,5.07 -1.55,-0.15 -1.51,-0.33 -1.47,-0.52 -1.38,-0.69 -1.30,-0.86 -1.18,-1.00 -1.06,-1.14 -0.90,-1.25 -0.75,-1.36 -0.58,-1.43 -0.40,-1.50 -0.21,-1.53 -0.03,-1.56 0.15,-1.54 0.34,-1.52 0.51,-1.46 0.69,-1.39 0.85,-1.29 1.01,-1.19 1.13,-1.05 1.26,-0.91 1.35,-0.74 1.44,-0.58 1.49,-0.40 1.54,-0.22 1.55,-0.03 1.55,0.15 1.55,0.15 L 1.55,0.15 Z"></path></g><g transform="translate(187.02454820402556 332.6363636363636) rotate(0 19.090909090909122 0)" stroke="none"><path fill="#000000" d="M 0.76,-1.90 Q 0.76,-1.90 5.95,0.27 11.14,2.45 13.41,3.71 15.68,4.96 16.81,5.33 17.94,5.70 23.21,1.60 28.49,-2.49 31.02,-4.25 33.55,-6.01 34.88,-7.44 36.20,-8.88 36.45,-9.06 36.70,-9.23 36.99,-9.32 37.29,-9.41 37.59,-9.39 37.90,-9.38 38.18,-9.28 38.47,-9.17 38.70,-8.97 38.94,-8.78 39.10,-8.52 39.26,-8.26 39.33,-7.97 39.40,-7.67 39.38,-7.37 39.35,-7.06 39.22,-6.78 39.10,-6.51 38.90,-6.28 38.69,-6.06 38.42,-5.91 38.16,-5.76 37.86,-5.71 37.56,-5.65 37.25,-5.69 36.95,-5.74 36.68,-5.88 36.41,-6.02 36.20,-6.23 35.98,-6.45 35.85,-6.73 35.72,-7.00 35.68,-7.30 35.64,-7.60 35.70,-7.90 35.76,-8.20 35.91,-8.47 36.07,-8.73 36.29,-8.93 36.52,-9.13 36.80,-9.25 37.09,-9.37 37.39,-9.39 37.69,-9.41 37.99,-9.34 38.28,-9.26 38.54,-9.09 38.80,-8.93 38.98,-8.69 39.17,-8.45 39.28,-8.16 39.38,-7.87 39.38,-7.57 39.39,-7.26 39.30,-6.97 39.20,-6.68 39.02,-6.44 38.84,-6.19 38.84,-6.19 38.84,-6.19 37.21,-4.72 35.57,-3.25 33.20,-1.43 30.84,0.37 25.27,4.84 19.71,9.31 18.19,9.26 16.67,9.21 15.39,8.60 14.11,8.00 11.93,6.95 9.76,5.90 4.50,3.90 -0.76,1.90 -0.97,1.78 -1.19,1.66 -1.37,1.50 -1.56,1.33 -1.69,1.12 -1.83,0.92 -1.91,0.68 -2.00,0.45 -2.02,0.20 -2.05,-0.03 -2.01,-0.28 -1.98,-0.52 -1.89,-0.75 -1.80,-0.98 -1.65,-1.18 -1.51,-1.38 -1.32,-1.54 -1.13,-1.71 -0.91,-1.82 -0.69,-1.93 -0.45,-1.98 -0.21,-2.04 0.03,-2.03 0.28,-2.03 0.52,-1.96 0.76,-1.90 0.76,-1.90 L 0.76,-1.90 Z"></path></g><g transform="translate(194.29727547675282 121.81818181818181) rotate(0 43.5 13)"><text x="0" y="18" font-family="Virgil, Segoe UI Emoji" font-size="20px" fill="#000000" text-anchor="start" style="white-space: pre;" direction="ltr">select ...</text></g><g transform="translate(104.29727547675282 362.6363636363636) rotate(0 -24.545454545454504 40.90909090909088)" stroke="none"><path fill="#000000" d="M 0.56,1.47 Q 0.56,1.47 -2.84,2.74 -6.25,4.02 -10.07,5.34 -13.90,6.66 -15.80,7.26 -17.69,7.85 -19.93,9.06 -22.17,10.27 -25.78,12.36 -29.39,14.45 -34.24,18.40 -39.09,22.36 -41.55,25.80 -44.02,29.25 -41.43,37.30 -38.83,45.35 -37.52,49.14 -36.20,52.92 -29.76,59.29 -23.33,65.67 -20.03,68.71 -16.73,71.76 -13.82,73.79 -10.91,75.83 -9.53,76.97 -8.15,78.10 -5.70,79.08 -3.26,80.06 -3.00,80.20 -2.75,80.34 -2.56,80.55 -2.36,80.76 -2.25,81.03 -2.13,81.29 -2.11,81.58 -2.08,81.86 -2.15,82.14 -2.22,82.42 -2.37,82.67 -2.52,82.91 -2.74,83.09 -2.97,83.27 -3.24,83.38 -3.50,83.48 -3.79,83.49 -4.08,83.50 -4.36,83.41 -4.63,83.33 -4.87,83.17 -5.10,83.00 -5.27,82.77 -5.44,82.54 -5.53,82.26 -5.61,81.99 -5.61,81.70 -5.60,81.41 -5.51,81.14 -5.41,80.87 -5.23,80.65 -5.05,80.42 -4.81,80.26 -4.57,80.11 -4.29,80.03 -4.01,79.96 -3.73,79.98 -3.44,80.00 -3.17,80.12 -2.91,80.23 -2.69,80.42 -2.48,80.61 -2.33,80.86 -2.19,81.11 -2.13,81.39 -2.08,81.67 -2.11,81.96 -2.15,82.24 -2.28,82.50 -2.40,82.76 -2.60,82.96 -2.81,83.17 -3.06,83.30 -3.32,83.43 -3.60,83.47 -3.89,83.51 -4.17,83.46 -4.45,83.41 -4.45,83.41 -4.45,83.41 -6.44,82.53 -8.43,81.65 -9.28,80.98 -10.13,80.31 -11.28,79.15 -12.43,77.99 -15.48,75.85 -18.53,73.71 -21.87,70.63 -25.21,67.55 -31.94,60.73 -38.67,53.91 -40.04,50.02 -41.41,46.13 -43.91,37.36 -46.40,28.58 -43.63,24.41 -40.86,20.24 -35.83,16.13 -30.81,12.02 -27.18,9.88 -23.55,7.73 -21.06,6.37 -18.57,5.00 -16.72,4.46 -14.87,3.92 -11.10,2.56 -7.33,1.20 -3.95,-0.13 -0.56,-1.47 -0.38,-1.52 -0.19,-1.56 -0.00,-1.56 0.18,-1.56 0.36,-1.52 0.55,-1.48 0.72,-1.39 0.89,-1.30 1.03,-1.17 1.17,-1.05 1.28,-0.89 1.39,-0.74 1.46,-0.56 1.53,-0.38 1.55,-0.19 1.58,-0.00 1.55,0.18 1.53,0.37 1.46,0.54 1.40,0.72 1.29,0.88 1.18,1.04 1.04,1.16 0.90,1.29 0.73,1.38 0.56,1.47 0.56,1.47 L 0.56,1.47 Z"></path></g><g transform="translate(102.47909365857106 427.1818181818182) rotate(0 -10.454545454545467 14.999999999999972)" stroke="none"><path fill="#000000" d="M 1.81,-0.07 Q 1.81,-0.07 2.00,5.93 2.20,11.95 1.73,16.44 1.27,20.94 0.38,23.36 -0.49,25.77 -3.17,27.23 -5.84,28.68 -10.18,29.47 -14.51,30.27 -17.40,30.85 -20.28,31.43 -20.55,31.42 -20.82,31.42 -21.07,31.34 -21.32,31.25 -21.53,31.09 -21.75,30.92 -21.90,30.70 -22.04,30.48 -22.11,30.22 -22.18,29.96 -22.17,29.70 -22.15,29.43 -22.05,29.18 -21.95,28.93 -21.78,28.73 -21.60,28.53 -21.37,28.39 -21.14,28.25 -20.88,28.20 -20.62,28.14 -20.36,28.17 -20.09,28.20 -19.85,28.32 -19.61,28.43 -19.41,28.61 -19.22,28.80 -19.10,29.04 -18.97,29.27 -18.93,29.54 -18.89,29.80 -18.93,30.07 -18.98,30.33 -19.10,30.56 -19.23,30.80 -19.43,30.98 -19.62,31.17 -19.86,31.28 -20.11,31.39 -20.37,31.42 -20.64,31.44 -20.90,31.38 -21.16,31.33 -21.39,31.19 -21.62,31.05 -21.79,30.84 -21.96,30.64 -22.06,30.39 -22.16,30.14 -22.17,29.87 -22.18,29.61 -22.11,29.35 -22.04,29.09 -21.89,28.87 -21.73,28.65 -21.52,28.49 -21.31,28.33 -21.05,28.24 -20.80,28.16 -20.80,28.16 -20.80,28.16 -17.91,27.82 -15.02,27.48 -11.06,26.77 -7.09,26.05 -4.99,25.17 -2.89,24.30 -2.38,22.46 -1.87,20.63 -1.51,16.36 -1.15,12.09 -1.48,6.08 -1.81,0.07 -1.79,-0.13 -1.78,-0.35 -1.71,-0.56 -1.64,-0.77 -1.52,-0.95 -1.41,-1.14 -1.25,-1.29 -1.09,-1.44 -0.90,-1.55 -0.71,-1.66 -0.50,-1.73 -0.29,-1.79 -0.07,-1.80 0.14,-1.81 0.35,-1.76 0.56,-1.72 0.76,-1.63 0.96,-1.53 1.13,-1.40 1.30,-1.26 1.43,-1.08 1.57,-0.91 1.65,-0.71 1.74,-0.51 1.77,-0.29 1.81,-0.07 1.81,-0.07 L 1.81,-0.07 Z"></path></g><g transform="translate(63.38818456766194 425.3636363636364) rotate(0 -6.818181818181813 26.363636363636374)" stroke="none"><path fill="#000000" d="M 1.33,0.88 Q 1.33,0.88 0.29,2.46 -0.73,4.03 -1.93,6.65 -3.13,9.28 -4.99,13.31 -6.85,17.35 -7.93,19.36 -9.01,21.37 -9.66,23.18 -10.32,24.98 -10.87,27.26 -11.42,29.54 -11.66,34.08 -11.89,38.62 -11.49,41.52 -11.08,44.42 -10.41,46.65 -9.74,48.88 -8.92,50.11 -8.10,51.35 -8.02,51.58 -7.93,51.81 -7.93,52.06 -7.92,52.31 -7.99,52.54 -8.07,52.78 -8.21,52.98 -8.35,53.18 -8.56,53.33 -8.76,53.47 -8.99,53.55 -9.23,53.62 -9.48,53.61 -9.73,53.60 -9.96,53.52 -10.19,53.43 -10.39,53.28 -10.58,53.12 -10.71,52.91 -10.85,52.70 -10.91,52.46 -10.97,52.22 -10.94,51.98 -10.92,51.73 -10.83,51.50 -10.73,51.27 -10.56,51.09 -10.40,50.90 -10.18,50.78 -9.96,50.66 -9.72,50.61 -9.48,50.57 -9.23,50.60 -8.99,50.63 -8.76,50.75 -8.54,50.86 -8.37,51.03 -8.19,51.21 -8.08,51.43 -7.97,51.65 -7.94,51.90 -7.91,52.14 -7.95,52.39 -8.00,52.63 -8.12,52.84 -8.24,53.06 -8.43,53.23 -8.61,53.39 -8.84,53.49 -9.07,53.59 -9.32,53.61 -9.56,53.63 -9.80,53.57 -10.04,53.51 -10.25,53.37 -10.46,53.24 -10.62,53.05 -10.77,52.85 -10.77,52.85 -10.77,52.85 -11.55,51.26 -12.33,49.67 -13.06,47.24 -13.79,44.80 -14.23,41.64 -14.67,38.49 -14.42,33.69 -14.18,28.90 -13.62,26.43 -13.05,23.97 -12.30,22.00 -11.55,20.04 -10.55,18.08 -9.55,16.13 -7.75,12.07 -5.95,8.02 -4.70,5.12 -3.45,2.23 -2.39,0.67 -1.33,-0.88 -1.20,-1.03 -1.07,-1.17 -0.92,-1.29 -0.76,-1.40 -0.58,-1.47 -0.40,-1.54 -0.21,-1.57 -0.02,-1.59 0.16,-1.57 0.35,-1.55 0.53,-1.49 0.71,-1.42 0.88,-1.32 1.04,-1.21 1.17,-1.07 1.30,-0.92 1.39,-0.75 1.48,-0.59 1.53,-0.40 1.58,-0.21 1.58,-0.02 1.58,0.16 1.54,0.35 1.50,0.54 1.41,0.71 1.32,0.88 1.32,0.88 L 1.33,0.88 Z"></path></g><g transform="translate(59.75182093129831 465.3636363636364) rotate(0 -7.272727272727252 8.636363636363626)" stroke="none"><path fill="#000000" d="M 2.17,-1.20 Q 2.17,-1.20 3.34,1.21 4.52,3.64 5.32,5.19 6.13,6.73 6.61,7.81 7.08,8.88 7.08,10.28 7.09,11.68 6.77,12.76 6.45,13.85 5.58,14.70 4.70,15.54 3.13,16.41 1.56,17.28 0.29,17.78 -0.97,18.28 -2.52,18.54 -4.08,18.79 -5.60,18.99 -7.13,19.18 -8.31,19.61 -9.50,20.05 -10.70,20.20 -11.91,20.36 -13.69,20.04 -15.48,19.73 -16.80,18.95 -18.13,18.17 -20.12,16.62 -22.12,15.08 -22.38,14.65 -22.65,14.21 -22.76,13.72 -22.87,13.22 -22.82,12.71 -22.77,12.21 -22.56,11.74 -22.35,11.28 -22.00,10.91 -21.65,10.53 -21.20,10.29 -20.76,10.05 -20.25,9.97 -19.75,9.88 -19.25,9.96 -18.75,10.04 -18.29,10.27 -17.84,10.51 -17.49,10.88 -17.14,11.25 -16.92,11.71 -16.70,12.17 -16.65,12.67 -16.59,13.18 -16.69,13.68 -16.80,14.17 -17.06,14.61 -17.32,15.05 -17.71,15.38 -18.09,15.71 -18.56,15.91 -19.04,16.10 -19.54,16.13 -20.05,16.16 -20.54,16.03 -21.04,15.89 -21.46,15.61 -21.88,15.33 -22.19,14.92 -22.50,14.52 -22.67,14.04 -22.83,13.56 -22.84,13.05 -22.84,12.54 -22.68,12.05 -22.52,11.57 -22.22,11.16 -21.91,10.76 -21.49,10.47 -21.07,10.18 -20.58,10.04 -20.09,9.90 -19.58,9.93 -19.07,9.95 -18.60,10.14 -18.13,10.32 -17.74,10.65 -17.35,10.98 -17.35,10.98 -17.35,10.98 -16.17,11.88 -15.00,12.78 -13.97,13.44 -12.94,14.11 -11.83,14.18 -10.71,14.25 -9.63,13.85 -8.55,13.45 -7.46,13.45 -6.36,13.45 -4.64,13.29 -2.92,13.14 -1.90,12.75 -0.89,12.37 0.72,11.73 2.33,11.08 2.34,9.92 2.35,8.76 1.53,7.26 0.70,5.76 -0.73,3.48 -2.17,1.20 -2.28,0.92 -2.39,0.65 -2.44,0.35 -2.48,0.05 -2.45,-0.23 -2.42,-0.53 -2.32,-0.82 -2.22,-1.10 -2.06,-1.35 -1.89,-1.60 -1.67,-1.80 -1.46,-2.01 -1.19,-2.15 -0.93,-2.30 -0.64,-2.38 -0.35,-2.45 -0.05,-2.46 0.24,-2.47 0.53,-2.40 0.82,-2.34 1.09,-2.21 1.36,-2.07 1.59,-1.88 1.82,-1.69 1.99,-1.44 2.17,-1.20 2.17,-1.20 L 2.17,-1.20 Z"></path></g><g transform="translate(34.29727547675287 454.4545454545454) rotate(0 60.45454545454544 -137.27272727272725)" stroke="none"><path fill="#000000" d="M -1.46,0.54 Q -1.46,0.54 -2.21,-1.55 -2.96,-3.65 -3.80,-6.14 -4.64,-8.63 -5.03,-19.55 -5.41,-30.47 -5.55,-35.30 -5.69,-40.13 -3.11,-48.91 -0.52,-57.70 3.73,-66.67 7.99,-75.64 16.09,-89.14 24.20,-102.63 29.45,-111.48 34.71,-120.32 38.25,-126.43 41.79,-132.53 45.96,-138.07 50.12,-143.61 52.94,-147.00 55.75,-150.40 59.83,-154.99 63.91,-159.57 70.89,-166.76 77.86,-173.95 84.22,-180.40 90.58,-186.85 96.39,-193.23 102.21,-199.61 105.71,-204.11 109.20,-208.62 112.48,-214.15 115.76,-219.67 117.68,-223.57 119.59,-227.47 120.39,-229.61 121.18,-231.74 122.02,-237.26 122.86,-242.77 123.23,-249.28 123.59,-255.80 123.75,-260.67 123.90,-265.54 123.87,-269.24 123.84,-272.95 123.88,-273.20 123.93,-273.45 124.06,-273.67 124.18,-273.89 124.37,-274.06 124.56,-274.23 124.79,-274.33 125.03,-274.43 125.28,-274.45 125.53,-274.47 125.78,-274.41 126.03,-274.35 126.24,-274.22 126.46,-274.08 126.62,-273.88 126.77,-273.68 126.86,-273.44 126.95,-273.21 126.96,-272.95 126.97,-272.70 126.89,-272.45 126.82,-272.21 126.67,-272.00 126.52,-271.80 126.31,-271.65 126.11,-271.50 125.86,-271.42 125.62,-271.35 125.37,-271.36 125.11,-271.36 124.87,-271.45 124.64,-271.54 124.44,-271.70 124.24,-271.86 124.10,-272.07 123.96,-272.28 123.90,-272.53 123.84,-272.78 123.86,-273.03 123.88,-273.28 123.98,-273.52 124.08,-273.75 124.25,-273.94 124.42,-274.13 124.64,-274.26 124.86,-274.38 125.11,-274.43 125.36,-274.48 125.62,-274.44 125.87,-274.41 126.10,-274.30 126.32,-274.18 126.50,-274.01 126.68,-273.83 126.80,-273.60 126.91,-273.37 126.94,-273.12 126.98,-272.87 126.98,-272.87 126.98,-272.87 126.75,-269.16 126.53,-265.46 126.37,-260.55 126.21,-255.65 125.84,-249.01 125.46,-242.37 124.55,-236.60 123.65,-230.83 122.80,-228.57 121.95,-226.31 119.99,-222.32 118.02,-218.33 114.65,-212.67 111.28,-207.01 107.72,-202.42 104.16,-197.83 98.30,-191.42 92.45,-185.00 86.10,-178.56 79.75,-172.12 72.82,-164.97 65.88,-157.82 61.84,-153.27 57.79,-148.71 55.01,-145.37 52.24,-142.02 48.16,-136.61 44.09,-131.20 40.55,-125.08 37.00,-118.96 31.75,-110.11 26.49,-101.25 18.46,-87.87 10.43,-74.48 6.26,-65.70 2.08,-56.92 -0.42,-48.55 -2.93,-40.17 -2.76,-35.37 -2.59,-30.57 -2.25,-20.06 -1.91,-9.55 -1.04,-7.12 -0.16,-4.70 0.64,-2.62 1.46,-0.54 1.50,-0.36 1.55,-0.18 1.55,0.00 1.55,0.19 1.50,0.37 1.45,0.55 1.37,0.72 1.28,0.89 1.15,1.03 1.03,1.17 0.87,1.27 0.72,1.38 0.54,1.45 0.36,1.51 0.18,1.54 -0.00,1.56 -0.19,1.53 -0.37,1.51 -0.55,1.44 -0.73,1.38 -0.88,1.27 -1.04,1.16 -1.16,1.02 -1.28,0.88 -1.37,0.71 -1.46,0.54 -1.46,0.54 L -1.46,0.54 Z"></path></g><g transform="translate(157.93363911311656 179) rotate(0 -12.727272727272748 3.636363636363626)" stroke="none"><path fill="#000000" d="M 0,2.21 Q 0,2.21 -2.34,2.09 -4.68,1.97 -8.05,2.89 -11.43,3.82 -13.96,4.70 -16.50,5.58 -17.89,6.09 -19.28,6.59 -20.27,7.08 -21.27,7.57 -22.85,8.34 -24.44,9.12 -24.77,9.17 -25.10,9.22 -25.43,9.17 -25.76,9.11 -26.06,8.95 -26.35,8.80 -26.58,8.55 -26.81,8.31 -26.95,8.00 -27.09,7.70 -27.13,7.36 -27.16,7.03 -27.09,6.70 -27.02,6.37 -26.84,6.09 -26.67,5.80 -26.41,5.58 -26.15,5.37 -25.84,5.24 -25.53,5.12 -25.19,5.10 -24.86,5.09 -24.53,5.18 -24.21,5.27 -23.93,5.46 -23.66,5.65 -23.45,5.92 -23.25,6.18 -23.15,6.50 -23.04,6.82 -23.04,7.16 -23.04,7.49 -23.15,7.81 -23.26,8.13 -23.47,8.40 -23.67,8.66 -23.95,8.85 -24.23,9.04 -24.55,9.12 -24.88,9.21 -25.21,9.19 -25.55,9.17 -25.86,9.05 -26.17,8.92 -26.42,8.70 -26.68,8.49 -26.85,8.20 -27.02,7.91 -27.09,7.58 -27.16,7.25 -27.13,6.92 -27.09,6.58 -26.95,6.28 -26.80,5.98 -26.57,5.73 -26.34,5.49 -26.04,5.33 -25.74,5.18 -25.75,5.18 -25.75,5.18 -24.25,4.52 -22.74,3.86 -21.54,3.48 -20.34,3.09 -19.00,2.77 -17.67,2.46 -15.05,1.41 -12.43,0.36 -8.57,-0.80 -4.72,-1.97 -2.36,-2.09 0,-2.21 0.26,-2.18 0.53,-2.15 0.78,-2.05 1.03,-1.96 1.25,-1.81 1.46,-1.65 1.64,-1.45 1.82,-1.25 1.94,-1.02 2.07,-0.78 2.13,-0.52 2.20,-0.26 2.20,0.00 2.20,0.26 2.13,0.52 2.07,0.78 1.94,1.02 1.82,1.25 1.64,1.45 1.46,1.65 1.24,1.81 1.02,1.96 0.78,2.05 0.53,2.15 0.26,2.18 -0.00,2.21 -0.00,2.21 L 0,2.21 Z"></path></g><g transform="translate(158.84273002220743 175.36363636363635) rotate(0 8.636363636363626 10.90909090909092)" stroke="none"><path fill="#000000" d="M 1.28,-1.54 Q 1.28,-1.54 2.81,-0.17 4.34,1.18 7.71,5.86 11.08,10.54 12.96,13.27 14.83,16.00 16.43,17.91 18.03,19.83 18.17,20.09 18.31,20.35 18.35,20.64 18.40,20.92 18.36,21.21 18.31,21.50 18.17,21.76 18.04,22.02 17.83,22.22 17.61,22.43 17.35,22.55 17.08,22.67 16.79,22.71 16.50,22.74 16.21,22.68 15.93,22.62 15.68,22.47 15.42,22.32 15.23,22.09 15.04,21.87 14.93,21.60 14.82,21.33 14.81,21.04 14.79,20.74 14.87,20.46 14.94,20.18 15.11,19.93 15.27,19.69 15.50,19.51 15.74,19.34 16.01,19.24 16.29,19.15 16.58,19.14 16.88,19.14 17.16,19.24 17.43,19.33 17.67,19.50 17.90,19.68 18.07,19.92 18.23,20.16 18.31,20.45 18.39,20.73 18.38,21.02 18.36,21.31 18.25,21.59 18.15,21.86 17.96,22.08 17.77,22.31 17.52,22.46 17.27,22.61 16.98,22.68 16.70,22.74 16.41,22.71 16.11,22.68 15.85,22.56 15.58,22.43 15.37,22.23 15.15,22.03 15.15,22.03 15.15,22.03 13.69,19.95 12.22,17.87 10.26,15.22 8.31,12.58 5.12,8.30 1.93,4.03 0.32,2.79 -1.28,1.54 -1.45,1.36 -1.61,1.19 -1.73,0.97 -1.85,0.76 -1.92,0.53 -1.98,0.30 -1.99,0.06 -2.00,-0.18 -1.94,-0.41 -1.89,-0.65 -1.79,-0.87 -1.68,-1.09 -1.53,-1.27 -1.37,-1.46 -1.18,-1.60 -0.98,-1.74 -0.76,-1.84 -0.53,-1.93 -0.29,-1.97 -0.06,-2.00 0.18,-1.98 0.42,-1.96 0.65,-1.88 0.87,-1.80 1.08,-1.67 1.28,-1.54 1.28,-1.54 L 1.28,-1.54 Z"></path></g><g transform="translate(222.47909365857106 252.7272727272727) rotate(0 76 13)"><text x="0" y="18" font-family="Virgil, Segoe UI Emoji" font-size="20px" fill="#000000" text-anchor="start" style="white-space: pre;" direction="ltr">grn_ctx_send()</text></g><g transform="translate(463.38818456766205 85.45454545454544) rotate(0 30 13)"><text x="0" y="18" font-family="Virgil, Segoe UI Emoji" font-size="20px" fill="#000000" text-anchor="start" style="white-space: pre;" direction="ltr">select</text></g><g transform="translate(597.0245482040256 61.81818181818181) rotate(0 152.5 26)"><text x="0" y="18" font-family="Virgil, Segoe UI Emoji" font-size="20px" fill="#000000" text-anchor="start" style="white-space: pre;" direction="ltr">/d/select?table=XXX&amp;query=yyy</text><text x="0" y="44" font-family="Virgil, Segoe UI Emoji" font-size="20px" fill="#000000" text-anchor="start" style="white-space: pre;" direction="ltr">select --table XXX --XXX</text></g><g transform="translate(555.2063663858438 143.63636363636363) rotate(0 235 26)"><text x="0" y="18" font-family="Virgil, Segoe UI Emoji" font-size="20px" fill="#000000" text-anchor="start" style="white-space: pre;" direction="ltr">string -&gt;g rn_ctx_get() -&gt; Groongaオブジェクト</text><text x="0" y="44" font-family="Virgil, Segoe UI Emoji" font-size="20px" fill="#000000" text-anchor="start" style="white-space: pre;" direction="ltr"></text></g><g transform="translate(149.7518209312983 10) rotate(0 262.5 26)"><text x="0" y="18" font-family="Virgil, Segoe UI Emoji" font-size="20px" fill="#000000" text-anchor="start" style="white-space: pre;" direction="ltr">table=xxx -&gt; grn_text_cgidec() -&gt; {"table" =&gt; "xxx"}</text><text x="0" y="44" font-family="Virgil, Segoe UI Emoji" font-size="20px" fill="#000000" text-anchor="start" style="white-space: pre;" direction="ltr">-&gt; grn_expr_add_var() -&gt; select["table"] = "xxx"</text></g></svg>