<svg version="1.1" xmlns="http://www.w3.org/2000/svg" viewBox="0 0 1162.5490237285007 454.7307692307693" width="1162.5490237285007" height="454.7307692307693">
  <!-- svg-source:excalidraw -->
  
  <defs>
    <style>
      @font-face {
        font-family: "Virgil";
        src: url("https://excalidraw.com/Virgil.woff2");
      }
      @font-face {
        font-family: "Cascadia";
        src: url("https://excalidraw.com/Cascadia.woff2");
      }
    </style>
  </defs>
  <rect x="0" y="0" width="1162.5490237285007" height="454.7307692307693" fill="#ffffff"></rect><g transform="translate(840.356716036193 177.38461538461536) rotate(0 70.5 13)"><text x="0" y="18" font-family="Virgil, Segoe UI Emoji" font-size="20px" fill="#000000" text-anchor="start" style="white-space: pre;" direction="ltr">トークナイザー</text></g><g transform="translate(842.0490237285006 211.42307692307696) rotate(0 70.5 13)"><text x="0" y="18" font-family="Virgil, Segoe UI Emoji" font-size="20px" fill="#000000" text-anchor="start" style="white-space: pre;" direction="ltr">ノーマライザー</text></g><g transform="translate(385.6644083438855 418.7307692307693) rotate(0 13 13)"><text x="0" y="18" font-family="Virgil, Segoe UI Emoji" font-size="20px" fill="#000000" text-anchor="start" style="white-space: pre;" direction="ltr">IO</text></g><g transform="translate(352.6644083438855 105.0384615384616) rotate(0 112.5 13)"><text x="0" y="18" font-family="Virgil, Segoe UI Emoji" font-size="20px" fill="#000000" text-anchor="start" style="white-space: pre;" direction="ltr">クエリー処理: "select..."</text></g><g stroke-linecap="round"><g transform="translate(11.274511864250485 405.16919350348985) rotate(0 391.15600899513305 -3.7401702578251843)"><path d="M0.12 0.02 C130.29 -1.18, 650.79 -6.36, 781.28 -7.5 M-1.27 -1.02 C129.25 -2.08, 652.9 -5.74, 783.59 -6.51" stroke="#000000" stroke-width="1" fill="none"></path></g></g><g transform="translate(241.0105621900393 265.38461538461536) rotate(0 40.5 13)"><text x="0" y="18" font-family="Virgil, Segoe UI Emoji" font-size="20px" fill="#000000" text-anchor="start" style="white-space: pre;" direction="ltr">テーブル</text></g><g transform="translate(602.5490237285009 269.23076923076917) rotate(0 30.5 13)"><text x="0" y="18" font-family="Virgil, Segoe UI Emoji" font-size="20px" fill="#000000" text-anchor="start" style="white-space: pre;" direction="ltr">カラム</text></g><g stroke-linecap="round"><g transform="translate(138.70286988234704 251.30769230769226) rotate(0 270.0839413251918 -2.2592611967789935)"><path d="M0.54 -0.21 C90.69 -0.48, 450.97 -2.13, 540.81 -2.76 M-0.64 -1.36 C89.37 -1.85, 449.46 -4.09, 539.88 -4.31" stroke="#000000" stroke-width="1" fill="none"></path></g></g><g transform="translate(164.08748526696252 331.53846153846155) rotate(0 114.5 13)"><text x="0" y="18" font-family="Virgil, Segoe UI Emoji" font-size="20px" fill="#000000" text-anchor="start" style="white-space: pre;" direction="ltr">ARRAY/HASH/PAT/DAT</text></g><g stroke-linecap="round"><g transform="translate(150.2413314208087 312.07692307692304) rotate(0 125.7873122458177 -0.6609568091539302)"><path d="M-0.16 1 C42.01 0.43, 210.89 -1.79, 253.28 -2.32 M-1.7 0.48 C40.23 0.63, 209.49 -0.58, 252.03 -0.8" stroke="#000000" stroke-width="1" fill="none"></path></g></g><g transform="translate(462.54902372850086 358.46153846153857) rotate(0 17.5 13)"><text x="0" y="18" font-family="Virgil, Segoe UI Emoji" font-size="20px" fill="#000000" text-anchor="start" style="white-space: pre;" direction="ltr">FIX</text></g><g stroke-linecap="round"><g transform="translate(477.9336391131162 306.6923076923077) rotate(0 111.47108246821614 -1.7474075033114786)"><path d="M-0.8 0.82 C36.41 0.23, 186.11 -3.65, 223.75 -4.32 M0.97 0.21 C37.98 -0.15, 185.43 -2.13, 222.75 -3.03" stroke="#000000" stroke-width="1" fill="none"></path></g></g><g stroke-linecap="round"><g transform="translate(547.9336391131161 358.2307692307694) rotate(0 77.60431010775409 -1.4489577006797276)"><path d="M0.28 0.48 C26.09 0.09, 128.29 -3, 154.09 -3.38 M-1.02 -0.31 C25.2 -0.46, 130.34 -1.57, 156.23 -2.11" stroke="#000000" stroke-width="1" fill="none"></path></g></g><g transform="translate(719.4721006515775 342.30769230769226) rotate(0 33 13)"><text x="0" y="18" font-family="Virgil, Segoe UI Emoji" font-size="20px" fill="#000000" text-anchor="start" style="white-space: pre;" direction="ltr">INDEX</text></g><g transform="translate(613.3182544977315 366.9230769230769) rotate(0 18.999999999999943 13)"><text x="0" y="18" font-family="Virgil, Segoe UI Emoji" font-size="20px" fill="#000000" text-anchor="start" style="white-space: pre;" direction="ltr">VAR</text></g><g transform="translate(551.0105621900394 326.1538461538462) rotate(0 25.5 13)"><text x="0" y="18" font-family="Virgil, Segoe UI Emoji" font-size="20px" fill="#000000" text-anchor="start" style="white-space: pre;" direction="ltr">Text</text></g><g transform="translate(625.6259468054237 326.15384615384613) rotate(0 40.5 13.000000000000028)"><text x="0" y="18" font-family="Virgil, Segoe UI Emoji" font-size="20px" fill="#000000" text-anchor="start" style="white-space: pre;" direction="ltr">ベクター</text></g><g transform="translate(443.3182544977317 326.1538461538461) rotate(0 40.5 13)"><text x="0" y="18" font-family="Virgil, Segoe UI Emoji" font-size="20px" fill="#000000" text-anchor="start" style="white-space: pre;" direction="ltr">スカラー</text></g><g stroke-linecap="round"><g transform="translate(810.2413314208085 178.23076923076928) rotate(0 0.999316136577022 108.80343680656873)"><path d="M0.33 -0.94 C0.53 35.49, 0.48 182.15, 0.69 218.55 M-0.96 1.18 C-0.34 37.28, 2.65 180.63, 2.96 216.88" stroke="#000000" stroke-width="1" fill="none"></path></g></g><g transform="translate(670.2413314208085 10) rotate(0 15.5 13)"><text x="0" y="18" font-family="Virgil, Segoe UI Emoji" font-size="20px" fill="#000000" text-anchor="start" style="white-space: pre;" direction="ltr">DB</text></g><g transform="translate(692.5490237285006 46.153846153846104) rotate(0 230 13)"><text x="0" y="18" font-family="Virgil, Segoe UI Emoji" font-size="20px" fill="#000000" text-anchor="start" style="white-space: pre;" direction="ltr">オブジェクトのIDと名前のマッピング: PAT/DAT</text></g><g transform="translate(695.6259468054237 75.38461538461539) rotate(0 180 12.999999999999986)"><text x="0" y="18" font-family="Virgil, Segoe UI Emoji" font-size="20px" fill="#000000" text-anchor="start" style="white-space: pre;" direction="ltr">config：config_get/config_set：HASH</text></g><g transform="translate(354.0874852669624 23.846153846153925) rotate(0 118.5 13)"><text x="0" y="18" font-family="Virgil, Segoe UI Emoji" font-size="20px" fill="#000000" text-anchor="start" style="white-space: pre;" direction="ltr">HTTP/GQTP/標準入出力</text></g><g stroke-linecap="round"><g transform="translate(344.0874852669624 79.76923076923077) rotate(0 125.77924232488994 -2.2249405785897096)"><path d="M0.6 -0.2 C42.39 -0.8, 208.23 -1.84, 249.86 -2.45 M-0.54 -1.36 C41.69 -1.79, 210.44 -3.97, 252.1 -4.25" stroke="#000000" stroke-width="1" fill="none"></path></g></g><g stroke-linecap="round"><g transform="translate(344.85671603619323 144.38461538461536) rotate(0 125.8612015219835 0.5648639510152975)"><path d="M-0.25 -0.59 C41.7 -0.23, 209.78 1.63, 251.97 1.66 M1.83 1.72 C43.56 1.8, 209.07 0.24, 250.84 0" stroke="#000000" stroke-width="1" fill="none"></path></g></g><g transform="translate(194.08748526696252 164.61538461538464) rotate(0 82.5 13)"><text x="0" y="18" font-family="Virgil, Segoe UI Emoji" font-size="20px" fill="#000000" text-anchor="start" style="white-space: pre;" direction="ltr">select:モジュール</text></g><g transform="translate(407.93363911311644 164.61538461538453) rotate(0 73 13)"><text x="0" y="18" font-family="Virgil, Segoe UI Emoji" font-size="20px" fill="#000000" text-anchor="start" style="white-space: pre;" direction="ltr">dumpモジュール</text></g><g transform="translate(623.3182544977316 166.15384615384613) rotate(0 73.5 13)"><text x="0" y="18" font-family="Virgil, Segoe UI Emoji" font-size="20px" fill="#000000" text-anchor="start" style="white-space: pre;" direction="ltr">load:モジュール</text></g><g transform="translate(608.702869882347 207.69230769230768) rotate(0 97 13)"><text x="0" y="18" font-family="Virgil, Segoe UI Emoji" font-size="20px" fill="#000000" text-anchor="start" style="white-space: pre;" direction="ltr">JSON/Apache Arrow</text></g><g stroke-linecap="round"><g transform="translate(597.1644083438855 195.9230769230769) rotate(0 99.86722481159057 1.2311278660978928)"><path d="M-0.8 -0.62 C32.81 -0.42, 167.12 1.42, 200.53 1.81 M0.98 1.67 C34.5 1.97, 165.96 2.9, 199.46 3.08" stroke="#000000" stroke-width="1" fill="none"></path></g></g><g transform="translate(85.62594680542418 166.1538461538462) rotate(0 50.5 13)"><text x="0" y="18" font-family="Virgil, Segoe UI Emoji" font-size="20px" fill="#000000" text-anchor="start" style="white-space: pre;" direction="ltr">コマンド：</text></g><g transform="translate(175.62594680542418 199.23076923076923) rotate(0 20.5 13)"><text x="0" y="18" font-family="Virgil, Segoe UI Emoji" font-size="20px" fill="#000000" text-anchor="start" style="white-space: pre;" direction="ltr">関数</text></g><g stroke-linecap="round"><g transform="translate(86.3951775746549 192.0769230769231) rotate(0 259.03688741031925 2.5975681367212076)"><path d="M0.94 0.44 C87.14 1.42, 432.11 4.9, 518.1 5.57 M-0.03 -0.38 C85.98 0.3, 430.81 2.93, 517.37 3.95" stroke="#000000" stroke-width="1" fill="none"></path></g></g><g transform="translate(841.0105621900394 251.5384615384615) rotate(0 90.5 13)"><text x="0" y="18" font-family="Virgil, Segoe UI Emoji" font-size="20px" fill="#000000" text-anchor="start" style="white-space: pre;" direction="ltr">トークンフィルター</text></g><g transform="translate(937.9336391131166 295.3846153846155) rotate(0 90.5 65)"><text x="0" y="18" font-family="Virgil, Segoe UI Emoji" font-size="20px" fill="#000000" text-anchor="start" style="white-space: pre;" direction="ltr">コマンド</text><text x="0" y="44" font-family="Virgil, Segoe UI Emoji" font-size="20px" fill="#000000" text-anchor="start" style="white-space: pre;" direction="ltr">関数</text><text x="0" y="70" font-family="Virgil, Segoe UI Emoji" font-size="20px" fill="#000000" text-anchor="start" style="white-space: pre;" direction="ltr">トークナイザー</text><text x="0" y="96" font-family="Virgil, Segoe UI Emoji" font-size="20px" fill="#000000" text-anchor="start" style="white-space: pre;" direction="ltr">ノーマライザー</text><text x="0" y="122" font-family="Virgil, Segoe UI Emoji" font-size="20px" fill="#000000" text-anchor="start" style="white-space: pre;" direction="ltr">トークンフィルター</text></g><g transform="translate(843.318254497732 291.53846153846166) rotate(0 45 13)"><text x="0" y="18" font-family="Virgil, Segoe UI Emoji" font-size="20px" fill="#000000" text-anchor="start" style="white-space: pre;" direction="ltr">grn_proc:</text></g><g transform="translate(24.856716036193575 418.46153846153834) rotate(0 23 13)"><text x="0" y="18" font-family="Virgil, Segoe UI Emoji" font-size="20px" fill="#000000" text-anchor="start" style="white-space: pre;" direction="ltr">alloc</text></g></svg>