<?xml version="1.0" encoding="utf-8"?>
<!-- Generator: Adobe Illustrator 14.0.0, SVG Export Plug-In . SVG Version: 6.00 Build 43363)  -->
<!DOCTYPE svg PUBLIC "-//W3C//DTD SVG 1.1//EN" "http://www.w3.org/Graphics/SVG/1.1/DTD/svg11.dtd">
<svg version="1.1" id="レイヤー_1" xmlns="http://www.w3.org/2000/svg" xmlns:xlink="http://www.w3.org/1999/xlink" x="0px"
	 y="0px" width="283.46px" height="113.39px" viewBox="0 0 283.46 113.39" enable-background="new 0 0 283.46 113.39"
	 xml:space="preserve">
<g>
	<defs>
		<rect id="SVGID_1_" y="0" width="283.46" height="113.39"/>
	</defs>
	<clipPath id="SVGID_2_">
		<use xlink:href="#SVGID_1_"  overflow="visible"/>
	</clipPath>
	<path clip-path="url(#SVGID_2_)" fill="#040000" d="M202.752,108.712c-7.825,0-15.809-2.281-21.9-6.258
		c-2.565-1.679-4.68-3.857-6.249-6.377h-33.006c-7.903,7.241-17.949,11.207-28.495,11.207c-10.561,0-20.669-3.963-28.717-11.207
		h-20.17c-0.184,0-0.368-0.005-0.55-0.015l-5.59-0.013h-4.865c-2.373,0.478-4.799,0.72-7.23,0.72
		c-19.3,0-34.418-15.556-34.418-35.414c0-9.769,3.456-18.873,9.732-25.632c4.534-4.884,10.203-8.264,16.475-9.909
		c2.561-8.558,10.506-14.813,19.886-14.813h2.268c8.975,0,16.637,5.726,19.525,13.717H93.33c1.984-1.006,4.024-1.849,6.106-2.523
		c1.178-1.612,2.478-3.13,3.887-4.54c7.427-7.424,17.154-11.514,27.389-11.514c10.256,0,20.011,4.104,27.466,11.556
		c2.31,2.312,4.307,4.799,5.974,7.437h71.605c12.236,0,22.333,5.711,27.694,15.67c3.992,7.405,3.992,15.034,3.992,17.541v2.147
		c2.902,3.628,4.521,8.179,4.521,12.938v1.688c0,9.363-6.315,17.599-15.357,20.03c-2.475,0.661-4.946,0.982-7.562,0.982
		c-2.049,0-4.039-0.22-5.956-0.656c-3.16,0.906-6.438,1.364-9.783,1.364c-1.226,0-2.435-0.064-3.625-0.19
		C223.432,104.278,213.726,108.712,202.752,108.712"/>
</g>
<g>
	<defs>
		<path id="SVGID_3_" d="M119.878,44.683c1.85-0.844,1.049-2.712,2.153-6.012c0.539-1.608,1.497-3.192,2.996-4.693
			c3.997-3.996,11.355-4.913,16.745,0.476c4.392,4.393,6.253,11.392,0.514,17.131c-1.293,1.294-2.95,2.251-4.779,2.774
			c-2.931,0.84-4.51,0.753-5.518,2.435c-1.009,1.683-0.898,1.881-0.854,5.031c0.055,3.576-1.291,7.281-4.662,10.654
			c-5.154,5.153-14.667,6.302-21.668-0.699c-5.515-5.517-8.103-14.801-0.752-22.149c2.728-2.727,6.651-4.338,10.776-4.266
			c0.821,0.015,1.434,0.034,1.934,0.034C118.013,45.397,118.56,45.28,119.878,44.683 M117.464,31.8
			c-2.265,2.264-3.981,5.175-4.875,8.384c-5.887-0.09-11.792,2.202-16.477,6.888c-7.889,7.887-10.34,22.198,0.647,33.185
			c9.245,9.245,23.051,9.384,32.11,0.324c4.284-4.285,7.012-10.18,7.071-16.413c3.041-0.809,5.933-2.429,8.399-4.892
			c6.739-6.742,8.801-18.328-0.3-27.435c-3.803-3.801-8.567-5.701-13.327-5.701C125.972,26.141,121.237,28.027,117.464,31.8"/>
	</defs>
	<clipPath id="SVGID_4_">
		<use xlink:href="#SVGID_3_"  overflow="visible"/>
	</clipPath>
	
		<linearGradient id="SVGID_5_" gradientUnits="userSpaceOnUse" x1="0" y1="113.3711" x2="1" y2="113.3711" gradientTransform="matrix(60.8071 0 0 -60.8071 89.3392 6951.6162)">
		<stop  offset="0" style="stop-color:#AF5982"/>
		<stop  offset="0.0061" style="stop-color:#AF5982"/>
		<stop  offset="1" style="stop-color:#911A6E"/>
	</linearGradient>
	<rect x="85.772" y="26.141" clip-path="url(#SVGID_4_)" fill="url(#SVGID_5_)" width="67.368" height="63.5"/>
</g>
<g>
	<defs>
		<rect id="SVGID_6_" y="0" width="283.46" height="113.39"/>
	</defs>
	<clipPath id="SVGID_7_">
		<use xlink:href="#SVGID_6_"  overflow="visible"/>
	</clipPath>
	<path clip-path="url(#SVGID_7_)" fill="#FFFFFF" d="M85.871,45.641c-1.351-0.293-2.305-0.453-3.479-0.453
		c-2.877,0-5.387,0.841-7.471,2.493c-0.092,0.063-0.194,0.142-0.306,0.251c-0.233,0.197-0.457,0.407-0.675,0.627
		c-1.494,1.327-2.79,1.971-2.79-1.249v-0.674c0-0.408-0.331-0.739-0.739-0.739h-2.124c-0.201,0-0.393,0.08-0.532,0.224
		c-0.139,0.145-0.214,0.338-0.208,0.539c0.107,3.369,0.218,6.849,0.218,9.725v18.952c0,0.408,0.33,0.741,0.74,0.741h2.232
		c0.408,0,0.739-0.333,0.739-0.741V65.316c0-1.386,0.109-3.846,0.314-4.865c1.585-7.881,5.035-11.713,10.547-11.713
		c0.99,0,1.901,0.165,2.905,0.368c0.048,0.009,0.097,0.014,0.145,0.014c0.15,0,0.297-0.046,0.421-0.132
		c0.165-0.116,0.277-0.292,0.31-0.491l0.326-2.014C86.508,46.094,86.255,45.725,85.871,45.641"/>
	<path clip-path="url(#SVGID_7_)" fill="#FFFFFF" d="M177.638,47.25c-2.538-1.794-5.351-2.063-6.8-2.063
		c-2.94,0-5.71,0.923-7.904,2.522c-0.007,0.005-0.011,0.006-0.017,0.009c-1.015,0.655-2.654,0.92-2.646-0.631v-0.022
		c0.002-0.108-0.003-0.201-0.014-0.28l-0.008-0.183c-0.018-0.396-0.344-0.706-0.739-0.706h-2.125c-0.204,0-0.399,0.084-0.538,0.235
		c-0.142,0.149-0.214,0.348-0.199,0.554c0.153,2.306,0.217,4.216,0.217,6.595v22.057c0,0.408,0.33,0.74,0.739,0.74h2.232
		c0.408,0,0.74-0.332,0.74-0.74v-17.7c0-0.821,0.255-1.781,0.496-2.404c0.002-0.007,0.006-0.017,0.008-0.025
		c1.055-3.076,4.271-6.187,8.509-6.545c3.271,0.003,8.416,2.386,9.121,8.315c0.018,0.153,0.031,0.302,0.043,0.449
		c0.004,0.05,0.01,0.1,0.014,0.15c0.004,0.07,0.01,0.142,0.014,0.21c0.008,0.193,0.013,0.39,0.013,0.59
		c0,0.338,0.006,0.645,0.019,0.92v16.04c0,0.408,0.332,0.74,0.739,0.74h2.232c0.409,0,0.741-0.332,0.741-0.74V58.889
		C182.525,53.457,180.88,49.542,177.638,47.25"/>
	<path clip-path="url(#SVGID_7_)" fill="#FFFFFF" d="M251.702,72.867c-0.135-0.114-0.305-0.177-0.478-0.177
		c-0.04,0-0.081,0.003-0.121,0.011c-0.594,0.098-0.976,0.098-1.457,0.098c-1.162,0-2.203-0.338-2.203-4.432V58.345
		c0-2.369-0.181-5.425-1.6-8.057c-1.842-3.42-5.236-5.154-10.087-5.154c-2.501,0-6.284,0.522-10.099,3.006
		c-0.317,0.206-0.427,0.621-0.254,0.959l0.872,1.689c0.098,0.191,0.275,0.329,0.483,0.381c0.057,0.012,0.117,0.019,0.175,0.019
		c0.151,0,0.301-0.046,0.427-0.135c2.339-1.657,5.244-2.533,8.396-2.533c4.04,0,6.068,1.874,7.074,3.983c0.002,0,0.002,0,0.002,0
		c1.015,2.244-0.567,4.452-2.311,4.635c-0.084,0.003-0.171,0.007-0.255,0.012c-0.015,0-0.03,0.001-0.043,0
		c-0.058-0.001-0.104,0.003-0.147,0.009c-11.096,0.633-16.715,4.357-16.715,11.099c0,2.049,0.812,4.1,2.228,5.628
		c1.246,1.348,3.598,2.954,7.717,2.954c3.508,0,6.338-1.125,8.415-2.5c0.061-0.031,0.132-0.077,0.214-0.142
		c0.021-0.019,0.043-0.032,0.063-0.049c0.13-0.091,0.26-0.18,0.382-0.271c1.291-0.833,1.99-0.354,2.65,0.509
		c0.003,0.005,0.006,0.005,0.009,0.008c0.85,1.153,2.187,1.737,4.006,1.737c0.854,0,1.607-0.094,2.369-0.298
		c0.322-0.087,0.55-0.38,0.55-0.715v-1.688C251.965,73.214,251.868,73.008,251.702,72.867 M233.252,73.398
		c-3.074,0-6.177-1.741-6.177-5.631c0-4.916,6-6.651,12.298-7.121c2.347-0.044,4.142,2.186,4.358,4.626v0.999
		c-0.062,0.653-0.25,1.304-0.575,1.907c-0.162,0.268-0.357,0.563-0.594,0.876c-0.04,0.047-0.077,0.093-0.104,0.134
		C241.001,71.057,238.189,73.398,233.252,73.398"/>
	<path clip-path="url(#SVGID_7_)" fill="#FFFFFF" d="M216.912,45.896h-2.069c-0.397,0-0.725,0.313-0.739,0.709
		c-0.067,1.636-0.901,1.857-2.732,0.775c-0.01-0.006-0.018-0.014-0.027-0.02c-0.181-0.12-0.365-0.233-0.553-0.342
		c-0.011-0.008-0.02-0.014-0.029-0.022c-0.09-0.057-0.171-0.103-0.248-0.139c-2.005-1.108-4.354-1.67-6.998-1.67
		c-3.782,0-7.509,1.565-10.233,4.296c-2.104,2.111-4.613,5.89-4.613,11.912c0,3.86,1.361,7.493,3.832,10.231
		c2.623,2.905,6.304,4.506,10.36,4.506c3.145,0,5.574-0.829,7.414-1.918c0.003-0.001,0.007-0.003,0.013-0.004
		c1.974-0.884,3.642-2.205,3.167,2.258c-0.884,5.737-4.565,8.858-10.594,8.858c-4.219,0-7.389-1.42-9.303-2.612
		c-0.119-0.072-0.254-0.11-0.392-0.11c-0.061,0-0.123,0.007-0.184,0.022c-0.197,0.05-0.363,0.178-0.46,0.354l-0.982,1.743
		c-0.189,0.338-0.086,0.769,0.241,0.982c2.883,1.882,6.985,3.006,10.969,3.006c2.722,0,9.396-0.632,12.631-6.481
		c1.398-2.509,2.054-6.033,2.054-11.088V53.498c0-2.501,0.069-4.729,0.215-6.811c0.014-0.205-0.057-0.405-0.197-0.556
		C217.314,45.98,217.117,45.896,216.912,45.896 M199.837,72.204c-0.612-0.242-7.691-3.251-7.089-11.938
		c0.557-8.027,5.778-10.569,6.587-10.917c1.293-0.503,2.73-0.777,4.289-0.777c5.396,0,8.55,3.4,9.702,6.583
		c0.281,0.845,0.396,1.675,0.396,2.861v5.229c0,0.894-0.205,1.953-0.55,2.836c-1.604,3.981-5.485,6.663-9.657,6.663
		C202.157,72.746,200.936,72.551,199.837,72.204"/>
	<path clip-path="url(#SVGID_7_)" fill="#FFFFFF" d="M60.674,68.493v-36.74c0-0.415-0.336-0.752-0.752-0.752h-2.268
		c-0.415,0-0.752,0.337-0.752,0.752v11.435c0,0.978-0.897,4.216-3.652,2.91c-0.04-0.019-0.075-0.034-0.113-0.05
		c-1.741-0.839-3.866-1.381-6.384-1.381c-4.175,0-8.01,1.655-10.801,4.661c-2.831,3.051-4.391,7.322-4.391,12.027
		c0,8.787,6.199,15.414,14.418,15.414c3.305,0,5.961-0.874,8.003-2.17c0.057-0.031,0.118-0.067,0.183-0.112
		c0.011-0.008,0.02-0.013,0.028-0.019c0.004-0.003,0.006-0.004,0.01-0.006c1.602-1.088,3.111-1.667,3.111,0.024
		c0,0.056,0.003,0.108,0.007,0.156l0.024,0.682c0.014,0.405,0.347,0.725,0.751,0.725h2.047c0.21,0,0.408-0.087,0.551-0.239
		c0.141-0.152,0.214-0.356,0.2-0.564C60.747,73.13,60.674,70.92,60.674,68.493 M35.333,61.078c0-7.792,4.524-13.024,11.256-13.024
		c5.775,0,8.931,3.582,9.96,6.937c0.005,0.015,0.01,0.027,0.014,0.043c0.156,0.414,0.34,1.212,0.34,2.669v5.587
		c0,0.919-0.049,1.621-0.287,2.293c-0.007,0.019-0.013,0.038-0.018,0.056c-1.244,4.561-5.406,7.745-10.119,7.745
		C38.779,73.384,35.333,67.204,35.333,61.078"/>
</g>
</svg>
