<?xml version="1.0" encoding="utf-8"?>
<!-- Generator: Adobe Illustrator 14.0.0, SVG Export Plug-In . SVG Version: 6.00 Build 43363)  -->
<!DOCTYPE svg PUBLIC "-//W3C//DTD SVG 1.1//EN" "http://www.w3.org/Graphics/SVG/1.1/DTD/svg11.dtd">
<svg version="1.1" id="レイヤー_1" xmlns="http://www.w3.org/2000/svg" xmlns:xlink="http://www.w3.org/1999/xlink" x="0px"
	 y="0px" width="283.46px" height="113.39px" viewBox="0 0 283.46 113.39" enable-background="new 0 0 283.46 113.39"
	 xml:space="preserve">
<g>
	<defs>
		<rect id="SVGID_1_" y="0" width="283.46" height="113.39"/>
	</defs>
	<clipPath id="SVGID_2_">
		<use xlink:href="#SVGID_1_"  overflow="visible"/>
	</clipPath>
	<path clip-path="url(#SVGID_2_)" fill="none" stroke="#71C7D5" d="M258.201,65.267c-0.244-0.209-0.496-0.406-0.758-0.591v-6.331
		c0-3.267-0.29-8.15-2.796-12.8c-2.094-3.888-7.334-10.411-18.891-10.411h-77.661c-1.458-3.592-3.729-7.104-6.989-10.364
		c-5.565-5.565-12.809-8.629-20.395-8.629c-7.565,0-14.781,3.05-20.319,8.587c-1.824,1.823-3.393,3.889-4.669,6.129
		c-3.455,0.722-6.765,2.038-9.84,3.861H70.675v-2.965C70.675,25.825,65.852,21,59.923,21h-2.268
		c-5.929,0-10.752,4.824-10.752,10.752v2.914h-0.149c-6.987,0-13.426,2.79-18.131,7.859c-4.554,4.906-7.062,11.594-7.062,18.83
		c0,14.251,10.726,25.414,24.419,25.414c2.117,0,4.179-0.25,6.151-0.72h5.966l6.118,0.014v0.015h24.283
		c0.387,0.422,0.78,0.841,1.19,1.251c6.42,6.419,14.735,9.955,23.412,9.955h0.001c8.517,0,16.628-3.421,22.842-9.635
		c0.508-0.508,0.991-1.036,1.464-1.571h20.197h11.982h9.967h1.96c0.299,3.155,1.971,6.148,4.803,8.002
		c4.511,2.943,10.5,4.632,16.437,4.632c9.356,0,17.349-4.353,21.361-11.608c0.325-0.581,0.617-1.19,0.894-1.815
		c2.521,1.015,5.327,1.552,8.299,1.552c3.337,0,6.592-0.64,9.61-1.874c1.854,0.767,3.922,1.166,6.13,1.166
		c1.731,0,3.354-0.209,4.966-0.641c4.682-1.259,7.953-5.524,7.953-10.371v-1.689C261.965,70.274,260.584,67.291,258.201,65.267z"/>
</g>
</svg>
