<?xml version="1.0" encoding="utf-8"?>
<!-- Generator: Adobe Illustrator 14.0.0, SVG Export Plug-In . SVG Version: 6.00 Build 43363)  -->
<!DOCTYPE svg PUBLIC "-//W3C//DTD SVG 1.1//EN" "http://www.w3.org/Graphics/SVG/1.1/DTD/svg11.dtd">
<svg version="1.1" id="レイヤー_1" xmlns="http://www.w3.org/2000/svg" xmlns:xlink="http://www.w3.org/1999/xlink" x="0px"
	 y="0px" width="283.46px" height="113.39px" viewBox="0 0 283.46 113.39" enable-background="new 0 0 283.46 113.39"
	 xml:space="preserve">
<g>
	<path fill="#040000" d="M23.121,101.515c6.063,3.96,14.006,6.231,21.791,6.231c11.152,0,20.992-4.605,27.199-12.504h10.291
		c0.025,0.024,0.049,0.049,0.074,0.074c8.455,8.455,19.469,13.113,31.012,13.113c0.002,0,0.002,0,0.002,0
		c11.377,0,22.18-4.539,30.424-12.786c0.132-0.133,0.264-0.267,0.396-0.401h30.48c1.563,2.473,3.653,4.615,6.181,6.273
		c6.062,3.959,14.004,6.23,21.789,6.23c10.972,0,20.673-4.455,26.896-12.123c1.642,0.247,3.325,0.371,5.047,0.371
		c3.312,0,6.555-0.45,9.684-1.343c1.896,0.428,3.864,0.644,5.887,0.644c2.591,0,5.038-0.316,7.487-0.967
		c9.067-2.413,15.4-10.651,15.4-20.041l-0.001-1.846c-0.043-4.653-1.64-9.105-4.473-12.684V57.7c0-2.495,0-10.087-3.974-17.454
		c-5.343-9.925-15.397-15.617-27.587-15.617c-2.781,0-53.679,0.037-71.449,0.05c-1.702-2.702-3.746-5.251-6.116-7.623
		c-7.574-7.57-17.48-11.739-27.893-11.739c-10.396,0-20.273,4.154-27.813,11.693c-1.48,1.479-2.84,3.077-4.07,4.777
		c-2.387,0.755-4.713,1.723-6.959,2.896h-47.16c-9.016,0-17.867,3.691-24.277,10.122C14.676,41.53,10.98,50.733,10.98,60.719
		c0,5.75,1.389,11.384,3.988,16.377C11.76,85.971,14.982,96.188,23.121,101.515z"/>
	<g>
		<path fill="#FFFFFF" d="M87.551,45.131c-1.338-0.29-2.281-0.448-3.441-0.448c-2.848,0-5.33,0.831-7.393,2.468
			c-0.092,0.06-0.191,0.14-0.303,0.245c-0.23,0.197-0.453,0.406-0.67,0.621c-1.477,1.314-2.758,1.952-2.758-1.235v-0.666
			c0-0.404-0.328-0.732-0.732-0.732h-2.1c-0.201,0-0.389,0.081-0.527,0.223c-0.139,0.143-0.213,0.335-0.205,0.532
			c0.105,3.333,0.215,6.778,0.215,9.621v18.75c0,0.403,0.328,0.731,0.73,0.731h2.209c0.404,0,0.732-0.328,0.732-0.731v-9.914
			c0-1.37,0.107-3.806,0.311-4.813c1.568-7.796,4.982-11.587,10.436-11.587c0.979,0,1.879,0.165,2.873,0.363
			c0.047,0.011,0.096,0.015,0.143,0.015c0.148,0,0.295-0.045,0.418-0.131c0.162-0.113,0.273-0.288,0.307-0.484l0.322-1.994
			C88.18,45.581,87.93,45.212,87.551,45.131z"/>
		<path fill="#FFFFFF" d="M176.598,46.724c-2.514-1.774-5.295-2.04-6.729-2.04c-2.91,0-5.646,0.912-7.82,2.495
			c-0.006,0.004-0.012,0.005-0.016,0.009c-1.006,0.648-2.627,0.909-2.617-0.625v-0.021c0-0.107-0.004-0.199-0.014-0.277
			l-0.008-0.182c-0.02-0.391-0.342-0.698-0.732-0.698h-2.102c-0.201,0-0.396,0.084-0.533,0.232
			c-0.139,0.148-0.211,0.347-0.195,0.549c0.152,2.28,0.211,4.171,0.211,6.524v21.821c0,0.403,0.33,0.731,0.734,0.731h2.209
			c0.404,0,0.73-0.328,0.73-0.731V57c0-0.813,0.254-1.761,0.49-2.377c0.004-0.008,0.006-0.018,0.01-0.026
			c1.045-3.042,4.223-6.12,8.418-6.475c3.234,0.002,8.324,2.358,9.023,8.226c0.016,0.15,0.029,0.299,0.041,0.444
			c0.004,0.049,0.008,0.099,0.012,0.149c0.006,0.07,0.01,0.139,0.016,0.209c0.008,0.19,0.014,0.384,0.014,0.582
			c0,0.335,0.006,0.638,0.02,0.911v15.869c0,0.404,0.324,0.73,0.729,0.73h2.211c0.402,0,0.732-0.328,0.732-0.73V58.24
			C181.432,52.865,179.805,48.992,176.598,46.724z"/>
		<path fill="#FFFFFF" d="M252.82,72.065c-0.133-0.112-0.301-0.174-0.473-0.174c-0.039,0-0.08,0.003-0.119,0.01
			C251.641,72,251.266,72,250.785,72c-1.146,0-2.178-0.336-2.178-4.387V57.7c0-2.343-0.18-5.368-1.582-7.972
			c-1.824-3.382-5.182-5.098-9.98-5.098c-2.475,0-6.217,0.516-9.988,2.974c-0.314,0.205-0.424,0.615-0.252,0.949l0.861,1.67
			c0.098,0.189,0.271,0.326,0.479,0.375c0.059,0.014,0.117,0.021,0.174,0.021c0.15,0,0.297-0.047,0.422-0.135
			c2.314-1.639,5.189-2.504,8.307-2.504c3.994,0,6.004,1.854,7,3.939l0,0c1.002,2.221-0.563,4.404-2.285,4.584
			c-0.084,0.005-0.17,0.008-0.254,0.013c-0.016,0-0.027,0.001-0.043,0c-0.055-0.001-0.102,0.003-0.143,0.009
			c-10.979,0.626-16.537,4.313-16.537,10.979c0,2.027,0.801,4.058,2.201,5.57c1.234,1.332,3.559,2.92,7.637,2.92
			c3.471,0,6.27-1.111,8.324-2.472c0.061-0.03,0.131-0.075,0.211-0.142c0.021-0.016,0.043-0.03,0.064-0.047
			c0.127-0.088,0.256-0.178,0.377-0.269c1.275-0.825,1.969-0.351,2.623,0.504c0.002,0.003,0.006,0.005,0.008,0.007
			c0.838,1.141,2.162,1.719,3.963,1.719c0.846,0,1.59-0.094,2.342-0.295c0.322-0.084,0.545-0.375,0.545-0.707v-1.67
			C253.08,72.41,252.984,72.205,252.82,72.065z M234.568,72.593c-3.041,0-6.111-1.724-6.111-5.572c0-4.862,5.938-6.58,12.166-7.043
			c2.32-0.043,4.1,2.162,4.314,4.575v0.988c-0.064,0.647-0.246,1.289-0.57,1.889c-0.16,0.263-0.354,0.556-0.588,0.863
			c-0.039,0.047-0.076,0.094-0.104,0.135C242.234,70.275,239.453,72.593,234.568,72.593z"/>
		<path fill="#FFFFFF" d="M58.842,45.383h-2.049c-0.393,0-0.717,0.311-0.73,0.703c-0.066,1.618-0.893,1.836-2.703,0.766
			c-0.01-0.006-0.018-0.014-0.027-0.019c-0.178-0.119-0.361-0.231-0.545-0.339c-0.012-0.007-0.021-0.012-0.033-0.02
			c-0.086-0.059-0.17-0.104-0.244-0.14c-1.98-1.096-4.305-1.65-6.922-1.65c-3.738,0-7.43,1.548-10.123,4.25
			c-2.082,2.087-4.564,5.826-4.564,11.784c0,3.818,1.348,7.412,3.793,10.121c2.594,2.875,6.234,4.459,10.248,4.459
			c3.111,0,5.514-0.819,7.336-1.897c0.002-0.002,0.008-0.003,0.01-0.005c1.953-0.873,3.604-2.182,3.137,2.232
			c-0.875,5.678-4.518,8.765-10.482,8.765c-4.176,0-7.309-1.403-9.201-2.583c-0.119-0.072-0.254-0.109-0.389-0.109
			c-0.061,0-0.121,0.008-0.184,0.022c-0.191,0.049-0.355,0.176-0.455,0.351l-0.971,1.725c-0.188,0.336-0.084,0.761,0.238,0.972
			c2.852,1.863,6.908,2.976,10.854,2.976c2.689,0,9.293-0.625,12.494-6.412c1.385-2.481,2.029-5.969,2.029-10.969V52.909
			c0-2.474,0.07-4.679,0.215-6.738c0.014-0.202-0.055-0.402-0.195-0.549C59.236,45.469,59.043,45.383,58.842,45.383z M41.949,71.412
			c-0.605-0.24-7.607-3.217-7.016-11.812c0.555-7.946,5.725-10.459,6.52-10.798c1.279-0.5,2.701-0.769,4.24-0.769
			c1.666,0,3.113,0.327,4.354,0.873c6.85,3.871,7.697,16.453,0.887,21.466c-1.592,1-3.438,1.574-5.346,1.574
			C44.244,71.947,43.035,71.752,41.949,71.412z"/>
		<path fill="#FFFFFF" d="M216.688,45.383h-2.047c-0.393,0-0.715,0.311-0.73,0.703c-0.064,1.618-0.893,1.836-2.701,0.766
			c-0.012-0.005-0.02-0.014-0.027-0.019c-0.18-0.119-0.363-0.231-0.547-0.339c-0.012-0.008-0.021-0.014-0.031-0.02
			c-0.088-0.059-0.168-0.104-0.244-0.139c-1.982-1.097-4.307-1.651-6.924-1.651c-3.74,0-7.428,1.548-10.121,4.25
			c-2.082,2.087-4.564,5.826-4.564,11.784c0,3.818,1.348,7.412,3.791,10.121c2.598,2.875,6.232,4.459,10.248,4.459
			c3.111,0,5.516-0.819,7.336-1.897c0.004-0.002,0.008-0.003,0.012-0.005c1.953-0.874,3.602-2.184,3.135,2.232
			c-0.875,5.679-4.52,8.765-10.48,8.765c-4.176,0-7.311-1.403-9.203-2.583c-0.117-0.072-0.252-0.109-0.389-0.109
			c-0.061,0-0.123,0.008-0.182,0.022c-0.193,0.049-0.357,0.176-0.457,0.351l-0.967,1.725c-0.191,0.336-0.086,0.761,0.236,0.972
			c2.854,1.863,6.908,2.976,10.852,2.976c2.689,0,9.295-0.625,12.494-6.412c1.385-2.481,2.029-5.969,2.029-10.969V52.909
			c0-2.474,0.07-4.679,0.217-6.738c0.014-0.202-0.059-0.402-0.195-0.549C217.086,45.469,216.893,45.383,216.688,45.383z
			 M199.795,71.412c-0.604-0.24-7.605-3.217-7.01-11.812c0.549-7.94,5.715-10.455,6.518-10.798c1.275-0.5,2.697-0.769,4.24-0.769
			c1.662,0,3.111,0.327,4.354,0.873c6.846,3.871,7.697,16.453,0.883,21.466c-1.592,1-3.436,1.574-5.346,1.574
			C202.094,71.947,200.883,71.752,199.795,71.412z"/>
		
			<linearGradient id="SVGID_1_" gradientUnits="userSpaceOnUse" x1="399.498" y1="-94.9404" x2="399.498" y2="-159.9483" gradientTransform="matrix(1 0 0 -1 -279.2305 -69.2754)">
			<stop  offset="0" style="stop-color:#4A9ED8"/>
			<stop  offset="1" style="stop-color:#0C6BB0"/>
		</linearGradient>
		<path fill="url(#SVGID_1_)" d="M117.914,31.159c-2.338,2.336-4.109,5.342-5.031,8.654c-6.076-0.093-12.172,2.273-17.008,7.11
			c-8.143,8.141-10.674,22.914,0.668,34.253c9.541,9.543,23.793,9.688,33.145,0.332c4.422-4.424,7.236-10.506,7.297-16.939
			c3.141-0.835,6.125-2.507,8.67-5.049c6.957-6.959,9.086-18.919-0.311-28.318C137.51,23.372,125.717,23.354,117.914,31.159z
			 M143.535,51.581c-1.334,1.338-3.045,2.324-4.934,2.864c-3.025,0.867-4.654,0.777-5.695,2.515
			c-1.043,1.735-0.926,1.94-0.881,5.195c0.055,3.688-1.332,7.512-4.814,10.994c-5.318,5.318-15.139,6.504-22.365-0.721
			c-5.691-5.694-8.363-15.278-0.775-22.865c2.816-2.813,6.867-4.477,11.123-4.402c2.961,0.053,3.305,0.161,5.213-0.704
			c1.906-0.869,1.082-2.799,2.221-6.205c0.559-1.66,1.545-3.294,3.094-4.844c4.125-4.126,11.721-5.072,17.283,0.491
			C147.537,38.434,149.461,45.658,143.535,51.581z"/>
	</g>
</g>
</svg>
