<?xml version="1.0" encoding="utf-8"?>
<!-- Generator: Adobe Illustrator 14.0.0, SVG Export Plug-In . SVG Version: 6.00 Build 43363)  -->
<!DOCTYPE svg PUBLIC "-//W3C//DTD SVG 1.1//EN" "http://www.w3.org/Graphics/SVG/1.1/DTD/svg11.dtd">
<svg version="1.1" id="レイヤー_1" xmlns="http://www.w3.org/2000/svg" xmlns:xlink="http://www.w3.org/1999/xlink" x="0px"
	 y="0px" width="283.46px" height="113.39px" viewBox="0 0 283.46 113.39" enable-background="new 0 0 283.46 113.39"
	 xml:space="preserve">
<g>
	<path fill="#FFFFFF" d="M275.806,60.07v-2.058c0-2.494,0-10.082-3.976-17.46c-5.346-9.92-15.401-15.61-27.587-15.61
		c-1.79,0-64.858,0.045-71.388,0.049c-1.709-2.717-3.768-5.284-6.158-7.675c-7.574-7.57-17.48-11.74-27.894-11.74
		c-10.396,0-20.275,4.155-27.812,11.695c-1.48,1.479-2.84,3.075-4.067,4.773c-2.444,0.77-4.814,1.757-7.084,2.95H24
		c-11.819,0-20.731,9.535-20.731,22.179v27.649c0,11.431,9.3,20.731,20.732,20.731l65.59-0.002c0.008,0.008,0.017,0.017,0.024,0.024
		c8.455,8.456,19.469,13.113,31.013,13.113c11.377,0,22.18-4.539,30.417-12.779c0.117-0.118,0.235-0.237,0.353-0.36
		c15.978-0.004,25.173-0.01,30.504-0.017c1.564,2.479,3.661,4.629,6.197,6.296c6.062,3.957,14.001,6.226,21.781,6.226
		c10.978,0,20.68-4.456,26.896-12.121c1.642,0.247,3.324,0.372,5.045,0.372c3.313,0,6.557-0.451,9.686-1.344
		c1.896,0.428,3.863,0.643,5.885,0.643c2.6,0,5.043-0.314,7.438-0.953c9.097-2.396,15.449-10.641,15.449-20.048v-1.669
		C280.278,68.218,278.684,63.703,275.806,60.07z"/>
	<g>
		<path fill="#040000" d="M94.706,45.392c-1.336-0.291-2.281-0.448-3.442-0.448c-2.847,0-5.33,0.831-7.391,2.466
			c-0.091,0.062-0.192,0.14-0.303,0.247c-0.231,0.196-0.452,0.406-0.668,0.621c-1.479,1.313-2.761,1.951-2.761-1.236v-0.666
			c0-0.405-0.327-0.732-0.731-0.732h-2.102c-0.197,0-0.388,0.08-0.524,0.223c-0.14,0.142-0.212,0.334-0.206,0.532
			c0.104,3.332,0.215,6.777,0.215,9.621v18.749c0,0.405,0.328,0.731,0.731,0.731h2.21c0.403,0,0.731-0.326,0.731-0.731v-9.913
			c0-1.37,0.107-3.805,0.309-4.813c1.569-7.797,4.982-11.588,10.436-11.588c0.979,0,1.881,0.164,2.874,0.362
			c0.048,0.01,0.096,0.015,0.144,0.015c0.148,0,0.294-0.045,0.417-0.131c0.163-0.112,0.273-0.288,0.307-0.484l0.322-1.994
			C95.335,45.839,95.086,45.474,94.706,45.392z"/>
		<path fill="#040000" d="M183.753,46.983c-2.512-1.776-5.292-2.04-6.726-2.04c-2.91,0-5.648,0.912-7.822,2.495
			c-0.005,0.003-0.01,0.004-0.015,0.008c-1.004,0.649-2.627,0.91-2.617-0.625v-0.022c0.002-0.105-0.003-0.197-0.014-0.276
			l-0.008-0.182c-0.019-0.391-0.34-0.698-0.73-0.698h-2.103c-0.203,0-0.396,0.083-0.535,0.231c-0.138,0.148-0.209,0.347-0.194,0.55
			c0.151,2.28,0.214,4.171,0.214,6.524v21.82c0,0.405,0.328,0.731,0.73,0.731h2.209c0.404,0,0.732-0.326,0.732-0.731v-17.51
			c0-0.813,0.253-1.762,0.49-2.378c0.004-0.009,0.006-0.016,0.01-0.024c1.043-3.043,4.224-6.121,8.417-6.475
			c3.236,0.002,8.327,2.358,9.023,8.226c0.017,0.15,0.03,0.299,0.042,0.443c0.005,0.049,0.009,0.099,0.012,0.149
			c0.005,0.07,0.009,0.14,0.014,0.208c0.009,0.192,0.015,0.386,0.015,0.583c0,0.335,0.007,0.637,0.018,0.91v15.868
			c0,0.405,0.328,0.731,0.732,0.731h2.208c0.404,0,0.732-0.326,0.732-0.731V58.498C188.588,53.125,186.961,49.251,183.753,46.983z"
			/>
		<path fill="#040000" d="M259.977,72.325c-0.133-0.112-0.301-0.173-0.473-0.173c-0.04,0-0.08,0.003-0.12,0.01
			c-0.587,0.098-0.965,0.098-1.441,0.098c-1.147,0-2.178-0.336-2.178-4.387V57.96c0-2.343-0.179-5.368-1.583-7.971
			c-1.821-3.384-5.181-5.1-9.978-5.1c-2.476,0-6.217,0.516-9.99,2.975c-0.315,0.205-0.422,0.615-0.25,0.949l0.861,1.669
			c0.098,0.189,0.271,0.326,0.478,0.376c0.059,0.015,0.116,0.021,0.173,0.021c0.151,0,0.3-0.046,0.425-0.135
			c2.313-1.639,5.186-2.506,8.305-2.506c3.995,0,6.004,1.854,7,3.94l0,0c1.004,2.22-0.562,4.403-2.285,4.584
			c-0.085,0.004-0.17,0.008-0.254,0.013c-0.014-0.001-0.028,0.001-0.042,0c-0.055-0.001-0.102,0.001-0.144,0.009
			c-10.978,0.626-16.537,4.313-16.537,10.98c0,2.028,0.803,4.057,2.201,5.567c1.233,1.334,3.561,2.922,7.636,2.922
			c3.471,0,6.271-1.11,8.324-2.472c0.062-0.032,0.131-0.077,0.212-0.141c0.022-0.019,0.042-0.031,0.063-0.048
			c0.128-0.09,0.256-0.178,0.378-0.269c1.275-0.823,1.969-0.351,2.623,0.503c0.002,0.004,0.006,0.006,0.008,0.008
			c0.84,1.142,2.161,1.717,3.962,1.717c0.847,0,1.592-0.092,2.345-0.293c0.319-0.084,0.543-0.375,0.543-0.707v-1.67
			C260.236,72.67,260.141,72.465,259.977,72.325z M241.725,72.853c-3.042,0-6.11-1.722-6.11-5.572c0-4.862,5.936-6.58,12.167-7.043
			c2.319-0.043,4.097,2.161,4.311,4.575v0.988c-0.062,0.647-0.246,1.289-0.568,1.889c-0.161,0.266-0.355,0.557-0.589,0.865
			c-0.04,0.048-0.074,0.093-0.103,0.133C249.39,70.534,246.608,72.853,241.725,72.853z"/>
		<path fill="#040000" d="M223.845,45.645h-2.047c-0.393,0-0.716,0.31-0.731,0.703c-0.065,1.619-0.892,1.836-2.702,0.765
			c-0.01-0.005-0.019-0.013-0.027-0.02c-0.178-0.118-0.362-0.23-0.546-0.337c-0.011-0.008-0.021-0.014-0.031-0.021
			c-0.087-0.057-0.168-0.103-0.244-0.139c-1.981-1.096-4.307-1.65-6.924-1.65c-3.739,0-7.429,1.548-10.122,4.249
			c-2.082,2.087-4.563,5.827-4.563,11.784c0,3.818,1.346,7.413,3.792,10.121c2.595,2.875,6.233,4.458,10.248,4.458
			c3.11,0,5.514-0.819,7.335-1.896c0.004-0.002,0.007-0.003,0.012-0.005c1.954-0.875,3.603-2.184,3.135,2.232
			c-0.875,5.678-4.519,8.765-10.481,8.765c-4.176,0-7.311-1.405-9.204-2.584c-0.118-0.073-0.251-0.108-0.388-0.108
			c-0.06,0-0.122,0.006-0.182,0.022c-0.193,0.049-0.358,0.176-0.456,0.351l-0.97,1.724c-0.189,0.336-0.085,0.76,0.236,0.972
			c2.854,1.862,6.91,2.975,10.854,2.975c2.688,0,9.293-0.625,12.493-6.412c1.385-2.481,2.031-5.969,2.031-10.969V53.167
			c0-2.474,0.069-4.678,0.214-6.738c0.014-0.203-0.058-0.401-0.195-0.55C224.242,45.728,224.049,45.645,223.845,45.645z
			 M206.953,71.672c-0.605-0.24-7.609-3.217-7.014-11.813c0.552-7.939,5.717-10.454,6.518-10.798c1.278-0.5,2.701-0.768,4.242-0.768
			c1.665,0,3.112,0.327,4.354,0.873c6.845,3.871,7.696,16.452,0.884,21.466c-1.592,1-3.436,1.572-5.345,1.572
			C209.249,72.205,208.039,72.014,206.953,71.672z"/>
		
			<linearGradient id="SVGID_1_" gradientUnits="userSpaceOnUse" x1="406.6523" y1="-96.0244" x2="406.6523" y2="-158.0185" gradientTransform="matrix(1 0 0 -1 -279.2305 -69.2754)">
			<stop  offset="0" style="stop-color:#EFB65F"/>
			<stop  offset="1" style="stop-color:#F18F2A"/>
		</linearGradient>
		<path fill="url(#SVGID_1_)" d="M125.07,31.418c-2.338,2.337-4.109,5.343-5.032,8.655c-6.076-0.094-12.171,2.272-17.007,7.11
			c-8.143,8.141-10.675,22.912,0.667,34.253c9.542,9.543,23.793,9.687,33.145,0.334c4.421-4.425,7.237-10.507,7.297-16.94
			c3.141-0.837,6.125-2.508,8.67-5.05c6.956-6.959,9.086-18.919-0.311-28.318C144.666,23.631,132.873,23.614,125.07,31.418z
			 M150.691,51.841c-1.335,1.336-3.045,2.324-4.932,2.862c-3.027,0.868-4.657,0.778-5.698,2.515s-0.926,1.941-0.88,5.194
			c0.057,3.689-1.333,7.514-4.813,10.996c-5.32,5.318-15.141,6.504-22.366-0.722c-5.693-5.695-8.365-15.278-0.778-22.865
			c2.816-2.813,6.866-4.477,11.124-4.401c2.961,0.051,3.307,0.16,5.212-0.704c1.909-0.87,1.082-2.8,2.223-6.205
			c0.556-1.66,1.545-3.295,3.092-4.844c4.126-4.126,11.721-5.072,17.286,0.49C154.693,38.692,156.615,45.917,150.691,51.841z"/>
		<path fill="#040000" d="M55.852,44.943c-3.604,0-5.779,1.055-7.803,2.675c0,0.001-0.001,0.001-0.001,0.002
			c-2.14,1.482-3.267,1.373-5.033,0.007c-0.008-0.007-0.015-0.009-0.022-0.015c-1.786-1.704-4.111-2.669-6.696-2.669
			c-2.797,0-5.133,0.737-7.113,2.275c-0.042,0.029-0.085,0.062-0.129,0.102c-0.878,0.785-2.285,1.01-2.443-0.238l-0.016-0.316
			c0-0.087-0.002-0.167-0.011-0.234l-0.009-0.19c-0.02-0.391-0.341-0.697-0.732-0.697h-2.1c-0.204,0-0.397,0.083-0.536,0.232
			s-0.209,0.347-0.195,0.55c0.148,2.118,0.214,4.13,0.214,6.523v21.82c0,0.405,0.328,0.731,0.732,0.731h2.209
			c0.404,0,0.731-0.326,0.731-0.731V57.313c0-1.086,0.265-1.975,0.486-2.529c1.184-3.106,4.304-6.436,8.371-6.436
			c4.432,0,7.296,3.476,7.296,8.857V74.77c0,0.404,0.328,0.732,0.732,0.732h2.21c0.403,0,0.731-0.328,0.731-0.732V56.452
			c0-1.093,0.288-1.956,0.54-2.585c1.117-2.651,4.065-5.519,7.888-5.519c4.982,0,7.727,3.681,7.727,10.367V74.77
			c0,0.404,0.328,0.732,0.732,0.732h2.209c0.402,0,0.73-0.328,0.73-0.732V58.769C66.552,45.94,58.364,44.943,55.852,44.943z"/>
	</g>
</g>
</svg>
