<?xml version="1.0" encoding="utf-8"?>
<!-- Generator: Adobe Illustrator 14.0.0, SVG Export Plug-In . SVG Version: 6.00 Build 43363)  -->
<!DOCTYPE svg PUBLIC "-//W3C//DTD SVG 1.1//EN" "http://www.w3.org/Graphics/SVG/1.1/DTD/svg11.dtd">
<svg version="1.1" id="レイヤー_1" xmlns="http://www.w3.org/2000/svg" xmlns:xlink="http://www.w3.org/1999/xlink" x="0px"
	 y="0px" width="283.46px" height="113.39px" viewBox="0 0 283.46 113.39" enable-background="new 0 0 283.46 113.39"
	 xml:space="preserve">
<g>
	<path fill="#040000" d="M276.103,58.013c0-2.494,0-10.082-3.977-17.46c-5.346-9.92-15.4-15.61-27.586-15.61
		c-1.79,0-64.859,0.045-71.389,0.049c-1.709-2.718-3.768-5.284-6.158-7.675c-7.574-7.57-17.48-11.74-27.894-11.74
		c-10.395,0-20.273,4.155-27.811,11.695c-1.48,1.479-2.84,3.075-4.068,4.773c-2.443,0.77-4.813,1.757-7.084,2.95h-75.84
		c-11.818,0-20.732,9.535-20.732,22.179v27.649c0,11.431,9.301,20.731,20.732,20.731l65.59-0.002
		c0.008,0.008,0.018,0.017,0.025,0.025c8.455,8.455,19.469,13.112,31.012,13.112c11.377,0,22.181-4.539,30.417-12.779
		c0.117-0.118,0.235-0.237,0.354-0.36c15.977-0.004,25.172-0.01,30.504-0.017c1.564,2.479,3.661,4.629,6.196,6.296
		c6.063,3.957,14.002,6.226,21.782,6.226c10.977,0,20.679-4.456,26.896-12.121c1.642,0.247,3.324,0.372,5.045,0.372
		c3.313,0,6.557-0.451,9.685-1.344c1.896,0.428,3.863,0.643,5.886,0.643c2.6,0,5.043-0.314,7.438-0.953
		c9.097-2.396,15.449-10.641,15.449-20.048v-1.669c0-4.718-1.596-9.232-4.473-12.865V58.013z"/>
	<g>
		<path fill="#FFFFFF" d="M94.967,45.392c-1.338-0.291-2.281-0.448-3.441-0.448c-2.848,0-5.33,0.831-7.393,2.466
			c-0.092,0.062-0.191,0.14-0.303,0.247c-0.23,0.196-0.453,0.406-0.67,0.621c-1.477,1.313-2.758,1.951-2.758-1.236v-0.666
			c0-0.405-0.328-0.732-0.732-0.732h-2.1c-0.201,0-0.389,0.08-0.527,0.223c-0.139,0.142-0.213,0.334-0.205,0.532
			c0.105,3.332,0.215,6.777,0.215,9.621v18.749c0,0.405,0.328,0.731,0.73,0.731h2.209c0.404,0,0.732-0.326,0.732-0.731v-9.913
			c0-1.37,0.107-3.805,0.311-4.813c1.568-7.797,4.982-11.588,10.436-11.588c0.979,0,1.879,0.164,2.873,0.362
			c0.047,0.01,0.096,0.015,0.143,0.015c0.148,0,0.295-0.045,0.418-0.131c0.162-0.112,0.273-0.288,0.307-0.484l0.322-1.994
			C95.596,45.839,95.346,45.474,94.967,45.392z"/>
		<path fill="#FFFFFF" d="M184.013,46.983c-2.514-1.776-5.295-2.04-6.729-2.04c-2.91,0-5.646,0.912-7.82,2.495
			c-0.006,0.003-0.012,0.004-0.016,0.008c-1.006,0.649-2.627,0.91-2.617-0.625v-0.022c0-0.105-0.004-0.197-0.014-0.276l-0.008-0.182
			c-0.02-0.391-0.342-0.698-0.732-0.698h-2.102c-0.201,0-0.396,0.083-0.533,0.231c-0.139,0.148-0.211,0.347-0.195,0.55
			c0.152,2.28,0.211,4.171,0.211,6.524v21.82c0,0.405,0.33,0.731,0.734,0.731h2.209c0.404,0,0.73-0.326,0.73-0.731v-17.51
			c0-0.813,0.254-1.762,0.49-2.378c0.004-0.009,0.006-0.016,0.01-0.024c1.045-3.043,4.223-6.121,8.418-6.475
			c3.234,0.002,8.324,2.358,9.023,8.226c0.016,0.15,0.029,0.299,0.041,0.443c0.004,0.049,0.008,0.099,0.012,0.149
			c0.006,0.07,0.01,0.14,0.016,0.208c0.008,0.192,0.014,0.386,0.014,0.583c0,0.335,0.006,0.637,0.02,0.91v15.868
			c0,0.405,0.324,0.731,0.729,0.731h2.211c0.402,0,0.732-0.326,0.732-0.731V58.498C188.847,53.125,187.22,49.251,184.013,46.983z"/>
		<path fill="#FFFFFF" d="M260.235,72.325c-0.133-0.112-0.301-0.173-0.473-0.173c-0.039,0-0.08,0.003-0.119,0.01
			c-0.588,0.098-0.963,0.098-1.443,0.098c-1.146,0-2.178-0.336-2.178-4.387V57.96c0-2.343-0.18-5.368-1.582-7.971
			c-1.824-3.384-5.182-5.1-9.98-5.1c-2.475,0-6.217,0.516-9.988,2.975c-0.314,0.205-0.424,0.615-0.252,0.949l0.861,1.669
			c0.098,0.189,0.271,0.326,0.479,0.376c0.059,0.015,0.117,0.021,0.174,0.021c0.15,0,0.297-0.046,0.422-0.135
			c2.314-1.639,5.189-2.506,8.307-2.506c3.994,0,6.004,1.854,7,3.94l0,0c1.002,2.22-0.563,4.403-2.285,4.584
			c-0.084,0.004-0.17,0.008-0.254,0.013c-0.016-0.001-0.027,0.001-0.043,0c-0.055-0.001-0.102,0.001-0.143,0.009
			c-10.979,0.626-16.537,4.313-16.537,10.98c0,2.028,0.801,4.057,2.201,5.567c1.234,1.334,3.559,2.922,7.637,2.922
			c3.471,0,6.27-1.11,8.324-2.472c0.061-0.032,0.131-0.077,0.211-0.141c0.021-0.019,0.043-0.031,0.064-0.048
			c0.127-0.09,0.256-0.178,0.377-0.269c1.275-0.823,1.969-0.351,2.623,0.503c0.002,0.004,0.006,0.006,0.008,0.008
			c0.838,1.142,2.162,1.717,3.963,1.717c0.846,0,1.59-0.092,2.342-0.293c0.322-0.084,0.545-0.375,0.545-0.707v-1.67
			C260.495,72.67,260.399,72.465,260.235,72.325z M241.983,72.853c-3.041,0-6.111-1.722-6.111-5.572
			c0-4.862,5.938-6.58,12.166-7.043c2.32-0.043,4.1,2.161,4.314,4.575v0.988c-0.064,0.647-0.246,1.289-0.57,1.889
			c-0.16,0.266-0.354,0.557-0.588,0.865c-0.039,0.048-0.076,0.093-0.104,0.133C249.649,70.534,246.868,72.853,241.983,72.853z"/>
		<path fill="#FFFFFF" d="M224.103,45.645h-2.047c-0.393,0-0.715,0.31-0.73,0.703c-0.064,1.619-0.893,1.836-2.701,0.765
			c-0.012-0.005-0.02-0.013-0.027-0.02c-0.18-0.118-0.363-0.23-0.547-0.337c-0.012-0.008-0.021-0.014-0.031-0.021
			c-0.088-0.057-0.168-0.103-0.244-0.139c-1.982-1.096-4.307-1.65-6.924-1.65c-3.74,0-7.428,1.548-10.121,4.249
			c-2.082,2.087-4.564,5.827-4.564,11.784c0,3.818,1.348,7.413,3.791,10.121c2.598,2.875,6.232,4.458,10.248,4.458
			c3.111,0,5.516-0.819,7.336-1.896c0.004-0.002,0.008-0.003,0.012-0.005c1.953-0.875,3.602-2.184,3.135,2.232
			c-0.875,5.678-4.52,8.765-10.48,8.765c-4.176,0-7.311-1.405-9.203-2.584c-0.117-0.073-0.252-0.108-0.389-0.108
			c-0.061,0-0.123,0.006-0.182,0.022c-0.193,0.049-0.357,0.176-0.457,0.351l-0.967,1.724c-0.191,0.336-0.086,0.76,0.236,0.972
			c2.854,1.862,6.908,2.975,10.852,2.975c2.689,0,9.295-0.625,12.494-6.412c1.385-2.481,2.029-5.969,2.029-10.969V53.167
			c0-2.474,0.07-4.678,0.217-6.738c0.014-0.203-0.059-0.401-0.195-0.55C224.503,45.729,224.308,45.645,224.103,45.645z
			 M207.21,71.672c-0.604-0.24-7.605-3.217-7.01-11.813c0.549-7.939,5.715-10.454,6.518-10.798c1.275-0.5,2.697-0.768,4.24-0.768
			c1.662,0,3.111,0.327,4.354,0.873c6.846,3.871,7.697,16.452,0.883,21.466c-1.592,1-3.436,1.572-5.346,1.572
			C209.509,72.205,208.298,72.014,207.21,71.672z"/>
		
			<linearGradient id="SVGID_1_" gradientUnits="userSpaceOnUse" x1="406.9287" y1="-92.7485" x2="406.9287" y2="-161.7566" gradientTransform="matrix(1 0 0 -1 -279.2305 -69.2754)">
			<stop  offset="0" style="stop-color:#EFB65F"/>
			<stop  offset="1" style="stop-color:#F18F2A"/>
		</linearGradient>
		<path fill="url(#SVGID_1_)" d="M125.346,31.366c-2.338,2.337-4.109,5.343-5.031,8.655c-6.076-0.094-12.172,2.272-17.008,7.11
			c-8.143,8.141-10.674,22.912,0.668,34.253c9.543,9.543,23.793,9.687,33.145,0.334c4.421-4.424,7.235-10.508,7.296-16.941
			c3.141-0.836,6.125-2.507,8.67-5.049c6.957-6.959,9.086-18.919-0.311-28.318C144.94,23.58,133.148,23.563,125.346,31.366z
			 M150.968,51.79c-1.336,1.336-3.047,2.324-4.936,2.862c-3.025,0.868-4.654,0.778-5.695,2.515
			c-1.043,1.736-0.926,1.941-0.881,5.194c0.057,3.688-1.331,7.515-4.812,10.996c-5.32,5.317-15.139,6.504-22.367-0.722
			c-5.691-5.695-8.363-15.278-0.775-22.865c2.816-2.813,6.867-4.477,11.123-4.401c2.961,0.051,3.307,0.16,5.213-0.704
			c1.906-0.87,1.082-2.8,2.223-6.205c0.557-1.66,1.543-3.295,3.092-4.844c4.125-4.126,11.72-5.072,17.284,0.49
			C154.968,38.639,156.892,45.865,150.968,51.79z"/>
		<path fill="#FFFFFF" d="M56.113,44.943c-3.604,0-5.781,1.055-7.803,2.675c-0.002,0.001-0.002,0.001-0.002,0.002
			c-2.141,1.482-3.268,1.373-5.031,0.007c-0.01-0.007-0.018-0.009-0.025-0.015c-1.785-1.704-4.109-2.669-6.695-2.669
			c-2.797,0-5.131,0.737-7.113,2.275c-0.041,0.029-0.086,0.062-0.129,0.102c-0.877,0.785-2.285,1.01-2.443-0.238l-0.018-0.316
			c0.002-0.087-0.002-0.167-0.01-0.234l-0.01-0.19c-0.018-0.391-0.34-0.697-0.73-0.697h-2.102c-0.205,0-0.396,0.083-0.535,0.232
			s-0.209,0.347-0.195,0.55c0.148,2.118,0.215,4.13,0.215,6.523v21.82c0,0.405,0.328,0.731,0.73,0.731h2.211
			c0.402,0,0.73-0.326,0.73-0.731V57.313c0-1.086,0.266-1.975,0.486-2.529c1.184-3.106,4.305-6.436,8.373-6.436
			c4.43,0,7.295,3.476,7.295,8.857V74.77c0,0.404,0.328,0.732,0.73,0.732h2.211c0.402,0,0.73-0.328,0.73-0.732V56.452
			c0-1.093,0.289-1.956,0.541-2.585c1.117-2.651,4.063-5.519,7.887-5.519c4.982,0,7.727,3.681,7.727,10.367V74.77
			c0,0.404,0.326,0.732,0.732,0.732h2.209c0.404,0,0.732-0.328,0.732-0.732V58.769C66.813,45.94,58.623,44.943,56.113,44.943z"/>
	</g>
</g>
</svg>
