<?xml version="1.0" encoding="utf-8"?>
<!-- Generator: Adobe Illustrator 14.0.0, SVG Export Plug-In . SVG Version: 6.00 Build 43363)  -->
<!DOCTYPE svg PUBLIC "-//W3C//DTD SVG 1.1//EN" "http://www.w3.org/Graphics/SVG/1.1/DTD/svg11.dtd">
<svg version="1.1" id="レイヤー_1" xmlns="http://www.w3.org/2000/svg" xmlns:xlink="http://www.w3.org/1999/xlink" x="0px"
	 y="0px" width="306.142px" height="113.391px" viewBox="-10.841 0 306.142 113.391"
	 enable-background="new -10.841 0 306.142 113.391" xml:space="preserve">
<path id="pgroonga_3_" fill="none" stroke="#71C6D4" d="M278.45,62.943c-0.222-0.188-0.45-0.367-0.686-0.535v-6.209
	c0-3.246-0.288-8.096-2.778-12.713c-2.083-3.868-7.293-10.357-18.782-10.357c-3.372,0-77.503,0.055-77.503,0.055
	c-1.49-3.658-3.813-7.234-7.132-10.555c-5.685-5.682-13.08-8.812-20.824-8.812c-7.724,0-15.091,3.114-20.743,8.767
	c-1.896,1.896-3.524,4.049-4.842,6.387c-3.742,0.766-7.329,2.194-10.636,4.213L13.862,33.178c-2.925,0-5.759,1.921-7.797,4.062
	c-2.029,2.143-3.095,5.062-2.925,7.958c0.136,2.537,0.199,5.247,0.199,8.53v31.139c0,5.921,4.816,10.737,10.737,10.737h2.209
	c5.922,0,10.739-4.816,10.739-10.737v-0.418c0.155,0.003,0.312,0.004,0.468,0.004c5.75,0,11.107-1.845,15.383-5.237
	c-0.007,0.144,0,0-0.007,0.144c-0.056,1.16-0.047,2.83-0.044,3.321c0,0.167-0.003,0.335,0.005,0.502
	c0.007,0.128,0.023,0.256,0.034,0.384c0.017,0.194,0.032,0.388,0.06,0.58c0.017,0.114,0.039,0.227,0.06,0.341
	c0.035,0.205,0.073,0.41,0.12,0.613c0.024,0.102,0.053,0.202,0.079,0.304c0.057,0.213,0.117,0.426,0.187,0.636
	c0.03,0.089,0.063,0.178,0.095,0.267c0.079,0.22,0.164,0.437,0.257,0.65c0.034,0.077,0.068,0.153,0.104,0.229
	c0.104,0.225,0.216,0.445,0.336,0.663c0.034,0.063,0.068,0.125,0.104,0.188c0.132,0.229,0.274,0.454,0.424,0.675
	c0.031,0.046,0.062,0.093,0.094,0.139c0.167,0.237,0.345,0.469,0.532,0.693c0.021,0.025,0.042,0.052,0.063,0.077
	c0.648,0.765,1.409,1.453,2.287,2.027c4.479,2.926,10.43,4.604,16.325,4.604v-0.006c9.295,0,17.236-4.326,21.228-11.541
	c0.174-0.312,0.327-0.641,0.486-0.963h20.219c0.841,1.033,1.738,2.038,2.704,3.004c6.565,6.566,15.067,10.184,23.939,10.184h0.001
	c8.705,0,16.997-3.498,23.349-9.853c1.051-1.052,2.02-2.171,2.922-3.335h41.018c0.29,0,0.576-0.012,0.86-0.033
	c0.315,3.129,1.991,6.09,4.801,7.935c4.479,2.925,10.428,4.603,16.321,4.603c9.296,0,17.237-4.326,21.226-11.539
	c0.416-0.746,0.791-1.526,1.127-2.346c2.837,1.396,6.098,2.133,9.59,2.133c3.302,0,6.521-0.629,9.507-1.844
	c1.838,0.752,3.881,1.145,6.063,1.145c1.713,0,3.321-0.207,4.916-0.631c4.693-1.248,7.972-5.514,7.972-10.371v-1.762
	C282.208,67.908,280.827,64.959,278.45,62.943z"/>
</svg>
