<?xml version="1.0" encoding="utf-8"?>
<!-- Generator: Adobe Illustrator 14.0.0, SVG Export Plug-In . SVG Version: 6.00 Build 43363)  -->
<!DOCTYPE svg PUBLIC "-//W3C//DTD SVG 1.1//EN" "http://www.w3.org/Graphics/SVG/1.1/DTD/svg11.dtd">
<svg version="1.1" id="レイヤー_1" xmlns="http://www.w3.org/2000/svg" xmlns:xlink="http://www.w3.org/1999/xlink" x="0px"
	 y="0px" width="306.142px" height="113.391px" viewBox="-10.841 0 306.142 113.391"
	 enable-background="new -10.841 0 306.142 113.391" xml:space="preserve">
<g id="pgroonga_2_">
	<path fill="#FFFFFF" d="M292.156,70.939c-0.043-4.652-1.64-9.104-4.473-12.681v-2.06c0-2.494,0-10.086-3.975-17.455
		c-5.344-9.924-15.398-15.615-27.586-15.615c-2.78,0-53.678,0.037-71.448,0.051c-1.702-2.703-3.747-5.252-6.117-7.623
		c-7.573-7.57-17.479-11.739-27.894-11.739c-10.395,0-20.271,4.153-27.813,11.694c-1.48,1.479-2.84,3.076-4.068,4.775
		c-2.389,0.756-4.714,1.724-6.961,2.896h-97.76c-5.604,0-11.313,3.192-15.223,7.295c-3.888,4.107-5.928,9.7-5.603,15.246
		c0.126,2.357,0.185,4.901,0.185,8.004v31.139c0,11.345,9.23,20.574,20.574,20.574h2.209c8.259,0,15.396-4.891,18.668-11.927
		c0.28-0.06,0.555-0.137,0.83-0.208c1.563,2.621,3.711,4.938,6.416,6.708c6.063,3.96,14.004,6.231,21.791,6.231
		c11.148,0,20.986-4.603,27.197-12.504H101.4c0.024,0.024,0.049,0.049,0.074,0.074c8.454,8.455,19.468,13.113,31.012,13.113l0,0
		c11.377,0,22.182-4.539,30.423-12.785c0.133-0.133,0.266-0.268,0.397-0.402h30.48c1.563,2.472,3.654,4.615,6.181,6.274
		c6.063,3.958,14.004,6.229,21.789,6.229c10.973,0,20.674-4.457,26.896-12.123c1.642,0.247,3.325,0.371,5.047,0.371
		c3.312,0,6.555-0.45,9.684-1.343c1.896,0.428,3.865,0.644,5.887,0.644c2.592,0,5.04-0.316,7.487-0.967
		c9.067-2.412,15.4-10.651,15.4-20.037L292.156,70.939z"/>
	<g>
		<path d="M106.625,43.631c-1.336-0.289-2.281-0.447-3.441-0.447c-2.848,0-5.33,0.831-7.391,2.468
			c-0.092,0.06-0.193,0.14-0.303,0.245c-0.232,0.197-0.453,0.406-0.668,0.621c-1.479,1.314-2.762,1.952-2.762-1.234v-0.666
			c0-0.404-0.326-0.732-0.73-0.732h-2.102c-0.197,0-0.389,0.08-0.525,0.223c-0.139,0.143-0.211,0.335-0.205,0.532
			c0.104,3.333,0.215,6.778,0.215,9.621v18.75c0,0.403,0.328,0.731,0.73,0.731h2.211c0.402,0,0.73-0.328,0.73-0.731v-9.914
			c0-1.37,0.107-3.806,0.309-4.813c1.57-7.797,4.982-11.588,10.436-11.588c0.979,0,1.881,0.165,2.875,0.363
			c0.047,0.011,0.096,0.016,0.143,0.016c0.148,0,0.295-0.045,0.418-0.132c0.162-0.112,0.273-0.288,0.307-0.483l0.322-1.994
			C107.255,44.08,107.005,43.713,106.625,43.631z"/>
		<path d="M195.671,45.223c-2.512-1.774-5.292-2.04-6.726-2.04c-2.91,0-5.648,0.912-7.822,2.495
			c-0.005,0.004-0.01,0.005-0.015,0.009c-1.004,0.648-2.627,0.909-2.617-0.625v-0.021c0.002-0.106-0.003-0.198-0.014-0.276
			l-0.008-0.183c-0.019-0.391-0.34-0.697-0.73-0.697h-2.103c-0.203,0-0.396,0.084-0.535,0.232c-0.138,0.147-0.209,0.346-0.194,0.549
			c0.151,2.279,0.214,4.17,0.214,6.523V73.01c0,0.403,0.328,0.731,0.73,0.731h2.209c0.404,0,0.732-0.328,0.732-0.731V55.5
			c0-0.813,0.253-1.762,0.49-2.377c0.004-0.008,0.006-0.019,0.01-0.026c1.043-3.042,4.224-6.12,8.417-6.476
			c3.236,0.002,8.327,2.358,9.023,8.227c0.017,0.15,0.03,0.299,0.042,0.443c0.005,0.049,0.009,0.1,0.012,0.149
			c0.005,0.07,0.009,0.14,0.014,0.209c0.009,0.19,0.015,0.384,0.015,0.582c0,0.335,0.007,0.638,0.018,0.911v15.869
			c0,0.404,0.328,0.73,0.732,0.73h2.208c0.404,0,0.732-0.328,0.732-0.73V56.74C200.506,51.365,198.879,47.492,195.671,45.223z"/>
		<path d="M271.895,70.565c-0.133-0.112-0.301-0.174-0.473-0.174c-0.04,0-0.08,0.003-0.12,0.01
			c-0.587,0.099-0.965,0.099-1.441,0.099c-1.147,0-2.178-0.336-2.178-4.387v-9.914c0-2.343-0.179-5.367-1.583-7.972
			c-1.821-3.382-5.181-5.099-9.978-5.099c-2.476,0-6.217,0.517-9.99,2.975c-0.315,0.205-0.422,0.615-0.25,0.949l0.861,1.67
			c0.098,0.189,0.271,0.326,0.478,0.375c0.059,0.014,0.116,0.021,0.173,0.021c0.151,0,0.3-0.047,0.425-0.136
			c2.313-1.639,5.186-2.504,8.305-2.504c3.995,0,6.004,1.854,7,3.938l0,0c1.004,2.222-0.562,4.404-2.285,4.584
			c-0.085,0.006-0.17,0.009-0.254,0.014c-0.014,0-0.028,0.001-0.042,0c-0.055-0.001-0.102,0.003-0.144,0.009
			c-10.978,0.626-16.537,4.313-16.537,10.979c0,2.027,0.803,4.058,2.201,5.57c1.233,1.332,3.561,2.92,7.636,2.92
			c3.471,0,6.271-1.111,8.324-2.472c0.062-0.03,0.131-0.075,0.212-0.142c0.022-0.016,0.042-0.03,0.063-0.047
			c0.128-0.088,0.256-0.178,0.378-0.269c1.275-0.825,1.969-0.351,2.623,0.504c0.002,0.003,0.006,0.005,0.008,0.007
			c0.84,1.141,2.161,1.719,3.962,1.719c0.847,0,1.592-0.094,2.345-0.295c0.319-0.084,0.543-0.375,0.543-0.707v-1.67
			C272.155,70.91,272.059,70.705,271.895,70.565z M253.643,71.093c-3.042,0-6.11-1.724-6.11-5.572c0-4.862,5.936-6.58,12.167-7.043
			c2.319-0.043,4.097,2.162,4.311,4.575v0.988c-0.062,0.647-0.246,1.289-0.568,1.889c-0.161,0.263-0.355,0.556-0.589,0.863
			c-0.04,0.047-0.074,0.094-0.103,0.135C261.308,68.775,258.527,71.093,253.643,71.093z"/>
		<path d="M77.916,43.883h-2.047c-0.393,0-0.715,0.312-0.73,0.703c-0.064,1.619-0.893,1.836-2.705,0.767
			c-0.01-0.006-0.018-0.015-0.025-0.019c-0.178-0.119-0.361-0.231-0.545-0.34c-0.012-0.006-0.021-0.012-0.031-0.02
			c-0.088-0.059-0.17-0.104-0.246-0.141c-1.982-1.096-4.305-1.649-6.922-1.649c-3.74,0-7.43,1.548-10.123,4.25
			c-2.082,2.087-4.564,5.826-4.564,11.784c0,3.818,1.348,7.412,3.793,10.121c2.594,2.875,6.234,4.459,10.248,4.459
			c3.111,0,5.516-0.819,7.334-1.897c0.004-0.002,0.008-0.003,0.014-0.005c1.951-0.873,3.6-2.182,3.135,2.232
			c-0.875,5.678-4.52,8.765-10.482,8.765c-4.176,0-7.311-1.403-9.205-2.583c-0.115-0.072-0.25-0.109-0.387-0.109
			c-0.061,0-0.121,0.008-0.182,0.022c-0.193,0.049-0.357,0.176-0.455,0.351l-0.969,1.725c-0.189,0.336-0.086,0.761,0.236,0.972
			c2.852,1.863,6.908,2.976,10.854,2.976c2.689,0,9.293-0.625,12.494-6.412c1.383-2.481,2.029-5.969,2.029-10.969V51.408
			c0-2.474,0.07-4.679,0.213-6.738c0.016-0.201-0.057-0.401-0.193-0.549C78.312,43.969,78.119,43.883,77.916,43.883z M61.023,69.912
			c-0.604-0.24-7.607-3.217-7.012-11.812c0.551-7.946,5.723-10.459,6.518-10.798c1.277-0.5,2.699-0.77,4.24-0.77
			c1.664,0,3.113,0.327,4.355,0.873c6.846,3.871,7.695,16.453,0.885,21.467c-1.592,1-3.438,1.574-5.346,1.574
			C63.322,70.447,62.111,70.252,61.023,69.912z"/>
		<path d="M235.763,43.883h-2.047c-0.393,0-0.716,0.312-0.731,0.703c-0.065,1.619-0.892,1.836-2.702,0.767
			c-0.01-0.005-0.019-0.015-0.027-0.019c-0.178-0.119-0.362-0.231-0.546-0.34c-0.011-0.008-0.021-0.014-0.031-0.02
			c-0.087-0.059-0.168-0.104-0.244-0.139c-1.981-1.098-4.307-1.651-6.924-1.651c-3.739,0-7.429,1.548-10.122,4.25
			c-2.082,2.087-4.563,5.826-4.563,11.784c0,3.818,1.346,7.412,3.792,10.121c2.595,2.875,6.233,4.459,10.248,4.459
			c3.11,0,5.514-0.819,7.335-1.897c0.004-0.002,0.007-0.003,0.012-0.005c1.954-0.874,3.603-2.184,3.135,2.232
			c-0.875,5.679-4.519,8.765-10.481,8.765c-4.176,0-7.311-1.403-9.204-2.583c-0.118-0.072-0.251-0.109-0.388-0.109
			c-0.06,0-0.122,0.008-0.182,0.022c-0.193,0.049-0.358,0.176-0.456,0.351l-0.97,1.725c-0.189,0.336-0.085,0.761,0.236,0.972
			c2.854,1.863,6.91,2.976,10.854,2.976c2.688,0,9.293-0.625,12.493-6.412c1.385-2.481,2.031-5.969,2.031-10.969V51.408
			c0-2.474,0.069-4.679,0.214-6.738c0.014-0.201-0.058-0.401-0.195-0.549C236.161,43.969,235.967,43.883,235.763,43.883z
			 M218.872,69.912c-0.605-0.24-7.609-3.217-7.014-11.812c0.552-7.94,5.717-10.455,6.518-10.798c1.278-0.5,2.701-0.77,4.242-0.77
			c1.665,0,3.112,0.327,4.354,0.873c6.845,3.871,7.696,16.453,0.884,21.467c-1.592,1-3.436,1.574-5.345,1.574
			C221.167,70.447,219.958,70.252,218.872,69.912z"/>
		
			<linearGradient id="SVGID_1_" gradientUnits="userSpaceOnUse" x1="418.5718" y1="-93.406" x2="418.5718" y2="-154.4304" gradientTransform="matrix(1 0 0 -1 -279.2305 -70.8853)">
			<stop  offset="0" style="stop-color:#5795C6"/>
			<stop  offset="1" style="stop-color:#0B3F63"/>
		</linearGradient>
		<path fill="url(#SVGID_1_)" d="M136.99,29.658c-2.338,2.336-4.109,5.342-5.033,8.654c-6.076-0.093-12.17,2.273-17.006,7.109
			c-8.143,8.142-10.676,22.914,0.666,34.254c9.543,9.543,23.793,9.688,33.145,0.332c4.422-4.424,7.236-10.506,7.297-16.939
			c3.141-0.835,6.125-2.507,8.67-5.049c6.956-6.959,9.086-18.919-0.311-28.318C156.585,21.871,144.792,21.854,136.99,29.658z
			 M162.61,50.08c-1.335,1.338-3.045,2.324-4.932,2.864c-3.026,0.867-4.657,0.777-5.698,2.515c-1.041,1.735-0.926,1.94-0.879,5.195
			c0.057,3.688-1.334,7.512-4.813,10.994c-5.32,5.318-15.141,6.504-22.367-0.721c-5.693-5.694-8.365-15.278-0.777-22.865
			c2.816-2.813,6.865-4.477,11.123-4.402c2.961,0.053,3.307,0.162,5.213-0.703c1.908-0.869,1.082-2.799,2.223-6.205
			c0.555-1.66,1.545-3.295,3.092-4.844c4.125-4.127,11.721-5.072,17.284,0.49C166.612,36.933,168.534,44.158,162.61,50.08z"/>
		<path d="M28.058,43.19c-2.914,0-5.5,0.671-7.686,1.991c-0.525,0.318-1.027,0.676-1.5,1.068c-1.113,1.113-2.127,2.432-2.127,0.062
			c0-0.817-0.078-1.722-0.078-1.722c-0.018-0.39-0.34-0.697-0.73-0.697h-2.156c-0.201,0-0.393,0.081-0.531,0.227
			c-0.139,0.146-0.211,0.343-0.199,0.543c0.146,2.73,0.215,5.611,0.215,9.066v31.139c0,0.404,0.326,0.731,0.73,0.731h2.209
			c0.404,0,0.732-0.327,0.732-0.731c0,0,0-9.742,0-11.516s0.604-2.513,2.086-1.485c2.326,1.61,5.17,2.581,8.389,2.581
			c4.086,0,7.805-1.507,10.469-4.242c2.863-2.938,4.377-7.089,4.377-12.007c0-4.005-1.338-7.725-3.766-10.471
			C35.867,44.76,32.259,43.19,28.058,43.19z M27.412,71.151c-4.727,0-9.069-3.237-10.172-7.206c-1.104-3.969-0.402-7.971,0.203-9.89
			c1.453-4.598,5.514-7.569,10.346-7.569c7.088,0,10.797,5.946,10.797,11.821C38.585,66.23,34.304,71.151,27.412,71.151z"/>
	</g>
</g>
</svg>
