<?xml version="1.0" encoding="utf-8"?>
<!-- Generator: Adobe Illustrator 14.0.0, SVG Export Plug-In . SVG Version: 6.00 Build 43363)  -->
<!DOCTYPE svg PUBLIC "-//W3C//DTD SVG 1.1//EN" "http://www.w3.org/Graphics/SVG/1.1/DTD/svg11.dtd">
<svg version="1.1" id="レイヤー_1" xmlns="http://www.w3.org/2000/svg" xmlns:xlink="http://www.w3.org/1999/xlink" x="0px"
	 y="0px" width="283.46px" height="113.39px" viewBox="0 0 283.46 113.39" enable-background="new 0 0 283.46 113.39"
	 xml:space="preserve">
<g>
	<path fill="#FFFFFF" d="M262.049,57.377c0-2.491,0-10.071-3.979-17.464c-5.35-9.918-15.403-15.606-27.584-15.606
		c-1.792,0-64.905,0.045-71.438,0.049c-1.703-2.698-3.75-5.247-6.125-7.622c-7.574-7.57-17.481-11.739-27.896-11.739
		c-10.394,0-20.272,4.155-27.819,11.701c-1.477,1.478-2.834,3.073-4.061,4.77c-2.388,0.755-4.714,1.722-6.959,2.895H37.541
		c-11.696,0-20.516,9.377-20.516,21.811v28.018c0,11.432,9.301,20.731,20.732,20.731h38.008c0.024,0.024,0.048,0.049,0.072,0.072
		c8.455,8.456,19.469,13.114,31.013,13.115h0.003c11.375,0,22.178-4.539,30.421-12.783c0.132-0.132,0.264-0.267,0.396-0.404
		l30.452-0.003c1.568,2.481,3.671,4.626,6.209,6.273c6.064,3.96,14.007,6.231,21.79,6.231c10.975,0,20.676-4.456,26.895-12.121
		c1.642,0.248,3.325,0.372,5.047,0.372c3.309,0,6.551-0.45,9.68-1.342c1.896,0.427,3.866,0.643,5.891,0.643
		c2.611,0,5.069-0.319,7.494-0.972c9.063-2.416,15.393-10.653,15.393-20.03v-1.672c0-4.704-1.592-9.216-4.473-12.856V57.377z"/>
	<g>
		<path fill="#040000" d="M80.952,44.81c-1.336-0.292-2.281-0.45-3.442-0.45c-2.847,0-5.33,0.832-7.391,2.467
			c-0.091,0.063-0.192,0.143-0.303,0.247c-0.231,0.197-0.452,0.405-0.668,0.621c-1.479,1.313-2.761,1.95-2.761-1.234v-0.666
			c0-0.404-0.327-0.733-0.731-0.733h-2.102c-0.197,0-0.388,0.081-0.524,0.223c-0.14,0.144-0.212,0.336-0.206,0.533
			c0.104,3.333,0.215,6.778,0.215,9.622v18.749c0,0.403,0.328,0.731,0.731,0.731h2.21c0.403,0,0.731-0.328,0.731-0.731v-9.913
			c0-1.371,0.107-3.805,0.309-4.813c1.569-7.798,4.982-11.59,10.436-11.59c0.979,0,1.881,0.164,2.874,0.363
			c0.048,0.011,0.096,0.014,0.144,0.014c0.148,0,0.294-0.043,0.417-0.129c0.163-0.113,0.273-0.288,0.307-0.485l0.322-1.993
			C81.582,45.256,81.333,44.89,80.952,44.81z"/>
		<path fill="#040000" d="M54.9,44.81c-1.338-0.292-2.281-0.45-3.442-0.45c-2.847,0-5.33,0.832-7.391,2.467
			c-0.093,0.063-0.192,0.143-0.304,0.247c-0.23,0.197-0.452,0.405-0.668,0.621c-1.478,1.313-2.759,1.95-2.759-1.234v-0.666
			c0-0.404-0.327-0.733-0.732-0.733h-2.101c-0.198,0-0.388,0.081-0.526,0.223c-0.138,0.144-0.212,0.336-0.205,0.533
			c0.104,3.333,0.215,6.778,0.215,9.622v18.749c0,0.403,0.327,0.731,0.731,0.731h2.209c0.404,0,0.732-0.328,0.732-0.731v-9.913
			c0-1.371,0.106-3.805,0.309-4.813c1.569-7.798,4.983-11.59,10.436-11.59c0.979,0,1.881,0.164,2.874,0.363
			c0.048,0.011,0.096,0.014,0.144,0.014c0.148,0,0.294-0.043,0.417-0.129c0.163-0.113,0.273-0.288,0.306-0.485l0.323-1.993
			C55.529,45.256,55.28,44.89,54.9,44.81z"/>
		<path fill="#040000" d="M169.998,46.4c-2.512-1.774-5.292-2.041-6.726-2.041c-2.91,0-5.648,0.913-7.822,2.496
			c-0.005,0.003-0.01,0.003-0.015,0.007c-1.004,0.649-2.627,0.911-2.617-0.624v-0.021c0.002-0.107-0.003-0.198-0.014-0.278
			l-0.008-0.181c-0.019-0.392-0.34-0.699-0.73-0.699h-2.103c-0.203,0-0.396,0.086-0.535,0.232c-0.138,0.147-0.209,0.348-0.194,0.549
			c0.151,2.282,0.214,4.17,0.214,6.525v21.819c0,0.403,0.328,0.731,0.73,0.731h2.209c0.404,0,0.732-0.328,0.732-0.731v-17.51
			c0-0.815,0.253-1.763,0.49-2.378c0.004-0.01,0.006-0.017,0.01-0.026c1.043-3.042,4.224-6.118,8.417-6.474
			c3.236,0,8.327,2.357,9.023,8.226c0.017,0.15,0.03,0.299,0.042,0.443c0.005,0.05,0.009,0.099,0.012,0.147
			c0.005,0.07,0.009,0.141,0.014,0.209c0.009,0.19,0.015,0.387,0.015,0.584c0,0.332,0.007,0.637,0.018,0.909v15.868
			c0,0.403,0.328,0.731,0.732,0.731h2.208c0.404,0,0.732-0.328,0.732-0.731V57.914C174.833,52.542,173.206,48.668,169.998,46.4z"/>
		<path fill="#040000" d="M246.222,71.741c-0.133-0.11-0.301-0.173-0.473-0.173c-0.04,0-0.08,0.005-0.12,0.011
			c-0.587,0.097-0.965,0.097-1.441,0.097c-1.147,0-2.178-0.334-2.178-4.386v-9.913c0-2.345-0.179-5.367-1.583-7.972
			c-1.821-3.384-5.181-5.099-9.978-5.099c-2.476,0-6.217,0.516-9.99,2.974c-0.315,0.205-0.422,0.614-0.25,0.949l0.861,1.67
			c0.098,0.188,0.271,0.325,0.478,0.377c0.059,0.014,0.116,0.02,0.173,0.02c0.151,0,0.3-0.046,0.425-0.133
			c2.313-1.641,5.186-2.507,8.305-2.507c3.995,0,6.004,1.854,7,3.939c0,0,0,0,0,0.002c1.004,2.219-0.562,4.402-2.285,4.584
			c-0.085,0.005-0.17,0.006-0.254,0.012c-0.014,0-0.028,0-0.042,0c-0.055-0.002-0.102,0.002-0.144,0.01
			c-10.978,0.628-16.537,4.312-16.537,10.979c0,2.028,0.803,4.057,2.201,5.569c1.233,1.332,3.561,2.92,7.636,2.92
			c3.471,0,6.271-1.111,8.324-2.472c0.062-0.032,0.131-0.076,0.212-0.142c0.022-0.017,0.042-0.029,0.063-0.047
			c0.128-0.09,0.256-0.18,0.378-0.269c1.275-0.825,1.969-0.352,2.623,0.502c0.002,0.005,0.006,0.006,0.008,0.008
			c0.84,1.143,2.161,1.72,3.962,1.72c0.847,0,1.592-0.094,2.345-0.296c0.319-0.086,0.543-0.374,0.543-0.706v-1.672
			C246.481,72.084,246.386,71.882,246.222,71.741z M227.97,72.271c-3.042,0-6.11-1.725-6.11-5.573c0-4.861,5.936-6.58,12.167-7.043
			c2.319-0.043,4.097,2.161,4.311,4.575v0.988c-0.062,0.646-0.246,1.289-0.568,1.889c-0.161,0.264-0.355,0.557-0.589,0.864
			c-0.04,0.048-0.074,0.092-0.103,0.134C235.635,69.953,232.854,72.271,227.97,72.271z"/>
		<path fill="#040000" d="M210.09,45.06h-2.047c-0.393,0-0.716,0.31-0.731,0.704c-0.065,1.617-0.892,1.835-2.702,0.766
			c-0.01-0.008-0.019-0.013-0.027-0.021c-0.178-0.118-0.362-0.229-0.546-0.339c-0.011-0.005-0.021-0.012-0.031-0.02
			c-0.087-0.059-0.168-0.102-0.244-0.139c-1.981-1.097-4.307-1.652-6.924-1.652c-3.739,0-7.429,1.549-10.122,4.249
			c-2.082,2.089-4.563,5.828-4.563,11.785c0,3.816,1.346,7.414,3.792,10.122c2.595,2.873,6.233,4.458,10.248,4.458
			c3.11,0,5.514-0.822,7.335-1.898c0.004,0,0.007-0.003,0.012-0.004c1.954-0.874,3.603-2.182,3.135,2.233
			c-0.875,5.677-4.519,8.764-10.481,8.764c-4.176,0-7.311-1.405-9.204-2.583c-0.118-0.072-0.251-0.11-0.388-0.11
			c-0.06,0-0.122,0.008-0.182,0.021c-0.193,0.051-0.358,0.177-0.456,0.352l-0.97,1.725c-0.189,0.335-0.085,0.763,0.236,0.972
			c2.854,1.864,6.91,2.977,10.854,2.977c2.688,0,9.293-0.624,12.493-6.413c1.385-2.482,2.031-5.968,2.031-10.968V52.584
			c0-2.477,0.069-4.68,0.214-6.738c0.014-0.203-0.058-0.401-0.195-0.55C210.487,45.146,210.294,45.06,210.09,45.06z M193.198,71.088
			c-0.605-0.24-7.609-3.216-7.014-11.813c0.552-7.938,5.717-10.454,6.518-10.796c1.278-0.501,2.701-0.77,4.242-0.77
			c1.665,0,3.112,0.327,4.354,0.871c6.845,3.873,7.696,16.453,0.884,21.469c-1.592,1-3.436,1.573-5.345,1.573
			C195.494,71.623,194.284,71.43,193.198,71.088z"/>
		
			<linearGradient id="SVGID_1_" gradientUnits="userSpaceOnUse" x1="392.8984" y1="-93.25" x2="392.8984" y2="-156.0603" gradientTransform="matrix(1 0 0 -1 -279.2305 -69.2754)">
			<stop  offset="0" style="stop-color:#A31F24"/>
			<stop  offset="1" style="stop-color:#6F1418"/>
		</linearGradient>
		<path fill="url(#SVGID_1_)" d="M111.316,30.834c-2.338,2.339-4.109,5.342-5.032,8.656c-6.076-0.094-12.171,2.271-17.007,7.109
			c-8.143,8.141-10.675,22.911,0.667,34.251c9.542,9.545,23.793,9.688,33.145,0.336c4.421-4.424,7.236-10.507,7.297-16.939
			c3.141-0.837,6.125-2.509,8.669-5.05c6.956-6.959,9.086-18.919-0.311-28.317C130.912,23.05,119.119,23.031,111.316,30.834z
			 M136.937,51.257c-1.335,1.339-3.045,2.324-4.932,2.864c-3.027,0.867-4.657,0.775-5.698,2.515
			c-1.041,1.736-0.926,1.941-0.88,5.193c0.057,3.688-1.333,7.515-4.813,10.995c-5.32,5.317-15.141,6.505-22.366-0.722
			c-5.693-5.692-8.365-15.278-0.778-22.864c2.816-2.813,6.866-4.479,11.124-4.402c2.961,0.053,3.307,0.161,5.212-0.703
			c1.909-0.868,1.082-2.799,2.223-6.205c0.556-1.66,1.545-3.294,3.092-4.844c4.126-4.125,11.721-5.071,17.285,0.49
			C140.938,38.109,142.86,45.335,136.937,51.257z"/>
	</g>
</g>
</svg>
